<svg width="407" height="164" viewBox="0 0 407 164" fill="none" xmlns="http://www.w3.org/2000/svg">
<g clip-path="url(#clip0_661_10145)">
<g clip-path="url(#clip1_661_10145)">
<g clip-path="url(#clip2_661_10145)">
<path opacity="0.2" d="M32.2554 26.0311H81.3036C83.8143 37.1399 76.1992 43.7232 72.0778 45.6263L87.5502 81.644H78.1653V101.175C75.6546 110.914 65.4515 111.659 60.6637 110.813V122.988H13.2321C18.305 111.828 17.0367 100.245 15.7685 95.8481C2.5789 79.8177 0.127006 68.708 0.549755 65.1569C0.549755 35.5312 21.6868 26.729 32.2554 26.0311Z" fill="#FFC310"/>
<path d="M68.3555 61.1616L193.482 122.992H335.577C362.269 122.992 383.907 101.354 383.907 74.6621C383.907 47.9701 362.269 26.332 335.577 26.332H154.578L68.3555 61.1616Z" fill="#FFC310"/>
<path d="M335.345 40.3262L328.845 32.9023L322.344 40.3262H326.253V50.6953H331.435V40.3262H335.345Z" fill="white"/>
<path fill-rule="evenodd" clip-rule="evenodd" d="M245.734 154.799V123H246.736V154.799H245.734Z" fill="#FFDD9D"/>
<path opacity="0.5" fill-rule="evenodd" clip-rule="evenodd" d="M245.734 122.998V55.6133H246.736V122.998H245.734Z" fill="white"/>
<path fill-rule="evenodd" clip-rule="evenodd" d="M239.258 147.145H349.521V148.146H239.258V147.145Z" fill="#FFDD9D"/>
<path d="M252.766 77.7695H271.541V124.054H252.766V77.7695Z" fill="#FFDD9D"/>
<path d="M284.668 94.8086H303.443V124.049H284.668V94.8086Z" fill="#FFC310"/>
<path d="M316.568 61.293H335.343V124.052H316.568V61.293Z" fill="#DEAA0F"/>
<path d="M252.766 122.996H271.541V140.752H252.766V122.996Z" fill="#FFDD9D"/>
<path d="M284.668 122.996H303.443V140.752H284.668V122.996Z" fill="#FFDD9D"/>
<path d="M316.568 122.996H335.343V140.752H316.568V122.996Z" fill="#DEAA0F"/>
<path fill-rule="evenodd" clip-rule="evenodd" d="M326.368 67.943L294.372 103.914L261.508 83.9965L262.028 83.1398L294.178 102.625L325.62 67.2773L326.368 67.943Z" fill="white"/>
<path d="M263.177 83.7281C263.177 84.3956 262.636 84.9367 261.969 84.9367C261.301 84.9367 260.76 84.3956 260.76 83.7281C260.76 83.0606 261.301 82.5195 261.969 82.5195C262.636 82.5195 263.177 83.0606 263.177 83.7281Z" fill="#FFC310"/>
<path d="M295.519 102.896C295.519 103.703 294.863 104.358 294.056 104.358C293.249 104.358 292.594 103.703 292.594 102.896C292.594 102.088 293.249 101.434 294.056 101.434C294.863 101.434 295.519 102.088 295.519 102.896Z" fill="#FFC310"/>
<path d="M327.422 67.6106C327.422 68.418 326.768 69.0726 325.96 69.0726C325.153 69.0726 324.498 68.418 324.498 67.6106C324.498 66.803 325.153 66.1484 325.96 66.1484C326.768 66.1484 327.422 66.803 327.422 67.6106Z" fill="#FFC310"/>
<path d="M161.093 63.9301C161.093 63.9301 149.311 77.7705 134.777 77.7705C120.243 77.7705 108.461 63.9301 108.461 63.9301C108.461 63.9301 120.243 50.0898 134.777 50.0898C149.311 50.0898 161.093 63.9301 161.093 63.9301Z" fill="#FFDD9D"/>
<path d="M143.741 63.9281C143.741 68.8785 139.727 72.8916 134.777 72.8916C129.827 72.8916 125.814 68.8785 125.814 63.9281C125.814 58.9779 129.827 54.9648 134.777 54.9648C139.727 54.9648 143.741 58.9779 143.741 63.9281Z" fill="white"/>
<path d="M138.017 63.9283C138.017 65.7159 136.567 67.165 134.78 67.165C132.992 67.165 131.543 65.7159 131.543 63.9283C131.543 62.1406 132.992 60.6914 134.78 60.6914C136.567 60.6914 138.017 62.1406 138.017 63.9283Z" fill="#FFC310"/>
<path fill-rule="evenodd" clip-rule="evenodd" d="M231.865 8.375H263.673V24.2792H262.671V9.37665H232.867V24.2792H231.865V8.375Z" fill="#FFC310"/>
<path fill-rule="evenodd" clip-rule="evenodd" d="M231.865 40.1815H263.673V24.2773H262.671V39.1799H232.867V24.2773H231.865V40.1815Z" fill="#FFDD9D"/>
<path fill-rule="evenodd" clip-rule="evenodd" d="M237.98 34.0643H257.555V24.2773H256.553V33.0627H238.982V24.2773H237.98V34.0643Z" fill="#DEAA0F"/>
<path fill-rule="evenodd" clip-rule="evenodd" d="M237.98 14.4922H257.555V24.2791H256.553V15.4938H238.982V24.2791H237.98V14.4922Z" fill="#FFC310"/>
<path fill-rule="evenodd" clip-rule="evenodd" d="M243.936 28.1158H251.605V24.2812H250.604V27.1141H244.937V24.2812H243.936V28.1158Z" fill="#FFC310"/>
<path fill-rule="evenodd" clip-rule="evenodd" d="M243.936 20.4453H251.605V24.2798H250.604V21.447H244.937V24.2798H243.936V20.4453Z" fill="#FFC310"/>
<path d="M291.054 62.8571C283.532 62.8571 277.434 56.7592 277.434 49.2371C277.434 41.7151 283.532 35.6172 291.054 35.6172V49.2371H304.674C304.674 56.7592 298.576 62.8571 291.054 62.8571Z" fill="#FFDD9D"/>
<path d="M293.949 46.3049H305.945C305.945 36.3937 297.96 34.1546 293.949 34.274V46.3049Z" fill="#FFC310"/>
<path d="M220.561 44.5195V52.6059H175.352V44.5195H220.561Z" fill="#FFC310"/>
<path fill-rule="evenodd" clip-rule="evenodd" d="M175.352 48.4102H220.561V48.7107H175.352V48.4102Z" fill="#DEAA0F"/>
<path d="M220.561 52.6055V60.6919H175.352V52.6055H220.561Z" fill="#DEAA0F"/>
<path d="M220.561 52.6056V60.6905L235.484 52.6055L220.561 52.6056Z" fill="#FFDD9D"/>
<path d="M220.561 52.6045V44.5195L235.484 52.6045H220.561Z" fill="white"/>
<path d="M235.484 52.605H228.021V48.5625L235.484 52.605Z" fill="#DEAA0F"/>
<path d="M235.484 52.6055L228.021 52.6056V56.648L235.484 52.6055Z" fill="#232323"/>
<path fill-rule="evenodd" clip-rule="evenodd" d="M175.352 56.4961H220.561V56.7966H175.352V56.4961Z" fill="#FFC310"/>
<path fill-rule="evenodd" clip-rule="evenodd" d="M231.859 103.539H223.289V112.109H231.859V103.539ZM231.358 104.394L224.144 111.608H231.358V104.394ZM223.79 111.254L231.004 104.04H223.79V111.254Z" fill="#FFDD9D"/>
<path fill-rule="evenodd" clip-rule="evenodd" d="M231.859 95.8516H223.289V104.422H231.859V95.8516ZM231.358 96.7066L224.144 103.921H231.358V96.7066ZM223.79 103.567L231.004 96.3524H223.79V103.567Z" fill="#FFDD9D"/>
<path fill-rule="evenodd" clip-rule="evenodd" d="M231.859 111.508H223.289V120.078H231.859V111.508ZM231.358 112.362L224.144 119.577H231.358V112.362ZM223.79 119.223L231.004 112.009H223.79V119.223Z" fill="#FFDD9D"/>
<path fill-rule="evenodd" clip-rule="evenodd" d="M224.035 111.508H215.465V120.078H224.035V111.508ZM223.534 112.362L216.319 119.577H223.534V112.362ZM215.966 119.223L223.18 112.009H215.966V119.223Z" fill="#FFDD9D"/>
<path fill-rule="evenodd" clip-rule="evenodd" d="M239.764 103.539H231.193V112.109H239.764V103.539ZM239.263 104.394L232.048 111.608H239.263V104.394ZM231.694 111.254L238.908 104.04H231.694V111.254Z" fill="#FFDD9D"/>
<path fill-rule="evenodd" clip-rule="evenodd" d="M239.764 111.508H231.193V120.078H239.764V111.508ZM239.263 112.362L232.048 119.577H239.263V112.362ZM231.694 119.223L238.908 112.009H231.694V119.223Z" fill="#FFDD9D"/>
<path fill-rule="evenodd" clip-rule="evenodd" d="M179.825 75.1484C180.863 74.4007 182.094 74.1562 182.923 74.1562H196.935C198.859 74.1562 200.031 74.9941 200.666 76.0888C201.271 77.1315 201.362 78.3538 201.268 79.175V102.573C201.268 104.934 200.246 106.331 198.914 107.063C197.85 107.646 196.632 107.784 195.676 107.726C195.565 111.232 194.399 113.423 192.88 114.709C191.298 116.05 189.403 116.347 188.122 116.208C187.906 116.184 187.73 116.023 187.687 115.809C187.644 115.595 187.744 115.378 187.934 115.272C188.033 115.216 188.183 115.077 188.365 114.824C188.541 114.58 188.718 114.274 188.888 113.937C189.227 113.266 189.515 112.524 189.673 112.048C189.76 111.786 190.044 111.644 190.306 111.732C190.568 111.819 190.711 112.102 190.623 112.365C190.453 112.875 190.149 113.665 189.782 114.39C189.639 114.671 189.484 114.951 189.319 115.202C190.236 115.095 191.301 114.735 192.232 113.945C193.554 112.826 194.683 110.783 194.683 107.171C194.683 107.024 194.747 106.885 194.859 106.79C194.97 106.695 195.117 106.653 195.261 106.676C196.121 106.811 197.395 106.754 198.432 106.184C199.426 105.639 200.266 104.59 200.266 102.573V79.1455C200.266 79.1253 200.267 79.105 200.269 79.0849C200.352 78.4101 200.272 77.406 199.8 76.5917C199.35 75.8163 198.515 75.1579 196.935 75.1579H182.923C182.255 75.1579 181.242 75.3624 180.41 75.9612C179.604 76.5416 178.935 77.5134 178.935 79.1455V89.3266C178.935 89.6032 178.711 89.8274 178.434 89.8274C178.158 89.8274 177.934 89.6032 177.934 89.3266V79.1455C177.934 77.187 178.761 75.9145 179.825 75.1484Z" fill="white"/>
<path d="M166.48 120.209V82.9648H171.596C173.197 82.9648 174.818 83.0986 176.3 83.703C184.17 86.9132 185.34 95.1724 184.86 99.214L189.287 110.783H184.86C185.888 117.181 181.479 119.733 179.146 120.209H166.48Z" fill="#7755FF"/>
<path fill-rule="evenodd" clip-rule="evenodd" d="M178.304 111.767C178.575 111.715 178.837 111.894 178.888 112.166C179.027 112.907 180.421 115.022 185.538 115.022C185.814 115.022 186.039 115.246 186.039 115.523C186.039 115.8 185.814 116.024 185.538 116.024C180.206 116.024 178.173 113.786 177.903 112.351C177.852 112.079 178.031 111.817 178.304 111.767Z" fill="white"/>
<path d="M182.648 82.9648H196.824V84.697H182.648V82.9648Z" fill="#DEAA0F"/>
<path d="M190.506 87.1211H196.825V88.7969H190.506V87.1211Z" fill="#DEAA0F"/>
<path fill-rule="evenodd" clip-rule="evenodd" d="M379.708 114.784C393.538 114.784 404.749 103.573 404.749 89.7426C404.749 75.9125 393.538 64.7009 379.708 64.7009C365.877 64.7009 354.666 75.9125 354.666 89.7426C354.666 103.573 365.877 114.784 379.708 114.784ZM379.708 115.786C394.091 115.786 405.751 104.126 405.751 89.7426C405.751 75.3593 394.091 63.6992 379.708 63.6992C365.324 63.6992 353.664 75.3593 353.664 89.7426C353.664 104.126 365.324 115.786 379.708 115.786Z" fill="#DEAA0F"/>
<path fill-rule="evenodd" clip-rule="evenodd" d="M379.709 106.799C389.128 106.799 396.764 99.1635 396.764 89.7442C396.764 80.325 389.128 72.6892 379.709 72.6892C370.29 72.6892 362.654 80.325 362.654 89.7442C362.654 99.1635 370.29 106.799 379.709 106.799ZM379.709 107.801C389.682 107.801 397.766 99.7167 397.766 89.7442C397.766 79.7718 389.682 71.6875 379.709 71.6875C369.737 71.6875 361.652 79.7718 361.652 89.7442C361.652 99.7167 369.737 107.801 379.709 107.801Z" fill="#FFC310"/>
<path fill-rule="evenodd" clip-rule="evenodd" d="M379.708 98.1165C384.332 98.1165 388.081 94.3674 388.081 89.7427C388.081 85.1179 384.332 81.3688 379.708 81.3688C375.083 81.3688 371.334 85.1179 371.334 89.7427C371.334 94.3674 375.083 98.1165 379.708 98.1165ZM379.708 99.1182C384.885 99.1182 389.083 94.9206 389.083 89.7427C389.083 84.5647 384.885 80.3672 379.708 80.3672C374.529 80.3672 370.332 84.5647 370.332 89.7427C370.332 94.9206 374.529 99.1182 379.708 99.1182Z" fill="#FFDD9D"/>
</g>
</g>
</g>
<defs>
<clipPath id="clip0_661_10145">
<rect width="406.097" height="163.99" fill="white" transform="translate(0.505859)"/>
</clipPath>
<clipPath id="clip1_661_10145">
<rect width="405.67" height="163.99" fill="white" transform="translate(0.505859)"/>
</clipPath>
<clipPath id="clip2_661_10145">
<rect width="405.67" height="147.243" fill="white" transform="translate(0.505859 8.375)"/>
</clipPath>
</defs>
</svg>
