<svg width="362" height="204" viewBox="0 0 362 204" fill="none" xmlns="http://www.w3.org/2000/svg">
<g clip-path="url(#clip0_661_10204)">
<g clip-path="url(#clip1_661_10204)">
<path d="M255.704 156.121H39.9302C29.9953 156.121 21.9414 164.175 21.9414 174.11C21.9414 184.045 29.9953 192.099 39.9302 192.099H255.704C265.639 192.099 273.692 184.045 273.692 174.11C273.692 164.175 265.639 156.121 255.704 156.121Z" fill="#FFC310"/>
<path opacity="0.5" d="M255.575 164.738H82.4141M255.575 173.645H82.4141M255.575 183.48H82.4141" stroke="white" stroke-width="1.00006"/>
<path d="M43.5234 153.867L80.1557 83.7618L80.1556 153.867L80.1557 179.359H67.4141L43.5234 153.867Z" fill="#FFDD9D"/>
<path d="M116.789 153.867L80.1562 83.7618L80.1564 153.867L80.1562 179.359H92.898L116.789 153.867Z" fill="#FFC310"/>
<path d="M78.5625 80.5743H81.7477V147.492H78.5625V80.5743Z" fill="#DEAA0F"/>
<path d="M85.5254 152.272C85.5254 155.239 83.1208 157.644 80.1553 157.644C77.1899 157.644 74.7852 155.239 74.7852 152.272C74.7852 149.304 77.1899 146.899 80.1553 146.899C83.1208 146.899 85.5254 149.304 85.5254 152.272Z" stroke="#DEAA0F" stroke-width="2.00011"/>
<path d="M62.6426 179.356H80.1614V192.101H62.6426V179.356Z" fill="white"/>
<path d="M80.1562 179.356H97.675V192.101H80.1562V179.356Z" fill="#FFDD9D"/>
<path d="M88.4766 179.512H90.2746V192.103H88.4766V179.512Z" fill="#FFC310"/>
<path d="M70.4961 179.512H72.2941V192.103H70.4961V179.512Z" fill="#FFC310"/>
<path d="M255.71 188.505C263.655 188.505 270.096 182.062 270.096 174.114C270.096 166.166 263.655 159.723 255.71 159.723C247.765 159.723 241.324 166.166 241.324 174.114C241.324 182.062 247.765 188.505 255.71 188.505Z" fill="white"/>
<path d="M18.3432 152.527C21.3223 152.527 23.7373 150.111 23.7373 147.131C23.7373 144.151 21.3223 141.734 18.3432 141.734C15.3642 141.734 12.9492 144.151 12.9492 147.131C12.9492 150.111 15.3642 152.527 18.3432 152.527Z" fill="#FFC310"/>
<path d="M31.8279 129.139C33.3174 129.139 34.5249 127.931 34.5249 126.44C34.5249 124.95 33.3174 123.742 31.8279 123.742C30.3384 123.742 29.1309 124.95 29.1309 126.44C29.1309 127.931 30.3384 129.139 31.8279 129.139Z" fill="#FFC310"/>
<path d="M137.028 48.1876L142.75 58.6535L153.212 64.3775L142.75 70.1014L137.028 80.5673L131.305 70.1014L120.844 64.3775L131.305 58.6535L137.028 48.1876Z" fill="#FFC310"/>
<path d="M142.745 58.6574L137.023 48.1915V80.5712L142.745 70.1053L153.207 64.3813L142.745 58.6574Z" fill="#DEAA0F"/>
<path d="M120.843 84.1681L117.664 89.9822L111.852 93.162L117.664 96.3418L120.843 102.156L124.021 96.3418L129.833 93.162L124.021 89.9822L120.843 84.1681Z" fill="#FFC310"/>
<path d="M117.663 89.9822L120.842 84.1681V102.156L117.663 96.3418L111.852 93.162L117.663 89.9822Z" fill="#DEAA0F"/>
<path d="M248.979 96.0198C269.196 96.0198 285.585 79.6248 285.585 59.4006C285.585 39.1764 269.196 22.7814 248.979 22.7814C228.762 22.7814 212.373 39.1764 212.373 59.4006C212.373 79.6248 228.762 96.0198 248.979 96.0198Z" fill="#FFC310"/>
<path d="M208.418 51.1651C212.964 28.755 234.81 14.2754 257.212 18.8239" stroke="#FFDD9D" stroke-width="0.500028"/>
<path d="M282.233 56.3361C282.233 60.3207 281.597 64.1567 280.421 67.7479M245.627 92.9553C259.68 92.9553 271.882 85.0341 278.018 73.4117" stroke="white" stroke-width="0.500028"/>
<path d="M274.325 30.4376C259.679 32.5111 228.079 46.1666 218.848 84.2005" stroke="#DEAA0F" stroke-width="1.00006"/>
<path d="M279.122 35.3048C277.05 49.9561 263.399 81.5673 225.379 90.802" stroke="#DEAA0F" stroke-width="1.00006"/>
<path d="M135.727 131.364H149.752V145.396H135.727V131.364Z" fill="white" stroke="#DEAA0F" stroke-width="1.00006"/>
<path d="M204.508 131.363H218.534V145.396H204.508V131.363Z" fill="white" stroke="#DEAA0F" stroke-width="1.00006"/>
<path d="M211.962 130.86C211.962 111.618 196.37 96.0197 177.136 96.0197C157.901 96.0197 142.309 111.618 142.309 130.86" stroke="#FFC310" stroke-width="1.00006" stroke-dasharray="4 4"/>
<path d="M170.121 89.004H184.147V103.036H170.121V89.004Z" fill="white" stroke="#DEAA0F" stroke-width="1.00006"/>
<path d="M191.658 132.453C191.658 140.479 185.154 146.987 177.13 146.987C169.106 146.987 162.602 140.479 162.602 132.453C162.602 124.425 169.106 117.918 177.13 117.918C185.154 117.918 191.658 124.425 191.658 132.453Z" stroke="#DEAA0F" stroke-width="1.00006"/>
<path d="M187.051 132.455C187.051 137.935 182.61 142.378 177.13 142.378C171.652 142.378 167.211 137.935 167.211 132.455C167.211 126.974 171.652 122.531 177.13 122.531C182.61 122.531 187.051 126.974 187.051 132.455Z" stroke="#FFC310" stroke-width="1.00006"/>
<path d="M182.038 132.455C182.038 135.168 179.84 137.367 177.129 137.367C174.417 137.367 172.219 135.168 172.219 132.455C172.219 129.742 174.417 127.543 177.129 127.543C179.84 127.543 182.038 129.742 182.038 132.455Z" stroke="#FFDD9D" stroke-width="1.00006"/>
<path d="M316.018 62.4245C316.018 52.5747 324 44.59 333.846 44.59C343.692 44.59 351.674 52.5747 351.674 62.4245" stroke="#FFDD9D" stroke-width="1.00006"/>
<path d="M321.486 62.4259C321.486 69.2551 327.021 74.7912 333.847 74.7912C340.674 74.7912 346.208 69.2551 346.208 62.4259" stroke="#FFC310" stroke-width="1.00006"/>
<path d="M333.847 68.3439C330.579 68.3439 327.93 65.6937 327.93 62.424C327.93 59.1542 330.579 56.504 333.847 56.504C337.115 56.504 339.764 59.1542 339.764 62.424C339.764 65.6937 337.115 68.3439 333.847 68.3439Z" stroke="#DEAA0F" stroke-width="1.00006"/>
<path d="M16.1566 98.3824C16.1566 94.1953 12.7637 90.8009 8.57829 90.8009C4.39292 90.8009 1 94.1953 1 98.3824" stroke="#FFC310" stroke-width="1.00006"/>
<path d="M31.3128 98.3824C31.3128 94.1953 27.92 90.8009 23.7346 90.8009C19.5493 90.8009 16.1563 94.1953 16.1562 98.3824" stroke="#FFC310" stroke-width="1.00006"/>
<path d="M46.4711 98.3824C46.4711 94.1953 43.0782 90.8009 38.8928 90.8009C34.7074 90.8009 31.3145 94.1953 31.3145 98.3824" stroke="#FFC310" stroke-width="1.00006"/>
<path d="M51.4242 59.4025C51.4242 63.5897 48.0313 66.9841 43.8459 66.9841C39.6605 66.9841 36.2676 63.5897 36.2676 59.4025" stroke="#7755FF" stroke-width="1.00006"/>
<path d="M66.5824 59.4025C66.5824 63.5897 63.1894 66.9841 59.0041 66.9841C54.8187 66.9841 51.4258 63.5897 51.4258 59.4025" stroke="#7755FF" stroke-width="1.00006"/>
<path d="M81.7425 59.4025C81.7425 63.5897 78.3496 66.9841 74.1642 66.9841C69.9788 66.9841 66.5859 63.5897 66.5859 59.4025" stroke="#7755FF" stroke-width="1.00006"/>
<path d="M360.95 191.531V92.5939L295.016 191.531H360.95Z" fill="#7755FF"/>
<path d="M351.948 179.182V125.059L315.879 179.182H351.948Z" fill="white"/>
<path d="M349.371 106.426L353.87 109.625L352.107 112.104L347.608 108.905L349.371 106.426Z" fill="#DEAA0F"/>
<path d="M341.688 117.992L346.185 121.192L344.423 123.671L339.925 120.471L341.688 117.992Z" fill="#DEAA0F"/>
<path d="M334.012 129.559L338.51 132.759L336.747 135.238L332.249 132.038L334.012 129.559Z" fill="#DEAA0F"/>
<path d="M326.328 141.121L330.826 144.321L329.064 146.8L324.566 143.6L326.328 141.121Z" fill="#DEAA0F"/>
<path d="M318.648 152.688L323.146 155.888L321.384 158.367L316.886 155.167L318.648 152.688Z" fill="#DEAA0F"/>
<path d="M310.965 164.254L315.463 167.454L313.7 169.933L309.202 166.733L310.965 164.254Z" fill="#DEAA0F"/>
<path d="M303.285 175.817L307.783 179.017L306.021 181.496L301.523 178.296L303.285 175.817Z" fill="#DEAA0F"/>
<path d="M267.016 107.879V141.845V144.271L274.291 136.992H308.244V107.879H267.016Z" stroke="#FFDD9D" stroke-width="1.00006"/>
<path d="M275.641 115.258H299.624M275.641 122.178H299.624M275.641 129.561H299.624" stroke="#FFC310" stroke-width="1.00006"/>
</g>
</g>
<defs>
<clipPath id="clip0_661_10204">
<rect width="361.02" height="203.19" fill="white"/>
</clipPath>
<clipPath id="clip1_661_10204">
<rect width="361.02" height="182.01" fill="white" transform="translate(0 10.59)"/>
</clipPath>
</defs>
</svg>
