<svg width="190" height="100" viewBox="0 0 190 100" fill="none" xmlns="http://www.w3.org/2000/svg">
<path d="M187.657 59.3167C187.01 59.2593 186.532 58.6883 186.589 58.0413C186.647 57.3942 187.218 56.9161 187.865 56.9735C188.512 57.0309 188.99 57.6019 188.933 58.249C188.875 58.8961 188.304 59.3741 187.657 59.3167Z" fill="white"/>
<path d="M3.0229 39.4157C4.317 39.5302 5.27312 40.6725 5.15855 41.9666C5.04397 43.2607 3.90175 44.2171 2.60765 44.1025C1.31353 43.9879 0.357194 42.8457 0.471767 41.5516C0.586339 40.2575 1.7288 39.3011 3.0229 39.4157Z" fill="white"/>
<path d="M113.327 59.6486L109.264 36.7416L86.3565 40.805L90.42 63.712L113.327 59.6486Z" fill="#7755FF"/>
<path d="M187.608 59.9012C186.638 59.8151 185.92 58.9586 186.006 57.988C186.092 57.0173 186.949 56.2999 187.92 56.386C188.89 56.4721 189.607 57.3288 189.521 58.2994C189.435 59.27 188.579 59.9874 187.608 59.9012Z" fill="#5E5EA8"/>
<path d="M187.763 58.1437L102.229 50.5664" stroke="#5E5EA8" stroke-width="0.58806"/>
<path d="M2.81445 41.7578L101.823 50.5293L2.81445 41.7578Z" fill="#7755FF"/>
<path d="M2.81445 41.7578L101.823 50.5293" stroke="#5E5EA8" stroke-width="0.58806"/>
<path d="M2.97031 40.0032C3.94093 40.0893 4.65812 40.946 4.57201 41.9166C4.48593 42.8872 3.62951 43.6043 2.65891 43.5182C1.68828 43.4321 0.970874 42.5755 1.05699 41.6049C1.14306 40.6343 1.99971 39.9171 2.97031 40.0032Z" fill="#7755FF"/>
<path d="M101.881 49.9529L100.626 51.943C100.54 52.0803 100.358 52.1215 100.221 52.035L98.2306 50.7804C98.0933 50.6938 98.0521 50.5121 98.1387 50.3748L99.3933 48.3847C99.4799 48.2474 99.6616 48.2062 99.7989 48.2927L101.789 49.5473C101.926 49.6339 101.967 49.8156 101.881 49.9529Z" fill="white"/>
</svg>
