<svg width="22" height="28" viewBox="0 0 22 28" fill="none" xmlns="http://www.w3.org/2000/svg">
<path d="M7.84851 12.3297C7.67869 12.9635 8.05481 13.615 8.6886 13.7848C9.3224 13.9546 9.97386 13.5785 10.1437 12.9447C10.3135 12.3109 9.93738 11.6594 9.30359 11.4896C8.6698 11.3198 8.01834 11.6959 7.84851 12.3297Z" fill="#7755FF"/>
<path d="M9.88572 27.1685L21.2461 20.6096L18.7045 16.2074L7.34409 22.7663L9.88572 27.1685Z" stroke="#7755FF" stroke-width="0.697013"/>
<path d="M2.29824 1.18774L16.5836 8.25107C16.5836 8.25107 16.1955 10.8622 16.3708 12.6182C16.5616 14.5292 17.5854 16.8672 17.5854 16.8672L8.46805 22.1831C8.46805 22.1831 6.91702 20.293 5.3848 19.1171C3.91183 17.9867 1.24609 16.8196 1.24609 16.8196L2.29824 1.18774Z" stroke="#7755FF" stroke-width="0.697013"/>
<path d="M2.43359 1.36353L8.78689 12.3374" stroke="#7755FF" stroke-width="0.697013"/>
</svg>
