<svg width="30" height="31" viewBox="0 0 30 31" fill="none" xmlns="http://www.w3.org/2000/svg">
<g clip-path="url(#clip0_661_10578)">
<path d="M24.3101 29.2206C26.3098 29.2206 27.9308 27.5995 27.9308 25.5999C27.9308 23.6002 26.3098 21.9792 24.3101 21.9792C22.3105 21.9792 20.6895 23.6002 20.6895 25.5999C20.6895 27.5995 22.3105 29.2206 24.3101 29.2206Z" stroke="#232323" stroke-width="2.20621"/>
<path d="M24.3101 8.53051C26.3098 8.53051 27.9308 6.90947 27.9308 4.90981C27.9308 2.91016 26.3098 1.28912 24.3101 1.28912C22.3105 1.28912 20.6895 2.91016 20.6895 4.90981C20.6895 6.90947 22.3105 8.53051 24.3101 8.53051Z" stroke="#232323" stroke-width="2.20621"/>
<mask id="mask0_661_10578" style="mask-type:luminance" maskUnits="userSpaceOnUse" x="7" y="8" width="14" height="14">
<path d="M19.4332 19.1724C18.5032 20.4697 17.142 21.3937 15.5932 21.7795C14.0443 22.1652 12.4088 21.9874 10.9791 21.2779C9.5493 20.5683 8.41855 19.3732 7.78909 17.9064C7.15963 16.4396 7.07248 14.7967 7.54323 13.2715C8.01398 11.7464 9.01192 10.4384 10.3586 9.58156C11.7053 8.7247 13.3128 8.37484 14.8938 8.59453C16.4748 8.81422 17.9261 9.58915 18.9881 10.7807C20.0501 11.9723 20.6535 13.5028 20.6906 15.0985L18.0926 15.1589C18.0699 14.1799 17.6996 13.2409 17.048 12.5098C16.3964 11.7787 15.5061 11.3033 14.5361 11.1685C13.5661 11.0337 12.5799 11.2484 11.7536 11.7741C10.9274 12.2998 10.3151 13.1023 10.0264 14.038C9.73755 14.9737 9.79099 15.9817 10.1772 16.8816C10.5634 17.7815 11.2571 18.5147 12.1344 18.95C13.0115 19.3853 14.015 19.4945 14.9652 19.2578C15.9155 19.0211 16.7505 18.4542 17.3211 17.6583L19.4332 19.1724Z" fill="white"/>
</mask>
<g mask="url(#mask0_661_10578)">
<path d="M19.4332 19.1724C18.5032 20.4697 17.142 21.3937 15.5932 21.7795C14.0443 22.1652 12.4088 21.9874 10.9791 21.2779C9.5493 20.5683 8.41855 19.3732 7.78909 17.9064C7.15963 16.4396 7.07248 14.7967 7.54323 13.2715C8.01398 11.7464 9.01192 10.4384 10.3586 9.58156C11.7053 8.7247 13.3128 8.37484 14.8938 8.59453C16.4748 8.81422 17.9261 9.58915 18.9881 10.7807C20.0501 11.9723 20.6535 13.5028 20.6906 15.0985L18.0926 15.1589C18.0699 14.1799 17.6996 13.2409 17.048 12.5098C16.3964 11.7787 15.5061 11.3033 14.5361 11.1685C13.5661 11.0337 12.5799 11.2484 11.7536 11.7741C10.9274 12.2998 10.3151 13.1023 10.0264 14.038C9.73755 14.9737 9.79099 15.9817 10.1772 16.8816C10.5634 17.7815 11.2571 18.5147 12.1344 18.95C13.0115 19.3853 14.015 19.4945 14.9652 19.2578C15.9155 19.0211 16.7505 18.4542 17.3211 17.6583L19.4332 19.1724Z" stroke="#232323" stroke-width="6.37349"/>
</g>
<path d="M4.65585 29.2206C6.6555 29.2206 8.27654 27.5995 8.27654 25.5999C8.27654 23.6002 6.6555 21.9792 4.65585 21.9792C2.65619 21.9792 1.03516 23.6002 1.03516 25.5999C1.03516 27.5995 2.65619 29.2206 4.65585 29.2206Z" stroke="#232323" stroke-width="2.20621"/>
<path d="M4.65585 8.53051C6.6555 8.53051 8.27654 6.90947 8.27654 4.90981C8.27654 2.91016 6.6555 1.28912 4.65585 1.28912C2.65619 1.28912 1.03516 2.91016 1.03516 4.90981C1.03516 6.90947 2.65619 8.53051 4.65585 8.53051Z" stroke="#232323" stroke-width="2.20621"/>
</g>
<defs>
<clipPath id="clip0_661_10578">
<rect width="29.0625" height="30" fill="white" transform="translate(0 0.254639)"/>
</clipPath>
</defs>
</svg>
