<svg width="1440" height="810" viewBox="0 0 1440 810" fill="none" xmlns="http://www.w3.org/2000/svg">
<mask id="mask0_661_9478" style="mask-type:luminance" maskUnits="userSpaceOnUse" x="25" y="0" width="1390" height="810">
<path d="M1414.29 0H25.7148V810H1414.29V0Z" fill="white"/>
</mask>
<g mask="url(#mask0_661_9478)">
<path d="M404.657 195.317C404.01 195.259 403.532 194.688 403.589 194.041C403.647 193.394 404.218 192.916 404.865 192.973C405.512 193.031 405.99 193.602 405.933 194.249C405.875 194.896 405.304 195.374 404.657 195.317Z" fill="white"/>
<path d="M220.023 175.416C221.317 175.53 222.273 176.673 222.159 177.967C222.044 179.261 220.902 180.217 219.608 180.102C218.314 179.988 217.357 178.846 217.472 177.552C217.586 176.258 218.729 175.301 220.023 175.416Z" fill="white"/>
<path d="M330.327 195.649L326.264 172.742L303.356 176.805L307.42 199.712L330.327 195.649Z" fill="#7755FF"/>
<path d="M404.608 195.901C403.638 195.815 402.92 194.959 403.006 193.988C403.092 193.017 403.949 192.3 404.92 192.386C405.89 192.472 406.607 193.329 406.521 194.299C406.435 195.27 405.579 195.987 404.608 195.901Z" fill="#5E5EA8"/>
<path d="M404.763 194.144L319.229 186.566" stroke="#5E5EA8" stroke-width="0.58806"/>
<path d="M219.814 177.758L318.823 186.529L219.814 177.758Z" fill="#7755FF"/>
<path d="M219.814 177.758L318.823 186.529" stroke="#5E5EA8" stroke-width="0.58806"/>
<path d="M219.97 176.003C220.941 176.089 221.658 176.946 221.572 177.917C221.486 178.887 220.63 179.604 219.659 179.518C218.688 179.432 217.971 178.576 218.057 177.605C218.143 176.634 219 175.917 219.97 176.003Z" fill="#7755FF"/>
<path d="M318.881 185.953L317.626 187.943C317.54 188.08 317.358 188.122 317.221 188.035L315.231 186.78C315.093 186.694 315.052 186.512 315.139 186.375L316.393 184.385C316.48 184.247 316.662 184.206 316.799 184.293L318.789 185.547C318.926 185.634 318.967 185.816 318.881 185.953Z" fill="white"/>
<path d="M-157.303 258.258C81.2133 347.815 208.928 163.164 430.459 181.245C684.15 201.809 737.967 672.422 934.303 735.762C1093.54 787.209 1301.62 525.492 1384.35 388.792C1467.07 252.092 1638.83 86.4497 1844.39 101.748" stroke="#5E5EA8" stroke-width="1.76441" stroke-linecap="round" stroke-linejoin="round" stroke-dasharray="0.03 18.82"/>
<path d="M224.849 188.33C224.679 188.963 225.055 189.615 225.689 189.785C226.322 189.955 226.974 189.578 227.144 188.945C227.314 188.311 226.937 187.659 226.304 187.49C225.67 187.32 225.018 187.696 224.849 188.33Z" fill="#7755FF"/>
<path d="M226.886 203.169L238.246 196.61L235.704 192.207L224.344 198.766L226.886 203.169Z" stroke="#7755FF" stroke-width="0.697013"/>
<path d="M219.298 177.188L233.584 184.251C233.584 184.251 233.196 186.862 233.371 188.618C233.562 190.529 234.585 192.867 234.585 192.867L225.468 198.183C225.468 198.183 223.917 196.293 222.385 195.117C220.912 193.987 218.246 192.82 218.246 192.82L219.298 177.188Z" stroke="#7755FF" stroke-width="0.697013"/>
<path d="M219.434 177.364L225.787 188.337" stroke="#7755FF" stroke-width="0.697013"/>
</g>
<path d="M1063.18 155.102C1074.87 155.102 1084.36 164.593 1084.36 176.283C1084.36 187.972 1074.87 197.464 1063.18 197.464C1051.49 197.464 1042 187.972 1042 176.283C1042 164.593 1051.49 155.102 1063.18 155.102Z" fill="#F4F4F4"/>
<path d="M1063.18 155C1074.87 155 1084.36 164.491 1084.36 176.181C1084.36 187.871 1074.87 197.362 1063.18 197.362C1051.49 197.362 1042 187.871 1042 176.181C1042 164.491 1051.49 155 1063.18 155Z" fill="#FFC310"/>
<path d="M1053.19 205.09C1052.66 204.783 1052.07 204.583 1051.46 204.502C1050.86 204.421 1050.24 204.46 1049.65 204.617C1049.06 204.775 1048.5 205.047 1048.02 205.419C1047.53 205.791 1047.12 206.255 1046.82 206.785" stroke="#7755FF" stroke-width="0.58806" stroke-miterlimit="10"/>
<path d="M1046.82 206.785C1047.12 206.256 1047.32 205.671 1047.4 205.063C1047.48 204.457 1047.44 203.84 1047.29 203.248C1047.13 202.657 1046.86 202.102 1046.48 201.616C1046.11 201.129 1045.64 200.721 1045.12 200.414" stroke="#7755FF" stroke-width="0.58806" stroke-miterlimit="10"/>
<path d="M1046.82 206.784L1059.86 182.625" stroke="#7755FF" stroke-width="0.58806" stroke-miterlimit="10"/>
<path d="M1040.47 150C1048.46 150 1054.94 156.484 1054.94 164.471C1054.94 172.457 1048.46 178.942 1040.47 178.942C1032.48 178.942 1026 172.457 1026 164.471C1026 156.484 1032.48 150 1040.47 150Z" stroke="#7755FF" stroke-width="0.578571"/>
</svg>
