<svg width="60" height="58" viewBox="0 0 60 58" fill="none" xmlns="http://www.w3.org/2000/svg">
<path d="M38.181 6.10156C49.8708 6.10156 59.3621 15.5928 59.3621 27.2826C59.3621 38.9724 49.8708 48.4636 38.181 48.4636C26.4912 48.4636 17 38.9724 17 27.2826C17 15.5928 26.4912 6.10156 38.181 6.10156Z" fill="#F4F4F4"/>
<path d="M38.181 6C49.8708 6 59.3621 15.4912 59.3621 27.181C59.3621 38.8708 49.8708 48.3621 38.181 48.3621C26.4912 48.3621 17 38.8708 17 27.181C17 15.4912 26.4912 6 38.181 6Z" fill="#FFC310"/>
<path d="M28.186 56.0897C27.6567 55.7826 27.0684 55.5829 26.4626 55.5017C25.8567 55.4211 25.2392 55.4602 24.6512 55.6174C24.0571 55.775 23.5042 56.0474 23.0161 56.419C22.5281 56.7914 22.1224 57.2547 21.8164 57.7847" stroke="#7755FF" stroke-width="0.58806" stroke-miterlimit="10"/>
<path d="M21.8151 57.7848C22.121 57.2556 22.321 56.6705 22.3973 56.0635C22.4797 55.4571 22.4443 54.8401 22.2856 54.2484C22.1268 53.6566 21.856 53.1021 21.4797 52.6156C21.1092 52.1292 20.6445 51.721 20.1152 51.4141" stroke="#7755FF" stroke-width="0.58806" stroke-miterlimit="10"/>
<path d="M21.8164 57.7839L34.8637 33.625" stroke="#7755FF" stroke-width="0.58806" stroke-miterlimit="10"/>
<path d="M15.4708 1C23.4572 1 29.9416 7.48436 29.9416 15.4708C29.9416 23.4572 23.4572 29.9416 15.4708 29.9416C7.48436 29.9416 1 23.4572 1 15.4708C1 7.48436 7.48436 1 15.4708 1Z" stroke="#7755FF" stroke-width="0.578571"/>
</svg>
