<svg width="383" height="193" viewBox="0 0 383 193" fill="none" xmlns="http://www.w3.org/2000/svg">
<g clip-path="url(#clip0_661_10379)">
<g clip-path="url(#clip1_661_10379)">
<g clip-path="url(#clip2_661_10379)">
<path d="M281.372 18.3086L285.949 26.6778L294.318 31.2552L285.949 35.8325L281.372 44.2017L276.795 35.8325L268.426 31.2552L276.795 26.6778L281.372 18.3086Z" fill="#FFDD9D"/>
<path d="M285.948 26.6778L281.371 18.3086V44.2017L285.948 35.8325L294.317 31.2552L285.948 26.6778Z" fill="#DEAA0F"/>
<path d="M376.696 0.28125H323.667C320.356 0.28125 317.672 2.96531 317.672 6.27628V118.898C317.672 122.209 320.356 124.893 323.667 124.893H376.696C380.007 124.893 382.691 122.209 382.691 118.898V6.27628C382.691 2.96531 380.007 0.28125 376.696 0.28125Z" fill="#FFC310"/>
<path d="M317.922 85.3867H374.024V96.6042H317.922V85.3867Z" stroke="#DEAA0F" stroke-width="0.499585"/>
<path d="M321.68 87.9648H363.972V90.3508H321.68V87.9648Z" fill="#FFC310"/>
<path d="M321.68 91.6406H346.176V94.0265H321.68V91.6406Z" fill="#FFDD9D"/>
<path d="M317.922 99.9805H374.024V111.198H317.922V99.9805Z" stroke="#DEAA0F" stroke-width="0.499585"/>
<path d="M321.68 102.559H363.972V104.945H321.68V102.559Z" fill="#FFC310"/>
<path d="M321.68 106.23H346.176V108.616H321.68V106.23Z" fill="#FFDD9D"/>
<path d="M317.922 114.574H374.024V125.792H317.922V114.574Z" stroke="#DEAA0F" stroke-width="0.499585"/>
<path d="M321.68 117.152H363.972V119.538H321.68V117.152Z" fill="#FFC310"/>
<path d="M321.68 120.832H346.176V123.218H321.68V120.832Z" fill="#FFDD9D"/>
<path d="M350.48 17.4609H374.467V23.0725H350.48V17.4609Z" fill="white"/>
<path d="M317.672 30.1602H374.469V61.6356H317.672V30.1602Z" fill="#FFC310"/>
<path d="M320.924 33.9727H332.029V35.7804H320.924V33.9727Z" fill="#FFC310"/>
<path d="M333.906 33.9727H345.012V35.7804H333.906V33.9727Z" fill="#FFC310"/>
<path d="M346.887 33.9727H357.992V35.7804H346.887V33.9727Z" fill="#FFC310"/>
<path d="M359.867 33.9727H370.973V35.7804H359.867V33.9727Z" fill="#FFDD9D"/>
<path d="M320.924 55.2305H346.824V57.8986H320.924V55.2305Z" fill="#FFC310"/>
<path d="M320.924 51.5156H337.964V54.1838H320.924V51.5156Z" fill="#DEAA0F"/>
<path d="M317.672 18.0508H324.173V18.5697H317.672V18.0508Z" fill="white"/>
<path d="M317.672 20.0078H324.173V20.5268H317.672V20.0078Z" fill="white"/>
<path d="M317.672 21.9648H324.173V22.4838H317.672V21.9648Z" fill="white"/>
<path d="M372.795 4.84766H319.351C316.178 4.84766 313.605 7.41989 313.605 10.5929V123.214C313.605 126.387 316.178 128.96 319.351 128.96H372.795C375.968 128.96 378.54 126.387 378.54 123.214V10.5929C378.54 7.41989 375.968 4.84766 372.795 4.84766Z" stroke="#DEAA0F" stroke-width="0.499585"/>
<path d="M326.285 4.60156C326.285 7.79282 328.872 10.3798 332.063 10.3798H360.082C363.273 10.3798 365.86 7.79282 365.86 4.60156" stroke="#DEAA0F" stroke-width="0.499585"/>
<path d="M327.154 67.8047H362.479V75.0046H327.154V67.8047Z" fill="white"/>
<path d="M327.154 77.332H352.608V80.9579H327.154V77.332Z" fill="#FFDD9D"/>
<path d="M320.975 74.5082C322.689 74.5082 324.079 73.1186 324.079 71.4045C324.079 69.6904 322.689 68.3008 320.975 68.3008C319.261 68.3008 317.871 69.6904 317.871 71.4045C317.871 73.1186 319.261 74.5082 320.975 74.5082Z" fill="#DEAA0F"/>
<path d="M319.732 70.1562H322.224V72.6481H319.732V70.1562Z" fill="white"/>
<path d="M116.117 54.957H290.021V170.398H116.117V54.957Z" stroke="#FFC310" stroke-width="0.499585"/>
<path d="M176.79 170.25L135.292 191.713M135.292 191.713H242.918M135.292 191.713H67.0703M242.918 191.713V170.25M242.918 191.713H339.147" stroke="#FFC310" stroke-width="0.499585"/>
<path d="M125.584 65.7148H169.18V159.643H125.584V65.7148Z" stroke="#FFC310" stroke-width="0.499585"/>
<path d="M175.979 65.2695H283.15V147.829H175.979V65.2695Z" fill="#FFC310"/>
<path d="M176.229 65.5195H282.9V75.9047H176.229V65.5195Z" fill="#FFC310" stroke="#FFC310" stroke-width="0.499585"/>
<path d="M182.036 72.3106C182.831 72.3106 183.475 71.6666 183.475 70.8721C183.475 70.0776 182.831 69.4336 182.036 69.4336C181.242 69.4336 180.598 70.0776 180.598 70.8721C180.598 71.6666 181.242 72.3106 182.036 72.3106Z" fill="#DEAA0F"/>
<path d="M187.271 72.3106C188.065 72.3106 188.709 71.6666 188.709 70.8721C188.709 70.0776 188.065 69.4336 187.271 69.4336C186.476 69.4336 185.832 70.0776 185.832 70.8721C185.832 71.6666 186.476 72.3106 187.271 72.3106Z" fill="#FFDD9D"/>
<path d="M129.689 77.582H165.083V85.6986H129.689V77.582Z" stroke="#FFDD9D" stroke-width="0.499585"/>
<path d="M125.584 151.523H169.18V159.64H125.584V151.523Z" stroke="#FFC310" stroke-width="0.499585"/>
<path d="M147.496 157.348C148.548 157.348 149.401 156.496 149.401 155.444C149.401 154.392 148.548 153.539 147.496 153.539C146.445 153.539 145.592 154.392 145.592 155.444C145.592 156.496 146.445 157.348 147.496 157.348Z" fill="#FFDD9D"/>
<path d="M130.837 72.3106C131.631 72.3106 132.275 71.6666 132.275 70.8721C132.275 70.0776 131.631 69.4336 130.837 69.4336C130.042 69.4336 129.398 70.0776 129.398 70.8721C129.398 71.6666 130.042 72.3106 130.837 72.3106Z" fill="#DEAA0F"/>
<path d="M141.309 93.1211H165.33V96.152H141.309V93.1211Z" fill="#FFC310"/>
<path d="M133.973 100.719C136.497 100.719 138.543 98.6727 138.543 96.1485C138.543 93.6244 136.497 91.5781 133.973 91.5781C131.449 91.5781 129.402 93.6244 129.402 96.1485C129.402 98.6727 131.449 100.719 133.973 100.719Z" fill="#7755FF"/>
<path d="M133.963 96.4731C134.562 96.4731 135.047 95.9877 135.047 95.3889C135.047 94.7901 134.562 94.3047 133.963 94.3047C133.364 94.3047 132.879 94.7901 132.879 95.3889C132.879 95.9877 133.364 96.4731 133.963 96.4731Z" fill="white"/>
<path d="M133.961 96.4766C133.12 96.4766 132.438 97.1585 132.438 97.9999H135.484C135.484 97.1585 134.803 96.4766 133.961 96.4766Z" fill="white"/>
<path d="M133.973 115.688C136.497 115.688 138.543 113.641 138.543 111.117C138.543 108.593 136.497 106.547 133.973 106.547C131.449 106.547 129.402 108.593 129.402 111.117C129.402 113.641 131.449 115.688 133.973 115.688Z" fill="#7755FF"/>
<path d="M133.963 111.442C134.562 111.442 135.047 110.956 135.047 110.358C135.047 109.759 134.562 109.273 133.963 109.273C133.364 109.273 132.879 109.759 132.879 110.358C132.879 110.956 133.364 111.442 133.963 111.442Z" fill="white"/>
<path d="M133.961 111.445C133.12 111.445 132.438 112.128 132.438 112.969H135.484C135.484 112.128 134.803 111.445 133.961 111.445Z" fill="white"/>
<path d="M133.973 130.66C136.497 130.66 138.543 128.614 138.543 126.09C138.543 123.566 136.497 121.52 133.973 121.52C131.449 121.52 129.402 123.566 129.402 126.09C129.402 128.614 131.449 130.66 133.973 130.66Z" fill="#7755FF"/>
<path d="M133.963 126.414C134.562 126.414 135.047 125.929 135.047 125.33C135.047 124.732 134.562 124.246 133.963 124.246C133.364 124.246 132.879 124.732 132.879 125.33C132.879 125.929 133.364 126.414 133.963 126.414Z" fill="white"/>
<path d="M133.961 126.414C133.12 126.414 132.438 127.096 132.438 127.937H135.484C135.484 127.096 134.803 126.414 133.961 126.414Z" fill="white"/>
<path d="M133.973 145.629C136.497 145.629 138.543 143.583 138.543 141.059C138.543 138.535 136.497 136.488 133.973 136.488C131.449 136.488 129.402 138.535 129.402 141.059C129.402 143.583 131.449 145.629 133.973 145.629Z" fill="#7755FF"/>
<path d="M133.963 141.379C134.562 141.379 135.047 140.894 135.047 140.295C135.047 139.696 134.562 139.211 133.963 139.211C133.364 139.211 132.879 139.696 132.879 140.295C132.879 140.894 133.364 141.379 133.963 141.379Z" fill="white"/>
<path d="M133.961 141.383C133.12 141.383 132.438 142.065 132.438 142.907H135.484C135.484 142.065 134.803 141.383 133.961 141.383Z" fill="white"/>
<path d="M141.309 97.125H157.496V99.4048H141.309V97.125Z" fill="#DEAA0F"/>
<path d="M141.311 108.09H165.332V111.121H141.311V108.09Z" fill="#FFC310"/>
<path d="M141.311 112.094H157.498V114.374H141.311V112.094Z" fill="#DEAA0F"/>
<path d="M141.311 123.059H165.332V126.089H141.311V123.059Z" fill="#FFC310"/>
<path d="M141.311 127.063H157.498V129.342H141.311V127.063Z" fill="#DEAA0F"/>
<path d="M141.311 138.027H165.332V141.058H141.311V138.027Z" fill="#FFC310"/>
<path d="M141.311 142.031H157.498V144.311H141.311V142.031Z" fill="#DEAA0F"/>
<path d="M136.075 72.3106C136.87 72.3106 137.514 71.6666 137.514 70.8721C137.514 70.0776 136.87 69.4336 136.075 69.4336C135.281 69.4336 134.637 70.0776 134.637 70.8721C134.637 71.6666 135.281 72.3106 136.075 72.3106Z" fill="#FFC310"/>
<path d="M141.314 72.3106C142.108 72.3106 142.752 71.6666 142.752 70.8721C142.752 70.0776 142.108 69.4336 141.314 69.4336C140.519 69.4336 139.875 70.0776 139.875 70.8721C139.875 71.6666 140.519 72.3106 141.314 72.3106Z" fill="#FFDD9D"/>
<path d="M158.879 153.539H162.665V157.325H158.879V153.539Z" fill="#FFDD9D"/>
<path d="M132.078 155.437L134.917 153.797V157.075L132.078 155.437Z" fill="#FFDD9D"/>
<path d="M261.451 69.6484H277.639V71.9282H261.451V69.6484Z" fill="#FFDD9D"/>
<path d="M181.775 81.1133H277.359V110.631H181.775V81.1133Z" stroke="#FFDD9D" stroke-width="0.499585"/>
<path d="M181.777 115.684H207.171V142.926H181.777V115.684Z" stroke="#FFDD9D" stroke-width="0.499585"/>
<path d="M184.535 118.965H204.418V134.871H184.535V118.965Z" fill="#DEAA0F"/>
<path d="M189.562 122.686L186.723 121.047V124.325L189.562 122.686Z" fill="white"/>
<path d="M186.379 137.266H202.567V139.545H186.379V137.266Z" fill="#DEAA0F"/>
<path d="M188.906 131.375H203.33V132.861H188.906V131.375Z" fill="#FFDD9D"/>
<path d="M193.844 129.305H203.333V130.791H193.844V129.305Z" fill="#FFC310"/>
<path d="M216.887 115.68H242.28V142.922H216.887V115.68Z" stroke="#FFDD9D" stroke-width="0.499585"/>
<path d="M219.645 118.965H239.528V134.871H219.645V118.965Z" fill="#DEAA0F"/>
<path d="M224.672 122.682L221.832 121.043V124.321L224.672 122.682Z" fill="white"/>
<path d="M221.49 137.266H237.678V139.545H221.49V137.266Z" fill="#DEAA0F"/>
<path d="M224.016 131.371H238.439V132.857H224.016V131.371Z" fill="#FFDD9D"/>
<path d="M228.955 129.305H238.445V130.791H228.955V129.305Z" fill="#FFC310"/>
<path d="M251.996 115.68H277.39V142.922H251.996V115.68Z" stroke="#FFDD9D" stroke-width="0.499585"/>
<path d="M254.75 118.965H274.633V134.871H254.75V118.965Z" fill="#DEAA0F"/>
<path d="M259.778 122.682L256.939 121.043V124.321L259.778 122.682Z" fill="white"/>
<path d="M256.6 137.266H272.787V139.545H256.6V137.266Z" fill="#DEAA0F"/>
<path d="M259.125 131.371H273.549V132.857H259.125V131.371Z" fill="#FFDD9D"/>
<path d="M264.062 129.305H273.552V130.791H264.062V129.305Z" fill="#FFC310"/>
<path d="M211.719 94.8489L198.879 110.318H262.828L242.487 85.8125L223.353 108.864L211.719 94.8489Z" fill="#FFDD9D"/>
<path d="M133.79 83.0715C134.687 83.0715 135.415 82.3437 135.415 81.4459C135.415 80.5481 134.687 79.8203 133.79 79.8203C132.892 79.8203 132.164 80.5481 132.164 81.4459C132.164 82.3437 132.892 83.0715 133.79 83.0715Z" stroke="#FFC310" stroke-width="0.499585"/>
<path d="M134.908 82.543L136.073 83.7081" stroke="#FFC310" stroke-width="0.499585"/>
<path d="M351.601 149.433L351.663 149.52L351.768 149.536C358.59 150.577 363.816 156.47 363.816 163.582C363.816 171.431 357.454 177.793 349.605 177.793H342.539V167.177H347.808H348.296L348.011 166.781L340.196 155.934L340 155.663L339.796 155.928L331.436 166.774L331.125 167.177H331.633H337.187V177.793H330.152C322.304 177.793 315.941 171.431 315.941 163.582C315.941 156.383 321.297 150.433 328.241 149.5L328.348 149.486L328.411 149.397C330.988 145.78 335.215 143.422 339.993 143.422C344.787 143.422 349.028 145.796 351.601 149.433Z" stroke="#FFC310" stroke-width="0.499585"/>
<path d="M0.257812 34.9297H8.6543V43.3262H0.257812V34.9297Z" fill="#FFDD9D" stroke="#DEAA0F" stroke-width="0.499585"/>
<path d="M4.26953 43.4492V54.4849M4.26953 54.4849V70.012H15.6715M4.26953 54.4849H15.6715" stroke="#FFC310" stroke-width="0.499585"/>
<path d="M19.9816 58.6038C22.2258 58.6038 24.0452 56.7844 24.0452 54.5402C24.0452 52.2959 22.2258 50.4766 19.9816 50.4766C17.7373 50.4766 15.918 52.2959 15.918 54.5402C15.918 56.7844 17.7373 58.6038 19.9816 58.6038Z" fill="#FFDD9D" stroke="#DEAA0F" stroke-width="0.499585"/>
<path d="M19.9816 74.0764C22.2258 74.0764 24.0452 72.2571 24.0452 70.0128C24.0452 67.7686 22.2258 65.9492 19.9816 65.9492C17.7373 65.9492 15.918 67.7686 15.918 70.0128C15.918 72.2571 17.7373 74.0764 19.9816 74.0764Z" fill="#FFDD9D" stroke="#DEAA0F" stroke-width="0.499585"/>
<path d="M16.1406 39.0117H46.4976" stroke="#FFDD9D" stroke-width="0.499585"/>
<path d="M31.3164 54.5391H46.4949" stroke="#FFC310" stroke-width="0.499585"/>
<path d="M31.3164 70.0117H46.4949" stroke="#FFC310" stroke-width="0.499585"/>
<path d="M0.257812 118.871H8.6543V127.268H0.257812V118.871Z" fill="#FFDD9D" stroke="#DEAA0F" stroke-width="0.499585"/>
<path d="M4.26953 127.395V138.43M4.26953 138.43V153.957H15.6715M4.26953 138.43H15.6715" stroke="#FFC310" stroke-width="0.499585"/>
<path d="M19.9816 142.549C22.2258 142.549 24.0452 140.73 24.0452 138.485C24.0452 136.241 22.2258 134.422 19.9816 134.422C17.7373 134.422 15.918 136.241 15.918 138.485C15.918 140.73 17.7373 142.549 19.9816 142.549Z" fill="#FFDD9D" stroke="#DEAA0F" stroke-width="0.499585"/>
<path d="M19.9816 158.022C22.2258 158.022 24.0452 156.202 24.0452 153.958C24.0452 151.714 22.2258 149.895 19.9816 149.895C17.7373 149.895 15.918 151.714 15.918 153.958C15.918 156.202 17.7373 158.022 19.9816 158.022Z" fill="#FFDD9D" stroke="#DEAA0F" stroke-width="0.499585"/>
<path d="M16.1406 122.957H46.4976" stroke="#FFC310" stroke-width="0.499585"/>
<path d="M31.3164 138.484H46.4949" stroke="#FFC310" stroke-width="0.499585"/>
<path d="M31.3164 153.961H46.4949" stroke="#FFC310" stroke-width="0.499585"/>
<path d="M0.0078125 86.543H8.90388V95.439H0.0078125V86.543Z" fill="#FFC310"/>
<path d="M4.26758 95.3164V106.352H15.6695" stroke="#FFC310" stroke-width="0.499585"/>
<path d="M19.9814 110.717C22.3636 110.717 24.2948 108.785 24.2948 106.403C24.2948 104.021 22.3636 102.09 19.9814 102.09C17.5991 102.09 15.668 104.021 15.668 106.403C15.668 108.785 17.5991 110.717 19.9814 110.717Z" fill="#FFC310"/>
<path d="M16.1406 90.875H46.4976" stroke="#FFC310" stroke-width="0.499585"/>
<path d="M31.3164 106.402H46.4949" stroke="#FFC310" stroke-width="0.499585"/>
<path d="M84.6348 128.461V145.924H102.098V128.461H84.6348Z" stroke="#FFDD9D" stroke-width="0.499585"/>
<path d="M84.6348 111.129V128.591H102.098V111.129H84.6348Z" stroke="#FFDD9D" stroke-width="0.499585"/>
<path d="M84.6348 145.781V163.245H102.098V145.781H84.6348Z" stroke="#FFDD9D" stroke-width="0.499585"/>
<path d="M81.2755 154.545C81.2755 157.435 78.9328 159.777 76.043 159.777C73.1532 159.777 70.8105 157.435 70.8105 154.545C70.8105 151.655 73.1532 149.312 76.043 149.312C78.9328 149.312 81.2755 151.655 81.2755 154.545Z" fill="#FFC310"/>
<path d="M96.8679 141.041C94.8245 143.085 91.5115 143.085 89.468 141.041C87.4246 138.998 87.4246 135.685 89.468 133.641C91.5115 131.598 94.8245 131.598 96.8679 133.641C98.9113 135.685 98.9113 138.998 96.8679 141.041Z" fill="#FFC310"/>
<path d="M96.8686 141.044C94.8252 143.088 91.5122 143.088 89.4688 141.044L96.8686 133.645C98.912 135.688 98.912 139.001 96.8686 141.044Z" fill="#FFDD9D"/>
<path d="M67.3164 145.797V163.259H84.7792V145.797H67.3164Z" stroke="#FFDD9D" stroke-width="0.499585"/>
<path d="M67.3164 128.457V145.921H84.7792V128.457H67.3164Z" stroke="#FFDD9D" stroke-width="0.499585"/>
<path d="M67.3164 180.638V163.176H84.7792V180.638H67.3164Z" stroke="#FFDD9D" stroke-width="0.499585"/>
<path d="M71.0246 87.1133L68.4816 91.7628L63.832 94.3058L68.4816 96.8487L71.0246 101.499L73.5675 96.8487L78.2171 94.3058L73.5675 91.7628L71.0246 87.1133Z" fill="#FFDD9D"/>
<path d="M68.4836 91.7628L71.0265 87.1133V101.499L68.4836 96.8487L63.834 94.3058L68.4836 91.7628Z" fill="#DEAA0F"/>
<path d="M102.991 73.433V65.9102H87.9453V73.433" stroke="#FFC310" stroke-width="0.499585"/>
<path d="M102.991 73.4336V80.9564H87.9453V73.4336" stroke="#FFDD9D" stroke-width="0.499585"/>
<path d="M100.006 73.4336V77.9688H90.9355V73.4336" stroke="#DEAA0F" stroke-width="0.499585"/>
<path d="M100.006 73.4299V68.8945H90.9355V73.4299" stroke="#FFDD9D" stroke-width="0.499585"/>
<path d="M97.0961 73.4336V75.0617H93.8398V73.4336" stroke="#FFDD9D" stroke-width="0.499585"/>
<path d="M97.0961 73.4328V71.8047H93.8398V73.4328" stroke="#FFC310" stroke-width="0.499585"/>
<path d="M63.127 32.5859H130.797V39.9465H63.127V32.5859Z" stroke="#FFC310" stroke-width="0.499585"/>
<path d="M73.0156 27.2812H102.99V44.2019H73.0156V27.2812Z" fill="#FFC310"/>
<path d="M80.4141 29.7188H83.5496V41.7683H80.4141V29.7188Z" fill="#FFDD9D"/>
<path d="M86.4336 29.7188H89.5691V41.7683H86.4336V29.7188Z" fill="#FFDD9D"/>
<path d="M92.4453 29.7188H95.5808V41.7683H92.4453V29.7188Z" fill="#FFDD9D"/>
<path d="M160.773 17.3281H181.588V38.143H160.773V17.3281Z" fill="#DEAA0F"/>
<path d="M181.586 17.3281H202.401V38.143H181.586V17.3281Z" fill="#FFC310"/>
<path d="M202.396 17.3281H223.211V38.143H202.396V17.3281Z" fill="#FFC310"/>
<path d="M223.219 17.3281H244.034V38.143H223.219V17.3281Z" fill="#FFDD9D"/>
</g>
</g>
</g>
<defs>
<clipPath id="clip0_661_10379">
<rect width="382.7" height="192.84" fill="white"/>
</clipPath>
<clipPath id="clip1_661_10379">
<rect width="382.7" height="192.84" fill="white"/>
</clipPath>
<clipPath id="clip2_661_10379">
<rect width="382.682" height="192.84" fill="white" transform="translate(0.0078125)"/>
</clipPath>
</defs>
</svg>
