<svg width="361" height="248" viewBox="0 0 361 248" fill="none" xmlns="http://www.w3.org/2000/svg">
<g clip-path="url(#clip0_661_10273)">
<g clip-path="url(#clip1_661_10273)">
<g clip-path="url(#clip2_661_10273)">
<path d="M343.01 48.7812L346.667 55.4671L353.353 59.1237L346.667 62.7804L343.01 69.4662L339.353 62.7804L332.668 59.1237L339.353 55.4671L343.01 48.7812Z" fill="#FFDD9D"/>
<path d="M346.665 55.4671L343.008 48.7812V69.4662L346.665 62.7804L353.351 59.1237L346.665 55.4671Z" fill="#DEAA0F"/>
<path d="M217.919 118.344C214.45 118.576 211.49 119.765 209.643 120.938C209.563 120.989 209.534 121.087 209.569 121.176L217.889 142.278C217.96 142.458 218.228 142.434 218.288 142.251C221.268 133.21 232.285 143.606 238.934 138.979C245.938 134.103 250.138 125.239 249.926 119.877C249.921 119.748 249.634 119.847 249.55 119.943C241.759 128.822 229.706 117.557 217.919 118.344Z" fill="#FFDD9D"/>
<path d="M219.23 158.178L210.626 136.359M210.626 136.359L202.023 114.54C203.799 113.379 206.682 112.179 210.085 111.887C222.084 110.855 234.686 122.275 242.421 113.044C244.07 111.075 238.607 127.513 231.448 132.494C224.66 137.218 213.32 126.285 210.626 136.359Z" stroke="#DEAA0F" stroke-width="1.00047" stroke-linecap="round" stroke-linejoin="round"/>
<path d="M196.791 107.832C198.031 107.832 199.035 106.827 199.035 105.588C199.035 104.349 198.031 103.344 196.791 103.344C195.552 103.344 194.547 104.349 194.547 105.588C194.547 106.827 195.552 107.832 196.791 107.832Z" fill="#FFDD9D"/>
<path d="M111.545 27.1406H183.879V155.283H111.545V27.1406Z" fill="#FFC310"/>
<path d="M11.7486 60.3789H6.32031V188.522H78.6546V183.07" stroke="#FFDD9D" stroke-width="0.500236"/>
<path d="M6.4154 65.7109H0.990234V193.854H73.3245V188.421" stroke="#FFDD9D" stroke-width="0.500236"/>
<path d="M17.0957 65.9609H78.5414V87.0514H17.0957V65.9609Z" stroke="#FFDD9D" stroke-width="0.500236"/>
<path d="M17.0957 97.7814H78.5414V118.872H17.0957V97.7814Z" stroke="#FFDD9D" stroke-width="0.500236"/>
<path d="M17.0957 129.602H30.2413V150.692H17.0957V129.602Z" stroke="#FFDD9D" stroke-width="0.500236"/>
<path d="M15.8125 160.363H41.9797V168.924H15.8125V160.363Z" stroke="#FFC310" stroke-width="0.500236"/>
<path d="M52.9277 160.109H79.5951V169.171H52.9277V160.109Z" fill="#FFC310"/>
<path d="M50.0215 157.789H82.4983V171.495H50.0215V157.789Z" stroke="#FFC310" stroke-width="0.500236"/>
<path d="M33.2441 131.574H74.1496V134.164H33.2441V131.574Z" fill="#DEAA0F"/>
<path d="M33.2441 135.531H57.17V138.121H33.2441V135.531Z" fill="#FFC310"/>
<path d="M119.805 33.8516H146.454V40.086H119.805V33.8516Z" fill="white"/>
<path d="M119.805 77.9062H159.051V85.9054H119.805V77.9062Z" fill="white"/>
<path d="M119.805 88.4959H148.084V92.5243H119.805V88.4959Z" fill="#FFDD9D"/>
<path d="M120.055 98.6523H126.158V108.04H120.055V98.6523Z" stroke="#FFDD9D" stroke-width="0.500236"/>
<path d="M129.195 100.309H176.183V102.959H129.195V100.309Z" fill="#DEAA0F"/>
<path d="M129.195 104.395H156.41V107.045H129.195V104.395Z" fill="#FFDD9D"/>
<path d="M120.055 112.824H126.158V122.212H120.055V112.824Z" stroke="#FFDD9D" stroke-width="0.500236"/>
<path d="M129.195 114.484H176.183V117.135H129.195V114.484Z" fill="#DEAA0F"/>
<path d="M129.195 118.57H156.41V121.221H129.195V118.57Z" fill="#FFDD9D"/>
<path d="M120.055 127H126.158V136.388H120.055V127Z" stroke="#FFDD9D" stroke-width="0.500236"/>
<path d="M129.195 128.656H176.183V131.307H129.195V128.656Z" fill="#DEAA0F"/>
<path d="M129.195 132.742H156.41V135.393H129.195V132.742Z" fill="#FFDD9D"/>
<path d="M120.053 141.172H126.156V150.56H120.053V141.172Z" stroke="#FFDD9D" stroke-width="0.500236"/>
<path d="M129.195 142.828H176.183V145.479H129.195V142.828Z" fill="#DEAA0F"/>
<path d="M129.195 146.918H156.41V149.569H129.195V146.918Z" fill="#FFDD9D"/>
<path d="M120.055 47.4727H175.93V72.6879H120.055V47.4727Z" stroke="#FFDD9D" stroke-width="0.500236"/>
<path d="M168.953 33.5625H176.176V34.1391H168.953V33.5625Z" fill="white"/>
<path d="M168.953 36.6797H176.176V37.2562H168.953V36.6797Z" fill="white"/>
<path d="M168.953 39.7971H176.176V40.3737H168.953V39.7971Z" fill="white"/>
<path d="M172.73 85.3535C174.634 85.3535 176.178 83.8097 176.178 81.9053C176.178 80.0009 174.634 78.457 172.73 78.457C170.825 78.457 169.281 80.0009 169.281 81.9053C169.281 83.8097 170.825 85.3535 172.73 85.3535Z" fill="#DEAA0F"/>
<path d="M11.9023 55.2969H83.7363V182.939H11.9023V55.2969Z" stroke="#FFDD9D" stroke-width="0.500236"/>
<path d="M82.707 164.851C87.8802 165.481 98.2991 161.528 98.59 140.675C98.9537 114.609 102.834 105.794 110.472 104.661M110.472 104.661L107.025 103.195M110.472 104.661L108.025 107.93" stroke="#FFC310" stroke-width="1.00047"/>
<path d="M82.4998 166.687C83.6302 166.687 84.5466 165.771 84.5466 164.64C84.5466 163.51 83.6302 162.594 82.4998 162.594C81.3695 162.594 80.4531 163.51 80.4531 164.64C80.4531 165.771 81.3695 166.687 82.4998 166.687Z" fill="#FFC310"/>
<path d="M166.053 170.656H306.817V203.863H166.053V170.656Z" stroke="#FFDD9D" stroke-width="1.00047"/>
<path d="M166.715 180.771C168.981 180.407 174.302 181.425 177.453 188.413C179.485 192.921 182.773 194.23 185.767 193.692C191.412 192.677 192.106 184.374 197.244 181.824C198.544 181.18 200.126 180.771 202.033 180.771" stroke="#FFDD9D" stroke-width="1.00047"/>
<path d="M237.35 180.771C235.083 180.407 229.761 181.425 226.612 188.413C224.579 192.921 221.291 194.23 218.298 193.692C212.652 192.677 211.959 184.374 206.82 181.824C205.521 181.18 203.939 180.771 202.031 180.771" stroke="#FFDD9D" stroke-width="1.00047"/>
<path d="M235.523 180.771C237.791 180.407 243.112 181.425 246.262 188.413C248.293 192.921 251.582 194.23 254.575 193.692C260.221 192.677 260.914 184.374 266.054 181.824C267.352 181.18 268.934 180.771 270.842 180.771" stroke="#FFDD9D" stroke-width="1.00047"/>
<path d="M306.158 180.771C303.89 180.407 298.57 181.425 295.419 188.413C293.387 192.921 290.099 194.23 287.106 193.692C281.46 192.677 280.767 184.374 275.628 181.824C274.329 181.18 272.747 180.771 270.84 180.771" stroke="#FFDD9D" stroke-width="1.00047"/>
<path d="M306.666 170.656H358.66V203.863H306.666V170.656Z" stroke="#FFDD9D" stroke-width="1.00047"/>
<path d="M320.319 185.177C321.466 185.177 322.396 184.247 322.396 183.1C322.396 181.953 321.466 181.023 320.319 181.023C319.172 181.023 318.242 181.953 318.242 183.1C318.242 184.247 319.172 185.177 320.319 185.177Z" stroke="#FFDD9D" stroke-width="1.00047"/>
<path d="M328.548 185.177C329.695 185.177 330.624 184.247 330.624 183.1C330.624 181.953 329.695 181.023 328.548 181.023C327.401 181.023 326.471 181.953 326.471 183.1C326.471 184.247 327.401 185.177 328.548 185.177Z" stroke="#FFDD9D" stroke-width="1.00047"/>
<path d="M336.78 185.177C337.927 185.177 338.857 184.247 338.857 183.1C338.857 181.953 337.927 181.023 336.78 181.023C335.633 181.023 334.703 181.953 334.703 183.1C334.703 184.247 335.633 185.177 336.78 185.177Z" stroke="#FFDD9D" stroke-width="1.00047"/>
<path d="M345.009 185.177C346.156 185.177 347.085 184.247 347.085 183.1C347.085 181.953 346.156 181.023 345.009 181.023C343.861 181.023 342.932 181.953 342.932 183.1C342.932 184.247 343.861 185.177 345.009 185.177Z" stroke="#FFDD9D" stroke-width="1.00047"/>
<path d="M320.319 193.49C321.466 193.49 322.396 192.56 322.396 191.413C322.396 190.266 321.466 189.336 320.319 189.336C319.172 189.336 318.242 190.266 318.242 191.413C318.242 192.56 319.172 193.49 320.319 193.49Z" stroke="#FFDD9D" stroke-width="1.00047"/>
<path d="M328.548 193.49C329.695 193.49 330.624 192.56 330.624 191.413C330.624 190.266 329.695 189.336 328.548 189.336C327.401 189.336 326.471 190.266 326.471 191.413C326.471 192.56 327.401 193.49 328.548 193.49Z" stroke="#FFDD9D" stroke-width="1.00047"/>
<path d="M336.78 193.49C337.927 193.49 338.857 192.56 338.857 191.413C338.857 190.266 337.927 189.336 336.78 189.336C335.633 189.336 334.703 190.266 334.703 191.413C334.703 192.56 335.633 193.49 336.78 193.49Z" stroke="#FFDD9D" stroke-width="1.00047"/>
<path d="M345.009 193.49C346.156 193.49 347.085 192.56 347.085 191.413C347.085 190.266 346.156 189.336 345.009 189.336C343.861 189.336 342.932 190.266 342.932 191.413C342.932 192.56 343.861 193.49 345.009 193.49Z" stroke="#FFDD9D" stroke-width="1.00047"/>
<path d="M300.547 137.328H334.021V170.803H300.547V137.328Z" stroke="#FFDD9D" stroke-width="1.00047"/>
<path d="M317.285 166.032C323.894 166.032 329.251 160.675 329.251 154.067C329.251 147.459 323.894 142.102 317.285 142.102C310.677 142.102 305.32 147.459 305.32 154.067C305.32 160.675 310.677 166.032 317.285 166.032Z" fill="#7755FF"/>
<path d="M312.627 158.723C315.199 161.294 319.368 161.294 321.94 158.723C324.511 156.151 324.511 151.982 321.94 149.41C319.368 146.839 315.199 146.839 312.627 149.41C310.055 151.982 310.055 156.151 312.627 158.723Z" fill="white"/>
<path d="M312.625 158.726C315.196 161.298 319.366 161.298 321.937 158.726C324.509 156.155 324.509 151.985 321.937 149.414L312.625 158.726Z" fill="#FFDD9D"/>
<path d="M300.693 137.328H267.219V170.803H300.693V137.328Z" stroke="#FFDD9D" stroke-width="1.00047"/>
<path d="M290.479 150.477L283.954 161.272L277.43 150.477H290.479Z" stroke="#FFC310" stroke-width="1.00047"/>
<path d="M65.5762 18.5469V23.4264" stroke="#FFC310" stroke-width="1.00047"/>
<path d="M71.9191 20.9883L68.4688 24.4386" stroke="#FFDD9D" stroke-width="1.00047"/>
<path d="M74.149 27.1406H69.2695" stroke="#FFDD9D" stroke-width="1.00047"/>
<path d="M59.2344 20.9883L62.6848 24.4386" stroke="#FFDD9D" stroke-width="1.00047"/>
<path d="M57.002 27.1406H61.8815" stroke="#FFDD9D" stroke-width="1.00047"/>
<path d="M65.5762 35.7312V30.8516" stroke="#FFDD9D" stroke-width="1.00047"/>
<path d="M71.9191 33.2902L68.4688 29.8398" stroke="#FFDD9D" stroke-width="1.00047"/>
<path d="M59.2344 33.2902L62.6848 29.8398" stroke="#FFDD9D" stroke-width="1.00047"/>
<path d="M117.033 227.733C130.987 227.733 142.3 216.421 142.3 202.466C142.3 188.512 130.987 177.199 117.033 177.199C103.078 177.199 91.7656 188.512 91.7656 202.466C91.7656 216.421 103.078 227.733 117.033 227.733Z" stroke="#DEAA0F" stroke-width="1.00047"/>
<path d="M117.029 219.832C126.62 219.832 134.394 212.057 134.394 202.467C134.394 192.876 126.62 185.102 117.029 185.102C107.439 185.102 99.6641 192.876 99.6641 202.467C99.6641 212.057 107.439 219.832 117.029 219.832Z" stroke="#FFDD9D" stroke-width="1.00047"/>
<path d="M117.034 211.243C121.88 211.243 125.81 207.314 125.81 202.467C125.81 197.62 121.88 193.691 117.034 193.691C112.187 193.691 108.258 197.62 108.258 202.467C108.258 207.314 112.187 211.243 117.034 211.243Z" stroke="#FFDD9D" stroke-width="1.00047"/>
<path d="M288.842 68.0703H301.197V137.147H288.842V68.0703Z" fill="#FFDD9D"/>
<path d="M295.02 68.0703V137.147" stroke="#DEAA0F" stroke-width="0.300142"/>
<path d="M301.195 68.0703H313.551V137.147H301.195V68.0703Z" fill="#DEAA0F"/>
<path d="M301.196 68.0714H313.549L301.195 45.2695L301.196 68.0714Z" fill="#FFDD9D"/>
<path d="M301.195 68.0714H288.842L301.195 45.2695V68.0714Z" fill="white"/>
<path d="M301.195 45.2695V56.6705H295.02L301.195 45.2695Z" fill="#DEAA0F"/>
<path d="M301.195 45.2695L301.196 56.6705H307.372L301.195 45.2695Z" fill="#232323"/>
<path d="M307.375 68.0742V137.151" stroke="#FFDD9D" stroke-width="0.300142"/>
<path d="M228.17 45.5195H266.465V93.749H228.17V45.5195Z" stroke="#FFC310" stroke-width="0.500236"/>
<path d="M230.957 45.6914V93.471" stroke="#FFC310" stroke-width="0.500236"/>
<path d="M259.791 45.6914V93.471" stroke="#FFC310" stroke-width="0.500236"/>
<path d="M261.418 45.6914V93.471" stroke="#FFC310" stroke-width="0.500236"/>
<path d="M263.043 45.6914V93.471" stroke="#FFC310" stroke-width="0.500236"/>
<path d="M264.666 45.6914V93.471" stroke="#FFC310" stroke-width="0.500236"/>
<path d="M234.895 51.7148H249.696V59.1249H234.895V51.7148Z" fill="#FFDD9D"/>
<path d="M234.895 62.6562H256.033V64.5953H234.895V62.6562Z" fill="#FFDD9D"/>
<path d="M234.895 68.1289H256.033V70.068H234.895V68.1289Z" fill="#FFDD9D"/>
<path d="M234.895 73.6016H256.033V75.5407H234.895V73.6016Z" fill="#FFDD9D"/>
<path d="M234.895 79.0703H256.033V81.0094H234.895V79.0703Z" fill="#FFDD9D"/>
<path d="M234.895 84.543H256.033V86.4821H234.895V84.543Z" fill="#FFDD9D"/>
<path d="M203.767 53.1055L201.735 56.8198L198.021 58.8513L201.735 60.8827L203.767 64.5971L205.798 60.8827L209.513 58.8513L205.798 56.8198L203.767 53.1055Z" fill="#FFDD9D"/>
<path d="M201.733 56.8198L203.765 53.1055V64.5971L201.733 60.8827L198.02 58.8513L201.733 56.8198Z" fill="#DEAA0F"/>
</g>
</g>
</g>
<defs>
<clipPath id="clip0_661_10273">
<rect width="360.17" height="247.19" fill="white" transform="translate(-0.00976562)"/>
</clipPath>
<clipPath id="clip1_661_10273">
<rect width="360.17" height="247.19" fill="white" transform="translate(-0.00976562)"/>
</clipPath>
<clipPath id="clip2_661_10273">
<rect width="360.17" height="210.099" fill="white" transform="translate(-0.00976562 18.5469)"/>
</clipPath>
</defs>
</svg>
