<svg width="70" height="71" viewBox="0 0 70 71" fill="none" xmlns="http://www.w3.org/2000/svg">
<g clip-path="url(#clip0_661_10265)">
<path d="M69.7603 67.4871L46.7578 24.1883V15.5391H61.1132C61.8901 15.5391 62.6002 15.1002 62.9475 14.4054C63.2949 13.7107 63.2199 12.8793 62.7539 12.2578L59.5752 8.01953L62.7539 3.78125C63.2199 3.15986 63.2949 2.32848 62.9475 1.63367C62.6002 0.938867 61.8901 0.5 61.1132 0.5H44.707C43.5744 0.5 42.6562 1.4182 42.6562 2.55078V24.1883L29.4354 49.0747L21.6275 34.66C21.269 33.9981 20.5768 33.5859 19.8242 33.5859C19.0715 33.5859 18.3795 33.9981 18.021 34.66L0.247563 67.4725C-0.0966949 68.108 -0.0809722 68.8777 0.288852 69.4987C0.658676 70.1196 1.32805 70.5 2.05075 70.5H67.9492C68.669 70.5 69.3361 70.1227 69.7068 69.5058C70.0778 68.8889 70.098 68.1227 69.7603 67.4871ZM44.707 29.0704L50.6826 40.3185C49.7969 40.6319 49.1022 41.0267 48.4862 41.3769C47.3666 42.013 46.5578 42.4727 44.707 42.4727C42.8562 42.4727 42.0474 42.013 40.9278 41.3769C40.3116 41.0267 39.617 40.632 38.7314 40.3185L44.707 29.0704ZM46.7578 4.60156H57.0117L55.3711 6.78906C54.8242 7.51818 54.8242 8.52088 55.3711 9.25L57.0117 11.4375H46.7578V4.60156ZM18.1551 43.0238L19.8242 39.9425L23.6293 46.9673C23.2587 47.1845 22.9318 47.4096 22.6312 47.6166C21.7493 48.2239 21.1668 48.625 19.8242 48.625C18.4816 48.625 17.899 48.2239 17.0172 47.6167C16.7166 47.4097 16.3897 47.1847 16.019 46.9674L18.1551 43.0238ZM14.0631 50.5783C14.2636 50.7018 14.4667 50.8404 14.6911 50.9949C15.8116 51.7664 17.2062 52.7266 19.8242 52.7266C22.4422 52.7266 23.8369 51.7664 24.9573 50.9947C25.1816 50.8403 25.3849 50.7016 25.5854 50.5782L27.1258 53.4221L20.232 66.3984H5.49401L14.0631 50.5783ZM24.8766 66.3984L31.2641 54.375C31.2644 54.3743 31.2647 54.3736 31.2649 54.3731L36.7697 44.0113C37.5891 44.1979 38.1755 44.5304 38.9014 44.9429C40.1805 45.6697 41.7722 46.5742 44.707 46.5742C47.6418 46.5742 49.2335 45.6697 50.5126 44.9429C51.2385 44.5304 51.825 44.1979 52.6443 44.0113L64.5375 66.3984H24.8766Z" fill="#FA7441"/>
</g>
<defs>
<clipPath id="clip0_661_10265">
<rect width="70" height="70" fill="white" transform="translate(0 0.5)"/>
</clipPath>
</defs>
</svg>
