<svg width="18" height="18" viewBox="0 0 18 18" fill="none" xmlns="http://www.w3.org/2000/svg">
<path fill-rule="evenodd" clip-rule="evenodd" d="M7.92943 3.18295C8.62683 2.48555 9.57271 2.09375 10.559 2.09375H12.4715C12.7649 2.09375 13.0027 2.3316 13.0027 2.625V5.175C13.0027 5.4684 12.7649 5.70625 12.4715 5.70625H10.559C10.5308 5.70625 10.5038 5.71744 10.4839 5.73737C10.4639 5.7573 10.4527 5.78432 10.4527 5.8125V7.19375H12.4715C12.6351 7.19375 12.7895 7.26912 12.8902 7.39806C12.9909 7.52701 13.0265 7.69514 12.9869 7.85385L12.3494 10.4038C12.2902 10.6403 12.0778 10.8062 11.834 10.8062H10.4527V15.375C10.4527 15.6684 10.2149 15.9062 9.92148 15.9062H7.37148C7.07808 15.9062 6.84023 15.6684 6.84023 15.375V10.8062H5.45898C5.16558 10.8062 4.92773 10.5684 4.92773 10.275V7.725C4.92773 7.4316 5.16558 7.19375 5.45898 7.19375H6.84023V5.8125C6.84023 4.82623 7.23203 3.88035 7.92943 3.18295ZM10.559 3.15625C9.8545 3.15625 9.17888 3.4361 8.68073 3.93425C8.18259 4.43239 7.90273 5.10802 7.90273 5.8125V7.725C7.90273 8.0184 7.66489 8.25625 7.37148 8.25625H5.99023V9.74375H7.37148C7.66489 9.74375 7.90273 9.9816 7.90273 10.275V14.8438H9.39023V10.275C9.39023 9.9816 9.62808 9.74375 9.92148 9.74375H11.4192L11.7911 8.25625H9.92148C9.62808 8.25625 9.39023 8.0184 9.39023 7.725V5.8125C9.39023 5.50253 9.51337 5.20525 9.73255 4.98607C9.95174 4.76689 10.249 4.64375 10.559 4.64375H11.9402V3.15625H10.559Z" fill="#34113F"/>
</svg>
