<svg width="18" height="18" viewBox="0 0 18 18" fill="none" xmlns="http://www.w3.org/2000/svg">
<path d="M11.834 5.45835C11.834 5.06714 12.1511 4.75001 12.5423 4.75001C12.9335 4.75001 13.2506 5.06714 13.2506 5.45835C13.2506 5.84955 12.9335 6.16668 12.5423 6.16668C12.1511 6.16668 11.834 5.84955 11.834 5.45835Z" fill="#34113F"/>
<path fill-rule="evenodd" clip-rule="evenodd" d="M9.00064 5.63543C7.14243 5.63543 5.63605 7.1418 5.63605 9.00001C5.63605 10.8582 7.14243 12.3646 9.00064 12.3646C10.8588 12.3646 12.3652 10.8582 12.3652 9.00001C12.3652 7.1418 10.8588 5.63543 9.00064 5.63543ZM6.69855 9.00001C6.69855 7.72861 7.72923 6.69793 9.00064 6.69793C10.272 6.69793 11.3027 7.72861 11.3027 9.00001C11.3027 10.2714 10.272 11.3021 9.00064 11.3021C7.72923 11.3021 6.69855 10.2714 6.69855 9.00001Z" fill="#34113F"/>
<path fill-rule="evenodd" clip-rule="evenodd" d="M12.7252 2.50673C10.2697 2.23229 7.73155 2.23229 5.27606 2.50673C3.85085 2.66602 2.70028 3.78873 2.53272 5.22136C2.23909 7.7319 2.23909 10.2681 2.53272 12.7787C2.70028 14.2113 3.85085 15.334 5.27606 15.4933C7.73155 15.7677 10.2697 15.7677 12.7252 15.4933C14.1504 15.334 15.301 14.2113 15.4686 12.7787C15.7622 10.2681 15.7622 7.7319 15.4686 5.22136C15.301 3.78873 14.1504 2.66602 12.7252 2.50673ZM5.39407 3.56266C7.77113 3.29699 10.2302 3.29699 12.6072 3.56266C13.5494 3.66796 14.3041 4.41143 14.4133 5.34479C14.6973 7.77333 14.6973 10.2267 14.4133 12.6552C14.3041 13.5886 13.5494 14.3321 12.6072 14.4374C10.2302 14.703 7.77113 14.703 5.39407 14.4374C4.45191 14.3321 3.69719 13.5886 3.58803 12.6552C3.30399 10.2267 3.30399 7.77333 3.58803 5.34479C3.69719 4.41143 4.45191 3.66796 5.39407 3.56266Z" fill="#34113F"/>
</svg>
