<svg width="18" height="18" viewBox="0 0 18 18" fill="none" xmlns="http://www.w3.org/2000/svg">
<path fill-rule="evenodd" clip-rule="evenodd" d="M4.04167 1.38538C2.96586 1.38538 2.09375 2.25749 2.09375 3.33329C2.09375 4.4091 2.96586 5.28121 4.04167 5.28121C5.11747 5.28121 5.98958 4.4091 5.98958 3.33329C5.98958 2.25749 5.11747 1.38538 4.04167 1.38538ZM3.15625 3.33329C3.15625 2.84429 3.55266 2.44788 4.04167 2.44788C4.53067 2.44788 4.92708 2.84429 4.92708 3.33329C4.92708 3.82229 4.53067 4.21871 4.04167 4.21871C3.55266 4.21871 3.15625 3.82229 3.15625 3.33329Z" fill="#34113F"/>
<path fill-rule="evenodd" clip-rule="evenodd" d="M2.09375 6.16663C2.09375 5.87322 2.3316 5.63538 2.625 5.63538H5.45833C5.75173 5.63538 5.98958 5.87322 5.98958 6.16663V15.375C5.98958 15.6684 5.75173 15.9062 5.45833 15.9062H2.625C2.3316 15.9062 2.09375 15.6684 2.09375 15.375V6.16663ZM3.15625 6.69788V14.8437H4.92708V6.69788H3.15625Z" fill="#34113F"/>
<path fill-rule="evenodd" clip-rule="evenodd" d="M7.05208 6.16663C7.05208 5.87322 7.28993 5.63538 7.58333 5.63538H10.4167C10.7101 5.63538 10.9479 5.87322 10.9479 6.16663V6.47406L11.2562 6.34192C11.7863 6.11475 12.3532 5.97229 12.9265 5.92017C14.8921 5.74148 16.6146 7.28606 16.6146 9.2693V15.375C16.6146 15.6684 16.3767 15.9062 16.0833 15.9062H13.25C12.9566 15.9062 12.7188 15.6684 12.7188 15.375V10.4166C12.7188 10.1818 12.6255 9.95659 12.4594 9.79054C12.2934 9.62449 12.0682 9.53121 11.8333 9.53121C11.5985 9.53121 11.3733 9.62449 11.2073 9.79054C11.0412 9.95659 10.9479 10.1818 10.9479 10.4166V15.375C10.9479 15.6684 10.7101 15.9062 10.4167 15.9062H7.58333C7.28993 15.9062 7.05208 15.6684 7.05208 15.375V6.16663ZM8.11458 6.69788V14.8437H9.88542V10.4166C9.88542 9.90001 10.0906 9.40455 10.4559 9.03924C10.8213 8.67394 11.3167 8.46871 11.8333 8.46871C12.35 8.46871 12.8454 8.67394 13.2107 9.03924C13.576 9.40455 13.7813 9.90001 13.7813 10.4166V14.8437H15.5521V9.2693C15.5521 7.92037 14.3756 6.85532 13.0227 6.97831C12.5594 7.02042 12.1014 7.13568 11.6748 7.31851L10.6259 7.76802C10.4618 7.83836 10.2733 7.82153 10.1242 7.72323C9.97514 7.62493 9.88542 7.4583 9.88542 7.27972V6.69788H8.11458Z" fill="#34113F"/>
</svg>
