<svg width="18" height="18" viewBox="0 0 18 18" fill="none" xmlns="http://www.w3.org/2000/svg">
<path fill-rule="evenodd" clip-rule="evenodd" d="M11.1396 2.86825C11.4997 2.80657 11.903 2.78597 12.2825 2.85018C12.9602 2.96485 13.5863 3.27986 14.0812 3.75215C14.4047 3.75947 14.7226 3.69574 15.0039 3.60488C15.242 3.52799 15.4431 3.43515 15.584 3.36174C15.6541 3.32524 15.7082 3.2941 15.7434 3.27302C15.761 3.2625 15.7737 3.25453 15.7813 3.24972L15.7881 3.24543C15.9983 3.10537 16.2782 3.13263 16.4574 3.31078C16.6365 3.48897 16.6654 3.76871 16.5264 3.97972C16.3792 4.20306 16.175 4.60119 15.9462 5.04727C15.9102 5.11741 15.8736 5.18873 15.8365 5.26075C15.7053 5.51572 15.5707 5.77342 15.4453 5.99452C15.3665 6.13334 15.2823 6.27428 15.1973 6.39607V6.59C15.2027 7.30232 15.121 8.01092 14.9552 8.70029C14.8509 9.13403 14.7133 9.56016 14.5431 9.9748C14.1022 11.0491 13.4517 12.0248 12.6295 12.8449C11.8073 13.6649 10.83 14.313 9.75454 14.7511C8.68007 15.1888 7.5292 15.4083 6.36906 15.3966C4.68726 15.3981 3.04083 14.9136 1.6279 14.0013C1.4198 13.8669 1.33218 13.6065 1.41671 13.3737C1.50124 13.1408 1.73548 12.9973 1.98132 13.0277C2.19407 13.0541 2.40828 13.0669 2.62266 13.0662C3.39294 13.0641 4.14854 12.8939 4.83836 12.5732C4.6191 12.4734 4.40976 12.3504 4.21415 12.2053C3.63919 11.779 3.21142 11.184 2.99037 10.5032C2.93293 10.3263 2.9722 10.1322 3.0939 9.99154C3.09608 9.98902 3.09828 9.98653 3.1005 9.98406C2.9705 9.86814 2.84886 9.74192 2.73687 9.60619C2.23302 8.99546 1.95559 8.22944 1.95149 7.43771L1.95148 7.43497L1.95149 7.39955C1.95149 7.21123 2.05118 7.03698 2.21354 6.94155C2.25469 6.91736 2.29831 6.89916 2.34319 6.88694C2.10354 6.40876 1.97891 5.88074 1.97982 5.34505C1.97954 4.73818 2.13806 4.14178 2.43964 3.61514C2.5267 3.4631 2.68312 3.36377 2.85775 3.34962C3.03237 3.33547 3.20274 3.40832 3.31315 3.54436C3.99496 4.38445 4.84587 5.07171 5.81061 5.5615C6.30654 5.81328 6.82685 6.00998 7.3622 6.14913C7.66235 6.22713 7.96722 6.28705 8.27519 6.32844C8.26162 5.81613 8.36279 5.3041 8.57509 4.83098C8.88654 4.13693 9.41953 3.56589 10.0905 3.20741C10.3746 3.05559 10.7518 2.93467 11.1396 2.86825ZM3.15089 8.21439C3.24272 8.47286 3.37934 8.71533 3.55646 8.93003C3.90448 9.35187 4.38752 9.64056 4.92389 9.74726C5.1628 9.79479 5.33877 9.9987 5.35083 10.242C5.36289 10.4853 5.20794 10.7056 4.9749 10.7765C4.78189 10.8353 4.58414 10.8762 4.38414 10.8989C4.5163 11.0693 4.67176 11.2219 4.84701 11.3518C5.24452 11.6466 5.72402 11.8101 6.21879 11.8196C6.44328 11.824 6.64081 11.969 6.71223 12.1818C6.78365 12.3947 6.71353 12.6295 6.53708 12.7683C5.79392 13.3531 4.93457 13.7608 4.02397 13.969C4.77869 14.2107 5.57021 14.3351 6.37084 14.3341L6.377 14.3341C7.39704 14.3447 8.40897 14.152 9.35367 13.7671C10.2984 13.3822 11.1569 12.813 11.8792 12.0926C12.6014 11.3722 13.1729 10.5151 13.5602 9.57141C13.7096 9.20717 13.8305 8.83284 13.9222 8.45182C14.068 7.84565 14.1397 7.22256 14.1348 6.5962L14.1348 6.59205V6.21663C14.1348 6.08782 14.1816 5.96339 14.2665 5.86651C14.3156 5.81053 14.4014 5.68122 14.5211 5.4702C14.6349 5.26965 14.7609 5.02889 14.8918 4.77447C14.8997 4.75908 14.9077 4.74361 14.9157 4.72807C14.576 4.80184 14.1909 4.84051 13.7873 4.79689C13.6595 4.78308 13.541 4.72337 13.4539 4.62885C13.0977 4.24257 12.6233 3.98544 12.1052 3.89779C11.8754 3.8589 11.5974 3.8678 11.319 3.9155C11.0164 3.96732 10.7532 4.058 10.5912 4.14454C10.1277 4.39215 9.75959 4.78658 9.54447 5.26597C9.32935 5.74536 9.27943 6.2826 9.40253 6.79341C9.44178 6.95627 9.40192 7.1281 9.29497 7.25703C9.18803 7.38597 9.02654 7.45692 8.85923 7.44845C8.26181 7.41824 7.67072 7.32711 7.09493 7.17746C6.48584 7.01916 5.89386 6.79536 5.32962 6.5089C4.4989 6.08715 3.74237 5.53671 3.08727 4.87959C3.05739 5.03232 3.04221 5.18817 3.04232 5.34503L3.04232 5.34639C3.04158 5.73648 3.13731 6.1207 3.32099 6.46485C3.50466 6.80899 3.77059 7.10238 4.09508 7.31888C4.29202 7.45028 4.37824 7.69613 4.30652 7.92174C4.2348 8.14736 4.02244 8.29829 3.78579 8.29185C3.57145 8.28602 3.3589 8.25995 3.15089 8.21439Z" fill="#34113F"/>
</svg>
