<svg width="55" height="55" viewBox="0 0 55 55" fill="none" xmlns="http://www.w3.org/2000/svg">
<path d="M34.5898 43.0762C39.3284 43.0762 43.1836 46.9313 43.1836 51.6699C43.1836 52.2631 43.6646 52.7441 44.2578 52.7441C44.851 52.7441 45.332 52.2631 45.332 51.6699C45.332 46.9313 49.1872 43.0762 53.9258 43.0762C54.519 43.0762 55 42.5951 55 42.002C55 41.4088 54.519 40.9277 53.9258 40.9277C49.1872 40.9277 45.332 37.0726 45.332 32.334C45.332 31.7408 44.851 31.2598 44.2578 31.2598C43.6646 31.2598 43.1836 31.7408 43.1836 32.334C43.1836 37.0726 39.3284 40.9277 34.5898 40.9277C33.9967 40.9277 33.5156 41.4088 33.5156 42.002C33.5156 42.5951 33.9967 43.0762 34.5898 43.0762ZM44.2578 37.0145C45.3123 39.1837 47.0759 40.9474 49.2453 42.002C47.076 43.0564 45.3124 44.8201 44.2578 46.9894C43.2034 44.8202 41.4397 43.0565 39.2703 42.002C41.4397 40.9475 43.2034 39.1838 44.2578 37.0145Z" fill="#7755FF" fill-opacity="0.8"/>
<path d="M1.07422 10.8496C4.03584 10.8496 6.44531 13.2591 6.44531 16.2207C6.44531 16.8139 6.92624 17.2949 7.51953 17.2949C8.11282 17.2949 8.59375 16.8139 8.59375 16.2207C8.59375 13.2591 11.0032 10.8496 13.9648 10.8496C14.5581 10.8496 15.0391 10.3686 15.0391 9.77539C15.0391 9.18221 14.5581 8.70117 13.9648 8.70117C11.0032 8.70117 8.59375 6.2917 8.59375 3.33008C8.59375 2.73689 8.11282 2.25586 7.51953 2.25586C6.92624 2.25586 6.44531 2.73689 6.44531 3.33008C6.44531 6.2917 4.03584 8.70117 1.07422 8.70117C0.480928 8.70117 0 9.18221 0 9.77539C0 10.3686 0.480928 10.8496 1.07422 10.8496ZM7.51953 7.19984C8.15472 8.25365 9.04127 9.14031 10.095 9.77539C9.04116 10.4105 8.15461 11.2971 7.51953 12.3509C6.88435 11.2971 5.99779 10.4105 4.94409 9.77539C5.99779 9.14031 6.88435 8.25365 7.51953 7.19984Z" fill="#7755FF" fill-opacity="0.8"/>
<path d="M29.9727 32.6562C30.5659 32.6562 31.0469 32.1753 31.0469 31.582C31.0469 30.9888 30.5659 30.5078 29.9727 30.5078C29.3794 30.5078 28.8984 30.9888 28.8984 31.582C28.8984 32.1753 29.3794 32.6562 29.9727 32.6562Z" fill="#7755FF" fill-opacity="0.8"/>
<path d="M32.8365 29.1322C33.1391 29.6423 33.7984 29.8105 34.3085 29.5077C37.1142 27.8429 40.3316 26.9629 43.6133 26.9629C44.2065 26.9629 44.6875 26.4819 44.6875 25.8887C44.6875 25.2955 44.2065 24.8145 43.6133 24.8145C33.5438 24.8145 25.3516 16.6222 25.3516 6.55273C25.3516 5.95955 24.8706 5.47852 24.2773 5.47852C23.6841 5.47852 23.2031 5.95955 23.2031 6.55273C23.2031 16.6222 15.0109 24.8145 4.94141 24.8145C4.34812 24.8145 3.86719 25.2955 3.86719 25.8887C3.86719 26.4819 4.34812 26.9629 4.94141 26.9629C15.0109 26.9629 23.2031 35.1551 23.2031 45.2246C23.2031 45.8178 23.6841 46.2988 24.2773 46.2988C24.8706 46.2988 25.3516 45.8178 25.3516 45.2246C25.3516 41.943 26.2316 38.7255 27.8964 35.9198C28.1991 35.4096 28.031 34.7505 27.5208 34.4478C27.0103 34.1448 26.3514 34.3132 26.0488 34.8234C25.3222 36.0478 24.7295 37.3419 24.2766 38.6832C22.2406 32.6809 17.4832 27.9241 11.4807 25.8887C17.4839 23.853 22.2417 19.0952 24.2773 13.092C26.3128 19.0946 31.0695 23.852 37.0717 25.8879C35.7306 26.3408 34.4364 26.9336 33.2119 27.6602C32.7019 27.963 32.5337 28.6219 32.8365 29.1322Z" fill="#7755FF" fill-opacity="0.8"/>
</svg>
