<svg width="1159" height="856" viewBox="0 0 1159 856" fill="none" xmlns="http://www.w3.org/2000/svg">
<path d="M1.30122 1.29642V855M49.4971 1.29642V855M97.6929 1.29642V855M145.889 1.29642V855M194.084 1.29642V855M242.28 1.29642V855M290.476 1.29642V855M338.672 1.29642V855M386.868 1.29642V855M435.063 1.29642V855M483.259 1.29642V855M531.455 1.29642V855M579.651 1.29642V855M627.846 1.29642V855M676.042 1.29642V855M724.238 1.29642V855M772.434 1.29642V855M820.63 1.29642V855M868.825 1.29642V855M917.021 1.29642V855M965.217 1.29642V855M1013.41 1.29642V855M1061.61 1.29642V855M1109.8 1.29642V855M1158 1.29642V855M1 1H1157.7M1.00013 48.428H1157.7M1.00013 95.8559H1157.7M1.00013 143.284H1157.7M1.00013 190.712H1157.7M1.00013 238.14H1157.7M1.00013 285.568H1157.7M1.00013 332.996H1157.7M1.00013 380.424H1157.7M1.00013 427.852H1157.7M1.00013 475.28H1157.7M1.00013 522.708H1157.7M1.00013 570.136H1157.7M1.00013 617.564H1157.7M1.00013 664.992H1157.7M1.00013 712.42H1157.7M1.00013 759.847H1157.7M1.00013 807.275H1157.7M1.00013 854.703H1157.7" stroke="url(#paint0_radial_661_17608)"/>
<defs>
<radialGradient id="paint0_radial_661_17608" cx="0" cy="0" r="1" gradientUnits="userSpaceOnUse" gradientTransform="translate(579.5 428) rotate(90) scale(427 433.913)">
<stop stop-opacity="0.15"/>
<stop offset="0.189215" stop-opacity="0.1"/>
<stop offset="0.6033" stop-opacity="0"/>
</radialGradient>
</defs>
</svg>
