<svg width="290" height="287" viewBox="0 0 290 287" fill="none" xmlns="http://www.w3.org/2000/svg">
<path fill-rule="evenodd" clip-rule="evenodd" d="M0 15C0 6.71573 6.71573 0 15 0H45C53.2843 0 60 6.71573 60 15V37C60 45.2843 66.7157 52 75 52H275C283.284 52 290 58.7157 290 67V272C290 280.284 283.284 287 275 287H70C61.7157 287 55 280.284 55 272V75C55 66.7157 48.2843 60 40 60H15C6.71573 60 0 53.2843 0 45V15Z" fill="#E5DDFF"/>
<path d="M33.2324 16.4795C32.9052 25.5967 25.5898 32.912 16.4726 33.2393C25.5898 33.5665 32.9052 40.8819 33.2324 49.999C33.5596 40.8819 40.875 33.5665 49.9922 33.2393C40.875 32.912 33.5596 25.5967 33.2324 16.4795Z" fill="#7755FF"/>
<path d="M18.9365 9.99805C18.7619 14.8605 14.8604 18.7621 9.99791 18.9366C14.8604 19.1111 18.7619 23.0126 18.9365 27.8751C19.111 23.0126 23.0125 19.1111 27.875 18.9366C23.0125 18.7621 19.111 14.8605 18.9365 9.99805Z" fill="#7755FF"/>
<path d="M155.907 172.497C154.037 172.485 152.232 172.172 150.492 171.556C148.764 170.941 147.213 169.94 145.84 168.555C144.467 167.17 143.378 165.336 142.573 163.051C141.78 160.767 141.383 157.961 141.383 154.635C141.395 151.581 141.744 148.853 142.431 146.45C143.129 144.035 144.123 141.987 145.414 140.306C146.716 138.625 148.272 137.347 150.083 136.471C151.895 135.583 153.925 135.139 156.174 135.139C158.6 135.139 160.743 135.613 162.601 136.56C164.46 137.495 165.951 138.767 167.076 140.377C168.212 141.987 168.899 143.792 169.135 145.793H161.554C161.258 144.526 160.636 143.532 159.689 142.81C158.742 142.088 157.57 141.727 156.174 141.727C153.806 141.727 152.007 142.756 150.776 144.816C149.557 146.876 148.935 149.675 148.912 153.214H149.16C149.705 152.137 150.439 151.22 151.362 150.462C152.297 149.693 153.356 149.107 154.54 148.705C155.736 148.29 156.996 148.083 158.322 148.083C160.476 148.083 162.394 148.592 164.075 149.61C165.756 150.616 167.082 152.001 168.052 153.765C169.023 155.529 169.508 157.547 169.508 159.82C169.508 162.282 168.934 164.472 167.786 166.389C166.65 168.307 165.057 169.81 163.01 170.899C160.974 171.976 158.606 172.509 155.907 172.497ZM155.872 166.46C157.056 166.46 158.115 166.176 159.05 165.608C159.985 165.04 160.719 164.27 161.252 163.3C161.784 162.329 162.051 161.24 162.051 160.033C162.051 158.825 161.784 157.742 161.252 156.783C160.731 155.825 160.009 155.061 159.086 154.493C158.162 153.925 157.109 153.641 155.925 153.641C155.037 153.641 154.215 153.806 153.457 154.138C152.711 154.469 152.054 154.931 151.486 155.523C150.93 156.115 150.492 156.801 150.172 157.582C149.853 158.352 149.693 159.174 149.693 160.05C149.693 161.222 149.959 162.294 150.492 163.264C151.036 164.235 151.77 165.01 152.694 165.59C153.629 166.17 154.688 166.46 155.872 166.46ZM185.826 166.46V141.318H192.182V166.46H185.826ZM176.433 157.067V150.711H201.575V157.067H176.433Z" fill="#232323"/>
<path d="M96.9118 212.2C95.8985 212.2 94.9718 212.027 94.1318 211.68C93.2918 211.333 92.5651 210.84 91.9518 210.2C91.3385 209.547 90.8585 208.78 90.5118 207.9C90.1785 207.007 90.0118 206.033 90.0118 204.98C90.0118 203.967 90.1918 203.027 90.5518 202.16C90.9118 201.293 91.4118 200.533 92.0518 199.88C92.6918 199.227 93.4385 198.72 94.2918 198.36C95.1451 198 96.0718 197.82 97.0718 197.82C97.7518 197.82 98.4118 197.92 99.0518 198.12C99.6918 198.32 100.278 198.6 100.812 198.96C101.345 199.307 101.792 199.713 102.152 200.18L100.492 202C100.145 201.64 99.7851 201.34 99.4118 201.1C99.0518 200.847 98.6718 200.66 98.2718 200.54C97.8851 200.407 97.4851 200.34 97.0718 200.34C96.4585 200.34 95.8785 200.453 95.3318 200.68C94.7985 200.907 94.3318 201.227 93.9318 201.64C93.5451 202.053 93.2385 202.547 93.0118 203.12C92.7851 203.68 92.6718 204.307 92.6718 205C92.6718 205.707 92.7785 206.347 92.9918 206.92C93.2185 207.493 93.5318 207.987 93.9318 208.4C94.3451 208.813 94.8318 209.133 95.3918 209.36C95.9651 209.573 96.5918 209.68 97.2718 209.68C97.7118 209.68 98.1385 209.62 98.5518 209.5C98.9651 209.38 99.3451 209.213 99.6918 209C100.052 208.773 100.378 208.513 100.672 208.22L101.952 210.28C101.632 210.64 101.205 210.967 100.672 211.26C100.138 211.553 99.5385 211.787 98.8718 211.96C98.2185 212.12 97.5651 212.2 96.9118 212.2ZM109.024 212.2C107.97 212.2 107.03 211.967 106.204 211.5C105.377 211.02 104.724 210.367 104.244 209.54C103.764 208.713 103.524 207.773 103.524 206.72C103.524 205.667 103.764 204.727 104.244 203.9C104.724 203.073 105.377 202.427 106.204 201.96C107.03 201.48 107.97 201.24 109.024 201.24C110.064 201.24 110.997 201.48 111.824 201.96C112.65 202.427 113.297 203.073 113.764 203.9C114.244 204.727 114.484 205.667 114.484 206.72C114.484 207.773 114.244 208.713 113.764 209.54C113.297 210.367 112.65 211.02 111.824 211.5C110.997 211.967 110.064 212.2 109.024 212.2ZM109.024 210.02C109.597 210.02 110.104 209.873 110.544 209.58C110.997 209.287 111.35 208.893 111.604 208.4C111.87 207.907 111.997 207.347 111.984 206.72C111.997 206.08 111.87 205.513 111.604 205.02C111.35 204.527 110.997 204.14 110.544 203.86C110.104 203.567 109.597 203.42 109.024 203.42C108.45 203.42 107.93 203.567 107.464 203.86C107.01 204.14 106.657 204.533 106.404 205.04C106.15 205.533 106.024 206.093 106.024 206.72C106.024 207.347 106.15 207.907 106.404 208.4C106.657 208.893 107.01 209.287 107.464 209.58C107.93 209.873 108.45 210.02 109.024 210.02ZM120.344 212.2C119.584 212.2 118.924 212.033 118.364 211.7C117.804 211.353 117.377 210.867 117.084 210.24C116.791 209.6 116.644 208.84 116.644 207.96V201.46H119.104V207.44C119.104 208 119.191 208.48 119.364 208.88C119.537 209.267 119.791 209.567 120.124 209.78C120.457 209.993 120.857 210.1 121.324 210.1C121.671 210.1 121.984 210.047 122.264 209.94C122.557 209.82 122.811 209.66 123.024 209.46C123.237 209.247 123.404 209 123.524 208.72C123.644 208.427 123.704 208.113 123.704 207.78V201.46H126.164V212H123.764L123.724 209.8L124.164 209.56C124.004 210.067 123.731 210.52 123.344 210.92C122.971 211.307 122.524 211.62 122.004 211.86C121.484 212.087 120.931 212.2 120.344 212.2ZM129.047 212V201.46H131.447L131.487 203.62L131.027 203.86C131.161 203.38 131.421 202.947 131.807 202.56C132.194 202.16 132.654 201.84 133.187 201.6C133.721 201.36 134.267 201.24 134.827 201.24C135.627 201.24 136.294 201.4 136.827 201.72C137.374 202.04 137.781 202.52 138.047 203.16C138.327 203.8 138.467 204.6 138.467 205.56V212H136.007V205.74C136.007 205.207 135.934 204.767 135.787 204.42C135.641 204.06 135.414 203.8 135.107 203.64C134.801 203.467 134.427 203.387 133.987 203.4C133.627 203.4 133.294 203.46 132.987 203.58C132.694 203.687 132.434 203.847 132.207 204.06C131.994 204.26 131.821 204.493 131.687 204.76C131.567 205.027 131.507 205.32 131.507 205.64V212H130.287C130.047 212 129.821 212 129.607 212C129.407 212 129.221 212 129.047 212ZM142.375 212V198.78H144.835V212H142.375ZM140.295 203.74V201.46H147.135V203.74H140.295ZM149.008 212V201.46H151.428L151.468 204.82L151.128 204.06C151.275 203.527 151.528 203.047 151.888 202.62C152.248 202.193 152.662 201.86 153.128 201.62C153.608 201.367 154.108 201.24 154.628 201.24C154.855 201.24 155.068 201.26 155.268 201.3C155.482 201.34 155.655 201.387 155.788 201.44L155.128 204.14C154.982 204.06 154.802 203.993 154.588 203.94C154.375 203.887 154.162 203.86 153.948 203.86C153.615 203.86 153.295 203.927 152.988 204.06C152.695 204.18 152.435 204.353 152.208 204.58C151.982 204.807 151.802 205.073 151.668 205.38C151.548 205.673 151.488 206.007 151.488 206.38V212H149.008ZM157.706 212V201.46H160.166V212H157.706ZM158.906 199.22C158.413 199.22 158.026 199.1 157.746 198.86C157.48 198.607 157.346 198.253 157.346 197.8C157.346 197.373 157.486 197.027 157.766 196.76C158.046 196.493 158.426 196.36 158.906 196.36C159.413 196.36 159.8 196.487 160.066 196.74C160.346 196.98 160.486 197.333 160.486 197.8C160.486 198.213 160.346 198.553 160.066 198.82C159.786 199.087 159.4 199.22 158.906 199.22ZM168.226 212.2C167.119 212.2 166.139 211.967 165.286 211.5C164.446 211.033 163.786 210.4 163.306 209.6C162.839 208.787 162.606 207.86 162.606 206.82C162.606 205.993 162.739 205.24 163.006 204.56C163.272 203.88 163.639 203.293 164.106 202.8C164.586 202.293 165.152 201.907 165.806 201.64C166.472 201.36 167.199 201.22 167.986 201.22C168.679 201.22 169.326 201.353 169.926 201.62C170.526 201.887 171.046 202.253 171.486 202.72C171.926 203.173 172.259 203.72 172.486 204.36C172.726 204.987 172.839 205.673 172.826 206.42L172.806 207.28H164.266L163.806 205.6H170.746L170.426 205.94V205.5C170.386 205.087 170.252 204.727 170.026 204.42C169.799 204.1 169.506 203.853 169.146 203.68C168.799 203.493 168.412 203.4 167.986 203.4C167.332 203.4 166.779 203.527 166.326 203.78C165.886 204.033 165.552 204.4 165.326 204.88C165.099 205.347 164.986 205.933 164.986 206.64C164.986 207.32 165.126 207.913 165.406 208.42C165.699 208.927 166.106 209.32 166.626 209.6C167.159 209.867 167.779 210 168.486 210C168.979 210 169.432 209.92 169.846 209.76C170.259 209.6 170.706 209.313 171.186 208.9L172.406 210.6C172.046 210.933 171.632 211.22 171.166 211.46C170.712 211.687 170.232 211.867 169.726 212C169.219 212.133 168.719 212.2 168.226 212.2ZM178.524 212.2C177.591 212.2 176.751 212.047 176.004 211.74C175.271 211.42 174.671 210.967 174.204 210.38L175.804 209C176.204 209.453 176.651 209.78 177.144 209.98C177.638 210.18 178.158 210.28 178.704 210.28C178.931 210.28 179.131 210.253 179.304 210.2C179.491 210.147 179.651 210.067 179.784 209.96C179.918 209.853 180.018 209.733 180.084 209.6C180.164 209.453 180.204 209.293 180.204 209.12C180.204 208.8 180.084 208.547 179.844 208.36C179.711 208.267 179.498 208.167 179.204 208.06C178.924 207.953 178.558 207.847 178.104 207.74C177.384 207.553 176.784 207.34 176.304 207.1C175.824 206.847 175.451 206.567 175.184 206.26C174.958 206.007 174.784 205.72 174.664 205.4C174.558 205.08 174.504 204.733 174.504 204.36C174.504 203.893 174.604 203.473 174.804 203.1C175.018 202.713 175.304 202.38 175.664 202.1C176.024 201.82 176.444 201.607 176.924 201.46C177.404 201.313 177.904 201.24 178.424 201.24C178.958 201.24 179.471 201.307 179.964 201.44C180.471 201.573 180.938 201.767 181.364 202.02C181.804 202.26 182.178 202.553 182.484 202.9L181.124 204.4C180.871 204.16 180.591 203.947 180.284 203.76C179.991 203.573 179.691 203.427 179.384 203.32C179.078 203.2 178.791 203.14 178.524 203.14C178.271 203.14 178.044 203.167 177.844 203.22C177.644 203.26 177.478 203.327 177.344 203.42C177.211 203.513 177.104 203.633 177.024 203.78C176.958 203.913 176.924 204.073 176.924 204.26C176.938 204.42 176.978 204.573 177.044 204.72C177.124 204.853 177.231 204.967 177.364 205.06C177.511 205.153 177.731 205.26 178.024 205.38C178.318 205.5 178.698 205.613 179.164 205.72C179.818 205.893 180.364 206.087 180.804 206.3C181.244 206.513 181.591 206.76 181.844 207.04C182.098 207.28 182.278 207.56 182.384 207.88C182.491 208.2 182.544 208.553 182.544 208.94C182.544 209.567 182.364 210.127 182.004 210.62C181.658 211.113 181.178 211.5 180.564 211.78C179.964 212.06 179.284 212.2 178.524 212.2ZM194.11 212.2C193.177 212.2 192.337 212.047 191.59 211.74C190.857 211.42 190.257 210.967 189.79 210.38L191.39 209C191.79 209.453 192.237 209.78 192.73 209.98C193.224 210.18 193.744 210.28 194.29 210.28C194.517 210.28 194.717 210.253 194.89 210.2C195.077 210.147 195.237 210.067 195.37 209.96C195.504 209.853 195.604 209.733 195.67 209.6C195.75 209.453 195.79 209.293 195.79 209.12C195.79 208.8 195.67 208.547 195.43 208.36C195.297 208.267 195.084 208.167 194.79 208.06C194.51 207.953 194.144 207.847 193.69 207.74C192.97 207.553 192.37 207.34 191.89 207.1C191.41 206.847 191.037 206.567 190.77 206.26C190.544 206.007 190.37 205.72 190.25 205.4C190.144 205.08 190.09 204.733 190.09 204.36C190.09 203.893 190.19 203.473 190.39 203.1C190.604 202.713 190.89 202.38 191.25 202.1C191.61 201.82 192.03 201.607 192.51 201.46C192.99 201.313 193.49 201.24 194.01 201.24C194.544 201.24 195.057 201.307 195.55 201.44C196.057 201.573 196.524 201.767 196.95 202.02C197.39 202.26 197.764 202.553 198.07 202.9L196.71 204.4C196.457 204.16 196.177 203.947 195.87 203.76C195.577 203.573 195.277 203.427 194.97 203.32C194.664 203.2 194.377 203.14 194.11 203.14C193.857 203.14 193.63 203.167 193.43 203.22C193.23 203.26 193.064 203.327 192.93 203.42C192.797 203.513 192.69 203.633 192.61 203.78C192.544 203.913 192.51 204.073 192.51 204.26C192.524 204.42 192.564 204.573 192.63 204.72C192.71 204.853 192.817 204.967 192.95 205.06C193.097 205.153 193.317 205.26 193.61 205.38C193.904 205.5 194.284 205.613 194.75 205.72C195.404 205.893 195.95 206.087 196.39 206.3C196.83 206.513 197.177 206.76 197.43 207.04C197.684 207.28 197.864 207.56 197.97 207.88C198.077 208.2 198.13 208.553 198.13 208.94C198.13 209.567 197.95 210.127 197.59 210.62C197.244 211.113 196.764 211.5 196.15 211.78C195.55 212.06 194.87 212.2 194.11 212.2ZM205.237 212.2C204.131 212.2 203.151 211.967 202.297 211.5C201.457 211.033 200.797 210.4 200.317 209.6C199.851 208.787 199.617 207.86 199.617 206.82C199.617 205.993 199.751 205.24 200.017 204.56C200.284 203.88 200.651 203.293 201.117 202.8C201.597 202.293 202.164 201.907 202.817 201.64C203.484 201.36 204.211 201.22 204.997 201.22C205.691 201.22 206.337 201.353 206.937 201.62C207.537 201.887 208.057 202.253 208.497 202.72C208.937 203.173 209.271 203.72 209.497 204.36C209.737 204.987 209.851 205.673 209.837 206.42L209.817 207.28H201.277L200.817 205.6H207.757L207.437 205.94V205.5C207.397 205.087 207.264 204.727 207.037 204.42C206.811 204.1 206.517 203.853 206.157 203.68C205.811 203.493 205.424 203.4 204.997 203.4C204.344 203.4 203.791 203.527 203.337 203.78C202.897 204.033 202.564 204.4 202.337 204.88C202.111 205.347 201.997 205.933 201.997 206.64C201.997 207.32 202.137 207.913 202.417 208.42C202.711 208.927 203.117 209.32 203.637 209.6C204.171 209.867 204.791 210 205.497 210C205.991 210 206.444 209.92 206.857 209.76C207.271 209.6 207.717 209.313 208.197 208.9L209.417 210.6C209.057 210.933 208.644 211.22 208.177 211.46C207.724 211.687 207.244 211.867 206.737 212C206.231 212.133 205.731 212.2 205.237 212.2ZM212.016 212V201.46H214.436L214.476 204.82L214.136 204.06C214.283 203.527 214.536 203.047 214.896 202.62C215.256 202.193 215.67 201.86 216.136 201.62C216.616 201.367 217.116 201.24 217.636 201.24C217.863 201.24 218.076 201.26 218.276 201.3C218.49 201.34 218.663 201.387 218.796 201.44L218.136 204.14C217.99 204.06 217.81 203.993 217.596 203.94C217.383 203.887 217.17 203.86 216.956 203.86C216.623 203.86 216.303 203.927 215.996 204.06C215.703 204.18 215.443 204.353 215.216 204.58C214.99 204.807 214.81 205.073 214.676 205.38C214.556 205.673 214.496 206.007 214.496 206.38V212H212.016ZM224.81 212L220.37 201.46H223.05L226.05 209.34L225.53 209.48L228.69 201.46H231.31L226.65 212H224.81ZM237.757 212.2C236.65 212.2 235.67 211.967 234.817 211.5C233.977 211.033 233.317 210.4 232.837 209.6C232.37 208.787 232.137 207.86 232.137 206.82C232.137 205.993 232.27 205.24 232.537 204.56C232.804 203.88 233.17 203.293 233.637 202.8C234.117 202.293 234.684 201.907 235.337 201.64C236.004 201.36 236.73 201.22 237.517 201.22C238.21 201.22 238.857 201.353 239.457 201.62C240.057 201.887 240.577 202.253 241.017 202.72C241.457 203.173 241.79 203.72 242.017 204.36C242.257 204.987 242.37 205.673 242.357 206.42L242.337 207.28H233.797L233.337 205.6H240.277L239.957 205.94V205.5C239.917 205.087 239.784 204.727 239.557 204.42C239.33 204.1 239.037 203.853 238.677 203.68C238.33 203.493 237.944 203.4 237.517 203.4C236.864 203.4 236.31 203.527 235.857 203.78C235.417 204.033 235.084 204.4 234.857 204.88C234.63 205.347 234.517 205.933 234.517 206.64C234.517 207.32 234.657 207.913 234.937 208.42C235.23 208.927 235.637 209.32 236.157 209.6C236.69 209.867 237.31 210 238.017 210C238.51 210 238.964 209.92 239.377 209.76C239.79 209.6 240.237 209.313 240.717 208.9L241.937 210.6C241.577 210.933 241.164 211.22 240.697 211.46C240.244 211.687 239.764 211.867 239.257 212C238.75 212.133 238.25 212.2 237.757 212.2ZM248.776 212.2C247.842 212.2 247.002 211.967 246.256 211.5C245.522 211.02 244.936 210.373 244.496 209.56C244.069 208.733 243.856 207.787 243.856 206.72C243.856 205.667 244.069 204.727 244.496 203.9C244.922 203.073 245.502 202.427 246.236 201.96C246.982 201.48 247.822 201.24 248.756 201.24C249.262 201.24 249.749 201.32 250.216 201.48C250.696 201.64 251.122 201.86 251.496 202.14C251.869 202.407 252.162 202.707 252.376 203.04C252.602 203.373 252.729 203.72 252.756 204.08L252.096 204.16V197.2H254.556V212H252.176L252.116 209.52L252.596 209.56C252.582 209.893 252.462 210.213 252.236 210.52C252.022 210.827 251.742 211.107 251.396 211.36C251.049 211.613 250.642 211.82 250.176 211.98C249.722 212.127 249.256 212.2 248.776 212.2ZM249.256 210.12C249.829 210.12 250.336 209.973 250.776 209.68C251.216 209.387 251.556 208.987 251.796 208.48C252.049 207.973 252.176 207.387 252.176 206.72C252.176 206.067 252.049 205.487 251.796 204.98C251.556 204.46 251.216 204.06 250.776 203.78C250.336 203.487 249.829 203.34 249.256 203.34C248.682 203.34 248.176 203.487 247.736 203.78C247.296 204.06 246.949 204.46 246.696 204.98C246.456 205.487 246.336 206.067 246.336 206.72C246.336 207.387 246.456 207.973 246.696 208.48C246.949 208.987 247.296 209.387 247.736 209.68C248.176 209.973 248.682 210.12 249.256 210.12Z" fill="#232323"/>
</svg>
