<svg width="139" height="40" viewBox="0 0 139 40" fill="none" xmlns="http://www.w3.org/2000/svg">
<g filter="url(#filter0_i_661_17713)">
<rect width="40" height="40" rx="20" fill="#7755FF"/>
<g filter="url(#filter1_i_661_17713)">
<circle cx="20" cy="20" r="12" fill="white"/>
</g>
</g>
<path d="M55.55 26H51.5641V13.0835H55.7266C56.9796 13.0835 58.0518 13.3421 58.9431 13.8593C59.8345 14.3722 60.5178 15.1101 60.9929 16.073C61.468 17.0316 61.7056 18.1795 61.7056 19.5165C61.7056 20.862 61.4659 22.0204 60.9866 22.9916C60.5073 23.9587 59.8093 24.7029 58.8927 25.2243C57.9761 25.7414 56.8619 26 55.55 26ZM53.1282 24.6125H55.4491C56.5171 24.6125 57.4022 24.4065 58.1043 23.9944C58.8065 23.5824 59.33 22.9958 59.6747 22.2348C60.0195 21.4738 60.1919 20.5677 60.1919 19.5165C60.1919 18.4738 60.0216 17.5761 59.6811 16.8235C59.3405 16.0667 58.8317 15.4864 58.1548 15.0828C57.4779 14.675 56.6348 14.471 55.6257 14.471H53.1282V24.6125ZM64.1274 26V16.3126H65.6158V26H64.1274ZM64.8842 14.6981C64.5941 14.6981 64.3439 14.5993 64.1337 14.4017C63.9277 14.204 63.8247 13.9665 63.8247 13.689C63.8247 13.4115 63.9277 13.1739 64.1337 12.9763C64.3439 12.7787 64.5941 12.6799 64.8842 12.6799C65.1743 12.6799 65.4224 12.7787 65.6284 12.9763C65.8387 13.1739 65.9438 13.4115 65.9438 13.689C65.9438 13.9665 65.8387 14.204 65.6284 14.4017C65.4224 14.5993 65.1743 14.6981 64.8842 14.6981ZM72.2522 29.8346C71.5332 29.8346 70.9152 29.7421 70.398 29.5571C69.8808 29.3763 69.4499 29.1366 69.1051 28.8381C68.7645 28.5438 68.4933 28.2284 68.2915 27.8921L69.4772 27.0596C69.6117 27.2361 69.782 27.438 69.9881 27.665C70.1941 27.8963 70.4758 28.096 70.8332 28.2642C71.1948 28.4366 71.6678 28.5227 72.2522 28.5227C73.0343 28.5227 73.6797 28.3335 74.1884 27.9551C74.6972 27.5767 74.9516 26.9839 74.9516 26.1766V24.2088H74.8254C74.7161 24.3854 74.5605 24.6041 74.3587 24.8648C74.1611 25.1212 73.8752 25.3504 73.501 25.5522C73.131 25.7498 72.6306 25.8486 72 25.8486C71.2179 25.8486 70.5157 25.6636 69.8935 25.2936C69.2754 24.9236 68.7855 24.3854 68.424 23.6791C68.0666 22.9727 67.8879 22.115 67.8879 21.1059C67.8879 20.1136 68.0624 19.2495 68.4113 18.5137C68.7603 17.7737 69.246 17.2019 69.8682 16.7983C70.4905 16.3904 71.2095 16.1865 72.0252 16.1865C72.6559 16.1865 73.1562 16.2916 73.5262 16.5018C73.9004 16.7079 74.1863 16.9433 74.384 17.2082C74.5858 17.4689 74.7413 17.6833 74.8507 17.8515H75.002V16.3126H76.44V26.2775C76.44 27.11 76.2508 27.7869 75.8724 28.3083C75.4982 28.8339 74.9936 29.2186 74.3587 29.4625C73.728 29.7105 73.0259 29.8346 72.2522 29.8346ZM72.2018 24.5116C72.7988 24.5116 73.3034 24.3749 73.7154 24.1016C74.1275 23.8283 74.4407 23.4352 74.6551 22.9222C74.8696 22.4093 74.9768 21.7954 74.9768 21.0806C74.9768 20.3827 74.8717 19.7667 74.6615 19.2327C74.4512 18.6987 74.1401 18.2804 73.728 17.9777C73.316 17.6749 72.8072 17.5236 72.2018 17.5236C71.5711 17.5236 71.0455 17.6833 70.6251 18.0029C70.2088 18.3224 69.8956 18.7513 69.6853 19.2895C69.4793 19.8277 69.3763 20.4247 69.3763 21.0806C69.3763 21.7534 69.4814 22.3483 69.6916 22.8655C69.9061 23.3784 70.2214 23.7821 70.6377 24.0764C71.0581 24.3665 71.5795 24.5116 72.2018 24.5116ZM79.1646 26V16.3126H80.653V26H79.1646ZM79.9214 14.6981C79.6313 14.6981 79.3811 14.5993 79.1709 14.4017C78.9648 14.204 78.8618 13.9665 78.8618 13.689C78.8618 13.4115 78.9648 13.1739 79.1709 12.9763C79.3811 12.7787 79.6313 12.6799 79.9214 12.6799C80.2115 12.6799 80.4596 12.7787 80.6656 12.9763C80.8758 13.1739 80.9809 13.4115 80.9809 13.689C80.9809 13.9665 80.8758 14.204 80.6656 14.4017C80.4596 14.5993 80.2115 14.6981 79.9214 14.6981ZM87.3146 26.2018C86.4064 26.2018 85.6244 25.9874 84.9685 25.5585C84.3125 25.1297 83.808 24.5389 83.4548 23.7863C83.1016 23.0337 82.925 22.1738 82.925 21.2068C82.925 20.2229 83.1058 19.3547 83.4674 18.602C83.8332 17.8452 84.342 17.2545 84.9937 16.8298C85.6496 16.4009 86.4148 16.1865 87.2894 16.1865C87.9705 16.1865 88.5844 16.3126 89.131 16.5649C89.6776 16.8172 90.1254 17.1704 90.4744 17.6245C90.8233 18.0786 91.0399 18.6083 91.124 19.2138H89.6355C89.522 18.7723 89.2698 18.3813 88.8787 18.0407C88.4919 17.6959 87.9705 17.5236 87.3146 17.5236C86.7344 17.5236 86.2256 17.6749 85.7884 17.9777C85.3553 18.2762 85.0168 18.6987 84.7729 19.2453C84.5333 19.7877 84.4135 20.4247 84.4135 21.1563C84.4135 21.9047 84.5312 22.5564 84.7666 23.1115C85.0063 23.6665 85.3427 24.0974 85.7757 24.4044C86.213 24.7113 86.726 24.8648 87.3146 24.8648C87.7014 24.8648 88.0525 24.7975 88.3679 24.6629C88.6832 24.5284 88.9502 24.335 89.1688 24.0827C89.3875 23.8304 89.543 23.5277 89.6355 23.1745H91.124C91.0399 23.7463 90.8318 24.2614 90.4996 24.7197C90.1716 25.1738 89.7365 25.5354 89.1941 25.8045C88.6559 26.0694 88.0294 26.2018 87.3146 26.2018ZM96.1505 26.227C95.5367 26.227 94.9796 26.1114 94.4792 25.8802C93.9789 25.6447 93.5815 25.3062 93.2872 24.8648C92.9929 24.4191 92.8457 23.8809 92.8457 23.2502C92.8457 22.6952 92.9551 22.2453 93.1737 21.9005C93.3923 21.5516 93.6846 21.2783 94.0504 21.0806C94.4162 20.883 94.8198 20.7359 95.2613 20.6392C95.707 20.5382 96.1548 20.4584 96.6046 20.3995C97.1933 20.3238 97.6705 20.2671 98.0363 20.2292C98.4063 20.1872 98.6754 20.1178 98.8436 20.0211C99.016 19.9244 99.1022 19.7562 99.1022 19.5165V19.4661C99.1022 18.8438 98.9319 18.3603 98.5913 18.0155C98.2549 17.6707 97.7441 17.4983 97.0587 17.4983C96.3482 17.4983 95.7911 17.6539 95.3874 17.965C94.9838 18.2762 94.7 18.6083 94.536 18.9615L93.1232 18.457C93.3755 17.8683 93.7119 17.41 94.1323 17.0821C94.557 16.7499 95.0195 16.5187 95.5199 16.3883C96.0244 16.2538 96.5206 16.1865 97.0083 16.1865C97.3194 16.1865 97.6768 16.2243 98.0805 16.3C98.4883 16.3715 98.8814 16.5208 99.2598 16.7478C99.6425 16.9749 99.9599 17.3175 100.212 17.7758C100.464 18.2341 100.591 18.848 100.591 19.6174V26H99.1022V24.6882H99.0265C98.9256 24.8984 98.7574 25.1233 98.5219 25.363C98.2865 25.6027 97.9732 25.8066 97.5822 25.9748C97.1912 26.143 96.714 26.227 96.1505 26.227ZM96.3776 24.89C96.9662 24.89 97.4624 24.7744 97.866 24.5431C98.2739 24.3119 98.5808 24.0133 98.7868 23.6475C98.9971 23.2817 99.1022 22.897 99.1022 22.4934V21.1311C99.0391 21.2068 98.9003 21.2762 98.6859 21.3392C98.4757 21.3981 98.2318 21.4506 97.9543 21.4969C97.681 21.5389 97.414 21.5768 97.1533 21.6104C96.8969 21.6398 96.6887 21.6651 96.529 21.6861C96.1421 21.7366 95.7805 21.8185 95.4442 21.9321C95.112 22.0414 94.8429 22.2075 94.6369 22.4303C94.4351 22.6489 94.3342 22.9475 94.3342 23.3259C94.3342 23.843 94.5255 24.2341 94.9081 24.499C95.2949 24.7596 95.7848 24.89 96.3776 24.89ZM103.307 26V16.3126H104.745V17.8263H104.871C105.073 17.3091 105.399 16.9076 105.849 16.6217C106.299 16.3316 106.839 16.1865 107.47 16.1865C108.109 16.1865 108.641 16.3316 109.065 16.6217C109.494 16.9076 109.829 17.3091 110.068 17.8263H110.169C110.417 17.3259 110.789 16.9286 111.285 16.6343C111.782 16.3358 112.377 16.1865 113.07 16.1865C113.936 16.1865 114.645 16.4577 115.196 17.0001C115.747 17.5383 116.022 18.3771 116.022 19.5165V26H114.534V19.5165C114.534 18.8018 114.338 18.2909 113.947 17.984C113.556 17.677 113.096 17.5236 112.566 17.5236C111.885 17.5236 111.357 17.7296 110.983 18.1416C110.609 18.5495 110.421 19.0666 110.421 19.6931V26H108.908V19.3652C108.908 18.8144 108.729 18.3708 108.372 18.0344C108.014 17.6938 107.554 17.5236 106.99 17.5236C106.604 17.5236 106.242 17.6266 105.906 17.8326C105.574 18.0386 105.304 18.3245 105.098 18.6903C104.897 19.0519 104.796 19.4703 104.796 19.9454V26H103.307ZM118.743 29.6328V16.3126H120.181V17.8515H120.358C120.467 17.6833 120.619 17.4689 120.812 17.2082C121.01 16.9433 121.291 16.7079 121.657 16.5018C122.027 16.2916 122.527 16.1865 123.158 16.1865C123.974 16.1865 124.693 16.3904 125.315 16.7983C125.937 17.2061 126.423 17.7842 126.772 18.5327C127.121 19.2811 127.295 20.164 127.295 21.1815C127.295 22.2075 127.121 23.0967 126.772 23.8494C126.423 24.5978 125.939 25.178 125.321 25.5901C124.703 25.9979 123.991 26.2018 123.183 26.2018C122.561 26.2018 122.063 26.0988 121.689 25.8928C121.314 25.6826 121.026 25.445 120.825 25.1801C120.623 24.911 120.467 24.6882 120.358 24.5116H120.232V29.6328H118.743ZM120.207 21.1563C120.207 21.8879 120.314 22.5333 120.528 23.0925C120.743 23.6475 121.056 24.0827 121.468 24.3981C121.88 24.7092 122.385 24.8648 122.982 24.8648C123.604 24.8648 124.123 24.7008 124.539 24.3728C124.96 24.0407 125.275 23.595 125.485 23.0358C125.7 22.4724 125.807 21.8459 125.807 21.1563C125.807 20.4752 125.702 19.8613 125.492 19.3147C125.286 18.7639 124.972 18.3287 124.552 18.0092C124.136 17.6854 123.612 17.5236 122.982 17.5236C122.376 17.5236 121.867 17.677 121.455 17.984C121.043 18.2867 120.732 18.7114 120.522 19.258C120.312 19.8003 120.207 20.4331 120.207 21.1563ZM133.501 26.2018C132.627 26.2018 131.86 25.9937 131.199 25.5774C130.544 25.1612 130.031 24.5789 129.661 23.8304C129.295 23.082 129.112 22.2075 129.112 21.2068C129.112 20.1977 129.295 19.3168 129.661 18.5642C130.031 17.8116 130.544 17.2271 131.199 16.8109C131.86 16.3946 132.627 16.1865 133.501 16.1865C134.376 16.1865 135.141 16.3946 135.797 16.8109C136.457 17.2271 136.97 17.8116 137.336 18.5642C137.706 19.3168 137.891 20.1977 137.891 21.2068C137.891 22.2075 137.706 23.082 137.336 23.8304C136.97 24.5789 136.457 25.1612 135.797 25.5774C135.141 25.9937 134.376 26.2018 133.501 26.2018ZM133.501 24.8648C134.166 24.8648 134.712 24.6945 135.141 24.3539C135.57 24.0133 135.888 23.5655 136.094 23.0105C136.3 22.4555 136.403 21.8543 136.403 21.2068C136.403 20.5593 136.3 19.9559 136.094 19.3967C135.888 18.8375 135.57 18.3855 135.141 18.0407C134.712 17.6959 134.166 17.5236 133.501 17.5236C132.837 17.5236 132.291 17.6959 131.862 18.0407C131.433 18.3855 131.115 18.8375 130.909 19.3967C130.703 19.9559 130.6 20.5593 130.6 21.2068C130.6 21.8543 130.703 22.4555 130.909 23.0105C131.115 23.5655 131.433 24.0133 131.862 24.3539C132.291 24.6945 132.837 24.8648 133.501 24.8648Z" fill="#232323"/>
<defs>
<filter id="filter0_i_661_17713" x="0" y="0" width="40" height="40" filterUnits="userSpaceOnUse" color-interpolation-filters="sRGB">
<feFlood flood-opacity="0" result="BackgroundImageFix"/>
<feBlend mode="normal" in="SourceGraphic" in2="BackgroundImageFix" result="shape"/>
<feColorMatrix in="SourceAlpha" type="matrix" values="0 0 0 0 0 0 0 0 0 0 0 0 0 0 0 0 0 0 127 0" result="hardAlpha"/>
<feOffset/>
<feGaussianBlur stdDeviation="3"/>
<feComposite in2="hardAlpha" operator="arithmetic" k2="-1" k3="1"/>
<feColorMatrix type="matrix" values="0 0 0 0 1 0 0 0 0 1 0 0 0 0 1 0 0 0 0.25 0"/>
<feBlend mode="normal" in2="shape" result="effect1_innerShadow_661_17713"/>
</filter>
<filter id="filter1_i_661_17713" x="8" y="8" width="24" height="28" filterUnits="userSpaceOnUse" color-interpolation-filters="sRGB">
<feFlood flood-opacity="0" result="BackgroundImageFix"/>
<feBlend mode="normal" in="SourceGraphic" in2="BackgroundImageFix" result="shape"/>
<feColorMatrix in="SourceAlpha" type="matrix" values="0 0 0 0 0 0 0 0 0 0 0 0 0 0 0 0 0 0 127 0" result="hardAlpha"/>
<feOffset dy="5"/>
<feGaussianBlur stdDeviation="2"/>
<feComposite in2="hardAlpha" operator="arithmetic" k2="-1" k3="1"/>
<feColorMatrix type="matrix" values="0 0 0 0 0.360784 0 0 0 0 0.231373 0 0 0 0 0.996078 0 0 0 1 0"/>
<feBlend mode="normal" in2="shape" result="effect1_innerShadow_661_17713"/>
</filter>
</defs>
</svg>
