<svg width="40" height="40" viewBox="0 0 40 40" fill="none" xmlns="http://www.w3.org/2000/svg">
<path d="M36.6641 8.33366C36.6641 7.41319 35.9179 6.66699 34.9974 6.66699H13.3307C12.4102 6.66699 11.6641 7.41319 11.6641 8.33366C11.6641 9.25413 12.4102 10.0003 13.3307 10.0003H34.9974C35.9179 10.0003 36.6641 9.25413 36.6641 8.33366Z" fill="#7755FF"/>
<path d="M36.6641 20.0007C36.6641 19.0802 35.9179 18.334 34.9974 18.334H4.9974C4.0769 18.334 3.33073 19.0802 3.33073 20.0007C3.33073 20.9212 4.0769 21.6673 4.9974 21.6673H34.9974C35.9179 21.6673 36.6641 20.9212 36.6641 20.0007Z" fill="#7755FF"/>
<path d="M34.9974 30C35.9179 30 36.6641 30.7462 36.6641 31.6667C36.6641 32.5872 35.9179 33.3333 34.9974 33.3333H21.6641C20.7436 33.3333 19.9974 32.5872 19.9974 31.6667C19.9974 30.7462 20.7436 30 21.6641 30H34.9974Z" fill="#7755FF"/>
</svg>
