<svg width="18" height="19" viewBox="0 0 18 19" fill="none" xmlns="http://www.w3.org/2000/svg">
<g clip-path="url(#clip0_661_18080)">
<path d="M3.66509 12.0609C5.44048 14.1831 7.57765 15.8541 10.0169 17.0364C10.9457 17.4766 12.1877 17.9987 13.5714 18.0882C13.6572 18.092 13.7393 18.0957 13.8251 18.0957C14.7538 18.0957 15.4997 17.7749 16.1077 17.1148C16.1114 17.111 16.1189 17.1036 16.1226 17.0961C16.3389 16.835 16.5851 16.6001 16.8425 16.3502C17.0178 16.1823 17.1968 16.007 17.3684 15.828C18.1628 15 18.1628 13.9482 17.3609 13.1463L15.1193 10.9047C14.7389 10.5093 14.2838 10.3004 13.8064 10.3004C13.329 10.3004 12.8702 10.5093 12.4786 10.9009L11.1433 12.2362C11.0203 12.1653 10.8934 12.1019 10.7741 12.0422C10.6249 11.9676 10.4869 11.8968 10.3638 11.8185C9.14789 11.0464 8.04387 10.0393 6.98834 8.7451C6.45498 8.07001 6.09692 7.50308 5.84702 6.92496C6.19763 6.60793 6.52585 6.27598 6.84288 5.95148C6.95477 5.83586 7.0704 5.72024 7.18602 5.60461C7.58884 5.20179 7.80517 4.73557 7.80517 4.26189C7.80517 3.7882 7.59257 3.32198 7.18602 2.91916L6.07454 1.80768C5.944 1.67714 5.82092 1.55032 5.6941 1.41978C5.44794 1.16615 5.19058 0.905069 4.93695 0.670092C4.55279 0.293382 4.10148 0.0957031 3.62407 0.0957031C3.15038 0.0957031 2.69535 0.293382 2.29626 0.673822L0.901314 2.06877C0.394062 2.57602 0.106868 3.19143 0.0471908 3.90383C-0.0236753 4.79525 0.140436 5.74262 0.565633 6.88766C1.21835 8.65932 2.20301 10.3042 3.66509 12.0609ZM0.957261 3.98215C1.00202 3.48609 1.19224 3.07208 1.5503 2.71402L2.93778 1.32654C3.15411 1.11767 3.39282 1.0095 3.62407 1.0095C3.85158 1.0095 4.08283 1.11767 4.29543 1.334C4.54533 1.56524 4.7803 1.80768 5.03393 2.06504C5.16074 2.19558 5.29129 2.32612 5.42183 2.46039L6.53331 3.57187C6.76455 3.80312 6.88391 4.0381 6.88391 4.26935C6.88391 4.50059 6.76455 4.73557 6.53331 4.96682C6.41768 5.08244 6.30206 5.2018 6.18644 5.31742C5.83957 5.66802 5.51507 5.99997 5.15701 6.317C5.14955 6.32446 5.14582 6.32819 5.13836 6.33565C4.82879 6.64523 4.87728 6.93988 4.95187 7.16367C4.9556 7.17486 4.95933 7.18232 4.96306 7.19351C5.25026 7.88352 5.64935 8.53996 6.27222 9.32322C7.39116 10.7032 8.56978 11.7737 9.86775 12.598C10.0281 12.7024 10.1997 12.7845 10.3601 12.8665C10.5093 12.9411 10.6473 13.012 10.7704 13.0903C10.7853 13.0978 10.7965 13.1052 10.8114 13.1127C10.9345 13.1761 11.0538 13.2059 11.1732 13.2059C11.4716 13.2059 11.6655 13.0157 11.7289 12.9523L13.1239 11.5574C13.3402 11.341 13.5752 11.2254 13.8064 11.2254C14.0899 11.2254 14.3211 11.4007 14.4666 11.5574L16.7157 13.8027C17.1632 14.2503 17.1595 14.7352 16.7045 15.2088C16.5478 15.3767 16.3837 15.5371 16.2084 15.7049C15.9473 15.9585 15.675 16.2196 15.4289 16.5143C14.9999 16.9768 14.489 17.1931 13.8288 17.1931C13.7654 17.1931 13.6982 17.1894 13.6348 17.1856C12.4115 17.1073 11.2739 16.6299 10.4198 16.2233C8.09982 15.1007 6.06335 13.5081 4.37375 11.4865C2.98254 9.81182 2.04636 8.25277 1.42722 6.58182C1.04305 5.55613 0.897585 4.73184 0.957261 3.98215Z" fill="white"/>
</g>
<defs>
<clipPath id="clip0_661_18080">
<rect width="18" height="18" fill="white" transform="translate(0 0.0957031)"/>
</clipPath>
</defs>
</svg>
