<svg width="18" height="19" viewBox="0 0 18 19" fill="none" xmlns="http://www.w3.org/2000/svg">
<g clip-path="url(#clip0_661_18049)">
<path d="M9 8.5332C10.1631 8.5332 11.1094 7.58694 11.1094 6.42383C11.1094 5.26072 10.1631 4.31445 9 4.31445C7.83689 4.31445 6.89062 5.26072 6.89062 6.42383C6.89062 7.58694 7.83689 8.5332 9 8.5332ZM9 5.7207C9.3877 5.7207 9.70312 6.03612 9.70312 6.42383C9.70312 6.81153 9.3877 7.12695 9 7.12695C8.6123 7.12695 8.29688 6.81153 8.29688 6.42383C8.29688 6.03612 8.6123 5.7207 9 5.7207Z" fill="white"/>
<path d="M15.3281 6.42383C15.3281 2.9345 12.4893 0.0957031 9 0.0957031C5.51067 0.0957031 2.67188 2.9345 2.67188 6.42383C2.67188 7.80424 3.10859 9.11613 3.93483 10.2177L7.31187 14.72C7.70854 15.2488 8.33962 15.5645 9 15.5645C9.66038 15.5645 10.2915 15.2488 10.6882 14.72L14.0652 10.2177C14.8914 9.11613 15.3281 7.80424 15.3281 6.42383ZM12.9402 9.37386L9.56324 13.8761C9.42873 14.0554 9.22345 14.1582 9 14.1582C8.77655 14.1582 8.57127 14.0554 8.4368 13.8762L5.05979 9.37386C4.41759 8.51766 4.07812 7.49754 4.07812 6.42383C4.07812 3.70991 6.28608 1.50195 9 1.50195C11.7139 1.50195 13.9219 3.70991 13.9219 6.42383C13.9219 7.49754 13.5824 8.51766 12.9402 9.37386Z" fill="white"/>
<path d="M12.5156 17.3926C12.5156 17.0042 12.2008 16.6895 11.8125 16.6895H6.1875C5.79916 16.6895 5.48438 17.0042 5.48438 17.3926C5.48438 17.7809 5.79916 18.0957 6.1875 18.0957H11.8125C12.2008 18.0957 12.5156 17.7809 12.5156 17.3926Z" fill="white"/>
</g>
<defs>
<clipPath id="clip0_661_18049">
<rect width="18" height="18" fill="white" transform="translate(0 0.0957031)"/>
</clipPath>
</defs>
</svg>
