<svg width="18" height="19" viewBox="0 0 18 19" fill="none" xmlns="http://www.w3.org/2000/svg">
<g clip-path="url(#clip0_661_18073)">
<path d="M15.375 15.0951C15.3135 15.0951 15.252 15.0846 15.1935 15.0651L0.381034 10.0026C0.168034 9.92915 0.0195335 9.73715 0.00153354 9.5129C-0.0149665 9.28865 0.102784 9.07565 0.301534 8.9714L17.1765 0.158896C17.3648 0.0621456 17.592 0.0771456 17.763 0.199396C17.9355 0.322396 18.0248 0.530896 17.994 0.740896L15.9315 14.6159C15.9068 14.7809 15.81 14.9264 15.6668 15.0134C15.5783 15.0674 15.477 15.0951 15.375 15.0951ZM1.98453 9.3614L14.9175 13.7819L16.7183 1.6679L1.98453 9.3614Z" fill="white"/>
<path d="M7.125 17.3462C7.0665 17.3462 7.00725 17.3372 6.95025 17.3185C6.7185 17.242 6.5625 17.0267 6.5625 16.7837V11.7212C6.5625 11.5795 6.6165 11.4415 6.71325 11.3372L17.0258 0.274715C17.2373 0.046715 17.595 0.035465 17.8215 0.246965C18.0487 0.458465 18.0608 0.814715 17.8493 1.04272L7.6875 11.9425V15.0685L9.56475 12.5132C9.7485 12.2642 10.101 12.2087 10.3515 12.3932C10.602 12.577 10.6553 12.9295 10.4715 13.18L7.57875 17.1175C7.47 17.2637 7.3005 17.3462 7.125 17.3462Z" fill="white"/>
</g>
<defs>
<clipPath id="clip0_661_18073">
<rect width="18" height="18" fill="white" transform="translate(0 0.0957031)"/>
</clipPath>
</defs>
</svg>
