<svg width="139" height="41" viewBox="0 0 139 41" fill="none" xmlns="http://www.w3.org/2000/svg">
<g filter="url(#filter0_i_661_18041)">
<rect y="0.0957031" width="40" height="40" rx="20" fill="#7755FF"/>
<g filter="url(#filter1_i_661_18041)">
<circle cx="20" cy="20.0957" r="12" fill="white"/>
</g>
</g>
<path d="M55.55 26.0957H51.5641V13.1792H55.7266C56.9796 13.1792 58.0518 13.4378 58.9431 13.955C59.8345 14.4679 60.5178 15.2058 60.9929 16.1687C61.468 17.1273 61.7056 18.2752 61.7056 19.6122C61.7056 20.9577 61.4659 22.1161 60.9866 23.0873C60.5073 24.0544 59.8093 24.7986 58.8927 25.32C57.9761 25.8371 56.8619 26.0957 55.55 26.0957ZM53.1282 24.7082H55.4491C56.5171 24.7082 57.4022 24.5022 58.1043 24.0901C58.8065 23.6781 59.33 23.0915 59.6747 22.3305C60.0195 21.5695 60.1919 20.6634 60.1919 19.6122C60.1919 18.5695 60.0216 17.6718 59.6811 16.9192C59.3405 16.1624 58.8317 15.5821 58.1548 15.1785C57.4779 14.7707 56.6348 14.5667 55.6257 14.5667H53.1282V24.7082ZM64.1274 26.0957V16.4083H65.6158V26.0957H64.1274ZM64.8842 14.7938C64.5941 14.7938 64.3439 14.695 64.1337 14.4974C63.9277 14.2997 63.8247 14.0622 63.8247 13.7847C63.8247 13.5072 63.9277 13.2696 64.1337 13.072C64.3439 12.8744 64.5941 12.7756 64.8842 12.7756C65.1743 12.7756 65.4224 12.8744 65.6284 13.072C65.8387 13.2696 65.9438 13.5072 65.9438 13.7847C65.9438 14.0622 65.8387 14.2997 65.6284 14.4974C65.4224 14.695 65.1743 14.7938 64.8842 14.7938ZM72.2522 29.9303C71.5332 29.9303 70.9152 29.8378 70.398 29.6528C69.8808 29.472 69.4499 29.2323 69.1051 28.9338C68.7645 28.6395 68.4933 28.3241 68.2915 27.9878L69.4772 27.1553C69.6117 27.3319 69.782 27.5337 69.9881 27.7607C70.1941 27.992 70.4758 28.1917 70.8332 28.3599C71.1948 28.5323 71.6678 28.6185 72.2522 28.6185C73.0343 28.6185 73.6797 28.4292 74.1884 28.0508C74.6972 27.6724 74.9516 27.0796 74.9516 26.2723V24.3046H74.8254C74.7161 24.4811 74.5605 24.6998 74.3587 24.9605C74.1611 25.2169 73.8752 25.4461 73.501 25.6479C73.131 25.8455 72.6306 25.9443 72 25.9443C71.2179 25.9443 70.5157 25.7593 69.8935 25.3893C69.2754 25.0193 68.7855 24.4811 68.424 23.7748C68.0666 23.0684 67.8879 22.2107 67.8879 21.2016C67.8879 20.2093 68.0624 19.3452 68.4113 18.6094C68.7603 17.8694 69.246 17.2976 69.8682 16.894C70.4905 16.4861 71.2095 16.2822 72.0252 16.2822C72.6559 16.2822 73.1562 16.3873 73.5262 16.5976C73.9004 16.8036 74.1863 17.039 74.384 17.3039C74.5858 17.5646 74.7413 17.779 74.8507 17.9472H75.002V16.4083H76.44V26.3732C76.44 27.2057 76.2508 27.8827 75.8724 28.404C75.4982 28.9296 74.9936 29.3143 74.3587 29.5582C73.728 29.8062 73.0259 29.9303 72.2522 29.9303ZM72.2018 24.6073C72.7988 24.6073 73.3034 24.4706 73.7154 24.1973C74.1275 23.924 74.4407 23.5309 74.6551 23.0179C74.8696 22.505 74.9768 21.8911 74.9768 21.1763C74.9768 20.4784 74.8717 19.8624 74.6615 19.3284C74.4512 18.7944 74.1401 18.3761 73.728 18.0734C73.316 17.7706 72.8072 17.6193 72.2018 17.6193C71.5711 17.6193 71.0455 17.779 70.6251 18.0986C70.2088 18.4181 69.8956 18.847 69.6853 19.3852C69.4793 19.9234 69.3763 20.5204 69.3763 21.1763C69.3763 21.8491 69.4814 22.444 69.6916 22.9612C69.9061 23.4741 70.2214 23.8778 70.6377 24.1721C71.0581 24.4622 71.5795 24.6073 72.2018 24.6073ZM79.1646 26.0957V16.4083H80.653V26.0957H79.1646ZM79.9214 14.7938C79.6313 14.7938 79.3811 14.695 79.1709 14.4974C78.9648 14.2997 78.8618 14.0622 78.8618 13.7847C78.8618 13.5072 78.9648 13.2696 79.1709 13.072C79.3811 12.8744 79.6313 12.7756 79.9214 12.7756C80.2115 12.7756 80.4596 12.8744 80.6656 13.072C80.8758 13.2696 80.9809 13.5072 80.9809 13.7847C80.9809 14.0622 80.8758 14.2997 80.6656 14.4974C80.4596 14.695 80.2115 14.7938 79.9214 14.7938ZM87.3146 26.2975C86.4064 26.2975 85.6244 26.0831 84.9685 25.6542C84.3125 25.2254 83.808 24.6346 83.4548 23.882C83.1016 23.1294 82.925 22.2695 82.925 21.3025C82.925 20.3186 83.1058 19.4504 83.4674 18.6977C83.8332 17.9409 84.342 17.3502 84.9937 16.9255C85.6496 16.4966 86.4148 16.2822 87.2894 16.2822C87.9705 16.2822 88.5844 16.4083 89.131 16.6606C89.6776 16.9129 90.1254 17.2661 90.4744 17.7202C90.8233 18.1743 91.0399 18.704 91.124 19.3095H89.6355C89.522 18.868 89.2698 18.477 88.8787 18.1364C88.4919 17.7917 87.9705 17.6193 87.3146 17.6193C86.7344 17.6193 86.2256 17.7706 85.7884 18.0734C85.3553 18.3719 85.0168 18.7944 84.7729 19.341C84.5333 19.8834 84.4135 20.5204 84.4135 21.252C84.4135 22.0004 84.5312 22.6522 84.7666 23.2072C85.0063 23.7622 85.3427 24.1931 85.7757 24.5001C86.213 24.807 86.726 24.9605 87.3146 24.9605C87.7014 24.9605 88.0525 24.8932 88.3679 24.7586C88.6832 24.6241 88.9502 24.4307 89.1688 24.1784C89.3875 23.9261 89.543 23.6234 89.6355 23.2702H91.124C91.0399 23.842 90.8318 24.3571 90.4996 24.8154C90.1716 25.2695 89.7365 25.6311 89.1941 25.9002C88.6559 26.1651 88.0294 26.2975 87.3146 26.2975ZM96.1505 26.3228C95.5367 26.3228 94.9796 26.2071 94.4792 25.9759C93.9789 25.7404 93.5815 25.4019 93.2872 24.9605C92.9929 24.5148 92.8457 23.9766 92.8457 23.3459C92.8457 22.7909 92.9551 22.341 93.1737 21.9962C93.3923 21.6473 93.6846 21.374 94.0504 21.1763C94.4162 20.9787 94.8198 20.8316 95.2613 20.7349C95.707 20.634 96.1548 20.5541 96.6046 20.4952C97.1933 20.4195 97.6705 20.3628 98.0363 20.3249C98.4063 20.2829 98.6754 20.2135 98.8436 20.1168C99.016 20.0201 99.1022 19.8519 99.1022 19.6122V19.5618C99.1022 18.9395 98.9319 18.456 98.5913 18.1112C98.2549 17.7664 97.7441 17.594 97.0587 17.594C96.3482 17.594 95.7911 17.7496 95.3874 18.0607C94.9838 18.3719 94.7 18.704 94.536 19.0572L93.1232 18.5527C93.3755 17.964 93.7119 17.5057 94.1323 17.1778C94.557 16.8456 95.0195 16.6144 95.5199 16.484C96.0244 16.3495 96.5206 16.2822 97.0083 16.2822C97.3194 16.2822 97.6768 16.32 98.0805 16.3957C98.4883 16.4672 98.8814 16.6165 99.2598 16.8435C99.6425 17.0706 99.9599 17.4132 100.212 17.8715C100.464 18.3298 100.591 18.9437 100.591 19.7131V26.0957H99.1022V24.7839H99.0265C98.9256 24.9941 98.7574 25.219 98.5219 25.4587C98.2865 25.6984 97.9732 25.9023 97.5822 26.0705C97.1912 26.2387 96.714 26.3228 96.1505 26.3228ZM96.3776 24.9857C96.9662 24.9857 97.4624 24.8701 97.866 24.6388C98.2739 24.4076 98.5808 24.109 98.7868 23.7432C98.9971 23.3774 99.1022 22.9927 99.1022 22.5891V21.2268C99.0391 21.3025 98.9003 21.3719 98.6859 21.4349C98.4757 21.4938 98.2318 21.5463 97.9543 21.5926C97.681 21.6346 97.414 21.6725 97.1533 21.7061C96.8969 21.7356 96.6887 21.7608 96.529 21.7818C96.1421 21.8323 95.7805 21.9142 95.4442 22.0278C95.112 22.1371 94.8429 22.3032 94.6369 22.526C94.4351 22.7447 94.3342 23.0432 94.3342 23.4216C94.3342 23.9388 94.5255 24.3298 94.9081 24.5947C95.2949 24.8554 95.7848 24.9857 96.3776 24.9857ZM103.307 26.0957V16.4083H104.745V17.922H104.871C105.073 17.4048 105.399 17.0033 105.849 16.7174C106.299 16.4273 106.839 16.2822 107.47 16.2822C108.109 16.2822 108.641 16.4273 109.065 16.7174C109.494 17.0033 109.829 17.4048 110.068 17.922H110.169C110.417 17.4216 110.789 17.0243 111.285 16.73C111.782 16.4315 112.377 16.2822 113.07 16.2822C113.936 16.2822 114.645 16.5534 115.196 17.0958C115.747 17.634 116.022 18.4728 116.022 19.6122V26.0957H114.534V19.6122C114.534 18.8975 114.338 18.3866 113.947 18.0797C113.556 17.7727 113.096 17.6193 112.566 17.6193C111.885 17.6193 111.357 17.8253 110.983 18.2373C110.609 18.6452 110.421 19.1623 110.421 19.7888V26.0957H108.908V19.4609C108.908 18.9101 108.729 18.4665 108.372 18.1301C108.014 17.7896 107.554 17.6193 106.99 17.6193C106.604 17.6193 106.242 17.7223 105.906 17.9283C105.574 18.1343 105.304 18.4202 105.098 18.786C104.897 19.1476 104.796 19.566 104.796 20.0411V26.0957H103.307ZM118.743 29.7285V16.4083H120.181V17.9472H120.358C120.467 17.779 120.619 17.5646 120.812 17.3039C121.01 17.039 121.291 16.8036 121.657 16.5976C122.027 16.3873 122.527 16.2822 123.158 16.2822C123.974 16.2822 124.693 16.4861 125.315 16.894C125.937 17.3018 126.423 17.8799 126.772 18.6284C127.121 19.3768 127.295 20.2597 127.295 21.2773C127.295 22.3032 127.121 23.1924 126.772 23.9451C126.423 24.6935 125.939 25.2737 125.321 25.6858C124.703 26.0936 123.991 26.2975 123.183 26.2975C122.561 26.2975 122.063 26.1945 121.689 25.9885C121.314 25.7783 121.026 25.5407 120.825 25.2758C120.623 25.0067 120.467 24.7839 120.358 24.6073H120.232V29.7285H118.743ZM120.207 21.252C120.207 21.9836 120.314 22.629 120.528 23.1882C120.743 23.7432 121.056 24.1784 121.468 24.4938C121.88 24.8049 122.385 24.9605 122.982 24.9605C123.604 24.9605 124.123 24.7965 124.539 24.4685C124.96 24.1364 125.275 23.6907 125.485 23.1315C125.7 22.5681 125.807 21.9416 125.807 21.252C125.807 20.5709 125.702 19.957 125.492 19.4104C125.286 18.8596 124.972 18.4244 124.552 18.1049C124.136 17.7811 123.612 17.6193 122.982 17.6193C122.376 17.6193 121.867 17.7727 121.455 18.0797C121.043 18.3824 120.732 18.8071 120.522 19.3537C120.312 19.896 120.207 20.5288 120.207 21.252ZM133.501 26.2975C132.627 26.2975 131.86 26.0894 131.199 25.6731C130.544 25.2569 130.031 24.6746 129.661 23.9261C129.295 23.1777 129.112 22.3032 129.112 21.3025C129.112 20.2934 129.295 19.4125 129.661 18.6599C130.031 17.9073 130.544 17.3228 131.199 16.9066C131.86 16.4903 132.627 16.2822 133.501 16.2822C134.376 16.2822 135.141 16.4903 135.797 16.9066C136.457 17.3228 136.97 17.9073 137.336 18.6599C137.706 19.4125 137.891 20.2934 137.891 21.3025C137.891 22.3032 137.706 23.1777 137.336 23.9261C136.97 24.6746 136.457 25.2569 135.797 25.6731C135.141 26.0894 134.376 26.2975 133.501 26.2975ZM133.501 24.9605C134.166 24.9605 134.712 24.7902 135.141 24.4496C135.57 24.109 135.888 23.6612 136.094 23.1062C136.3 22.5512 136.403 21.95 136.403 21.3025C136.403 20.655 136.3 20.0516 136.094 19.4924C135.888 18.9332 135.57 18.4812 135.141 18.1364C134.712 17.7917 134.166 17.6193 133.501 17.6193C132.837 17.6193 132.291 17.7917 131.862 18.1364C131.433 18.4812 131.115 18.9332 130.909 19.4924C130.703 20.0516 130.6 20.655 130.6 21.3025C130.6 21.95 130.703 22.5512 130.909 23.1062C131.115 23.6612 131.433 24.109 131.862 24.4496C132.291 24.7902 132.837 24.9605 133.501 24.9605Z" fill="white"/>
<defs>
<filter id="filter0_i_661_18041" x="0" y="0.0957031" width="40" height="40" filterUnits="userSpaceOnUse" color-interpolation-filters="sRGB">
<feFlood flood-opacity="0" result="BackgroundImageFix"/>
<feBlend mode="normal" in="SourceGraphic" in2="BackgroundImageFix" result="shape"/>
<feColorMatrix in="SourceAlpha" type="matrix" values="0 0 0 0 0 0 0 0 0 0 0 0 0 0 0 0 0 0 127 0" result="hardAlpha"/>
<feOffset/>
<feGaussianBlur stdDeviation="3"/>
<feComposite in2="hardAlpha" operator="arithmetic" k2="-1" k3="1"/>
<feColorMatrix type="matrix" values="0 0 0 0 1 0 0 0 0 1 0 0 0 0 1 0 0 0 0.25 0"/>
<feBlend mode="normal" in2="shape" result="effect1_innerShadow_661_18041"/>
</filter>
<filter id="filter1_i_661_18041" x="8" y="8.0957" width="24" height="28" filterUnits="userSpaceOnUse" color-interpolation-filters="sRGB">
<feFlood flood-opacity="0" result="BackgroundImageFix"/>
<feBlend mode="normal" in="SourceGraphic" in2="BackgroundImageFix" result="shape"/>
<feColorMatrix in="SourceAlpha" type="matrix" values="0 0 0 0 0 0 0 0 0 0 0 0 0 0 0 0 0 0 127 0" result="hardAlpha"/>
<feOffset dy="5"/>
<feGaussianBlur stdDeviation="2"/>
<feComposite in2="hardAlpha" operator="arithmetic" k2="-1" k3="1"/>
<feColorMatrix type="matrix" values="0 0 0 0 0.360784 0 0 0 0 0.231373 0 0 0 0 0.996078 0 0 0 1 0"/>
<feBlend mode="normal" in2="shape" result="effect1_innerShadow_661_18041"/>
</filter>
</defs>
</svg>
