<svg width="123" height="122" viewBox="0 0 123 122" fill="none" xmlns="http://www.w3.org/2000/svg">
<g clip-path="url(#clip0_661_17667)">
<g clip-path="url(#clip1_661_17667)">
<path d="M25.8846 66.1602C26.5007 66.0775 27.0572 66.1918 27.5887 66.5672C28.0561 66.977 28.3952 67.4555 28.4779 68.0716C28.5559 68.525 28.5699 69.0129 28.3868 69.4412C28.2037 69.8696 27.9863 70.2338 27.636 70.5042C27.2216 70.8089 26.7728 71.0496 26.2552 71.162L25.6392 71.2447C25.1216 71.3571 24.5697 71.4054 24.0772 71.2567C23.6191 71.1722 23.2205 70.8906 22.886 70.5747C22.5515 70.2587 22.3109 69.8099 22.2328 69.3565C22.086 68.7748 22.1659 68.1541 22.4772 67.657C22.7885 67.1599 23.2327 66.7567 23.8785 66.5755L24.1033 67.6106C23.7484 67.7184 23.4278 67.8903 23.2745 68.2201C23.1211 68.55 23.1304 68.8752 23.2038 69.166C23.2475 69.5554 23.5522 69.9698 23.8821 70.1231C24.4089 70.3359 24.9609 70.2876 25.4784 70.1752L25.996 70.0628C26.5136 69.9504 26.9967 69.7738 27.4409 69.3706C27.7568 69.0361 27.8758 68.6421 27.7336 68.223C27.7243 67.8978 27.5525 67.5772 27.2523 67.3254C26.9866 67.1377 26.627 67.0829 26.2377 67.1266L25.8846 66.1602Z" fill="#232323"/>
<path d="M21.3849 60.2345L25.5142 60.0841C26.0662 60.0358 26.6571 60.2142 27.1245 60.624C27.5278 61.0681 27.773 61.6795 27.7572 62.2658C27.8399 62.8819 27.6615 63.4729 27.2861 64.0043C26.8763 64.4717 26.329 64.6826 25.7427 64.6668L21.6134 64.8172L21.5512 63.7775L25.6805 63.627C26.0057 63.6178 26.3606 63.51 26.6468 63.274C26.8986 62.9739 26.9879 62.6784 26.9442 62.2891C26.96 61.7027 26.488 61.1303 25.9017 61.1145C25.8032 61.0848 25.7391 61.1192 25.675 61.1536L21.5457 61.304L21.3849 60.2345Z" fill="#232323"/>
<path d="M26.4769 55.1095C26.2158 55.0844 25.9891 55.1234 25.8311 55.2907C25.5793 55.5908 25.426 55.9206 25.2727 56.2505C25.0896 56.6789 24.8722 57.0431 24.6203 57.3432C24.309 57.8403 23.6976 58.0856 23.1113 58.0698C22.6532 57.9852 22.1905 57.738 21.9499 57.2892C21.6748 56.7763 21.5624 56.2588 21.6423 55.6381C21.6972 55.2785 21.8161 54.8845 22.0336 54.5203C22.2213 54.2545 22.4731 53.9544 22.828 53.8466C23.1486 53.6747 23.4738 53.6655 23.8334 53.7203L23.6689 54.7991C23.4078 54.774 23.117 54.8474 22.8605 54.9849C22.6384 55.1865 22.4851 55.5164 22.4944 55.8416C22.4052 56.1371 22.4786 56.4279 22.6161 56.6844C22.7192 56.8767 22.9506 57.0003 23.2117 57.0254C23.4728 57.0505 23.6651 56.9474 23.8231 56.7801C24.0749 56.48 24.2283 56.1501 24.3816 55.8203C24.5646 55.3919 24.718 55.0621 25.0339 54.7276C25.2216 54.4618 25.4781 54.3243 25.7345 54.1868C26.0254 54.1134 26.3162 54.04 26.5773 54.0651C27.0995 54.1153 27.4981 54.3968 27.7388 54.8456C28.0138 55.3586 28.0965 55.9746 27.9822 56.5312C27.9617 56.9549 27.7786 57.3833 27.5612 57.7475C27.4079 58.0773 27.0576 58.3477 26.737 58.5196C26.4164 58.6915 26.0271 58.7352 25.6675 58.6803L25.832 57.6016C26.1275 57.6908 26.4824 57.583 26.7045 57.3814C26.9907 57.1454 27.144 56.8155 27.1347 56.4903C27.2239 56.1948 27.1506 55.904 27.013 55.6475C26.9694 55.2582 26.738 55.1346 26.4769 55.1095Z" fill="#232323"/>
<path d="M24.7183 47.2177L24.1533 49.089L29.2749 50.6353L28.9775 51.6203L23.8559 50.074L23.3206 51.8468L22.5327 51.6089L23.96 46.8813L24.7183 47.2177Z" fill="#232323"/>
<path d="M29.749 42.1267C30.2117 42.3739 30.7088 42.6852 31.0136 43.0996C31.284 43.4499 31.5246 43.8987 31.5385 44.3865C31.7085 45.7812 30.7013 46.9817 29.3707 47.1173C29.2722 47.0876 29.1439 47.1564 29.0454 47.1266C28.5232 47.0764 27.9667 46.9621 27.5039 46.715L27.1741 46.5616C26.6472 46.3488 26.2142 46.0032 25.8751 45.5246C25.6047 45.1743 25.3641 44.7255 25.3502 44.2377C25.3362 43.7499 25.4208 43.2918 25.6039 42.8634C25.7869 42.4351 26.167 42.0662 26.5173 41.7958C26.902 41.5895 27.3851 41.413 27.873 41.3991C28.4593 41.4149 28.9861 41.6277 29.4489 41.8749L29.749 42.1267ZM28.9889 42.8645C28.5262 42.6173 27.9352 42.4389 27.3833 42.4872C26.9298 42.5652 26.5795 42.8356 26.3964 43.2639C26.179 43.6282 26.1929 44.116 26.3992 44.5007C26.6398 44.9495 27.1072 45.3593 27.6341 45.5721L27.9639 45.7254C28.4266 45.9726 28.9832 46.0869 29.5352 46.0386C30.2794 45.8871 30.8128 45.1884 30.6614 44.4441C30.6567 44.2815 30.588 44.1533 30.5536 44.0892C30.2145 43.6106 29.7815 43.2649 29.3187 43.0178L28.9889 42.8645Z" fill="#232323"/>
<path d="M29.0584 37.2969L33.919 38.8181L31.3202 34.4332L32.1992 33.3015L37.0606 37.1336L36.4334 37.9652L34.8343 36.6763L32.7334 34.9136L35.3322 39.2985L34.8286 39.8988L29.9681 38.3775L32.1628 40.0074L33.7619 41.2962L33.0705 42.1622L28.2091 38.3301L29.0584 37.2969Z" fill="#232323"/>
<path d="M40.049 34.5427L36.4216 29.4711L37.9213 28.4193C38.3358 28.1146 38.819 27.9381 39.2724 27.86C39.7602 27.8461 40.2824 27.8963 40.6467 28.1137C41.1094 28.3609 41.5424 28.7066 41.8471 29.121L42.0488 29.3431C42.3535 29.7575 42.5644 30.3048 42.6769 30.8223C42.7549 31.2758 42.7047 31.798 42.4575 32.2607C42.2103 32.7235 41.8647 33.1564 41.4503 33.4612L40.049 34.5427ZM37.8553 29.5279L40.4653 33.1638L41.0721 32.7559C41.5209 32.5153 41.7681 32.0526 41.8526 31.5945C41.8685 31.0082 41.6919 30.525 41.3528 30.0464L41.1168 29.7602C40.812 29.3458 40.3447 28.936 39.8522 28.7874C39.3941 28.7028 38.8765 28.8152 38.5262 29.0856L37.8553 29.5279Z" fill="#232323"/>
<path d="M47.026 27.0848L44.7476 28.2239L45.5773 29.9253L48.2404 28.5799L48.6529 29.3492L44.9937 31.1462L42.264 25.5933L45.859 23.8307L46.2716 24.6001L43.6726 25.9111L44.4335 27.4842L46.7119 26.3451L47.026 27.0848Z" fill="#232323"/>
<path d="M52.3855 26.4436C52.3465 26.2169 52.1449 25.9948 51.9479 25.9353C51.5539 25.8164 51.1943 25.7616 50.805 25.8052C50.3813 25.7848 49.9576 25.7643 49.4995 25.6797C48.9429 25.5654 48.4755 25.1556 48.2646 24.6084C48.0881 24.1252 48.1727 23.6671 48.5183 23.2341C48.864 22.8011 49.3426 22.462 49.9242 22.3152C50.2792 22.2074 50.7326 22.1294 51.0922 22.1842C51.4518 22.239 51.7817 22.3923 52.0474 22.58C52.3132 22.7677 52.485 23.0883 52.5928 23.4433L51.5921 23.7322C51.5187 23.4414 51.3171 23.2193 51.0857 23.0957C50.7902 23.0065 50.465 23.0158 50.1742 23.0892C49.8833 23.1626 49.6269 23.3001 49.4392 23.5658C49.2812 23.7331 49.2561 23.9942 49.3295 24.285C49.3685 24.5117 49.5358 24.6697 49.7969 24.6948C50.1908 24.8138 50.5504 24.8686 50.9398 24.8249C51.3635 24.8454 51.7872 24.8658 52.1811 24.9848C52.4766 25.074 52.7721 25.1632 52.9737 25.3853C53.1754 25.6074 53.377 25.8294 53.4504 26.1203C53.6269 26.6035 53.5423 27.0616 53.2608 27.4602C52.9151 27.8932 52.4366 28.2323 51.8549 28.3791C51.4358 28.5212 51.0465 28.5649 50.5884 28.4803C50.2288 28.4255 49.8349 28.3066 49.5347 28.0547C49.2346 27.8029 48.9986 27.5167 48.8908 27.1618L49.9557 26.8384C50.0291 27.1293 50.2651 27.4155 50.5606 27.5047C50.8904 27.658 51.2798 27.6144 51.6347 27.5066C51.9256 27.4332 52.182 27.2957 52.3697 27.0299C52.4636 26.8971 52.4245 26.6703 52.3855 26.4436Z" fill="#232323"/>
<path d="M56.2804 27.2443L55.2453 27.4691L54.0933 21.3179L55.1628 21.1572L56.2804 27.2443Z" fill="#232323"/>
<path d="M62.6497 25.8905C62.3979 26.1906 62.1117 26.4266 61.727 26.6329C61.308 26.775 60.8889 26.9172 60.4011 26.9311C59.9133 26.945 59.4552 26.8605 58.9924 26.6133C58.5641 26.4302 58.1952 26.0502 57.989 25.6655C57.7483 25.2167 57.6015 24.635 57.5876 24.1472L57.5737 23.6594C57.4863 22.8807 57.7242 22.0928 58.1935 21.4284C58.633 20.8626 59.3085 20.5829 60.0231 20.5299C60.6391 20.4473 61.2301 20.6257 61.6631 20.9714C62.0961 21.317 62.3711 21.8299 62.4538 22.446L61.414 22.5082C61.3313 21.8922 60.7311 21.3885 60.115 21.4712C59.6913 21.4508 59.2425 21.6914 59.0251 22.0556C58.7779 22.5184 58.6636 23.0749 58.7119 23.6269L58.7258 24.1147C58.71 24.701 58.8866 25.1842 59.2257 25.6627C59.4961 26.0131 59.9885 26.1617 60.4764 26.1478C60.9001 26.1683 61.3191 26.0261 61.6351 25.6916L61.5682 24.4892L60.2673 24.5264L60.2441 23.7133L62.5848 23.614L62.6497 25.8905Z" fill="#232323"/>
<path d="M68.9778 27.5325L67.899 27.368L65.7788 22.644L65.1849 26.9247L64.1405 26.8243L64.9742 20.6815L66.0529 20.846L68.2076 25.6342L68.8312 21.2549L69.91 21.4194L68.9778 27.5325Z" fill="#232323"/>
<path d="M78.721 27.84C78.5082 28.3669 78.1625 28.7999 77.7825 29.1687C77.4666 29.5032 77.0177 29.7439 76.5643 29.8219C75.623 29.9139 74.6678 29.518 74.0927 28.7533C73.8223 28.403 73.6458 27.9198 73.6319 27.432C73.5836 26.88 73.6979 26.3235 73.945 25.8607L74.0984 25.5309C74.3112 25.004 74.6568 24.571 75.0369 24.2022C75.7329 23.4988 76.8024 23.3381 77.6934 23.7683C78.1218 23.9514 78.5204 24.2329 78.8252 24.6473C79.0955 24.9977 79.208 25.5152 79.286 25.9687C79.3343 26.5206 79.22 27.0772 78.9728 27.5399L78.721 27.84ZM77.8206 27.0846C78.0678 26.6218 78.1477 26.0011 78.0994 25.4492C77.948 24.7049 77.2195 24.2701 76.4111 24.4559C76.2829 24.5246 76.1203 24.5293 76.0562 24.5636C75.6418 24.8684 75.2961 25.3014 75.0833 25.8282L74.93 26.1581C74.6828 26.6208 74.6029 27.2415 74.7153 27.7591C74.8667 28.5034 75.6296 29.0024 76.4036 28.7524C76.5318 28.6837 76.6303 28.7134 76.7585 28.6446C77.2371 28.3055 77.4843 27.8428 77.697 27.3159L77.8206 27.0846Z" fill="#232323"/>
<path d="M85.9271 28.5135L83.6495 31.9635C83.3382 32.4606 82.8597 32.7997 82.278 32.9465C81.662 33.0292 81.071 32.8508 80.5395 32.4754C80.0424 32.1641 79.6048 31.6558 79.458 31.0742C79.3112 30.4925 79.4896 29.9015 79.8009 29.4044L82.0784 25.9544L82.9742 26.5473L80.6966 29.9973C80.5089 30.263 80.39 30.657 80.4634 30.9478C80.5711 31.3028 80.7728 31.5248 81.0385 31.7125C81.5059 32.1223 82.2845 32.035 82.66 31.5035C82.6897 31.405 82.7538 31.3706 82.8477 31.2378L85.1252 27.7878L85.9271 28.5135Z" fill="#232323"/>
<path d="M90.5715 33.7833L89.1992 32.4555L85.5362 36.4007L84.7343 35.675L88.3973 31.7298L87.0249 30.4019L87.5927 29.7673L91.2034 33.1143L90.5715 33.7833Z" fill="#232323"/>
<path d="M88.9912 38.8408L90.7464 41.0365L90.0458 41.5773L87.6467 38.4886L92.5511 34.7033L93.2591 35.5619L88.9912 38.8408Z" fill="#232323"/>
<path d="M91.2126 43.5955L90.6328 42.6682L95.9106 39.4254L96.4904 40.3528L91.2126 43.5955Z" fill="#232323"/>
<path d="M94.0515 49.503L93.6 48.5069L96.5689 44.1909L92.5501 45.933L92.0985 44.9369L97.6904 42.4339L98.142 43.43L95.1731 47.7459L99.256 45.9695L99.7076 46.9656L94.0515 49.503Z" fill="#232323"/>
<path d="M98.0488 53.8809L97.4569 51.3916L95.6134 51.8022L96.3474 54.7106L95.539 54.8964L94.5802 50.9529L100.624 49.446L101.548 53.3253L100.676 53.5455L99.976 50.7013L98.2951 51.1073L98.8869 53.5966L98.0488 53.8809Z" fill="#232323"/>
<path d="M101.297 62.8681L101.241 60.9168L95.9045 60.9715L95.9064 59.8974L101.243 59.8427L101.221 57.9555L102.099 57.8979L102.174 62.8105L101.297 62.8681Z" fill="#232323"/>
<path d="M98.0286 69.2434C97.5064 69.1932 96.9795 68.9804 96.4824 68.6691C96.0838 68.3876 95.7493 68.0716 95.5728 67.5885C95.0478 66.3015 95.5924 64.8539 96.8793 64.3289C96.9434 64.2945 97.0717 64.2258 97.1702 64.2555C97.6877 64.1431 98.2397 64.0948 98.7962 64.2091L99.1558 64.2639C99.678 64.3141 100.205 64.5269 100.702 64.8382C101.101 65.1198 101.435 65.4357 101.612 65.9189C101.93 66.8211 101.796 67.8014 101.232 68.5986C100.917 68.9331 100.502 69.2379 100.049 69.3159C99.5311 69.4284 98.9791 69.4767 98.4226 69.3624L98.0286 69.2434ZM98.4886 68.2538C99.0451 68.3682 99.5971 68.3199 100.08 68.1433C100.721 67.7995 100.989 66.9131 100.645 66.272C100.577 66.1437 100.542 66.0796 100.409 65.9858C99.9763 65.6401 99.5135 65.3929 98.9272 65.3771L98.5676 65.3223C98.011 65.208 97.4591 65.2563 96.9118 65.4672C96.5271 65.6734 96.2753 65.9736 96.1907 66.4316C96.1062 66.8897 96.2483 67.3088 96.5828 67.6247C97.0158 67.9704 97.5427 68.1832 98.0992 68.2975L98.4886 68.2538Z" fill="#232323"/>
<path d="M96.1282 75.7098L98.282 78.187L97.7922 79.2751L95.0243 75.8064L92.8825 74.8911L93.3425 73.9015L95.4843 74.8168L99.8998 74.4304L99.4101 75.5184L96.1282 75.7098Z" fill="#232323"/>
<path d="M91.4658 83.3288C90.9687 83.0175 90.5998 82.6375 90.2951 82.223C90.0247 81.8727 89.9123 81.3552 89.8984 80.8673C89.8844 80.3795 90.0331 79.8871 90.3147 79.4884C90.5962 79.0898 90.9122 78.7553 91.3953 78.5788C91.8442 78.3382 92.332 78.3242 92.7901 78.4088C93.3123 78.459 93.8391 78.6718 94.2721 79.0175L94.5378 79.2052C95.0349 79.5165 95.4038 79.8965 95.7086 80.3109C96.0133 80.7254 96.0914 81.1788 96.1053 81.6666C96.1192 82.1544 95.9362 82.5828 95.6546 82.9814C95.3731 83.38 95.0571 83.7145 94.5739 83.891C94.1893 84.0973 93.6373 84.1456 93.1792 84.061C92.6227 83.9467 92.1302 83.7981 91.6972 83.4524L91.4658 83.3288ZM92.3244 82.6208C92.7574 82.9665 93.3484 83.1449 93.8362 83.131C94.324 83.117 94.7087 82.9108 94.8918 82.4824C95.1092 82.1182 95.1938 81.6601 95.0516 81.241C94.7766 80.7281 94.4718 80.3137 94.0091 80.0665L93.7434 79.8788C93.3104 79.5331 92.7194 79.3547 92.2316 79.3686C91.8079 79.3482 91.3935 79.6529 91.176 80.0172C90.8945 80.4158 90.874 80.8395 91.0162 81.2586C91.2912 81.7715 91.6601 82.1515 92.1572 82.4628L92.3244 82.6208Z" fill="#232323"/>
<path d="M89.5202 90.317L86.5097 87.4736C86.0423 87.0638 85.8314 86.5165 85.7831 85.9646C85.799 85.3782 86.1056 84.7185 86.5498 84.3153C86.9595 83.8479 87.5366 83.5385 88.0885 83.4902C88.6405 83.4419 89.2658 83.6844 89.669 84.1286L92.6795 86.972L91.9538 87.7739L88.9433 84.9305C88.7073 84.6443 88.3775 84.4909 88.0523 84.5002C87.727 84.5095 87.4065 84.6814 87.1546 84.9815C86.7105 85.3848 86.6649 86.0696 87.1026 86.5779C87.1369 86.642 87.2698 86.7358 87.3042 86.7999L90.2506 89.6777L89.5202 90.317Z" fill="#232323"/>
<path d="M83.5612 90.2915L84.5182 89.6132L83.0632 87.6693L83.9561 87.0254L87.6774 91.9642L85.8915 93.252C85.4473 93.6552 84.9 93.8661 84.3137 93.8503C83.7915 93.8001 83.2944 93.4888 82.9896 93.0744C82.7536 92.7882 82.6458 92.4332 82.6022 92.0439C82.5929 91.7187 82.7118 91.3247 82.8995 91.059L80.2263 89.7683L80.1919 89.7042L81.149 89.0259L83.5612 90.2915ZM85.0246 90.2497L84.1317 90.8936C83.8752 91.0311 83.6875 91.2969 83.5983 91.5924C83.5732 91.8535 83.6466 92.1443 83.7841 92.4008C83.9216 92.6572 84.1873 92.8449 84.4484 92.87C84.7737 92.8607 85.0645 92.7873 85.3507 92.5513L86.3078 91.8731L85.0246 90.2497Z" fill="#232323"/>
<path d="M76.9941 91.5856L79.4033 97.3104L77.4409 98.115C76.928 98.39 76.376 98.4383 75.8194 98.324C75.3613 98.2394 74.9925 97.8594 74.8159 97.3762C74.6784 97.1198 74.7035 96.8587 74.7286 96.5976C74.8178 96.3021 74.9414 96.0707 75.1635 95.8691C74.8727 95.9425 74.5131 95.8877 74.2473 95.6999C73.9816 95.5122 73.78 95.2902 73.6081 94.9696C73.3674 94.5208 73.3832 93.9345 73.5663 93.5061C73.8776 93.009 74.3217 92.6058 74.9034 92.459L76.9941 91.5856ZM77.4261 95.3163L76.4941 95.7335C76.2033 95.8069 75.9812 96.0085 75.8576 96.2399C75.734 96.4712 75.7089 96.7323 75.812 96.9247C75.8511 97.1514 76.0527 97.3735 76.3138 97.3986C76.5452 97.5221 76.836 97.4487 77.0924 97.3112L78.0244 96.8941L77.4261 95.3163ZM77.112 94.5766L76.3762 92.7424L75.316 93.2283C75.0251 93.3017 74.803 93.5034 74.6795 93.7347C74.5559 93.9661 74.5651 94.2913 74.6683 94.4837C74.8448 94.9668 75.3075 95.214 75.7266 95.0719C75.7907 95.0375 75.8548 95.0031 75.919 94.9687L77.112 94.5766Z" fill="#232323"/>
<path d="M68.6296 100.775L67.7006 96.733C67.5538 96.1513 67.6337 95.5306 67.945 95.0335C68.3204 94.502 68.8333 94.227 69.415 94.0802C69.9967 93.9334 70.6174 94.0133 71.1786 94.2902C71.6757 94.6015 72.0148 95.0801 72.1616 95.6617L73.0907 99.7037L72.0899 99.9927L71.1609 95.9507C71.1516 95.6255 70.9156 95.3393 70.6155 95.0875C70.3497 94.8997 69.926 94.8793 69.6352 94.9527C69.0191 95.0354 68.5796 95.6012 68.6623 96.2173C68.6326 96.3158 68.7013 96.444 68.7357 96.5081L69.6304 100.486L68.6296 100.775Z" fill="#232323"/>
<path d="M62.6177 96.6508C62.5926 96.9119 62.7301 97.1683 62.9271 97.2278C63.2569 97.3811 63.5868 97.5345 63.9808 97.6534C64.4389 97.738 64.8328 97.8569 65.1971 98.0744C65.7239 98.2872 66.0974 98.8298 66.1457 99.3817C66.1597 99.8696 66.011 100.362 65.5965 100.667C65.1524 101.07 64.5707 101.217 64.0188 101.265C63.6294 101.309 63.2355 101.19 62.8415 101.071C62.5116 100.918 62.2459 100.73 62.0099 100.444C61.7739 100.157 61.6661 99.8025 61.6568 99.4773L62.6966 99.4151C62.6715 99.6762 62.8434 99.9968 63.0106 100.155C63.2764 100.342 63.5719 100.432 63.8627 100.358C64.1879 100.349 64.4787 100.276 64.7008 100.074C64.8588 99.9067 64.9824 99.6753 64.9434 99.4486C64.9043 99.2219 64.8012 99.0295 64.5698 98.906C64.24 98.7526 63.9101 98.5993 63.5162 98.4804C63.1222 98.3614 62.7282 98.2425 62.2999 98.0594C62.0685 97.9358 61.8028 97.7481 61.6309 97.4275C61.4934 97.1711 61.42 96.8802 61.3466 96.5894C61.2685 96.136 61.5157 95.6732 61.8316 95.3387C62.3102 94.9996 62.8575 94.7887 63.4438 94.8045C63.8331 94.7608 64.2912 94.8454 64.6852 94.9644C65.015 95.1177 65.3793 95.3351 65.6153 95.6213C65.8513 95.9075 65.9591 96.2625 65.9386 96.6862L64.8988 96.7484C64.8896 96.4232 64.752 96.1667 64.4863 95.979C64.1862 95.7272 63.8266 95.6724 63.4373 95.716C63.112 95.7253 62.8212 95.7987 62.5991 96.0003C62.6381 96.2271 62.5787 96.424 62.6177 96.6508Z" fill="#232323"/>
<path d="M58.9943 94.9644L60.1028 95.0304L59.6929 101.194L58.5844 101.128L58.9943 94.9644Z" fill="#232323"/>
<path d="M52.5463 93.8782L53.5953 94.1412L55.395 99.0371L56.3141 94.7471L57.3632 95.0101L56.1058 101.132L55.0911 100.934L53.2914 96.0377L52.4067 100.392L51.3921 100.193L52.5463 93.8782Z" fill="#232323"/>
<path d="M46.68 94.6323L49.0829 95.5727L49.7807 93.7951L46.9839 92.7358L47.2859 91.9135L51.0379 93.3687L48.7613 99.1296L45.0092 97.6744L45.3113 96.852L48.1425 97.9755L48.7808 96.395L46.378 95.4546L46.68 94.6323Z" fill="#232323"/>
<path d="M42.6387 91.102C42.5151 91.3333 42.49 91.5944 42.5932 91.7868C42.7651 92.1073 43.0011 92.3935 43.2371 92.6797C43.5716 92.9957 43.8419 93.346 44.0482 93.7307C44.3874 94.2092 44.4059 94.8596 44.0946 95.3567C43.8475 95.8195 43.3986 96.0601 42.9452 96.1382C42.3933 96.1865 41.8367 96.0722 41.3396 95.7609C40.9753 95.5434 40.6752 95.2916 40.5033 94.971C40.2673 94.6848 40.1596 94.3299 40.1503 94.0047C40.141 93.6794 40.1958 93.3199 40.3835 93.0541L41.3434 93.6126C41.2198 93.8439 41.1306 94.1394 41.204 94.4303C41.2774 94.7211 41.5775 94.9729 41.8088 95.0965C42.0746 95.2842 42.3357 95.3093 42.6609 95.3C42.8876 95.261 43.1441 95.1235 43.2677 94.8921C43.3913 94.6608 43.3522 94.434 43.2491 94.2417C43.0772 93.9211 42.8412 93.6349 42.6052 93.3487C42.2707 93.0328 42.0988 92.7122 41.8284 92.3619C41.6909 92.1055 41.6175 91.8146 41.6082 91.4894C41.599 91.1642 41.7225 90.9328 41.8461 90.7015C42.0933 90.2387 42.5421 89.9981 42.9956 89.92C43.5475 89.8717 44.1384 90.0502 44.5371 90.3317C44.9013 90.5492 45.2358 90.8651 45.4718 91.1513C45.7078 91.4375 45.8156 91.7924 45.8592 92.1818C45.9029 92.5711 45.784 92.9651 45.5963 93.2308L44.6364 92.6723C44.8241 92.4066 44.8148 92.0814 44.7414 91.7905C44.5695 91.47 44.3335 91.1838 44.0037 91.0304C43.7379 90.8427 43.4425 90.7535 43.1516 90.8269C42.9546 90.7675 42.7623 90.8706 42.6387 91.102Z" fill="#232323"/>
<path d="M37.9545 87.5908C37.7965 87.7581 37.7073 88.0535 37.8104 88.2459C37.9182 88.6008 38.0901 88.9214 38.3261 89.2076C38.5965 89.5579 38.8028 89.9426 38.9449 90.3617C39.1558 90.909 39.0759 91.5297 38.7302 91.9627C38.4487 92.3613 37.9655 92.5378 37.4777 92.5517C36.8914 92.5359 36.3645 92.3231 35.9613 91.879C35.6611 91.6271 35.3908 91.2768 35.2189 90.9563C35.047 90.6357 35.0033 90.2463 35.0582 89.8868C35.113 89.5272 35.2663 89.1973 35.454 88.9316L36.32 89.6229C36.0979 89.8245 36.0087 90.12 36.0821 90.4108C36.1555 90.7017 36.3274 91.0223 36.5931 91.21C36.7948 91.432 37.0902 91.5212 37.3513 91.5463C37.6124 91.5714 37.8689 91.4339 37.9925 91.2026C38.1505 91.0353 38.1755 90.7742 38.1365 90.5475C38.0288 90.1925 37.8569 89.872 37.6209 89.5858C37.3505 89.2355 37.1442 88.8508 37.0364 88.4958C36.963 88.205 36.8896 87.9141 36.9788 87.6187C37.0039 87.3576 37.1573 87.0277 37.3152 86.8605C37.5968 86.4618 38.08 86.2853 38.5678 86.2714C39.1541 86.2872 39.7153 86.5641 40.0842 86.9442C40.3843 87.196 40.6547 87.5463 40.861 87.931C41.0329 88.2516 41.0765 88.6409 41.1202 89.0302C41.0654 89.3898 40.912 89.7197 40.7243 89.9854L39.8583 89.2941C40.0804 89.0924 40.1353 88.7328 40.126 88.4076C40.0182 88.0527 39.8463 87.7321 39.5806 87.5444C39.3789 87.3223 39.0491 87.169 38.788 87.1439C38.3689 87.2861 38.1125 87.4236 37.9545 87.5908Z" fill="#232323"/>
</g>
</g>
<defs>
<clipPath id="clip0_661_17667">
<rect width="90" height="90" fill="white" transform="translate(43.3984 121.86) rotate(-118.2)"/>
</clipPath>
<clipPath id="clip1_661_17667">
<rect width="87.3" height="87.3" fill="white" transform="translate(43.9531 120.032) rotate(-118.2)"/>
</clipPath>
</defs>
</svg>
