<svg width="44" height="65" viewBox="0 0 44 65" fill="none" xmlns="http://www.w3.org/2000/svg">
<path d="M15.6216 2.30757C16.1483 2.14156 16.4407 1.57997 16.2747 1.05323C16.1087 0.526479 15.5471 0.234046 15.0204 0.400055L15.6216 2.30757ZM32.4389 60.2095C32.9199 59.9381 33.0898 59.3282 32.8184 58.8472L28.3958 51.0088C28.1244 50.5278 27.5145 50.3579 27.0335 50.6293C26.5525 50.9006 26.3825 51.5106 26.6539 51.9916L30.5851 58.9591L23.6177 62.8902C23.1367 63.1616 22.9667 63.7715 23.2381 64.2525C23.5095 64.7335 24.1195 64.9035 24.6005 64.6321L32.4389 60.2095ZM15.0204 0.400055C12.4127 1.22188 9.50647 2.57534 6.97997 4.23941C4.47446 5.88966 2.23396 7.91638 1.09394 10.1292C0.516314 11.2504 0.202572 12.4567 0.322017 13.6974C0.442357 14.9473 0.993947 16.1414 1.99303 17.2399C3.95109 19.3929 7.67235 21.2321 13.5985 22.6617L14.0675 20.7175C8.2427 19.3123 5.01423 17.5893 3.47263 15.8943C2.72188 15.0688 2.38615 14.2675 2.31281 13.5057C2.23857 12.7347 2.4248 11.913 2.87187 11.0452C3.78127 9.27998 5.6892 7.48441 8.08008 5.90966C10.4499 4.34876 13.188 3.07453 15.6216 2.30757L15.0204 0.400055ZM13.5985 22.6617C20.9298 24.4303 26.7464 25.9733 31.1429 27.3764C35.5726 28.79 38.4508 30.0293 39.9928 31.1533C40.7659 31.7168 41.0727 32.1593 41.1654 32.4576C41.2354 32.6829 41.2249 32.954 40.9167 33.3694C40.5825 33.82 39.951 34.3543 38.9293 34.9626C37.9213 35.5626 36.6013 36.1956 34.9627 36.87L35.7238 38.7195C37.4098 38.0256 38.8281 37.3504 39.9524 36.6811C41.0629 36.0199 41.9574 35.3235 42.5231 34.5609C43.1149 33.7631 43.378 32.8385 43.0753 31.8642C42.7954 30.963 42.0832 30.2021 41.1709 29.5371C39.3422 28.2041 36.184 26.8858 31.751 25.4711C27.2848 24.0457 21.4124 22.4893 14.0675 20.7175L13.5985 22.6617ZM34.9627 36.87C30.2832 38.7959 26.336 40.7545 23.3904 42.7173C20.4874 44.6517 18.3811 46.7038 17.6661 48.8822C17.2956 50.011 17.3041 51.1602 17.7504 52.2813C18.1886 53.3818 19.0203 54.3862 20.1799 55.3077C22.4816 57.137 26.2738 58.796 31.6791 60.3019L32.2158 58.3753C26.8833 56.8897 23.4058 55.3168 21.4243 53.742C20.4422 52.9615 19.879 52.2207 19.6086 51.5415C19.3464 50.8828 19.3328 50.2176 19.5664 49.5059C20.0595 48.0032 21.6662 46.2696 24.4994 44.3817C27.29 42.5222 31.1023 40.6216 35.7238 38.7195L34.9627 36.87Z" fill="#232323"/>
</svg>
