<svg width="31" height="31" viewBox="0 0 31 31" fill="none" xmlns="http://www.w3.org/2000/svg">
<g clip-path="url(#clip0_661_17564)">
<path d="M15.5 30.5C23.7843 30.5 30.5 23.7843 30.5 15.5C30.5 7.21573 23.7843 0.5 15.5 0.5C7.21573 0.5 0.5 7.21573 0.5 15.5C0.5 23.7843 7.21573 30.5 15.5 30.5Z" fill="#F0F7FF"/>
<path d="M22.2993 9.91523L21.7738 10.7246L19.3502 8.30098L4.32471 18.1891L16.5962 30.4606C24.3688 29.8993 30.5002 23.4158 30.5002 15.5C30.5002 14.6795 30.4343 13.8743 30.3075 13.0895L24.1072 6.88916L21.2715 7.53492L25.4855 11.749L24.8093 12.4253L22.2993 9.91523Z" fill="#B2D9FF"/>
<path d="M19.3501 22.6992L4.32471 18.1892V12.811L10.4778 10.9641L12.8132 11.1462L14.9179 9.6314L19.3501 8.30103V22.6992Z" fill="#7755FF" fill-opacity="0.8"/>
<path d="M4.32471 15.5149V18.1892L19.3502 22.6991V15.5149H4.32471Z" fill="#7755FF"/>
<path d="M12.8023 12.993C14.098 12.993 15.1483 11.9427 15.1483 10.647C15.1483 10.2832 15.0655 9.93867 14.9177 9.63135L10.4775 10.9641C10.6323 12.1098 11.6141 12.993 12.8023 12.993Z" fill="#FF73A5"/>
<path d="M15.1483 20.5436C16.444 20.5436 17.4943 19.4933 17.4943 18.1976C17.4943 16.9019 16.444 15.8516 15.1483 15.8516C13.8526 15.8516 12.8022 16.9019 12.8022 18.1976C12.8022 19.4933 13.8526 20.5436 15.1483 20.5436Z" fill="#FFC310"/>
<path d="M7.57895 17.8461C8.87462 17.8461 9.92498 16.7958 9.92498 15.5001C9.92498 14.2044 8.87462 13.1541 7.57895 13.1541C6.28327 13.1541 5.23291 14.2044 5.23291 15.5001C5.23291 16.7958 6.28327 17.8461 7.57895 17.8461Z" fill="#FF73A5"/>
<path d="M5.2334 15.5149C5.24143 16.8037 6.28832 17.8461 7.57902 17.8461C8.86973 17.8461 9.91668 16.8037 9.92471 15.5149H5.2334Z" fill="#FFC310"/>
<path d="M21.5452 11.9191C22.177 11.9191 22.6891 11.407 22.6891 10.7752C22.6891 10.1435 22.177 9.63135 21.5452 9.63135C20.9135 9.63135 20.4014 10.1435 20.4014 10.7752C20.4014 11.407 20.9135 11.9191 21.5452 11.9191Z" fill="#FF73A5"/>
<path d="M26.3479 15.8515C26.9761 15.8515 27.4853 15.3423 27.4853 14.7141C27.4853 14.0859 26.9761 13.5767 26.3479 13.5767C25.7197 13.5767 25.2104 14.0859 25.2104 14.7141C25.2104 15.3423 25.7197 15.8515 26.3479 15.8515Z" fill="#FF73A5"/>
<path d="M25.54 15.5149C25.7462 15.7227 26.0318 15.8516 26.3476 15.8516C26.6634 15.8516 26.949 15.7227 27.1551 15.5149H25.54Z" fill="#FFC310"/>
<path d="M25.147 22.4534C25.7155 22.4534 26.1763 21.9926 26.1763 21.4241C26.1763 20.8556 25.7155 20.3948 25.147 20.3948C24.5785 20.3948 24.1177 20.8556 24.1177 21.4241C24.1177 21.9926 24.5785 22.4534 25.147 22.4534Z" fill="#FFC310"/>
<path d="M26.4549 19.6127C25.7445 19.6127 24.8348 19.4754 23.9933 18.9385C23.0951 18.3654 21.6288 18.3969 21.1399 18.4575L20.918 16.7138C21.0151 16.7014 23.3143 16.4203 24.9388 17.4567C25.954 18.1045 27.2367 17.7731 27.2494 17.7697L27.7212 19.463C27.6797 19.4745 27.1676 19.6127 26.4549 19.6127Z" fill="#7755FF"/>
<path d="M21.6282 14.7195L21.2329 13.0067C23.7078 12.4356 24.3966 10.9794 24.4028 10.9648L26.0176 11.6594C25.9776 11.7523 25.0011 13.9412 21.6282 14.7195Z" fill="#7755FF"/>
<path d="M21.2783 7.5415L22.7682 5.76666L24.1147 6.89693L22.6248 8.67178L21.2783 7.5415Z" fill="#7755FF"/>
<path d="M20.0317 22.1624L21.0073 20.6999L23.0689 22.075L22.0933 23.5375L20.0317 22.1624Z" fill="#7755FF"/>
</g>
<defs>
<clipPath id="clip0_661_17564">
<rect width="30" height="30" fill="white" transform="translate(0.5 0.5)"/>
</clipPath>
</defs>
</svg>
