<svg width="57" height="57" viewBox="0 0 57 57" fill="none" xmlns="http://www.w3.org/2000/svg">
<path d="M51.1459 32.3231C49.8202 31.7285 48.4729 31.1604 47.1688 30.5392C45.1512 29.6016 43.0256 28.7966 41.1545 27.6251C36.1948 24.5547 33.5154 19.9865 32.9747 14.2025C32.7118 11.3828 32.5186 8.53162 32.2841 5.51435C31.7493 6.7124 31.3177 7.72962 30.838 8.75175C29.7585 11.0515 28.8864 13.4762 27.5731 15.6295C24.5502 20.5849 20.0083 23.2866 14.2294 23.8762C11.5325 24.1514 8.84752 24.3037 6.14577 24.5306C5.95314 24.5503 5.80867 24.565 5.44994 24.626C7.36135 25.4771 9.1401 26.2202 10.854 27.0428C12.616 27.8606 14.4911 28.5938 16.085 29.6719C20.9464 32.9714 23.443 37.6555 23.8176 43.4807C23.9862 46.0911 24.2247 48.6701 24.5427 51.3139C25.2358 49.759 25.9024 48.1826 26.622 46.6494C27.5933 44.4823 28.3887 42.2601 29.8229 40.3377C33.054 35.9937 37.3581 33.5839 42.7615 33.1299C45.5331 32.8714 48.3095 32.6612 51.0859 32.4509C51.1292 32.3978 51.1508 32.3713 51.1459 32.3231Z" fill="#6CD1FF"/>
</svg>
