<svg width="100" height="100" viewBox="0 0 100 100" fill="none" xmlns="http://www.w3.org/2000/svg">
<path d="M99.8634 49.988V49.996C99.8634 50.2922 99.8634 50.5883 99.8554 50.8845C99.3831 78.0837 77.2107 99.992 49.9395 99.992C22.6603 99.992 0.495893 78.0837 0.0236297 50.8845C0.0156252 50.5883 0.015625 50.2922 0.015625 49.996V49.988C0.0236295 22.3805 22.3721 0.00800448 49.9315 0H49.9475C77.5069 0.00800448 99.8554 22.3805 99.8634 49.988Z" fill="#7755FF"/>
<path d="M49.9319 0.704395C49.9319 27.9276 27.8956 49.996 0.704394 49.996C0.46426 49.996 0.240134 49.996 0 49.988C0.00800447 22.3805 22.3565 0.00800448 49.9159 0C49.9319 0.23213 49.9319 0.464261 49.9319 0.704395Z" fill="#FAF6FF"/>
<path d="M99.8616 49.988C99.6214 49.996 99.3973 49.996 99.1572 49.996C71.966 49.996 49.9297 27.9276 49.9297 0.704395C49.9297 0.464261 49.9297 0.240134 49.9377 0C77.5051 0.00800448 99.8536 22.3805 99.8616 49.988Z" fill="#FAF6FF"/>
<path d="M49.9315 100C22.6523 100 0.487889 78.092 0.015625 50.8928C0.247755 50.8848 0.479883 50.8848 0.712013 50.8848C27.8312 50.8768 49.8354 72.8491 49.9315 100Z" fill="#FAF6FF"/>
<path d="M99.8534 50.885C99.3811 78.0842 77.2087 99.9925 49.9375 99.9925C50.0336 72.8413 72.0378 50.877 99.165 50.877C99.3811 50.877 99.6212 50.8769 99.8534 50.885Z" fill="#FAF6FF"/>
</svg>
