<svg width="56" height="57" viewBox="0 0 56 57" fill="none" xmlns="http://www.w3.org/2000/svg">
<path opacity="0.2" d="M28.0002 34.1172C20.6279 34.1288 13.3836 32.1907 7.00195 28.4993V46.3672C7.00195 46.597 7.04722 46.8246 7.13516 47.0369C7.22311 47.2492 7.35201 47.4421 7.51451 47.6046C7.67702 47.7671 7.86993 47.896 8.08225 47.984C8.29458 48.0719 8.52214 48.1172 8.75195 48.1172H47.252C47.4818 48.1172 47.7093 48.0719 47.9216 47.984C48.134 47.8961 48.3269 47.7671 48.4894 47.6046C48.6519 47.4421 48.7808 47.2492 48.8687 47.0369C48.9567 46.8246 49.002 46.597 49.002 46.3672V28.4973C42.6195 32.1899 35.3739 34.1288 28.0002 34.1172Z" fill="#F249C8"/>
<path d="M47.252 16.6172H8.75195C7.78545 16.6172 7.00195 17.4007 7.00195 18.3672V46.3672C7.00195 47.3337 7.78545 48.1172 8.75195 48.1172H47.252C48.2185 48.1172 49.002 47.3337 49.002 46.3672V18.3672C49.002 17.4007 48.2185 16.6172 47.252 16.6172Z" stroke="#F249C8" stroke-width="3" stroke-linecap="round" stroke-linejoin="round"/>
<path d="M36.752 16.6172V13.1172C36.752 12.1889 36.3832 11.2987 35.7268 10.6423C35.0705 9.98594 34.1802 9.61719 33.252 9.61719H22.752C21.8237 9.61719 20.9335 9.98594 20.2771 10.6423C19.6207 11.2987 19.252 12.1889 19.252 13.1172V16.6172" stroke="#F249C8" stroke-width="3" stroke-linecap="round" stroke-linejoin="round"/>
<path d="M49.0023 28.4973C42.6198 32.1899 35.3742 34.1288 28.0005 34.1172C20.6281 34.1288 13.3837 32.1906 7.00195 28.4992" stroke="#F249C8" stroke-width="3" stroke-linecap="round" stroke-linejoin="round"/>
<path d="M25.375 27.1172H30.625" stroke="#F249C8" stroke-width="3" stroke-linecap="round" stroke-linejoin="round"/>
</svg>
