<svg width="56" height="57" viewBox="0 0 56 57" fill="none" xmlns="http://www.w3.org/2000/svg">
<path opacity="0.2" d="M28 49.8672C39.598 49.8672 49 40.4652 49 28.8672C49 17.2692 39.598 7.86719 28 7.86719C16.402 7.86719 7 17.2692 7 28.8672C7 40.4652 16.402 49.8672 28 49.8672Z" fill="#FF8800"/>
<path d="M28 49.8672C39.598 49.8672 49 40.4652 49 28.8672C49 17.2692 39.598 7.86719 28 7.86719C16.402 7.86719 7 17.2692 7 28.8672C7 40.4652 16.402 49.8672 28 49.8672Z" stroke="#FF8800" stroke-width="3" stroke-miterlimit="10"/>
<path d="M37.0947 34.1164C36.1722 35.712 34.8462 37.0368 33.2497 37.9579C31.6533 38.879 29.8426 39.3639 27.9996 39.3639C26.1565 39.3639 24.3458 38.879 22.7493 37.958C21.1529 37.037 19.8268 35.7121 18.9043 34.1166" stroke="#FF8800" stroke-width="3" stroke-linecap="round" stroke-linejoin="round"/>
<path d="M21.25 24.4922C21.25 25.1135 20.7463 25.6172 20.125 25.6172C19.5037 25.6172 19 25.1135 19 24.4922C19 23.8709 19.5037 23.3672 20.125 23.3672C20.7463 23.3672 21.25 23.8709 21.25 24.4922Z" fill="#FF8800" stroke="#FF8800" stroke-width="3"/>
<path d="M37 24.4922C37 25.1135 36.4963 25.6172 35.875 25.6172C35.2537 25.6172 34.75 25.1135 34.75 24.4922C34.75 23.8709 35.2537 23.3672 35.875 23.3672C36.4963 23.3672 37 23.8709 37 24.4922Z" fill="#FF8800" stroke="#FF8800" stroke-width="3"/>
</svg>
