<svg width="69" height="157" viewBox="0 0 69 157" fill="none" xmlns="http://www.w3.org/2000/svg">
<path d="M65.9321 72.409L66.9092 72.6219L65.9321 72.409ZM29.3234 82.2897L29.9914 81.5456L29.3234 82.2897ZM16.8546 156.288L28.3811 155.6L22.0222 145.962L16.8546 156.288ZM16.698 2.40672C17.3685 2.41826 18.0335 2.44483 18.693 2.48605L18.8177 0.489941C18.1281 0.446838 17.433 0.41907 16.7324 0.407016L16.698 2.40672ZM22.6378 2.91463C23.9599 3.1204 25.2577 3.38604 26.5303 3.7082L27.0211 1.76936C25.6884 1.43198 24.3295 1.15384 22.9453 0.938423L22.6378 2.91463ZM30.3316 4.86198C31.5848 5.3071 32.811 5.80832 34.0093 6.36213L34.8483 4.54664C33.5955 3.96763 32.3127 3.44324 31.001 2.97733L30.3316 4.86198ZM37.5406 8.1899C38.6908 8.85115 39.8119 9.5623 40.9028 10.3198L42.0435 8.67693C40.907 7.88784 39.738 7.14621 38.5374 6.456L37.5406 8.1899ZM44.0803 12.7244C45.105 13.5667 46.0988 14.4513 47.0607 15.3746L48.4457 13.9317C47.4477 12.9738 46.4156 12.055 45.3503 11.1794L44.0803 12.7244ZM49.8374 18.2435C50.7265 19.2312 51.5832 20.2533 52.4065 21.3063L53.9821 20.0744C53.131 18.9858 52.2446 17.9282 51.3239 16.9054L49.8374 18.2435ZM54.7636 24.5373C55.5125 25.6382 56.2276 26.7659 56.9079 27.9169L58.6297 26.8992C57.9282 25.7124 57.1904 24.5489 56.4172 23.4124L54.7636 24.5373ZM58.8383 31.4261C59.4454 32.6148 60.0171 33.8229 60.5523 35.0472L62.3848 34.2461C61.8337 32.9854 61.2449 31.741 60.6194 30.5163L58.8383 31.4261ZM62.0476 38.765C62.5097 40.0201 62.9343 41.2878 63.3204 42.5645L65.2348 41.9855C64.8373 40.6711 64.4002 39.3661 63.9244 38.0739L62.0476 38.765ZM64.3658 46.4324C64.6767 47.736 64.9474 49.0451 65.177 50.3561L67.147 50.0111C66.9103 48.6598 66.6314 47.3111 66.3112 45.9685L64.3658 46.4324ZM65.7448 54.3187C65.8932 55.6513 65.9982 56.9821 66.0589 58.3071L68.0568 58.2156C67.9941 56.8464 67.8856 55.4724 67.7325 54.0973L65.7448 54.3187ZM66.1061 62.306C66.0756 63.6456 65.9977 64.975 65.8717 66.2903L67.8625 66.4811C67.9933 65.1162 68.074 63.7384 68.1056 62.3516L66.1061 62.306ZM65.3385 70.2439C65.2235 70.8996 65.0958 71.5504 64.9551 72.196L66.9092 72.6219C67.0558 71.9492 67.1889 71.2714 67.3084 70.5892L65.3385 70.2439ZM64.9551 72.196C64.8123 72.8511 64.6651 73.4957 64.5136 74.1298L66.4589 74.5945C66.6135 73.9473 66.7636 73.2898 66.9092 72.6219L64.9551 72.196ZM63.5472 77.8358C63.1837 79.1166 62.8014 80.3497 62.4015 81.5365L64.2968 82.1751C64.7073 80.9567 65.0992 79.6927 65.4712 78.3819L63.5472 77.8358ZM61.0678 85.1662C60.5753 86.3975 60.0621 87.5714 59.53 88.6899L61.336 89.5492C61.887 88.3909 62.4172 87.1781 62.9248 85.9089L61.0678 85.1662ZM57.7617 92.0874C57.1081 93.2355 56.4323 94.3137 55.7367 95.325L57.3846 96.4583C58.1135 95.3986 58.8193 94.2723 59.4998 93.0768L57.7617 92.0874ZM53.4326 98.3541C52.5879 99.356 51.7208 100.274 50.8352 101.113L52.2107 102.565C53.152 101.673 54.0702 100.701 54.9616 99.6433L53.4326 98.3541ZM47.9443 103.533C46.902 104.298 45.8402 104.97 44.7643 105.553L45.7179 107.311C46.8743 106.684 48.0129 105.964 49.128 105.145L47.9443 103.533ZM41.3343 107.11C40.1412 107.551 38.9363 107.898 37.7262 108.158L38.1462 110.113C39.4473 109.834 40.7437 109.46 42.0281 108.985L41.3343 107.11ZM33.9949 108.691C32.7329 108.785 31.4717 108.792 30.2188 108.723L30.1078 110.72C31.4431 110.794 32.7907 110.786 34.1422 110.686L33.9949 108.691ZM26.4573 108.283C25.2059 108.062 23.9715 107.768 22.7623 107.412L22.197 109.33C23.4744 109.707 24.781 110.018 26.1084 110.253L26.4573 108.283ZM19.1762 106.146C17.9899 105.656 16.8404 105.109 15.7366 104.515L14.7892 106.277C15.9518 106.902 17.1628 107.478 18.413 107.994L19.1762 106.146ZM12.4815 102.542C11.4088 101.813 10.4011 101.042 9.46945 100.243L8.1677 101.762C9.15752 102.61 10.2245 103.426 11.3569 104.196L12.4815 102.542ZM6.75798 97.6035C5.87653 96.6204 5.11778 95.622 4.49604 94.6293L2.80104 95.6909C3.4902 96.7913 4.32006 97.8804 5.26886 98.9386L6.75798 97.6035ZM2.94134 91.3405C2.75809 90.7512 2.63472 90.1776 2.57181 89.6236L0.584585 89.8493C0.663058 90.5403 0.814791 91.2373 1.03152 91.9344L2.94134 91.3405ZM2.57181 89.6236C2.49598 88.9559 2.45012 88.3131 2.43243 87.6951L0.433246 87.7523C0.45263 88.4294 0.502723 89.1285 0.584585 89.8493L2.57181 89.6236ZM2.71688 83.9187C2.97675 82.5938 3.40112 81.4405 3.95715 80.4535L2.21463 79.4719C1.54427 80.6618 1.05126 82.0197 0.754281 83.5337L2.71688 83.9187ZM6.29891 77.7331C7.23665 77.0145 8.32585 76.4848 9.54131 76.1543L9.01656 74.2244C7.56825 74.6182 6.24045 75.2582 5.08241 76.1456L6.29891 77.7331ZM13.2231 75.759C14.4102 75.8005 15.6654 75.9887 16.9693 76.331L17.4771 74.3965C16.0434 74.0202 14.6411 73.8074 13.293 73.7602L13.2231 75.759ZM20.5861 77.6318C21.7085 78.1421 22.8484 78.7584 23.9941 79.4832L25.0633 77.7929C23.8442 77.0218 22.6238 76.3613 21.414 75.8112L20.5861 77.6318ZM27.163 81.7616C27.6619 82.1648 28.1596 82.5888 28.6553 83.0338L29.9914 81.5456C29.4704 81.0778 28.9463 80.6313 28.4201 80.2061L27.163 81.7616ZM28.6553 83.0338C29.1076 83.4399 29.5446 83.8659 29.9663 84.3109L31.4181 82.9353C30.9602 82.4521 30.4847 81.9884 29.9914 81.5456L28.6553 83.0338ZM32.282 87.1582C32.9761 88.1502 33.6135 89.2055 34.1941 90.317L35.9669 89.3911C35.3487 88.2076 34.667 87.0782 33.9208 86.0116L32.282 87.1582ZM35.7217 93.7011C36.162 94.8381 36.5519 96.0178 36.8911 97.2339L38.8176 96.6965C38.4617 95.421 38.0517 94.1795 37.5868 92.9789L35.7217 93.7011ZM37.7372 100.879C37.9644 102.088 38.1462 103.324 38.2829 104.58L40.2711 104.364C40.1291 103.058 39.9398 101.771 39.7028 100.51L37.7372 100.879ZM38.554 108.326C38.6 109.565 38.6044 110.818 38.5673 112.08L40.5665 112.139C40.6048 110.833 40.6003 109.536 40.5526 108.252L38.554 108.326ZM38.337 115.834C38.2215 117.076 38.0668 118.323 37.8731 119.568L39.8493 119.876C40.0493 118.59 40.2091 117.303 40.3284 116.02L38.337 115.834ZM37.1823 123.267C36.9153 124.49 36.6105 125.708 36.2682 126.918L38.1926 127.462C38.546 126.214 38.8607 124.956 39.1363 123.693L37.1823 123.267ZM35.1326 130.504C34.7169 131.687 34.2642 132.857 33.7747 134.01L35.6155 134.792C36.122 133.599 36.59 132.389 37.0196 131.166L35.1326 130.504ZM32.1929 137.417C31.6265 138.536 31.0232 139.634 30.3831 140.706L32.1001 141.731C32.7648 140.618 33.3906 139.48 33.9776 138.319L32.1929 137.417ZM28.3436 143.851C27.6233 144.875 26.8659 145.868 26.0717 146.825L27.6112 148.102C28.4402 147.103 29.2297 146.067 29.9795 145.001L28.3436 143.851ZM23.5667 149.6C22.6925 150.489 21.7813 151.337 20.8332 152.141L22.1267 153.667C23.1219 152.823 24.0772 151.933 24.9924 151.003L23.5667 149.6Z" fill="#E6E6E6"/>
</svg>
