<svg width="144" height="167" viewBox="0 0 144 167" fill="none" xmlns="http://www.w3.org/2000/svg">
<path d="M81.5208 17.3684V6.37547L72.0006 0.878906L62.4805 6.37547V17.3684L72.0006 22.8649L81.5208 17.3684Z" fill="#7755FF"/>
<path d="M19.1731 125.361V114.368L9.65297 108.871L0.132812 114.368V125.361L9.65297 130.857L19.1731 125.361Z" fill="#7755FF"/>
<path d="M143.868 125.361V114.368L134.348 108.871L124.828 114.368V125.361L134.348 130.857L143.868 125.361Z" fill="#7755FF"/>
<path d="M98.8478 99.3649V68.3638L72.0001 52.8633L45.1523 68.3638V99.3649L72.0001 114.865L98.8478 99.3649Z" fill="#27273B"/>
<path d="M100.48 100.308V67.4231L72.0009 50.9805L43.5215 67.4231V100.308L72.0009 116.751L100.48 100.308Z" fill="#FFC310"/>
<path d="M134.349 119.861V47.8679L72.0006 11.8711L9.65234 47.8679V119.861L72.0006 155.858L134.349 119.861Z" stroke="#F7F7F7" stroke-width="0.286458" stroke-miterlimit="10"/>
<path d="M134.348 47.8711L72 83.8679" stroke="#F7F7F7" stroke-width="0.286458" stroke-miterlimit="10"/>
<path d="M9.65234 47.8711L72.0006 83.8679" stroke="#F7F7F7" stroke-width="0.286458" stroke-miterlimit="10"/>
<path d="M72 155.859V83.8672" stroke="#F7F7F7" stroke-width="0.286458" stroke-miterlimit="10"/>
<path d="M81.5208 161.357V150.364L72.0006 144.867L62.4805 150.364V161.357L72.0006 166.853L81.5208 161.357Z" fill="#FFC310"/>
<path d="M19.1731 52.5949V41.602L9.65297 36.1055L0.132812 41.602V52.5949L9.65297 58.0915L19.1731 52.5949Z" fill="#FFC310"/>
<path d="M143.868 52.5949V41.602L134.348 36.1055L124.828 41.602V52.5949L134.348 58.0915L143.868 52.5949Z" fill="#FFC310"/>
</svg>
