<svg width="148" height="168" viewBox="0 0 148 168" fill="none" xmlns="http://www.w3.org/2000/svg">
<path d="M85.3991 11.8752C85.3991 18.1705 80.2956 23.2739 74.0003 23.2739C67.705 23.2739 62.6016 18.1705 62.6016 11.8752C62.6016 5.57984 67.705 0.47641 74.0003 0.47641C80.2956 0.47641 85.3991 5.57984 85.3991 11.8752Z" fill="#7755FF"/>
<path d="M147.743 119.61C147.743 125.905 142.639 131.008 136.344 131.008C130.049 131.008 124.945 125.905 124.945 119.61C124.945 113.314 130.049 108.211 136.344 108.211C142.639 108.211 147.743 113.314 147.743 119.61Z" fill="#7755FF"/>
<path d="M23.0534 119.61C23.0534 125.905 17.9499 131.008 11.6546 131.008C5.35929 131.008 0.255859 125.905 0.255859 119.61C0.255859 113.314 5.35929 108.211 11.6546 108.211C17.9499 108.211 23.0534 113.314 23.0534 119.61Z" fill="#7755FF"/>
<path d="M101.26 83.8679C101.26 98.9224 89.0554 111.127 74.0009 111.127C58.9463 111.127 46.7422 98.9224 46.7422 83.8679C46.7422 68.8134 58.9463 56.6092 74.0009 56.6092C89.0554 56.6092 101.26 68.8134 101.26 83.8679Z" fill="#27273B"/>
<path d="M145.995 83.8682C145.995 123.629 113.762 155.862 74.0012 155.862C34.2403 155.862 2.00781 123.629 2.00781 83.8682C2.00781 44.1074 34.2403 11.8748 74.0012 11.8748C113.762 11.8748 145.995 44.1074 145.995 83.8682Z" stroke="#F7F7F7" stroke-width="0.286458" stroke-miterlimit="10"/>
<path d="M74.0002 125.117C51.2187 125.117 32.7505 106.648 32.7505 83.8668C32.7505 61.0852 51.2187 42.617 74.0002 42.617C96.7818 42.617 115.25 61.0852 115.25 83.8668C115.25 106.648 96.7818 125.117 74.0002 125.117Z" stroke="#F7F7F7" stroke-width="0.286458" stroke-miterlimit="10"/>
<path d="M85.3991 155.86C85.3991 162.155 80.2956 167.258 74.0003 167.258C67.705 167.258 62.6016 162.155 62.6016 155.86C62.6016 149.564 67.705 144.461 74.0003 144.461C80.2956 144.461 85.3991 149.564 85.3991 155.86Z" fill="#FFC310"/>
<path d="M147.743 47.6681C147.743 53.9635 142.639 59.0669 136.344 59.0669C130.049 59.0669 124.945 53.9635 124.945 47.6681C124.945 41.3728 130.049 36.2694 136.344 36.2694C142.639 36.2694 147.743 41.3728 147.743 47.6681Z" fill="#FFC310"/>
<path d="M23.0534 47.6681C23.0534 53.9635 17.9499 59.0669 11.6546 59.0669C5.35929 59.0669 0.255859 53.9635 0.255859 47.6681C0.255859 41.3728 5.35929 36.2694 11.6546 36.2694C17.9499 36.2694 23.0534 41.3728 23.0534 47.6681Z" fill="#FFC310"/>
<g style="mix-blend-mode:overlay" opacity="0.1">
<path d="M11.6546 36.2694C17.9499 36.2694 23.0534 41.3728 23.0534 47.6681C23.0534 53.9635 17.9499 59.0669 11.6546 59.0669C5.35929 59.0669 0.255859 53.9635 0.255859 47.6681" fill="#FFC310"/>
</g>
<path d="M101.26 83.8679C101.26 98.9224 89.0554 111.127 74.0009 111.127C58.9463 111.127 46.7422 98.9224 46.7422 83.8679C46.7422 68.8134 58.9463 56.6092 74.0009 56.6092C89.0554 56.6092 101.26 68.8134 101.26 83.8679Z" fill="#FFC310"/>
</svg>
