<svg width="56" height="57" viewBox="0 0 56 57" fill="none" xmlns="http://www.w3.org/2000/svg">
<path opacity="0.2" d="M19.25 35.8672C25.5322 35.8672 30.625 30.7744 30.625 24.4922C30.625 18.2099 25.5322 13.1172 19.25 13.1172C12.9678 13.1172 7.875 18.2099 7.875 24.4922C7.875 30.7744 12.9678 35.8672 19.25 35.8672Z" fill="#0F9918"/>
<path d="M19.25 35.8672C25.5322 35.8672 30.625 30.7744 30.625 24.4922C30.625 18.2099 25.5322 13.1172 19.25 13.1172C12.9678 13.1172 7.875 18.2099 7.875 24.4922C7.875 30.7744 12.9678 35.8672 19.25 35.8672Z" stroke="#0F9918" stroke-width="3" stroke-miterlimit="10"/>
<path d="M33.9961 13.5409C35.5606 13.1001 37.2015 12.9997 38.8081 13.2465C40.4147 13.4932 41.9498 14.0813 43.31 14.9713C44.6702 15.8613 45.8238 17.0324 46.6933 18.4058C47.5627 19.7791 48.1278 21.3229 48.3504 22.933C48.573 24.5432 48.4479 26.1823 47.9837 27.7401C47.5194 29.2978 46.7268 30.738 45.6591 31.9636C44.5914 33.1892 43.2734 34.1718 41.794 34.8452C40.3146 35.5185 38.708 35.867 37.0826 35.8672" stroke="#0F9918" stroke-width="3" stroke-linecap="round" stroke-linejoin="round"/>
<path d="M3.49805 44.0477C5.27459 41.5207 7.63306 39.4582 10.3743 38.0344C13.1156 36.6106 16.1592 35.8673 19.2482 35.8672C22.3372 35.8671 25.3809 36.6102 28.1223 38.0338C30.8637 39.4574 33.2223 41.5196 34.999 44.0465" stroke="#0F9918" stroke-width="3" stroke-linecap="round" stroke-linejoin="round"/>
<path d="M37.082 35.8672C40.1713 35.865 43.2156 36.6071 45.9572 38.0309C48.6989 39.4547 51.057 41.5181 52.8321 44.0465" stroke="#0F9918" stroke-width="3" stroke-linecap="round" stroke-linejoin="round"/>
</svg>
