<svg width="133" height="133" viewBox="0 0 133 133" fill="none" xmlns="http://www.w3.org/2000/svg">
<g filter="url(#filter0_d_229_3390)">
<rect x="25.5" y="15.0332" width="82" height="82" rx="41" fill="url(#paint0_linear_229_3390)"/>
</g>
<path d="M75.375 42.875V71.625C75.3753 72.0244 75.2795 72.4181 75.0957 72.7727C74.9118 73.1274 74.6454 73.4325 74.3188 73.6625C74.0674 73.8449 73.783 73.9765 73.4813 74.05C73.2831 74.1003 73.0794 74.1255 72.875 74.125H50.375C49.712 74.125 49.0761 73.8616 48.6072 73.3928C48.1384 72.9239 47.875 72.288 47.875 71.625V40.375C47.875 39.712 48.1384 39.0761 48.6072 38.6072C49.0761 38.1384 49.712 37.875 50.375 37.875H70.375V41.625C70.376 41.9562 70.508 42.2736 70.7422 42.5078C70.9764 42.742 71.2938 42.874 71.625 42.875H75.375Z" fill="#E6E7E8"/>
<path d="M75.375 56.625V71.625C75.3753 72.0244 75.2795 72.4181 75.0957 72.7727C74.9118 73.1274 74.6454 73.4325 74.3188 73.6625L74.225 73.2812C73.4775 73.0987 72.7628 72.8014 72.1063 72.4L70.2563 73.5125L68.4875 71.7437L69.6 69.8937C69.1986 69.2372 68.9013 68.5225 68.7187 67.775L66.625 67.25V64.75L68.7187 64.225C68.9013 63.4775 69.1986 62.7628 69.6 62.1063L68.4875 60.2563L70.2563 58.4875L72.1063 59.6C72.7628 59.1986 73.4775 58.9013 74.225 58.7187L74.75 56.625H75.375Z" fill="#D8D7DA"/>
<path d="M82.0312 66.525C81.8487 67.2725 81.5514 67.9872 81.15 68.6437L82.2625 70.4937L80.4937 72.2625L78.6437 71.15C77.9872 71.5514 77.2725 71.8487 76.525 72.0312L76 74.125H73.5L73.4813 74.05L72.975 72.0312C72.2275 71.8487 71.5128 71.5514 70.8563 71.15L69.0063 72.2625L67.2375 70.4937L68.35 68.6437C67.9486 67.9872 67.6513 67.2725 67.4687 66.525L65.375 66V63.5L67.4687 62.975C67.6513 62.2275 67.9486 61.5128 68.35 60.8563L67.2375 59.0063L69.0063 57.2375L70.8563 58.35C71.5128 57.9486 72.2275 57.6513 72.975 57.4687L73.5 55.375H76L76.525 57.4687C77.2725 57.6513 77.9872 57.9486 78.6437 58.35L80.4937 57.2375L82.2625 59.0063L81.15 60.8563C81.5514 61.5128 81.8487 62.2275 82.0312 62.975L84.125 63.5V66L82.0312 66.525Z" fill="white"/>
<path d="M79.75 64.75C79.7461 65.9669 79.3004 67.141 78.4956 68.0539C77.6908 68.9667 76.5819 69.5561 75.375 69.7125C75.1676 69.7376 74.9589 69.7502 74.75 69.75C73.4239 69.75 72.1521 69.2232 71.2145 68.2855C70.2768 67.3479 69.75 66.0761 69.75 64.75C69.75 63.4239 70.2768 62.1522 71.2145 61.2145C72.1521 60.2768 73.4239 59.75 74.75 59.75C74.9589 59.7498 75.1676 59.7624 75.375 59.7875C76.5836 59.9398 77.695 60.528 78.5006 61.4417C79.3061 62.3555 79.7504 63.5319 79.75 64.75Z" fill="#FF5097"/>
<path d="M76.9609 68.1626C76.5266 67.7296 75.9745 67.434 75.3734 67.3126C75.1679 67.2695 74.9584 67.2486 74.7484 67.2501C74.1802 67.2491 73.6227 67.4042 73.1366 67.6985C72.6506 67.9928 72.2547 68.4149 71.9922 68.9188C72.8085 69.4625 73.7677 69.7518 74.7484 69.7501C74.9573 69.7502 75.1661 69.7377 75.3734 69.7126C76.1383 69.615 76.87 69.3411 77.5109 68.9126C77.3665 68.6363 77.181 68.3834 76.9609 68.1626Z" fill="#3D9AE2"/>
<path d="M75.8938 64.75C75.7147 64.7507 75.5377 64.7123 75.375 64.6375C75.2377 64.5748 75.1128 64.488 75.0062 64.3812L74.75 64.125L74.4938 64.3812C74.3773 64.4981 74.239 64.5908 74.0867 64.654C73.9344 64.7173 73.7712 64.7499 73.6062 64.75H72.875V65.375C72.875 65.8723 73.0725 66.3492 73.4242 66.7008C73.7758 67.0525 74.2527 67.25 74.75 67.25C74.9635 67.2513 75.1754 67.2132 75.375 67.1375C75.6395 67.0487 75.8793 66.8989 76.075 66.7C76.2494 66.5262 76.3877 66.3197 76.4821 66.0923C76.5764 65.8649 76.625 65.6212 76.625 65.375V64.75H75.8938Z" fill="#FFC477"/>
<path d="M75.375 62.3625C75.1754 62.2868 74.9635 62.2487 74.75 62.25C74.2527 62.25 73.7758 62.4476 73.4242 62.7992C73.0725 63.1508 72.875 63.6278 72.875 64.125V64.75H73.6062C73.7712 64.75 73.9344 64.7173 74.0867 64.6541C74.239 64.5908 74.3773 64.4981 74.4938 64.3813L74.75 64.125L75.0062 64.3813C75.1128 64.4881 75.2377 64.5749 75.375 64.6375C75.5377 64.7123 75.7147 64.7507 75.8938 64.75H76.625V64.125C76.6269 63.7375 76.5073 63.3591 76.2831 63.043C76.0589 62.7269 75.7414 62.4889 75.375 62.3625Z" fill="#57565C"/>
<path d="M75.375 42.875H71.625C71.2938 42.874 70.9764 42.742 70.7422 42.5078C70.508 42.2736 70.376 41.9562 70.375 41.625V37.875L75.375 42.875Z" fill="#BCBEC0"/>
<path d="M56.1752 48.95C56.4941 49.4096 56.6496 49.9629 56.6168 50.5213C56.5841 51.0798 56.365 51.6111 55.9946 52.0303C55.6242 52.4495 55.124 52.7324 54.5738 52.8337C54.0237 52.935 53.4555 52.8488 52.9601 52.589C52.4647 52.3293 52.0707 51.9108 51.8412 51.4007C51.6117 50.8906 51.5599 50.3182 51.6941 49.7751C51.8283 49.2321 52.1408 48.7498 52.5816 48.4053C53.0223 48.0608 53.5658 47.8741 54.1252 47.875C54.5282 47.8761 54.9249 47.9744 55.2818 48.1616C55.6387 48.3487 55.9451 48.6192 56.1752 48.95Z" fill="#FFD422"/>
<path d="M56.1752 57.7C56.4941 58.1596 56.6496 58.7129 56.6168 59.2713C56.5841 59.8298 56.365 60.3611 55.9946 60.7803C55.6242 61.1995 55.124 61.4824 54.5738 61.5837C54.0237 61.685 53.4555 61.5988 52.9601 61.3391C52.4647 61.0793 52.0707 60.6608 51.8412 60.1507C51.6117 59.6406 51.5599 59.0682 51.6941 58.5251C51.8283 57.9821 52.1408 57.4998 52.5816 57.1553C53.0223 56.8108 53.5658 56.6241 54.1252 56.625C54.5282 56.6261 54.9249 56.7244 55.2818 56.9116C55.6387 57.0987 55.9451 57.3692 56.1752 57.7Z" fill="#FFD422"/>
<path d="M56.1752 66.45C56.4941 66.9096 56.6496 67.4629 56.6168 68.0213C56.5841 68.5798 56.365 69.1111 55.9946 69.5303C55.6242 69.9495 55.124 70.2324 54.5738 70.3337C54.0237 70.435 53.4555 70.3488 52.9601 70.0891C52.4647 69.8293 52.0707 69.4108 51.8412 68.9007C51.6117 68.3906 51.5599 67.8182 51.6941 67.2751C51.8283 66.7321 52.1408 66.2498 52.5816 65.9053C53.0223 65.5608 53.5658 65.3741 54.1252 65.375C54.5282 65.3761 54.9249 65.4744 55.2818 65.6616C55.6387 65.8487 55.9451 66.1192 56.1752 66.45Z" fill="#FFD422"/>
<path d="M51 41H52.25V42.25H51V41Z" fill="#BCBEC0"/>
<path d="M53.5 41H57.25V42.25H53.5V41Z" fill="#BCBEC0"/>
<path d="M51 43.5H57.25V44.75H51V43.5Z" fill="#BCBEC0"/>
<path d="M53.6797 50.5566L56.8042 47.4321L57.6879 48.3159L54.5634 51.4404L53.6797 50.5566Z" fill="#FF5023"/>
<path d="M59.75 48.5H67.25V49.75H59.75V48.5Z" fill="#BCBEC0"/>
<path d="M59.75 51H67.25V52.25H59.75V51Z" fill="#BCBEC0"/>
<path d="M53.6797 59.3066L56.8042 56.1821L57.6879 57.0659L54.5634 60.1904L53.6797 59.3066Z" fill="#FF5023"/>
<path d="M59.75 57.25H66V58.5H59.75V57.25Z" fill="#BCBEC0"/>
<path d="M59.75 59.75H64.75V61H59.75V59.75Z" fill="#BCBEC0"/>
<path d="M53.6797 68.0547L56.8042 64.9302L57.6879 65.8139L54.5634 68.9384L53.6797 68.0547Z" fill="#FF5023"/>
<path d="M59.75 66H63.5V67.25H59.75V66Z" fill="#BCBEC0"/>
<path d="M59.75 68.5H64.75V69.75H59.75V68.5Z" fill="#BCBEC0"/>
<defs>
<filter id="filter0_d_229_3390" x="0.5" y="0.0332031" width="132" height="132" filterUnits="userSpaceOnUse" color-interpolation-filters="sRGB">
<feFlood flood-opacity="0" result="BackgroundImageFix"/>
<feColorMatrix in="SourceAlpha" type="matrix" values="0 0 0 0 0 0 0 0 0 0 0 0 0 0 0 0 0 0 127 0" result="hardAlpha"/>
<feOffset dy="10"/>
<feGaussianBlur stdDeviation="12.5"/>
<feComposite in2="hardAlpha" operator="out"/>
<feColorMatrix type="matrix" values="0 0 0 0 0.996078 0 0 0 0 0.384314 0 0 0 0 0.360784 0 0 0 0.26 0"/>
<feBlend mode="normal" in2="BackgroundImageFix" result="effect1_dropShadow_229_3390"/>
<feBlend mode="normal" in="SourceGraphic" in2="effect1_dropShadow_229_3390" result="shape"/>
</filter>
<linearGradient id="paint0_linear_229_3390" x1="66.5" y1="15.0332" x2="66.5" y2="97.0332" gradientUnits="userSpaceOnUse">
<stop stop-color="#FF43BD"/>
<stop offset="1" stop-color="#FE625C"/>
</linearGradient>
</defs>
</svg>
