<svg width="133" height="133" viewBox="0 0 133 133" fill="none" xmlns="http://www.w3.org/2000/svg">
<g filter="url(#filter0_d_229_3422)">
<rect x="25.5" y="15.0332" width="82" height="82" rx="41" fill="url(#paint0_linear_229_3422)"/>
</g>
<g clip-path="url(#clip0_229_3422)">
<path d="M57.9799 76.0004H77.8103C79.003 76.0004 79.9699 75.0335 79.9699 73.8408V45.1342C79.9699 43.9415 79.003 42.9746 77.8103 42.9746H57.9799C56.7872 42.9746 55.8203 43.9415 55.8203 45.1342V73.8408C55.8203 75.0335 56.7872 76.0004 57.9799 76.0004Z" fill="url(#paint1_linear_229_3422)"/>
<path d="M55.8203 69.0215V73.8412C55.8203 75.0339 56.7872 76.0008 57.9799 76.0008H77.8103C79.003 76.0008 79.9699 75.0339 79.9699 73.8412V69.0215H55.8203Z" fill="url(#paint2_linear_229_3422)"/>
<path d="M77.8107 42.9746H76.0547V72.8128H79.9703V45.1342C79.9703 43.9414 79.0034 42.9746 77.8107 42.9746Z" fill="url(#paint3_linear_229_3422)"/>
<path d="M54.187 74.7524H74.0173C75.21 74.7524 76.1769 73.7855 76.1769 72.5928V43.8862C76.1769 42.6935 75.21 41.7266 74.0173 41.7266H54.187C52.9942 41.7266 52.0273 42.6935 52.0273 43.8862V72.5928C52.0273 73.7855 52.9942 74.7524 54.187 74.7524Z" fill="url(#paint4_linear_229_3422)"/>
<path d="M52.0273 68.7539V72.5919C52.0273 73.7847 52.9942 74.7516 54.187 74.7516H74.0173C75.21 74.7516 76.1769 73.7847 76.1769 72.5919V68.7539H52.0273Z" fill="url(#paint5_linear_229_3422)"/>
<path d="M54.7461 72.3635L57.135 74.7525H74.0175C75.2102 74.7525 76.1771 73.7856 76.1771 72.5929V72.3635H54.7461Z" fill="url(#paint6_linear_229_3422)"/>
<path d="M76.054 39.8516H61.5521C60.9195 39.8516 60.3129 40.1029 59.8656 40.5501L54.6634 45.7523C54.2161 46.1996 53.9648 46.8062 53.9648 47.4388V70.7523C53.9648 71.8856 54.8921 72.8127 56.0252 72.8127H76.0546C77.1875 72.8127 78.1144 71.8858 78.1144 70.753V41.912C78.1144 40.7788 77.1872 39.8516 76.054 39.8516Z" fill="url(#paint7_linear_229_3422)"/>
<path d="M66.7861 48.2285H58.564C57.7843 48.2285 57.1523 48.8605 57.1523 49.6402V55.7477C57.1523 56.5274 57.7843 57.1594 58.564 57.1594H66.7861C67.5658 57.1594 68.1978 56.5274 68.1978 55.7477V49.6402C68.1978 48.8605 67.5658 48.2285 66.7861 48.2285Z" fill="white"/>
<path d="M62.7821 60.8762H57.8118C57.4476 60.8762 57.1523 60.5809 57.1523 60.2167V58.8977C57.1523 58.5335 57.4476 58.2383 57.8118 58.2383H62.7821C63.1463 58.2383 63.4415 58.5336 63.4415 58.8977V60.2167C63.4416 60.5809 63.1463 60.8762 62.7821 60.8762Z" fill="#FF9356"/>
<path d="M74.2626 60.8762H65.5852C65.221 60.8762 64.9258 60.5809 64.9258 60.2167V58.8977C64.9258 58.5335 65.2211 58.2383 65.5852 58.2383H74.2626C74.6269 58.2383 74.9221 58.5336 74.9221 58.8977V60.2167C74.9222 60.5809 74.6269 60.8762 74.2626 60.8762Z" fill="#FF9356"/>
<path d="M69.2923 64.8488H74.2625C74.6268 64.8488 74.922 64.5535 74.922 64.1894V62.8704C74.922 62.5062 74.6267 62.2109 74.2625 62.2109H69.2923C68.928 62.2109 68.6328 62.5062 68.6328 62.8704V64.1894C68.6327 64.5535 68.928 64.8488 69.2923 64.8488Z" fill="#FF9356"/>
<path d="M57.8118 64.8488H66.4892C66.8534 64.8488 67.1487 64.5535 67.1487 64.1894V62.8704C67.1487 62.5062 66.8534 62.2109 66.4892 62.2109H57.8118C57.4476 62.2109 57.1523 62.5062 57.1523 62.8704V64.1894C57.1523 64.5535 57.4476 64.8488 57.8118 64.8488Z" fill="#FF9356"/>
<path d="M62.7821 68.8234H57.8118C57.4476 68.8234 57.1523 68.5281 57.1523 68.164V66.845C57.1523 66.4808 57.4476 66.1855 57.8118 66.1855H62.7821C63.1463 66.1855 63.4415 66.4808 63.4415 66.845V68.164C63.4416 68.5282 63.1463 68.8234 62.7821 68.8234Z" fill="#FF9356"/>
<path d="M74.2626 68.8234H65.5852C65.221 68.8234 64.9258 68.5281 64.9258 68.164V66.845C64.9258 66.4808 65.2211 66.1855 65.5852 66.1855H74.2626C74.6269 66.1855 74.9221 66.4808 74.9221 66.845V68.164C74.9222 68.5282 74.6269 68.8234 74.2626 68.8234Z" fill="#FF9356"/>
<path d="M78.1156 70.7531V41.912C78.1156 40.7788 77.1884 39.8516 76.0552 39.8516H61.5533C60.9207 39.8516 60.3141 40.1029 59.8668 40.5501L54.6646 45.7523C54.3327 46.0842 54.1091 46.5038 54.0156 46.9566L78.0955 71.0365C78.1084 70.9438 78.1156 70.8492 78.1156 70.7531Z" fill="url(#paint8_linear_229_3422)"/>
<path d="M54.0367 46.8597C54.0291 46.8928 54.0221 46.9251 54.0156 46.9562H60.3266C60.7735 46.9562 61.1357 46.5939 61.1357 46.1471V39.8887C61.0864 39.8975 61.0345 39.9077 60.9811 39.9196C60.5107 40.0237 60.0817 40.2655 59.741 40.6062L54.7222 45.6251C54.3829 45.9644 54.1446 46.3922 54.0367 46.8597Z" fill="url(#paint9_linear_229_3422)"/>
<path d="M53.9648 68.754V70.7524C53.9648 71.8856 54.8921 72.8128 56.0252 72.8128H76.0546C77.1875 72.8128 78.1144 71.8859 78.1144 70.753V68.754H53.9648Z" fill="url(#paint10_linear_229_3422)"/>
<path d="M78.1149 42.9963V41.912C78.1149 40.7787 77.1877 39.8516 76.0545 39.8516H68.6843C68.6945 39.8618 68.7058 39.873 68.7181 39.8852L68.6133 39.8516L74.1377 45.376V45.5637C74.1314 45.5594 74.125 45.5554 74.1187 45.5512L71.3572 42.7898C71.1672 42.5003 70.8403 42.3087 70.4682 42.3087C69.881 42.3087 69.405 42.7847 69.405 43.372V47.1618C69.405 48.204 69.8629 49.1516 70.5911 49.7953L79.9709 59.1752V45.1342C79.9708 44.0446 79.1637 43.144 78.1149 42.9963Z" fill="url(#paint11_linear_229_3422)"/>
<path d="M70.3633 42.3142C70.3973 42.31 70.4321 42.3086 70.4674 42.3086C70.8396 42.3086 71.1663 42.5 71.3563 42.7898L74.1178 45.5513C74.1241 45.5556 74.1306 45.5591 74.1369 45.5634V47.2192C74.1369 47.9549 73.5252 48.5496 72.7838 48.5219C72.0786 48.495 71.318 47.8932 71.318 47.1873V43.3717C71.318 42.8218 70.8991 42.3688 70.3633 42.3142Z" fill="url(#paint12_linear_229_3422)"/>
<path d="M78.1174 42.9953V41.911C78.1174 40.7898 77.2097 39.8709 76.0928 39.8516V47.0447C76.0928 48.9579 74.5181 50.5102 72.5969 50.4737C71.7321 50.4573 70.951 50.1142 70.3594 49.566C70.434 49.6456 70.5118 49.7221 70.5934 49.7944L79.9733 59.1742V45.1333C79.9733 44.0436 79.1662 43.143 78.1174 42.9953Z" fill="url(#paint13_linear_229_3422)"/>
<path d="M72.4838 36H72.3935C70.309 36 68.6133 37.6958 68.6133 39.7803V39.8512H70.7397V39.7803C70.7397 38.8684 71.4816 38.1264 72.3936 38.1264H72.4839C73.3973 38.1264 74.1378 38.8669 74.1378 39.7803V47.219C74.1378 47.9543 73.5256 48.5493 72.7843 48.5212C72.0791 48.4945 71.5314 47.8926 71.5314 47.187V43.3715C71.5314 42.7843 71.0554 42.3083 70.4682 42.3083C69.881 42.3083 69.405 42.7843 69.405 43.3715V47.1614C69.405 49.0394 70.8906 50.6122 72.7682 50.6479C74.6894 50.6844 76.2641 49.1322 76.2641 47.219V39.7803C76.2641 37.6925 74.5716 36 72.4838 36Z" fill="url(#paint14_linear_229_3422)"/>
</g>
<defs>
<filter id="filter0_d_229_3422" x="0.5" y="0.0332031" width="132" height="132" filterUnits="userSpaceOnUse" color-interpolation-filters="sRGB">
<feFlood flood-opacity="0" result="BackgroundImageFix"/>
<feColorMatrix in="SourceAlpha" type="matrix" values="0 0 0 0 0 0 0 0 0 0 0 0 0 0 0 0 0 0 127 0" result="hardAlpha"/>
<feOffset dy="10"/>
<feGaussianBlur stdDeviation="12.5"/>
<feComposite in2="hardAlpha" operator="out"/>
<feColorMatrix type="matrix" values="0 0 0 0 0.937255 0 0 0 0 0.470588 0 0 0 0 0.133333 0 0 0 0.26 0"/>
<feBlend mode="normal" in2="BackgroundImageFix" result="effect1_dropShadow_229_3422"/>
<feBlend mode="normal" in="SourceGraphic" in2="effect1_dropShadow_229_3422" result="shape"/>
</filter>
<linearGradient id="paint0_linear_229_3422" x1="66.5" y1="15.0332" x2="66.5" y2="97.0332" gradientUnits="userSpaceOnUse">
<stop stop-color="#EF7822"/>
<stop offset="0.0001" stop-color="#EF7822"/>
<stop offset="1" stop-color="#F9BD00"/>
</linearGradient>
<linearGradient id="paint1_linear_229_3422" x1="59.3265" y1="50.9189" x2="78.3191" y2="69.9115" gradientUnits="userSpaceOnUse">
<stop stop-color="#FFCE47"/>
<stop offset="1" stop-color="#FF9356"/>
</linearGradient>
<linearGradient id="paint2_linear_229_3422" x1="67.8951" y1="73.2871" x2="67.8951" y2="75.7566" gradientUnits="userSpaceOnUse">
<stop stop-color="#FF9356" stop-opacity="0"/>
<stop offset="1" stop-color="#FF4181"/>
</linearGradient>
<linearGradient id="paint3_linear_229_3422" x1="79.6095" y1="58.3492" x2="75.2147" y2="57.5737" gradientUnits="userSpaceOnUse">
<stop stop-color="#FF9356" stop-opacity="0"/>
<stop offset="1" stop-color="#FF4181"/>
</linearGradient>
<linearGradient id="paint4_linear_229_3422" x1="55.5335" y1="49.6709" x2="74.5261" y2="68.6634" gradientUnits="userSpaceOnUse">
<stop stop-color="#FFE0EA"/>
<stop offset="1" stop-color="#FF80AB"/>
</linearGradient>
<linearGradient id="paint5_linear_229_3422" x1="64.1021" y1="72.9419" x2="64.1021" y2="74.7084" gradientUnits="userSpaceOnUse">
<stop stop-color="#FF4181" stop-opacity="0"/>
<stop offset="1" stop-color="#FF4181"/>
</linearGradient>
<linearGradient id="paint6_linear_229_3422" x1="65.5748" y1="74.7408" x2="65.4025" y2="71.1215" gradientUnits="userSpaceOnUse">
<stop stop-color="#FF4181" stop-opacity="0"/>
<stop offset="1" stop-color="#FF4181"/>
</linearGradient>
<linearGradient id="paint7_linear_229_3422" x1="59.8761" y1="47.8829" x2="79.3943" y2="74.6396" gradientUnits="userSpaceOnUse">
<stop stop-color="#FFF5D9"/>
<stop offset="1" stop-color="#FFCE47"/>
</linearGradient>
<linearGradient id="paint8_linear_229_3422" x1="69.4842" y1="47.428" x2="53.9937" y2="31.9374" gradientUnits="userSpaceOnUse">
<stop stop-color="#FF9356" stop-opacity="0"/>
<stop offset="1" stop-color="#FF755C"/>
</linearGradient>
<linearGradient id="paint9_linear_229_3422" x1="57.1058" y1="42.9525" x2="61.8375" y2="47.6843" gradientUnits="userSpaceOnUse">
<stop stop-color="#FFF5D9"/>
<stop offset="1" stop-color="#FFCE47"/>
</linearGradient>
<linearGradient id="paint10_linear_229_3422" x1="66.0396" y1="69.8204" x2="66.0396" y2="73.0252" gradientUnits="userSpaceOnUse">
<stop stop-color="#FF9356" stop-opacity="0"/>
<stop offset="1" stop-color="#FF755C"/>
</linearGradient>
<linearGradient id="paint11_linear_229_3422" x1="72.7178" y1="43.78" x2="66.1967" y2="37.1645" gradientUnits="userSpaceOnUse">
<stop stop-color="#FF9356" stop-opacity="0"/>
<stop offset="1" stop-color="#FF755C"/>
</linearGradient>
<linearGradient id="paint12_linear_229_3422" x1="72.9352" y1="45.8067" x2="69.4976" y2="44.7789" gradientUnits="userSpaceOnUse">
<stop stop-color="#FF9356" stop-opacity="0"/>
<stop offset="1" stop-color="#FF755C"/>
</linearGradient>
<linearGradient id="paint13_linear_229_3422" x1="78.1492" y1="49.4938" x2="71.5928" y2="47.0483" gradientUnits="userSpaceOnUse">
<stop stop-color="#FF9356" stop-opacity="0"/>
<stop offset="1" stop-color="#FF755C"/>
</linearGradient>
<linearGradient id="paint14_linear_229_3422" x1="70.539" y1="43.3243" x2="76.0927" y2="43.3243" gradientUnits="userSpaceOnUse">
<stop stop-color="#6FA953"/>
<stop offset="1" stop-color="#43765A"/>
</linearGradient>
<clipPath id="clip0_229_3422">
<rect width="40" height="40" fill="white" transform="translate(46 36)"/>
</clipPath>
</defs>
</svg>
