<svg width="133" height="133" viewBox="0 0 133 133" fill="none" xmlns="http://www.w3.org/2000/svg">
<g filter="url(#filter0_d_229_3461)">
<rect x="25.5" y="15.0332" width="82" height="82" rx="41" fill="url(#paint0_linear_229_3461)"/>
</g>
<path d="M66.236 69.3333H50.9986C49.5259 69.3333 48.332 68.1394 48.332 66.6667V64H68.7974L66.236 69.3333Z" fill="#D3DCFB"/>
<path d="M83.0013 48.0007V59.2037V66.6673H50.9986C49.5259 66.6673 48.332 65.4734 48.332 64.0006V48.0007L67 41.334L83.0013 48.0007Z" fill="#EBF5FC"/>
<path d="M53.0416 53.3327H51.625C51.2798 53.3327 51 53.0528 51 52.7077V51.291C51 50.9459 51.2798 50.666 51.625 50.666H53.0416C53.3868 50.666 53.6666 50.9459 53.6666 51.291V52.7077C53.6666 53.0528 53.3868 53.3327 53.0416 53.3327Z" fill="#3C58A0"/>
<path d="M58.3737 53.3327H56.957C56.6119 53.3327 56.332 53.0528 56.332 52.7077V51.291C56.332 50.9459 56.6119 50.666 56.957 50.666H58.3737C58.7188 50.666 58.9987 50.9459 58.9987 51.291V52.7077C58.9987 53.0528 58.7188 53.3327 58.3737 53.3327Z" fill="#3C58A0"/>
<path d="M63.7096 53.3327H62.293C61.9478 53.3327 61.668 53.0528 61.668 52.7077V51.291C61.668 50.9459 61.9478 50.666 62.293 50.666H63.7096C64.0548 50.666 64.3346 50.9459 64.3346 51.291V52.7077C64.3346 53.0528 64.0548 53.3327 63.7096 53.3327Z" fill="#3C58A0"/>
<path d="M69.0416 53.3327H67.625C67.2798 53.3327 67 53.0528 67 52.7077V51.291C67 50.9459 67.2798 50.666 67.625 50.666H69.0416C69.3868 50.666 69.6666 50.9459 69.6666 51.291V52.7077C69.6666 53.0528 69.3868 53.3327 69.0416 53.3327Z" fill="#3C58A0"/>
<path d="M74.3737 53.3327H72.957C72.6119 53.3327 72.332 53.0528 72.332 52.7077V51.291C72.332 50.9459 72.6119 50.666 72.957 50.666H74.3737C74.7188 50.666 74.9987 50.9459 74.9987 51.291V52.7077C74.9987 53.0528 74.7189 53.3327 74.3737 53.3327Z" fill="#3C58A0"/>
<path d="M79.7057 53.3327H78.2891C77.9439 53.3327 77.6641 53.0528 77.6641 52.7077V51.291C77.6641 50.9459 77.9439 50.666 78.2891 50.666H79.7057C80.0509 50.666 80.3307 50.9459 80.3307 51.291V52.7077C80.3307 53.0528 80.0509 53.3327 79.7057 53.3327Z" fill="#3C58A0"/>
<path d="M53.0416 58.6666H51.625C51.2798 58.6666 51 58.3868 51 58.0416V56.625C51 56.2798 51.2798 56 51.625 56H53.0416C53.3868 56 53.6666 56.2798 53.6666 56.625V58.0416C53.6666 58.3869 53.3868 58.6666 53.0416 58.6666Z" fill="#3C58A0"/>
<path d="M58.3737 58.6666H56.957C56.6119 58.6666 56.332 58.3868 56.332 58.0416V56.625C56.332 56.2798 56.6119 56 56.957 56H58.3737C58.7188 56 58.9987 56.2798 58.9987 56.625V58.0416C58.9987 58.3869 58.7188 58.6666 58.3737 58.6666Z" fill="#3C58A0"/>
<path d="M63.7096 58.6666H62.293C61.9478 58.6666 61.668 58.3868 61.668 58.0416V56.625C61.668 56.2798 61.9478 56 62.293 56H63.7096C64.0548 56 64.3346 56.2798 64.3346 56.625V58.0416C64.3346 58.3869 64.0548 58.6666 63.7096 58.6666Z" fill="#3C58A0"/>
<path d="M69.6666 58.6666V56.6666C69.6666 56.2984 69.3682 56 69 56H67.6666C67.2984 56 67 56.2984 67 56.6666V58C67 58.3682 67.2985 58.6666 67.6666 58.6666H69.6666Z" fill="#3C58A0"/>
<path d="M53.0416 63.9987H51.625C51.2798 63.9987 51 63.7188 51 63.3737V61.957C51 61.6119 51.2798 61.332 51.625 61.332H53.0416C53.3868 61.332 53.6666 61.6119 53.6666 61.957V63.3737C53.6666 63.7188 53.3868 63.9987 53.0416 63.9987Z" fill="#3C58A0"/>
<path d="M58.3737 63.9987H56.957C56.6119 63.9987 56.332 63.7188 56.332 63.3737V61.957C56.332 61.6119 56.6119 61.332 56.957 61.332H58.3737C58.7188 61.332 58.9987 61.6119 58.9987 61.957V63.3737C58.9987 63.7188 58.7188 63.9987 58.3737 63.9987Z" fill="#3C58A0"/>
<path d="M63.7096 63.9987H62.293C61.9478 63.9987 61.668 63.7188 61.668 63.3737V61.957C61.668 61.6119 61.9478 61.332 62.293 61.332H63.7096C64.0548 61.332 64.3346 61.6119 64.3346 61.957V63.3737C64.3346 63.7188 64.0548 63.9987 63.7096 63.9987Z" fill="#3C58A0"/>
<path d="M79.6892 50.666H78.3103C78.2269 50.666 78.1474 50.6824 78.0742 50.7112C78.3129 50.8055 78.482 51.0377 78.482 51.3098V52.6887C78.482 52.9609 78.3128 53.1931 78.0742 53.2873C78.1474 53.3162 78.2269 53.3327 78.3103 53.3327H79.6892C80.0448 53.3327 80.3331 53.0444 80.3331 52.6888V51.3099C80.333 50.9543 80.0448 50.666 79.6892 50.666Z" fill="#2A428C"/>
<path d="M74.3533 50.666H72.9744C72.8909 50.666 72.8115 50.6824 72.7383 50.7112C72.977 50.8055 73.146 51.0377 73.146 51.3098V52.6887C73.146 52.9609 72.9769 53.1931 72.7383 53.2873C72.8115 53.3162 72.8909 53.3327 72.9744 53.3327H74.3533C74.7089 53.3327 74.9971 53.0444 74.9971 52.6888V51.3099C74.9971 50.9543 74.7089 50.666 74.3533 50.666Z" fill="#2A428C"/>
<path d="M69.0212 50.666H67.6423C67.5589 50.666 67.4795 50.6824 67.4062 50.7112C67.6449 50.8055 67.8141 51.0377 67.8141 51.3098V52.6887C67.8141 52.9609 67.6449 53.1931 67.4062 53.2873C67.4795 53.3162 67.5589 53.3327 67.6423 53.3327H69.0212C69.3769 53.3327 69.6652 53.0444 69.6652 52.6888V51.3099C69.6651 50.9543 69.3768 50.666 69.0212 50.666Z" fill="#2A428C"/>
<path d="M63.6892 50.666H62.3103C62.2269 50.666 62.1474 50.6824 62.0742 50.7112C62.3129 50.8055 62.482 51.0377 62.482 51.3098V52.6887C62.482 52.9609 62.3129 53.1931 62.0742 53.2873C62.1474 53.3162 62.2269 53.3327 62.3103 53.3327H63.6892C64.0448 53.3327 64.3331 53.0444 64.3331 52.6888V51.3099C64.333 50.9543 64.0448 50.666 63.6892 50.666Z" fill="#2A428C"/>
<path d="M58.3572 50.666H56.9783C56.8948 50.666 56.8154 50.6824 56.7422 50.7112C56.9809 50.8055 57.1499 51.0377 57.1499 51.3098V52.6887C57.1499 52.9609 56.9808 53.1931 56.7422 53.2873C56.8154 53.3162 56.8948 53.3327 56.9783 53.3327H58.3572C58.7128 53.3327 59.0011 53.0444 59.0011 52.6888V51.3099C59.0011 50.9543 58.7128 50.666 58.3572 50.666Z" fill="#2A428C"/>
<path d="M53.0213 50.666H51.6423C51.5589 50.666 51.4795 50.6824 51.4062 50.7112C51.6449 50.8055 51.8141 51.0377 51.8141 51.3098V52.6887C51.8141 52.9609 51.6449 53.1931 51.4062 53.2873C51.4795 53.3162 51.5589 53.3327 51.6423 53.3327H53.0213C53.3769 53.3327 53.6652 53.0444 53.6652 52.6888V51.3099C53.6651 50.9543 53.3768 50.666 53.0213 50.666Z" fill="#2A428C"/>
<path d="M53.0213 56H51.6423C51.5589 56 51.4795 56.0164 51.4062 56.0452C51.6449 56.1395 51.8141 56.3716 51.8141 56.6438V58.0228C51.8141 58.295 51.6449 58.5272 51.4062 58.6214C51.4795 58.6503 51.5589 58.6667 51.6423 58.6667H53.0213C53.3769 58.6667 53.6652 58.3784 53.6652 58.0229V56.6439C53.6651 56.2883 53.3768 56 53.0213 56Z" fill="#2A428C"/>
<path d="M53.0213 61.334H51.6423C51.5589 61.334 51.4795 61.3504 51.4062 61.3792C51.6449 61.4734 51.8141 61.7056 51.8141 61.9778V63.3568C51.8141 63.629 51.6449 63.8612 51.4062 63.9554C51.4795 63.9843 51.5589 64.0007 51.6423 64.0007H53.0213C53.3769 64.0007 53.6652 63.7124 53.6652 63.3569V61.9779C53.6651 61.6222 53.3768 61.334 53.0213 61.334Z" fill="#2A428C"/>
<path d="M58.3572 56H56.9783C56.8948 56 56.8154 56.0164 56.7422 56.0452C56.9809 56.1395 57.1499 56.3716 57.1499 56.6438V58.0228C57.1499 58.295 56.9808 58.5272 56.7422 58.6214C56.8154 58.6503 56.8948 58.6667 56.9783 58.6667H58.3572C58.7128 58.6667 59.0011 58.3784 59.0011 58.0229V56.6439C59.0011 56.2883 58.7128 56 58.3572 56Z" fill="#2A428C"/>
<path d="M58.3572 61.334H56.9783C56.8948 61.334 56.8154 61.3504 56.7422 61.3792C56.9809 61.4734 57.1499 61.7056 57.1499 61.9778V63.3568C57.1499 63.629 56.9808 63.8612 56.7422 63.9554C56.8154 63.9843 56.8948 64.0007 56.9783 64.0007H58.3572C58.7128 64.0007 59.0011 63.7124 59.0011 63.3569V61.9779C59.0011 61.6222 58.7128 61.334 58.3572 61.334Z" fill="#2A428C"/>
<path d="M63.6892 56H62.3103C62.2269 56 62.1474 56.0164 62.0742 56.0452C62.3129 56.1395 62.482 56.3716 62.482 56.6438V58.0228C62.482 58.295 62.3129 58.5272 62.0742 58.6214C62.1474 58.6503 62.2269 58.6667 62.3103 58.6667H63.6892C64.0448 58.6667 64.3331 58.3784 64.3331 58.0229V56.6439C64.333 56.2883 64.0448 56 63.6892 56Z" fill="#2A428C"/>
<path d="M69.6652 58.6666V56.6438C69.6652 56.2882 69.3769 56 69.0213 56H67.6423C67.5589 56 67.4795 56.0164 67.4062 56.0452C67.6449 56.1395 67.8141 56.3716 67.8141 56.6438V58.0228C67.8141 58.295 67.6449 58.5272 67.4062 58.6214C67.4795 58.6503 67.5589 58.6667 67.6423 58.6667H69.6652V58.6666Z" fill="#2A428C"/>
<path d="M63.6892 61.334H62.3103C62.2269 61.334 62.1474 61.3504 62.0742 61.3792C62.3129 61.4734 62.482 61.7056 62.482 61.9778V63.3568C62.482 63.629 62.3129 63.8612 62.0742 63.9554C62.1474 63.9843 62.2269 64.0007 62.3103 64.0007H63.6892C64.0448 64.0007 64.3331 63.7124 64.3331 63.3569V61.9779C64.333 61.6222 64.0448 61.334 63.6892 61.334Z" fill="#2A428C"/>
<path d="M81.1484 47.2285V59.2033V66.667H83.0009V59.2033V48.0003L81.1484 47.2285Z" fill="#D3DCFB"/>
<path d="M83.0013 47.9993V41.3326C83.0013 39.8598 81.8073 38.666 80.3347 38.666H50.9986C49.5259 38.666 48.332 39.8598 48.332 41.3326V47.9993H83.0013Z" fill="#FF4155"/>
<path d="M56.7338 41.9377H54.9981C54.6647 41.9377 54.3945 41.6674 54.3945 41.3341C54.3945 41.0007 54.6648 40.7305 54.9981 40.7305H56.7338C57.0673 40.7305 57.3374 41.0007 57.3374 41.3341C57.3374 41.6674 57.0672 41.9377 56.7338 41.9377Z" fill="#E80054"/>
<path d="M60.9995 41.9377H59.2637C58.9303 41.9377 58.6602 41.6674 58.6602 41.3341C58.6602 41.0007 58.9304 40.7305 59.2637 40.7305H60.9995C61.3329 40.7305 61.603 41.0007 61.603 41.3341C61.603 41.6674 61.3329 41.9377 60.9995 41.9377Z" fill="#E80054"/>
<path d="M72.0698 41.9377H70.3341C70.0006 41.9377 69.7305 41.6674 69.7305 41.3341C69.7305 41.0007 70.0007 40.7305 70.3341 40.7305H72.0698C72.4033 40.7305 72.6734 41.0007 72.6734 41.3341C72.6734 41.6674 72.4033 41.9377 72.0698 41.9377Z" fill="#E80054"/>
<path d="M76.3316 41.9377H74.5958C74.2623 41.9377 73.9922 41.6674 73.9922 41.3341C73.9922 41.0007 74.2624 40.7305 74.5958 40.7305H76.3316C76.665 40.7305 76.9352 41.0007 76.9352 41.3341C76.9352 41.6674 76.6649 41.9377 76.3316 41.9377Z" fill="#E80054"/>
<path d="M59.6653 41C59.6653 41.9205 58.9191 42.6666 57.9987 42.6666C57.0782 42.6666 56.332 41.9205 56.332 41V37.6666C56.332 36.7462 57.0781 36 57.9986 36C58.9191 36 59.6652 36.7462 59.6652 37.6666V41H59.6653Z" fill="#EBF5FC"/>
<path d="M75.0013 41C75.0013 41.9205 74.2552 42.6666 73.3347 42.6666C72.4142 42.6666 71.668 41.9205 71.668 41V37.6666C71.668 36.7462 72.4141 36 73.3346 36C74.2551 36 75.0013 36.7462 75.0013 37.6666V41H75.0013Z" fill="#EBF5FC"/>
<path d="M73.3309 36C72.9887 36 72.6709 36.1034 72.4062 36.2803C72.8535 36.5792 73.1483 37.0884 73.1483 37.6667V41C73.1483 41.5783 72.8535 42.0875 72.4062 42.3864C72.6709 42.5632 72.9887 42.6667 73.3309 42.6667C74.2514 42.6667 74.9976 41.9205 74.9976 41.0001V37.6666C74.9977 36.7462 74.2515 36 73.3309 36Z" fill="#D3DCFB"/>
<path d="M57.9989 36C57.6567 36 57.3389 36.1034 57.0742 36.2803C57.5215 36.5792 57.8163 37.0884 57.8163 37.6667V41C57.8163 41.5783 57.5215 42.0875 57.0742 42.3864C57.3388 42.5632 57.6567 42.6667 57.9989 42.6667C58.9194 42.6667 59.6655 41.9205 59.6655 41.0001V37.6666C59.6656 36.7462 58.9195 36 57.9989 36Z" fill="#D3DCFB"/>
<path d="M80.3362 38.666H78.4844C79.9571 38.666 81.1509 39.8598 81.1509 41.3326V47.9994H83.0027V41.3327C83.0027 39.8599 81.8088 38.666 80.3362 38.666Z" fill="#E80054"/>
<path d="M48.332 44.7305H83.0013V45.9377H48.332V44.7305Z" fill="#E80054"/>
<path d="M75.668 76C81.1908 76 85.668 71.5228 85.668 66C85.668 60.4772 81.1908 56 75.668 56C70.1451 56 65.668 60.4772 65.668 66C65.668 71.5228 70.1451 76 75.668 76Z" fill="#4FABF7"/>
<path d="M75.6654 73.3327C79.7155 73.3327 82.9987 70.0495 82.9987 65.9994C82.9987 61.9493 79.7155 58.666 75.6654 58.666C71.6153 58.666 68.332 61.9493 68.332 65.9994C68.332 70.0495 71.6153 73.3327 75.6654 73.3327Z" fill="#EBF5FC"/>
<path d="M75.6661 65.271C75.3327 65.271 75.0625 65.0008 75.0625 64.6674V61.3341C75.0625 61.0007 75.3327 60.7305 75.6661 60.7305C75.9995 60.7305 76.2697 61.0007 76.2697 61.3341V64.6674C76.2697 65.0008 75.9995 65.271 75.6661 65.271Z" fill="#3C58A0"/>
<path d="M78.9982 66.6037H76.9981C76.6647 66.6037 76.3945 66.3334 76.3945 66.0001C76.3945 65.6667 76.6648 65.3965 76.9981 65.3965H78.9982C79.3316 65.3965 79.6018 65.6667 79.6018 66.0001C79.6018 66.3334 79.3316 66.6037 78.9982 66.6037Z" fill="#3C58A0"/>
<path d="M75.6678 56C75.3557 56 75.0471 56.0151 74.7423 56.043C79.8311 56.5102 83.8166 60.7893 83.8166 66C83.8166 71.2107 79.831 75.4898 74.7422 75.957C75.047 75.9849 75.3556 76 75.6677 76C81.1905 76 85.6677 71.5228 85.6677 66C85.6677 60.4772 81.1906 56 75.6678 56Z" fill="#1886EA"/>
<path d="M75.6671 58.666C75.3538 58.666 75.0452 58.6858 74.7422 58.7239C78.3556 59.1787 81.1506 62.2626 81.1506 65.9994C81.1506 69.7362 78.3556 72.8201 74.7422 73.2748C75.0452 73.313 75.3538 73.3327 75.6671 73.3327C79.7172 73.3327 83.0005 70.0495 83.0005 65.9994C83.0005 61.9493 79.7172 58.666 75.6671 58.666Z" fill="#D3DCFB"/>
<path d="M75.6654 67.3327C76.4018 67.3327 76.9988 66.7358 76.9988 65.9994C76.9988 65.263 76.4018 64.666 75.6654 64.666C74.929 64.666 74.332 65.263 74.332 65.9994C74.332 66.7358 74.929 67.3327 75.6654 67.3327Z" fill="#FFDD40"/>
<defs>
<filter id="filter0_d_229_3461" x="0.5" y="0.0332031" width="132" height="132" filterUnits="userSpaceOnUse" color-interpolation-filters="sRGB">
<feFlood flood-opacity="0" result="BackgroundImageFix"/>
<feColorMatrix in="SourceAlpha" type="matrix" values="0 0 0 0 0 0 0 0 0 0 0 0 0 0 0 0 0 0 127 0" result="hardAlpha"/>
<feOffset dy="10"/>
<feGaussianBlur stdDeviation="12.5"/>
<feComposite in2="hardAlpha" operator="out"/>
<feColorMatrix type="matrix" values="0 0 0 0 0.384314 0 0 0 0 0 0 0 0 0 0.933333 0 0 0 0.26 0"/>
<feBlend mode="normal" in2="BackgroundImageFix" result="effect1_dropShadow_229_3461"/>
<feBlend mode="normal" in="SourceGraphic" in2="effect1_dropShadow_229_3461" result="shape"/>
</filter>
<linearGradient id="paint0_linear_229_3461" x1="67.525" y1="98.0582" x2="69.575" y2="15.0332" gradientUnits="userSpaceOnUse">
<stop stop-color="#7D22FF"/>
<stop offset="1" stop-color="#0079E3"/>
</linearGradient>
</defs>
</svg>
