<svg width="414" height="330" viewBox="0 0 414 330" fill="none" xmlns="http://www.w3.org/2000/svg">
<path d="M348.032 302.573C372.798 272.779 387.696 234.474 387.696 192.685C387.696 97.7394 310.806 20.7715 215.957 20.7715C121.109 20.7715 44.2188 97.7404 44.2188 192.685C44.2188 234.474 59.1165 272.779 83.8828 302.573H348.032Z" fill="#F4F9FF"/>
<path d="M319.884 67.228C319.17 67.228 318.517 66.7552 318.317 66.0342C318.078 65.1674 318.585 64.271 319.451 64.0317C320.387 63.7726 321.345 63.5342 322.297 63.3254C323.174 63.1324 324.042 63.6879 324.235 64.5655C324.428 65.4432 323.873 66.3119 322.996 66.505C322.1 66.702 321.199 66.9256 320.318 67.1699C320.174 67.2103 320.027 67.229 319.884 67.229V67.228Z" fill="#C4D7F2"/>
<path d="M326.972 156.064C326.901 156.064 326.83 156.059 326.758 156.05C324.773 155.79 322.784 155.414 320.847 154.932C319.976 154.715 319.444 153.833 319.661 152.96C319.877 152.087 320.758 151.555 321.631 151.772C323.449 152.223 325.316 152.577 327.181 152.821C328.072 152.938 328.699 153.755 328.583 154.646C328.475 155.466 327.777 156.063 326.972 156.063V156.064ZM315.668 153.254C315.479 153.254 315.287 153.221 315.1 153.151C313.225 152.451 311.371 151.635 309.59 150.727C308.79 150.319 308.472 149.339 308.88 148.537C309.287 147.736 310.266 147.417 311.067 147.826C312.739 148.678 314.478 149.443 316.237 150.1C317.079 150.415 317.507 151.352 317.193 152.195C316.949 152.85 316.328 153.253 315.669 153.253L315.668 153.254ZM305.289 147.962C304.98 147.962 304.668 147.874 304.392 147.691C302.722 146.583 301.101 145.367 299.574 144.078C298.887 143.499 298.801 142.472 299.379 141.784C299.958 141.097 300.984 141.01 301.671 141.589C303.104 142.798 304.624 143.938 306.19 144.977C306.938 145.474 307.142 146.484 306.646 147.234C306.333 147.707 305.817 147.962 305.289 147.962ZM296.389 140.444C295.955 140.444 295.523 140.272 295.203 139.93C293.826 138.461 292.528 136.901 291.347 135.294C290.815 134.57 290.97 133.55 291.693 133.018C292.417 132.485 293.435 132.64 293.967 133.364C295.072 134.867 296.286 136.327 297.576 137.702C298.191 138.357 298.157 139.388 297.503 140.003C297.189 140.298 296.79 140.444 296.39 140.444H296.389ZM289.499 131.054C288.929 131.054 288.376 130.754 288.079 130.222C287.09 128.454 286.213 126.619 285.474 124.769C285.14 123.935 285.545 122.987 286.379 122.653C287.212 122.319 288.159 122.725 288.492 123.56C289.18 125.279 289.995 126.985 290.916 128.631C291.355 129.415 291.075 130.407 290.292 130.847C290.041 130.987 289.768 131.054 289.499 131.054ZM285.189 120.241C284.46 120.241 283.796 119.747 283.612 119.006C283.122 117.03 282.772 115.019 282.575 113.026C282.486 112.132 283.138 111.334 284.032 111.245C284.928 111.156 285.722 111.81 285.811 112.704C285.993 114.54 286.315 116.396 286.767 118.22C286.984 119.093 286.454 119.975 285.582 120.192C285.45 120.224 285.318 120.24 285.188 120.24L285.189 120.241ZM284.058 108.659C284.029 108.659 283.999 108.659 283.971 108.657C283.074 108.609 282.385 107.843 282.432 106.946C282.537 104.94 282.798 102.912 283.206 100.916C283.386 100.036 284.246 99.4685 285.126 99.6487C286.006 99.829 286.573 100.69 286.393 101.57C286.017 103.406 285.777 105.273 285.68 107.117C285.635 107.986 284.917 108.659 284.058 108.659V108.659ZM286.378 97.2522C286.196 97.2522 286.01 97.2217 285.829 97.1557C284.983 96.8523 284.545 95.9195 284.848 95.0734C285.522 93.194 286.338 91.3264 287.275 89.5239C287.689 88.726 288.672 88.4158 289.469 88.8305C290.266 89.2451 290.576 90.2282 290.161 91.026C289.291 92.6995 288.534 94.4312 287.909 96.1736C287.671 96.8375 287.045 97.2512 286.379 97.2512L286.378 97.2522ZM291.738 86.9067C291.417 86.9067 291.094 86.8122 290.811 86.6152C290.074 86.102 289.892 85.0875 290.404 84.3497C291.543 82.7116 292.802 81.1179 294.148 79.6128C294.748 78.943 295.776 78.8859 296.445 79.4858C297.114 80.0856 297.171 81.1149 296.572 81.7847C295.314 83.1913 294.138 84.6797 293.075 86.2094C292.759 86.6644 292.253 86.9077 291.739 86.9077L291.738 86.9067ZM299.505 78.2131C299.055 78.2131 298.606 78.027 298.284 77.6615C297.691 76.9868 297.756 75.9585 298.43 75.3645C299.927 74.0436 301.524 72.7937 303.174 71.6471C303.912 71.1349 304.925 71.3181 305.437 72.0569C305.949 72.7956 305.766 73.8102 305.028 74.3224C303.481 75.397 301.984 76.5692 300.579 77.8073C300.27 78.0802 299.886 78.2131 299.504 78.2131H299.505ZM309.077 71.5624C308.497 71.5624 307.936 71.2512 307.643 70.7045C307.218 69.9125 307.515 68.9256 308.306 68.5001C310.065 67.5545 311.898 66.6975 313.757 65.9528C314.59 65.6189 315.537 66.0248 315.87 66.8591C316.204 67.6933 315.798 68.6409 314.965 68.9748C313.218 69.6742 311.495 70.4799 309.844 71.3674C309.599 71.4994 309.337 71.5614 309.077 71.5614V71.5624Z" fill="#C4D7F2"/>
<path d="M333.817 156.509C333.472 156.509 333.126 156.507 332.783 156.5C331.885 156.483 331.171 155.74 331.188 154.842C331.205 153.944 331.942 153.228 332.844 153.245C333.757 153.262 334.685 153.255 335.603 153.223C336.503 153.195 337.253 153.896 337.284 154.795C337.314 155.693 336.612 156.446 335.714 156.477C335.083 156.499 334.449 156.509 333.816 156.509H333.817Z" fill="#C4D7F2"/>
<path d="M144.43 123.483C143.735 123.566 143.032 123.594 142.32 123.565C138.122 123.392 133.654 121.114 129.659 117.289C123.57 123.069 116.601 127.064 109.493 126.319C102.862 125.626 96.6406 120.798 91.4982 112.354C89.5725 109.192 87.8309 105.534 86.3637 101.545C77.3414 110.92 67.1964 119.644 57.6595 127.124L53.6172 121.977C65.7411 112.47 75.956 103.205 84.1232 94.3664C80.7244 81.2826 80.32 66.0053 85.3974 53.0496C88.5187 45.0868 98.2258 28.461 106.72 30.9314C113.393 32.8639 113.811 42.3859 114.011 46.9632C114.031 47.3937 114.047 47.7768 114.066 48.094C115.076 63.8146 105.138 80.6296 91.4353 96.0645C92.9447 100.935 94.8901 105.348 97.0874 108.956C101.069 115.493 105.715 119.349 110.17 119.815C114.853 120.301 120.231 117.158 125.339 112.273C124.716 111.404 124.118 110.494 123.546 109.544C117.842 100.065 116.627 89.8373 120.297 82.1878C124.198 74.0586 133.638 68.6766 140.949 67.5596C145.029 66.9518 148.175 67.6768 150.058 69.6951C154.855 74.8299 149.871 87.0439 146.474 93.867C143.738 99.3613 139.424 106.407 134.159 112.536C136.983 115.256 140.001 116.924 142.584 117.03C150.312 117.338 158.681 103.916 164.219 95.0263C169.253 86.9454 172.024 82.4942 176.152 84.409C179.621 86.0224 178.745 90.1762 177.728 94.9849C176.763 99.5603 175.302 106.476 177.847 109.226C179.3 110.794 184.863 113.549 205.142 105.299L207.613 111.357C189.42 118.757 178.434 119.491 173.044 113.665C169.057 109.358 169.575 102.802 170.619 97.1342C170.332 97.5913 170.049 98.0453 169.775 98.4856C163.472 108.604 154.982 122.231 144.429 123.483H144.43ZM142.406 73.9601C141.885 74.0222 141.287 74.1246 140.609 74.2881C135.568 75.4977 128.908 79.3707 126.2 85.0167C123.002 91.6822 125.629 100.318 129.155 106.176C129.399 106.582 129.651 106.981 129.908 107.37C132.679 104.073 135.261 100.396 137.475 96.689C144.676 84.6296 146.344 75.7272 145.255 74.1305C145.125 74.0429 144.234 73.7444 142.406 73.9611V73.9601ZM104.713 37.2186C102.25 37.5102 95.2768 45.7802 91.4914 55.4382C87.5347 65.5334 87.393 77.4894 89.483 88.2731C102.001 73.2844 108.255 59.7082 107.536 48.5077C107.514 48.1521 107.495 47.7256 107.472 47.2449C107.132 39.4703 105.885 37.4984 104.9 37.2117C104.841 37.2078 104.779 37.2098 104.713 37.2176V37.2186Z" fill="#C4D7F2"/>
<path d="M186.994 73.8368C187.414 71.3386 185.728 68.9717 183.228 68.5502C180.728 68.1288 178.361 69.8123 177.941 72.3105C177.52 74.8088 179.206 77.1757 181.706 77.5971C184.206 78.0186 186.574 76.3351 186.994 73.8368Z" fill="#C4D7F2"/>
<path d="M47.8523 132.816C48.2343 130.54 46.698 128.384 44.4209 128.001C42.1437 127.618 39.9879 129.153 39.6059 131.428C39.2238 133.704 40.7601 135.859 43.0373 136.242C45.3144 136.626 47.4702 135.091 47.8523 132.816Z" fill="#C4D7F2"/>
<path d="M342.554 301.341L89.6357 295.831C86.3226 295.759 83.6943 293.012 83.7671 289.695L87.4679 119.462C87.5398 116.145 90.2841 113.515 93.5982 113.587L346.517 119.098C349.83 119.169 352.458 121.917 352.385 125.234L348.685 295.467C348.613 298.783 345.868 301.414 342.554 301.341Z" fill="#C4D7F2"/>
<path d="M95.7177 297.336L86.4002 301.816C86.289 301.658 86.1709 301.486 86.0469 301.307C85.9741 301.204 85.8984 301.095 85.8206 300.982V300.98C85.5176 300.541 85.1781 300.048 84.8101 299.508C84.2069 298.627 83.52 297.613 82.7594 296.482C82.5597 296.183 82.353 295.875 82.1414 295.558C81.9299 295.24 81.7114 294.914 81.49 294.58C81.2923 294.286 81.0954 293.985 80.8908 293.676C80.8662 293.638 80.8435 293.601 80.817 293.564C80.7018 293.392 80.5887 293.216 80.4706 293.04C80.3289 292.824 80.1862 292.606 80.0386 292.386C79.8251 292.058 79.6067 291.726 79.3853 291.386C79.2209 291.135 79.0536 290.879 78.8874 290.619C78.8027 290.492 78.7191 290.361 78.6335 290.231C78.5764 290.143 78.5213 290.057 78.4642 289.97C78.2655 289.66 78.0638 289.35 77.8581 289.033C77.4222 288.357 76.9735 287.663 76.5189 286.949C75.9728 286.093 75.4109 285.211 74.8402 284.305C73.0827 281.515 71.22 278.499 69.2983 275.305C69.0346 274.865 68.7689 274.422 68.5012 273.976C68.2916 273.626 68.0811 273.272 67.8725 272.917C67.53 272.344 67.1896 271.764 66.8442 271.18C66.5509 270.68 66.2567 270.178 65.9605 269.671C65.5345 268.937 65.1064 268.198 64.6774 267.451C64.333 266.849 63.9866 266.245 63.6383 265.635C63.2034 264.87 62.7665 264.101 62.3335 263.322C62.1367 262.974 61.9419 262.622 61.7461 262.27C61.3544 261.57 60.9618 260.864 60.5732 260.151C60.2219 259.51 59.8706 258.864 59.5183 258.216C59.2723 257.765 59.0283 257.312 58.7862 256.856C58.4123 256.157 58.0374 255.456 57.6635 254.75C57.4706 254.385 57.2787 254.022 57.0878 253.654C56.8979 253.287 56.707 252.922 56.5171 252.555C56.3252 252.187 56.1353 251.821 55.9464 251.451C55.5656 250.713 55.1907 249.975 54.8138 249.232C52.9098 245.459 51.0677 241.634 49.3418 237.802L49.3398 237.797C49.1528 237.382 48.9649 236.968 48.7829 236.55C48.6451 236.251 48.5123 235.948 48.3824 235.648L48.3775 235.638C48.1482 235.117 47.9228 234.599 47.7005 234.08C47.486 233.583 47.2744 233.086 47.0658 232.59C46.8218 232.014 46.5826 231.435 46.3445 230.859C36.2251 206.264 32.0962 182.742 47.2213 173.757C47.3698 173.668 47.5204 173.581 47.6749 173.498C48.3804 173.1 49.1302 172.734 49.9194 172.398C51.7231 171.634 53.4559 171.158 55.1208 170.951C55.3727 170.916 55.6246 170.889 55.8746 170.869C89.9259 168.17 95.0712 277.739 95.7206 297.336H95.7177Z" fill="#C4D7F2"/>
<path d="M64.3678 186.146L65.3803 188.399C66.7274 191.403 67.9259 194.473 69.091 197.553C69.3931 198.317 69.6548 199.097 69.9333 199.872L70.7588 202.201C71.0442 202.973 71.2833 203.761 71.5372 204.542L72.2909 206.894C72.8105 208.457 73.2425 210.044 73.7158 211.621L74.4095 213.989L75.0491 216.373C75.9376 219.542 76.654 222.755 77.4254 225.953L78.4646 230.774C78.6348 231.578 78.8168 232.381 78.9792 233.186L79.4426 235.608C79.7428 237.224 80.0527 238.84 80.3391 240.458L81.1361 245.321L81.5336 247.754L81.881 250.194C82.1113 251.822 82.3514 253.449 82.5688 255.077C82.7892 256.704 82.9565 258.338 83.1523 259.968C83.3363 261.6 83.54 263.23 83.7083 264.865C84.0163 268.132 84.3548 271.4 84.5919 274.672C84.9324 279.04 85.2079 283.413 85.4126 287.791C85.5218 290.126 85.6113 292.465 85.6802 294.803C85.7166 295.88 85.7442 296.959 85.7668 298.039V298.041C85.7698 298.137 85.7708 298.231 85.7727 298.327C85.7934 299.212 85.8062 300.094 85.819 300.98V300.982C85.8288 301.35 85.8347 301.719 85.8367 302.087L85.0268 302.476C84.956 301.486 84.8822 300.497 84.8094 299.507C84.7139 298.228 84.6146 296.95 84.5152 295.673C84.5083 295.572 84.5014 295.473 84.4916 295.371C84.3735 293.89 84.2544 292.412 84.1314 290.933C83.9415 288.674 83.7427 286.417 83.5322 284.159C83.2478 281.057 82.9388 277.955 82.6082 274.858C82.4576 273.229 82.2333 271.61 82.0434 269.987L81.4825 265.117C81.2857 263.497 81.0525 261.878 80.8419 260.259C80.6166 258.641 80.4198 257.019 80.1738 255.405C79.916 253.792 79.6867 252.176 79.4417 250.561L79.0815 248.138L78.6702 245.726L77.8496 240.899C77.5563 239.292 77.2365 237.692 76.9344 236.09L76.4877 233.684C76.3342 232.884 76.1571 232.086 75.9957 231.287L74.992 226.497L73.888 221.732C73.7069 220.936 73.5209 220.143 73.3113 219.355L72.716 216.984L72.1256 214.611L71.4801 212.252C71.0403 210.683 70.6408 209.101 70.1537 207.546L69.4511 205.202C69.2159 204.424 68.9847 203.64 68.7298 202.869L67.984 200.54C67.7321 199.764 67.4959 198.983 67.2204 198.218L66.4165 195.909C66.1478 195.141 65.8871 194.368 65.5909 193.611L64.7299 191.324C64.5823 190.942 64.4485 190.558 64.2989 190.179L63.8433 189.045L62.936 186.774C62.6222 186.021 62.2955 185.279 61.9737 184.529C61.3489 183.023 60.6335 181.557 59.9604 180.074C58.5602 177.131 57.0507 174.237 55.3976 171.425L55.1172 170.951C55.3691 170.915 55.621 170.889 55.8709 170.869C55.9142 170.928 55.9536 170.986 55.9939 171.046C57.8409 173.772 59.496 176.62 61.0743 179.51C61.8261 180.972 62.6035 182.426 63.3011 183.918C63.6544 184.661 64.0204 185.4 64.3668 186.145L64.3678 186.146Z" fill="#ECF3FE"/>
<path d="M47.6701 173.498L47.677 173.869C47.677 174.276 47.7321 174.684 47.7567 175.092L47.9505 177.532C47.9673 177.733 47.9771 177.937 48.0007 178.139L48.0824 178.746L48.2379 179.962L48.5498 182.389C48.6344 183.198 48.8037 183.999 48.9395 184.805L49.3695 187.213C49.5151 188.014 49.6361 188.821 49.7936 189.622L50.3131 192.014L51.3512 196.796C52.1621 199.961 52.9394 203.13 53.7611 206.287L55.1288 210.993L56.47 215.7C56.6806 216.49 56.9453 217.264 57.1903 218.044L57.9352 220.378L59.425 225.044L60.1659 227.381L60.531 228.548L60.9315 229.707L62.5295 234.342L64.1255 238.977L64.9245 241.294C65.0584 241.678 65.1853 242.066 65.328 242.449L65.758 243.598L69.1429 252.804L70.8344 257.405C71.412 258.934 72.0369 260.447 72.6204 261.976L75.6974 269.908V269.91L76.1687 271.124L77.9527 275.696L79.8006 280.243C81.0287 283.274 82.2764 286.3 83.4906 289.341L84.1263 290.931L85.316 293.902C85.4341 294.202 85.5541 294.501 85.6761 294.8C85.8641 295.259 86.0589 295.714 86.2537 296.17L87.2092 298.433C87.5546 299.264 87.9019 300.092 88.2483 300.924L87.2466 301.405C86.852 300.583 86.4584 299.762 86.0609 298.941L85.7686 298.325L85.0031 296.718C84.8358 296.37 84.6714 296.021 84.5091 295.671C84.3241 295.279 84.143 294.884 83.9689 294.49L82.9494 292.216L82.9367 292.19L81.9527 290.003C80.6065 287.013 79.2919 284.008 77.9596 281.011L75.967 276.513C75.3264 275.006 74.7193 273.482 74.0934 271.965L70.3641 262.858C69.7422 261.341 69.1223 259.821 68.5309 258.293L68.3784 257.888L68.3764 257.883L66.803 253.683L63.3511 244.46L62.927 243.306C62.7853 242.919 62.6613 242.531 62.5265 242.141L61.7403 239.808L60.162 235.141L58.5866 230.475L58.192 229.31L57.8299 228.132L57.1194 225.772L55.7094 221.05L55.0009 218.689C54.7706 217.902 54.5197 217.12 54.319 216.321L53.0644 211.555L51.8324 206.78C51.4575 205.181 51.118 203.569 50.7589 201.968C50.4086 200.359 50.0415 198.758 49.7168 197.146L48.8725 192.282L48.4534 189.853C48.3304 189.038 48.2329 188.22 48.1306 187.404L47.8285 184.955C47.737 184.137 47.6091 183.324 47.5658 182.501L47.3838 180.037L47.2952 178.808L47.2539 178.194C47.246 177.988 47.247 177.781 47.243 177.576L47.2086 175.107C47.2086 174.696 47.1801 174.285 47.2066 173.873L47.2125 173.755C47.3611 173.666 47.5117 173.579 47.6662 173.496L47.6701 173.498Z" fill="#ECF3FE"/>
<g style="mix-blend-mode:multiply" opacity="0.2">
<path d="M91.1925 299.513L86.3994 301.817C86.2882 301.658 86.1702 301.487 86.0462 301.308C85.9734 301.204 85.8996 301.095 85.8199 300.983V300.981C85.5168 300.541 85.1773 300.049 84.8093 299.509C84.2061 298.627 83.5193 297.614 82.7586 296.483C82.5589 296.184 82.3522 295.875 82.1407 295.558C81.9291 295.241 81.7107 294.915 81.4893 294.581C81.2944 294.286 81.0937 293.983 80.89 293.677C80.8654 293.638 80.8428 293.602 80.8162 293.564C80.704 293.391 80.5879 293.217 80.4699 293.04C80.3282 292.825 80.1855 292.607 80.0379 292.386C79.8244 292.058 79.6059 291.726 79.3845 291.387C79.2202 291.135 79.0529 290.879 78.8866 290.619C78.802 290.492 78.7183 290.361 78.6327 290.231C78.5757 290.144 78.5206 290.058 78.4635 289.97C78.2647 289.661 78.063 289.351 77.8573 289.033C77.4214 288.358 76.9727 287.663 76.5181 286.949C75.97 286.09 75.4121 285.211 74.8394 284.305C73.082 281.516 71.2193 278.5 69.2975 275.306C69.0338 274.865 68.7681 274.423 68.5005 273.977C68.2909 273.626 68.0803 273.273 67.8717 272.918C67.5293 272.345 67.1888 271.764 66.8434 271.18C66.5502 270.681 66.255 270.176 65.9598 269.671C65.5337 268.938 65.1057 268.199 64.6767 267.451C64.3323 266.849 63.9859 266.246 63.6376 265.636C63.2026 264.87 62.7657 264.101 62.3328 263.323C62.136 262.974 61.9411 262.623 61.7453 262.271C61.3537 261.571 60.9611 260.864 60.5724 260.151C60.2201 259.509 59.8678 258.867 59.5175 258.217C59.2715 257.766 59.0275 257.313 58.7854 256.856C58.4115 256.157 58.0366 255.457 57.6627 254.751C57.4698 254.386 57.278 254.023 57.0871 253.654C56.8971 253.288 56.7063 252.922 56.5163 252.556C56.3245 252.188 56.1346 251.821 55.9456 251.452C55.5648 250.714 55.1899 249.975 54.813 249.233C52.906 245.461 51.064 241.635 49.341 237.803L49.339 237.798C49.1521 237.383 48.9641 236.968 48.7821 236.551C48.6443 236.251 48.5115 235.949 48.3816 235.648L48.3767 235.639C48.1474 235.118 47.9221 234.599 47.6997 234.08C47.4852 233.584 47.2736 233.086 47.065 232.591C46.821 232.015 46.5819 231.436 46.3438 230.859C53.8231 237.068 61.4836 247.163 68.3834 257.887L68.3853 257.892C70.9477 261.867 73.4008 265.928 75.7034 269.911V269.913C78.5855 274.896 81.2256 279.755 83.534 284.16C84.1894 285.41 84.8162 286.622 85.4145 287.79C87.8872 292.618 89.8641 296.702 91.1955 299.513H91.1925Z" fill="#003889"/>
</g>
<path d="M85.7669 298.039V298.04C86.4832 299.55 87.0087 300.688 87.3226 301.373L79.978 304.904C65.6963 295.79 6.34137 256.178 14.8835 232.498C15.0143 232.137 15.159 231.781 15.3204 231.429C16.0072 229.93 16.9873 228.499 18.2871 227.151C18.5823 226.844 18.8805 226.556 19.1836 226.289C19.3046 226.178 19.4246 226.072 19.5476 225.972C28.0917 218.781 38.8803 225.69 49.3373 237.798L49.3392 237.803C63.0463 253.679 76.1847 278.491 82.9418 292.194L82.9546 292.22C83.5126 293.352 84.0262 294.404 84.4906 295.372C84.9669 296.353 85.393 297.247 85.7669 298.039Z" fill="#C4D7F2"/>
<path d="M83.7599 303.086L83.0337 303.435C77.0519 299.541 71.2188 295.414 65.5411 291.073C57.8452 285.206 50.4387 278.923 43.5074 272.13C42.6454 271.275 41.7706 270.435 40.9234 269.567L38.3935 266.949L37.7618 266.29L37.1478 265.619L35.9178 264.274L34.6907 262.927C34.2814 262.48 33.8917 262.012 33.4952 261.553C30.3021 257.892 27.2625 254.084 24.4955 250.08C23.8038 249.081 23.1376 248.06 22.4567 247.054C21.8043 246.026 21.1479 245.002 20.5251 243.956L19.6129 242.375L19.1593 241.583L18.7263 240.778L17.8653 239.167L17.0515 237.533C16.2732 235.879 15.5313 234.204 14.8828 232.496C15.0137 232.136 15.1583 231.779 15.3197 231.428C16.1728 233.317 17.1273 235.158 18.1497 236.958L19.0402 238.519L19.976 240.05L20.4463 240.816L20.9374 241.568L21.9204 243.07L23.9592 246.028C24.6697 246.992 25.3663 247.965 26.0886 248.922C26.8246 249.867 27.5498 250.817 28.2967 251.754L30.5619 254.545L32.8969 257.278C33.2797 257.738 33.6861 258.179 34.0836 258.627L35.286 259.964C35.6885 260.408 36.0792 260.862 36.4875 261.3L37.7165 262.613L38.9455 263.926L39.5605 264.581L40.1923 265.222L42.7054 267.799C43.5428 268.654 44.4176 269.479 45.2707 270.323C46.9602 272.026 48.7363 273.644 50.477 275.299C50.9071 275.715 51.3508 276.118 51.7976 276.521L53.1338 277.733C54.0263 278.534 54.907 279.351 55.8044 280.151L58.5183 282.525C59.4246 283.314 60.3161 284.119 61.244 284.887L63.9962 287.218L65.3679 288.392L66.7613 289.538C71.9873 293.859 77.3107 298.07 82.6775 302.241C83.0396 302.522 83.3987 302.804 83.7599 303.085V303.086Z" fill="#ECF3FE"/>
<path d="M84.2595 302.845L83.3679 303.273C83.1377 302.93 82.9055 302.587 82.6752 302.242C82.2186 301.567 81.764 300.891 81.3104 300.215L77.1441 294.268C75.7469 292.291 74.4027 290.28 73.0054 288.31L70.8603 285.383L68.7349 282.446C67.3091 280.494 65.9403 278.502 64.4496 276.6L60.0816 270.821L58.9962 269.371L57.8705 267.951L55.6172 265.118C52.674 261.289 49.5272 257.631 46.4611 253.902L41.6946 248.456C40.9162 247.534 40.0759 246.668 39.2651 245.778L36.8198 243.11C36.4075 242.667 36.0139 242.21 35.5879 241.783L34.3244 240.49C33.4811 239.629 32.6359 238.766 31.8024 237.894C31.3901 237.452 30.9562 237.034 30.5242 236.614L29.2283 235.35L27.9323 234.087L27.2839 233.455L26.6197 232.844L23.9609 230.382L21.2352 227.996C20.5543 227.426 19.8724 226.853 19.1836 226.29C19.3046 226.179 19.4247 226.073 19.5477 225.973C19.7573 226.114 19.9639 226.256 20.1696 226.397C20.6684 226.748 21.1841 227.073 21.6682 227.442C22.6473 228.161 23.6254 228.884 24.5926 229.623L27.4423 231.905L28.1518 232.48L28.8386 233.076L30.2152 234.274L31.5918 235.472C32.0514 235.871 32.5138 236.269 32.9547 236.688C33.8491 237.513 34.7337 238.348 35.6174 239.184L36.9468 240.437C37.3935 240.852 37.8097 241.295 38.2417 241.722L40.8168 244.31C41.669 245.176 42.5378 246.034 43.3487 246.937L48.2864 252.316L53.0243 257.865C53.8155 258.789 54.6046 259.715 55.3495 260.676L57.6176 263.53L61.0056 267.825L62.0919 269.29L66.4048 275.169C67.8601 277.115 69.2082 279.138 70.5759 281.146L72.6237 284.16L74.6536 287.186C77.275 291.272 79.8295 295.405 82.3682 299.54C82.9999 300.642 83.6297 301.745 84.2585 302.847L84.2595 302.845Z" fill="#ECF3FE"/>
<path d="M104.016 291.377C101.312 287.703 90.9254 279.08 71.5032 276.406C68.3259 275.968 61.2686 274.996 58.7112 276.29C53.6299 278.858 76.313 288.881 73.3689 290.216C70.2388 291.636 43.5271 281.074 38.9909 282.789C36.8605 283.594 57.4123 290.147 56.8456 299.036C56.7176 301.045 55.5555 302.715 54.4476 303.911H109.927C109.927 303.911 110.678 300.429 104.016 291.377Z" fill="#33DA82"/>
<path d="M215.957 316.411C310.806 316.411 387.696 310.933 387.696 304.175C387.696 297.418 310.806 291.939 215.957 291.939C121.109 291.939 44.2188 297.418 44.2188 304.175C44.2188 310.933 121.109 316.411 215.957 316.411Z" fill="#D7E4F9"/>
<path d="M339.791 118.445H86.8139C83.4994 118.445 80.8125 121.135 80.8125 124.453V294.725C80.8125 298.043 83.4994 300.732 86.8139 300.732H339.791C343.106 300.732 345.793 298.043 345.793 294.725V124.453C345.793 121.135 343.106 118.445 339.791 118.445Z" fill="#7755FF"/>
<path d="M328.36 288.07H98.2412C95.6061 288.07 93.4609 285.924 93.4609 283.285V135.895C93.4609 133.257 95.6051 131.109 98.2412 131.109H328.36C330.996 131.109 333.141 133.256 333.141 135.895V283.285C333.141 285.924 330.997 288.07 328.36 288.07ZM98.2412 133.001C96.6471 133.001 95.3492 134.299 95.3492 135.895V283.286C95.3492 284.882 96.6461 286.181 98.2412 286.181H328.36C329.955 286.181 331.252 284.883 331.252 283.286V135.895C331.252 134.299 329.956 133 328.36 133L98.2412 133.001Z" fill="white" fill-opacity="0.1"/>
<g style="mix-blend-mode:multiply" opacity="0.22">
<path d="M139.862 212.121C140.583 211.75 142.451 210.09 142.213 209.606C141.978 209.121 139.866 210.36 137.943 211.28C136.021 212.2 135.314 217.786 135.314 217.786L134.787 218.329L134.199 217.839L120.731 230.761C120.731 230.761 116.402 224.317 114.698 220.551C112.995 216.784 109.629 216.558 109.629 216.558L109.583 216.563C109.597 215.495 109.401 214.624 108.95 214.053C108.459 213.431 108.057 212.851 107.734 212.291C109.651 209.823 109.021 203.97 108.523 200.908C108.611 200.643 108.701 200.374 108.794 200.094C111.227 192.797 99.721 192.692 99.721 192.692C87.7054 192.375 87.5273 204.113 88.4119 207.285C89.2975 210.457 82.626 216.696 81.15 220.292C80.6491 221.512 80.593 223.099 81.1116 224.843H73.0772C71.9968 224.843 71.0915 225.816 71.182 226.883L74.3426 264.465C74.4342 265.553 75.3079 266.349 76.411 266.349H76.8814L75.7822 275.642L71.9043 308.429C71.8797 308.635 72.0243 308.809 72.229 308.818L72.7053 308.841C72.9119 308.85 73.0998 308.694 73.1313 308.486L78.4774 272.643L79.4161 266.35H89.0593L86.9506 306.581C86.9398 306.788 87.0972 306.951 87.3039 306.946L87.7841 306.937C87.9907 306.933 88.1708 306.764 88.1875 306.558L91.5321 266.351H109.476L108.525 278.419L107.151 295.878H107.991L107.956 297.502L107.924 299.038C104.694 299.186 105.598 308.647 105.598 308.647L106.539 308.704C106.539 308.704 106.82 305.167 107.536 304.293C107.938 303.801 108.274 304.743 108.608 305.836L108.542 308.487C108.537 308.695 108.7 308.851 108.906 308.842L109.386 308.819C109.594 308.811 109.77 308.636 109.78 308.43L109.782 308.397C110.94 309.147 113.938 309.407 115.354 308.419C116.966 307.293 113.847 305.233 113.462 305.786C113.402 305.872 113.334 305.931 113.263 305.974C112.222 305.519 111.54 300.56 111.54 300.56C111.54 300.56 111.638 299.939 111.809 298.854C111.932 298.08 112.094 297.064 112.282 295.878H113.019C113.019 295.878 116.963 281.097 119.731 270.798C120.663 267.332 121.461 264.375 121.931 262.66H123.741L120.167 295.879H121.083L121.048 297.502L121.016 299.038C117.786 299.186 118.691 308.647 118.691 308.647L119.631 308.704C119.631 308.704 119.912 305.167 120.628 304.293C121.343 303.419 121.846 307.065 122.508 308.059C123.171 309.053 126.835 309.544 128.447 308.419C130.059 307.293 126.94 305.233 126.555 305.786C126.495 305.872 126.427 305.931 126.356 305.974C125.315 305.519 124.633 300.56 124.633 300.56C124.633 300.56 124.731 299.939 124.903 298.854C125.026 298.081 125.187 297.065 125.375 295.879H125.735C125.735 295.879 135.603 262.131 136.198 257.01C136.796 251.887 112.164 248.29 109.757 248.064C108.319 247.928 107.638 246.061 107.32 244.579C107.235 244.177 107.177 243.807 107.137 243.504L108.109 243.45C108.109 243.45 107.418 235.842 108.301 235.239C109.185 234.636 110.132 231.472 110.132 231.472C110.132 231.472 116.954 239.533 120.275 240.286C123.596 241.04 137.986 221.002 137.986 221.002L137.439 220.545C139.047 218.823 138.326 217.584 140.59 214.304C142.87 210.996 139.141 212.491 139.862 212.122V212.121Z" fill="#003889"/>
</g>
<path d="M119.691 290.811L119.801 292.477L120.133 297.501L120.377 301.201L125.22 306.933C125.22 306.933 127.311 306.343 126.219 305.99C125.126 305.639 123.986 300.56 123.986 300.56C123.986 300.56 124.03 299.938 124.107 298.854C124.203 297.501 124.352 295.428 124.528 292.949C124.571 292.358 124.613 291.744 124.659 291.111L119.691 290.812V290.811Z" fill="#FDC8AA"/>
<path d="M125.311 305.883C125.311 305.883 126.024 306.337 126.361 305.785C126.699 305.233 129.997 307.292 128.483 308.418C126.968 309.544 123.261 309.053 122.513 308.059C121.764 307.065 120.943 303.418 120.304 304.293C119.664 305.167 119.692 308.704 119.692 308.704L118.746 308.647C118.746 308.647 117.012 299.164 120.243 299.037C120.243 299.037 121.295 302.653 125.311 305.883Z" fill="#1F3A6F"/>
<path d="M119.801 292.477L120.133 297.5C120.991 297.785 122.968 298.462 124.107 298.852C124.203 297.499 124.352 295.427 124.528 292.947C123.216 292.816 121.382 292.633 119.802 292.477H119.801Z" fill="#EFA37D"/>
<path d="M106.598 290.811L106.707 292.477L107.039 297.501L107.284 301.202L112.126 306.933C112.126 306.933 114.217 306.343 113.126 305.991C112.032 305.639 110.892 300.56 110.892 300.56C110.892 300.56 110.936 299.938 111.013 298.854C111.109 297.501 111.258 295.428 111.434 292.949C111.477 292.358 111.52 291.745 111.565 291.111L106.598 290.812V290.811Z" fill="#FDC8AA"/>
<path d="M112.217 305.883C112.217 305.883 112.93 306.337 113.267 305.785C113.605 305.233 116.903 307.292 115.389 308.418C113.875 309.544 110.167 309.053 109.419 308.059C108.67 307.065 107.849 303.418 107.21 304.293C106.57 305.167 106.598 308.704 106.598 308.704L105.652 308.647C105.652 308.647 103.918 299.164 107.149 299.037C107.149 299.037 108.202 302.653 112.217 305.883Z" fill="#1F3A6F"/>
<path d="M106.707 292.477L107.04 297.5C107.898 297.785 109.875 298.462 111.013 298.852C111.109 297.499 111.258 295.427 111.434 292.947C110.122 292.816 108.288 292.633 106.708 292.477H106.707Z" fill="#EFA37D"/>
<path d="M118.282 261.076C118.23 261.232 117.467 265.399 116.485 270.798C114.616 281.096 111.961 295.877 111.961 295.877H106.091L105.943 278.418L105.789 260.172L118.282 261.076Z" fill="#1F3A6F"/>
<path d="M118.282 261.076C118.23 261.232 117.467 265.399 116.485 270.798L105.943 278.418L105.789 260.172L118.282 261.076Z" fill="#072542"/>
<path d="M131.754 257.009C131.605 262.13 124.681 295.878 124.681 295.878H119.112L119.789 262.659H94.5805L88.7109 242.752H101.371C101.371 242.752 101.491 243.576 101.791 244.578C102.238 246.061 103.082 247.927 104.532 248.063C106.958 248.289 131.905 251.887 131.753 257.01L131.754 257.009Z" fill="#1F3A6F"/>
<path d="M127.761 223.516L124.492 221.125L127.444 217.786C127.444 217.786 127.665 212.2 129.507 211.28C131.349 210.36 133.352 209.122 133.63 209.607C133.91 210.09 132.186 211.75 131.498 212.122C130.809 212.49 134.408 210.996 132.416 214.303C130.424 217.608 131.282 218.84 129.779 220.582C129.483 220.925 128.749 222.004 127.761 223.515V223.516Z" fill="#FDC8AA"/>
<path d="M101.788 244.577L93.7604 246.433L92.8984 242.752H101.369C101.369 242.752 101.489 243.576 101.789 244.578L101.788 244.577Z" fill="#072542"/>
<path d="M98.6461 198.965C98.6461 198.965 103.576 214.756 96.2521 213.347C88.9282 211.937 89.3503 200.094 98.6461 198.965Z" fill="#FDC8AA"/>
<path d="M101.652 216.557C101.652 216.557 105.038 216.782 107.07 220.549C109.102 224.315 113.993 230.759 113.993 230.759L126.334 217.837L130.398 221.001C130.398 221.001 117.756 241.038 114.37 240.285C110.984 239.532 103.458 231.472 103.458 231.472C103.458 231.472 102.788 234.635 101.957 235.238C101.125 235.841 102.48 243.449 102.48 243.449L83.6672 244.504L81.1836 218.968L101.652 216.558V216.557Z" fill="#F4B545"/>
<path d="M101.373 219.783C101.373 219.783 97.4497 239.353 89.6239 237.771C81.7982 236.189 86.0116 219.316 86.0116 219.316L101.373 219.783Z" fill="#E59D29"/>
<path d="M89.662 192.692C89.662 192.692 101.177 192.797 99.381 200.094C97.5852 207.391 96.9515 209.718 100.755 214.053C104.558 218.389 95.3673 239.961 85.3314 235.308C75.2956 230.655 72.3377 223.887 73.4998 220.292C74.6619 216.696 80.7893 210.457 79.6272 207.285C78.4651 204.112 77.6198 192.375 89.663 192.692H89.662Z" fill="#1F3A6F"/>
<path d="M87.2115 306.944L87.6907 306.935C87.8973 306.931 88.0617 306.762 88.0607 306.556L87.8865 263.516L85.3281 263.566L86.8248 306.581C86.8317 306.788 87.0029 306.95 87.2095 306.945L87.2115 306.944Z" fill="#ACC6E5"/>
<path d="M75.8324 265.528L75.3925 272.642L73.1736 308.485C73.1598 308.693 72.9866 308.849 72.779 308.84L72.3008 308.817C72.0951 308.808 71.9347 308.634 71.9416 308.428L72.9601 275.64L73.2789 265.408L75.8343 265.528H75.8324Z" fill="white"/>
<g style="mix-blend-mode:multiply" opacity="0.2">
<path d="M75.8303 265.527L75.3905 272.641L72.957 275.64L73.2749 265.408L75.8303 265.527Z" fill="#003889"/>
</g>
<path d="M109.816 308.428C109.822 308.634 109.662 308.807 109.454 308.817L108.976 308.84C108.771 308.849 108.594 308.693 108.582 308.485L106.374 272.825L105.922 265.528L108.477 265.408L108.633 270.395L109.816 308.428Z" fill="white"/>
<g style="mix-blend-mode:multiply" opacity="0.2">
<path d="M108.634 270.396C107.995 271.09 107.146 272.012 106.374 272.825L105.922 265.528L108.477 265.408L108.633 270.395L108.634 270.396Z" fill="#003889"/>
</g>
<path d="M65.8228 224.843H89.1938C89.9711 224.843 90.655 225.359 90.8695 226.107L100.817 260.849H107.96C108.877 260.849 109.621 261.594 109.621 262.512V264.685C109.621 265.603 108.877 266.348 107.96 266.348H72.7757C71.6727 266.348 70.73 265.552 70.543 264.463L64.1038 226.882C63.9207 225.816 64.7414 224.842 65.8218 224.842L65.8228 224.843Z" fill="white"/>
<path opacity="0.3" d="M154.59 200.094H132.561C131.23 200.094 130.151 201.205 130.151 202.575V208.332H119.14V173.906H129.439C130.77 173.906 131.849 172.795 131.849 171.424V159.481C131.849 158.111 130.77 157 129.439 157H107.41C106.079 157 105 158.111 105 159.481V171.424C105 172.795 106.079 173.906 107.41 173.906H117.709V209.805H130.151V214.519C130.151 215.889 131.23 217 132.561 217H154.59C155.921 217 157 215.889 157 214.519V202.576C157 201.205 155.921 200.094 154.59 200.094V200.094Z" fill="white"/>
<g clip-path="url(#clip0_229_3566)">
<path opacity="0.1" d="M231.994 276.096C270.983 285.211 309.979 260.993 319.094 222.004C328.21 183.015 303.992 144.018 265.003 134.903C226.013 125.788 187.017 150.006 177.902 188.995C168.786 227.984 193.004 266.981 231.994 276.096Z" fill="#F4F9FF"/>
<path d="M252.964 160.501C249.146 159.716 245.315 158.983 241.474 158.3C237.855 157.663 234.12 160.069 233.172 163.612C227.183 186.124 221.882 208.798 217.27 231.633C216.549 235.229 218.83 239.04 222.356 240.074C227.288 241.511 232.241 242.86 237.215 244.12C242.216 216.137 247.348 188.225 252.964 160.501Z" fill="url(#paint0_linear_229_3566)"/>
<path d="M276.536 166.033C274.913 165.604 273.288 165.185 271.661 164.775C264.384 192.19 256.748 219.564 249.079 246.948C251.784 247.553 254.496 248.132 257.213 248.685C260.81 249.415 264.499 247.03 265.421 243.422C271.239 220.514 276.618 197.503 281.559 174.39C282.333 170.747 280.084 166.974 276.536 166.033Z" fill="url(#paint1_linear_229_3566)"/>
<path d="M257.203 241.75C263.134 217.555 268.792 193.297 274.179 168.974C274.588 167.118 273.459 165.23 271.656 164.775C265.456 163.213 259.225 161.788 252.961 160.501C251.138 160.127 249.279 161.327 248.817 163.165C242.767 187.255 237.096 211.435 231.804 235.702C231.013 239.357 233.656 243.218 237.212 244.12C241.153 245.118 245.107 246.061 249.074 246.948C252.654 247.748 256.305 245.392 257.203 241.75Z" fill="url(#paint2_linear_229_3566)"/>
<path d="M275.806 169.35C275.806 169.349 274.183 168.958 274.18 168.974C270.508 172.689 266.776 176.438 263.013 180.2C267.397 181.241 271.772 182.322 276.138 183.442C276.872 180.136 277.599 176.828 278.318 173.518C278.714 171.691 277.589 169.818 275.806 169.35Z" fill="url(#paint3_linear_229_3566)"/>
<path d="M248.32 165.166C248.05 164.732 247.78 164.299 247.511 163.867C247.051 163.129 246.305 162.62 245.435 162.452C243.833 162.143 242.229 161.842 240.624 161.549C238.808 161.22 236.949 162.411 236.479 164.196C235.631 167.431 234.794 170.67 233.971 173.911C240.379 175.166 246.767 176.503 253.136 177.925C251.509 173.634 249.9 169.375 248.32 165.166Z" fill="url(#paint4_linear_229_3566)"/>
<path d="M274.191 168.932C273.152 168.664 272.112 168.399 271.072 168.138C270.213 167.922 269.309 168.068 268.558 168.542C266.866 169.61 265.165 170.683 263.458 171.761C262.322 172.478 260.949 172.711 259.646 172.412C257.688 171.963 255.728 171.524 253.766 171.096C252.459 170.81 251.332 170.019 250.635 168.896C249.861 167.648 249.089 166.405 248.32 165.169C247.394 168.87 246.477 172.574 245.569 176.28C254.157 178.103 262.709 180.076 271.227 182.201C271.235 182.202 274.201 168.936 274.191 168.932Z" fill="url(#paint5_linear_229_3566)"/>
<path d="M258.291 165.118C257.391 164.918 256.481 165.5 256.26 166.414C256.039 167.328 256.593 168.229 257.496 168.431C258.4 168.632 259.308 168.055 259.526 167.14C259.743 166.224 259.191 165.317 258.291 165.118Z" fill="url(#paint6_linear_229_3566)"/>
<path d="M258.291 165.118C257.391 164.918 256.481 165.5 256.26 166.414C256.039 167.328 256.593 168.229 257.496 168.431C258.4 168.632 259.308 168.055 259.526 167.14C259.743 166.224 259.191 165.317 258.291 165.118Z" fill="url(#paint7_radial_229_3566)"/>
<path d="M235.049 236.548C234.644 238.379 235.764 240.242 237.551 240.694C239.486 241.183 241.423 241.66 243.363 242.124C245.156 242.553 246.961 241.403 247.393 239.57C247.824 237.737 246.706 235.912 244.899 235.481C242.946 235.015 240.994 234.54 239.046 234.054C237.243 233.606 235.453 234.717 235.049 236.548Z" fill="url(#paint8_linear_229_3566)"/>
<path d="M249.71 214.761C252.777 221.599 255.825 228.426 258.817 235.145C259.367 235.264 259.916 235.382 260.466 235.499C262.286 235.887 264.129 234.722 264.575 232.907C265.717 228.258 266.844 223.607 267.957 218.951C261.867 217.587 255.785 216.19 249.71 214.761Z" fill="url(#paint9_linear_229_3566)"/>
<path d="M226.324 205.641C225.027 211.335 223.769 217.039 222.548 222.752C222.164 224.556 223.31 226.427 225.107 226.918C227.82 227.656 230.538 228.378 233.26 229.081C236.958 222.761 240.734 216.408 244.543 210.037C238.465 208.594 232.392 207.129 226.324 205.641Z" fill="url(#paint10_linear_229_3566)"/>
<path d="M237.914 208.455C236.332 215.323 234.78 222.199 233.258 229.082C241.737 231.274 250.256 233.294 258.815 235.145C260.484 228.275 262.131 221.4 263.756 214.52C255.132 212.544 246.518 210.522 237.914 208.455Z" fill="url(#paint11_linear_229_3566)"/>
<path d="M276.137 183.442C276.542 181.617 275.407 179.755 273.603 179.296C273.058 179.157 272.513 179.019 271.968 178.882C265.058 184.012 258.011 189.25 250.951 194.472C254.953 202.249 258.979 210.089 262.973 217.827C264.633 218.204 266.293 218.579 267.954 218.951C270.777 207.136 273.505 195.3 276.137 183.442Z" fill="url(#paint12_linear_229_3566)"/>
<path d="M254.687 195.338C251.88 187.824 249.094 180.339 246.375 172.988C243.624 172.412 240.868 171.853 238.108 171.312C236.281 170.956 234.423 172.124 233.968 173.912C231.289 184.458 228.741 195.034 226.326 205.642C225.916 207.441 227.067 209.273 228.891 209.727C231.645 210.411 234.401 211.088 237.158 211.758C242.958 206.334 248.832 200.836 254.687 195.338Z" fill="url(#paint13_linear_229_3566)"/>
<path d="M271.971 178.884C263.479 176.748 254.947 174.783 246.375 172.988C243.195 185.887 240.122 198.81 237.158 211.759C245.749 213.848 254.355 215.871 262.976 217.829C266.052 204.866 269.051 191.884 271.971 178.884Z" fill="url(#paint14_linear_229_3566)"/>
<path d="M257.152 193.673C254.538 193.062 251.922 192.457 249.305 191.858C248.902 192.288 248.609 192.821 248.469 193.412C247.031 199.507 245.605 205.604 244.193 211.704C243.919 212.888 244.297 214.134 245.184 214.971C247.095 216.774 249.004 218.575 250.911 220.369C252.991 211.47 255.071 202.571 257.152 193.673Z" fill="url(#paint15_linear_229_3566)"/>
<path d="M255.043 197.224C254.641 197.653 254.349 198.187 254.21 198.78C252.78 204.888 251.353 210.997 249.929 217.106C249.653 218.292 250.028 219.537 250.913 220.37C253.564 222.863 256.21 225.343 258.851 227.795C259.286 228.2 259.814 228.472 260.377 228.599C266.692 219.987 273.028 211.42 279.216 202.98C271.167 201.024 263.11 199.105 255.043 197.224Z" fill="url(#paint16_linear_229_3566)"/>
<path d="M286.683 200.848C280.463 199.279 274.235 197.745 267.999 196.245C265.513 207.042 262.972 217.827 260.378 228.599C260.956 228.73 261.57 228.71 262.16 228.525C268.169 226.642 274.205 224.749 280.236 222.905C281.407 222.546 282.302 221.616 282.581 220.461C284.022 214.513 285.415 208.553 286.761 202.582C286.892 202.003 286.859 201.405 286.683 200.848Z" fill="url(#paint17_linear_229_3566)"/>
<path d="M272.032 186.301C271.149 185.455 269.898 185.145 268.743 185.488C262.804 187.255 256.815 189.087 250.81 190.925C250.227 191.104 249.712 191.43 249.309 191.86C251.22 193.641 253.132 195.431 255.045 197.225C262.652 195.351 270.242 193.496 277.754 191.769C275.843 189.946 273.936 188.121 272.032 186.301Z" fill="url(#paint18_linear_229_3566)"/>
<path d="M285.74 199.353C285.735 199.362 277.747 191.774 277.752 191.768C276.866 190.922 275.611 190.605 274.459 190.941C268.525 192.67 262.541 194.474 256.542 196.293C255.959 196.47 255.444 196.795 255.043 197.224C258.53 200.495 262.021 203.778 265.513 207.044C272.603 204.908 279.677 202.811 286.681 200.848C286.506 200.291 286.185 199.773 285.74 199.353Z" fill="url(#paint19_linear_229_3566)"/>
</g>
<g style="mix-blend-mode:multiply" opacity="0.22">
<path d="M371.245 199.37C371.096 198.766 370.967 198.253 370.866 197.852C371.521 197.556 371.801 197.355 371.801 197.355C369.797 184.572 360.813 180.182 357.263 178.928L356.947 177.811L356.08 178.547C355.869 177.845 355.679 176.913 355.625 175.727C355.582 174.863 355.623 173.858 355.772 172.723C355.945 172.464 356.081 172.221 356.185 172.004C357.143 172.373 358.016 171.502 359.206 170.466C360.764 169.111 363.199 164.787 361.704 160.113C360.209 155.438 348.341 150.056 345.415 155.302C343.196 159.279 345.005 160.505 346.01 160.865C345.392 162.814 341.35 176.339 348.214 176.118C348.381 176.113 348.541 176.102 348.701 176.092C348.677 176.248 348.639 176.429 348.575 176.636C348.486 176.929 348.345 177.27 348.136 177.634L347.91 176.819L346.312 178.424C342.198 179.329 333.958 182.58 331.328 194.237L331.893 194.506L331.375 195.722L330.177 198.537L317.705 186.103C317.705 186.103 316.953 180.617 313.598 180.843C310.245 181.071 315.259 182.369 313.745 183.535C312.227 184.698 304.357 184.856 304.375 186.134C304.393 187.413 311.5 187.232 313.02 189.008C314.541 190.782 328.865 210.938 333.146 209.62C334.221 209.289 335.325 208.617 336.389 207.706C335.974 214.573 336.048 220.158 337.061 220.552C337.186 220.6 337.426 220.657 337.757 220.717L337.688 221.248L327.956 296.359C327.956 296.359 328.205 296.409 328.609 296.483L328.376 297.435L327.604 300.591L326.98 300.496C326.759 300.877 326.446 301.336 326.029 301.8C325.819 300.769 325.264 300.116 324.661 300.054C324.221 300.01 323.655 300.27 323.495 300.68C323.282 301.23 323.814 302.03 324.857 302.851C324.146 303.363 323.264 303.8 322.175 304.036C318.155 304.905 316.011 305.463 315.53 307.737C315.124 309.654 328.851 308.964 333.171 308.7C333.869 308.657 334.419 308.041 334.377 307.345L334.371 301.623L333.796 301.535L334.398 299.004L334.879 296.983C335.116 296.931 335.301 296.856 335.411 296.752C335.75 296.429 337.35 291.24 339.288 284.632C342.84 272.529 347.52 255.672 347.633 255.267L347.636 255.26L350.315 297.802C350.315 297.802 350.69 297.829 351.283 297.867V298.487L351.29 300.53L351.038 300.495C350.873 300.779 350.688 301.106 350.46 301.447C350.206 300.622 349.714 300.107 349.182 300.053C348.743 300.009 348.176 300.269 348.016 300.679C347.809 301.214 348.305 301.987 349.294 302.784C348.662 303.325 347.832 303.79 346.697 304.035C342.677 304.904 340.533 305.462 340.052 307.736C339.646 309.653 353.373 308.963 357.693 308.699C358.392 308.656 358.942 308.04 358.899 307.344L358.551 301.543L358.269 301.503L358.358 299.642L358.435 298.05C359.001 298.008 359.359 297.93 359.365 297.801L362.53 231.879C362.605 230.314 362.675 228.867 362.738 227.559C367.288 221.553 373.583 213.051 373.726 211.796C373.89 210.365 372.185 203.191 371.241 199.368L371.245 199.37Z" fill="#003889"/>
</g>
<path d="M339.347 161.008C339.347 161.008 335.242 160.548 337.917 155.302C340.591 150.056 352.718 155.438 354.437 160.113C356.156 164.787 353.929 169.111 352.437 170.466C350.944 171.821 349.983 172.903 348.531 171.279C347.08 169.656 339.347 161.008 339.347 161.008Z" fill="#1F3A6F"/>
<path d="M326.621 302.948L333.004 303.218L333.804 299.006L334.533 295.166H328.151L327.705 297.435L326.621 302.948Z" fill="white"/>
<path d="M327.707 297.435L333.806 299.006L334.535 295.166H328.153L327.707 297.435Z" fill="#BACAE2"/>
<path d="M350.517 295.515L350.666 298.488L350.844 301.993C350.844 301.993 357.796 302.498 357.796 302.321V294.893L351.235 295.224L350.516 295.515H350.517Z" fill="white"/>
<path d="M350.516 295.515L350.665 298.488L357.795 299.643V294.893L351.235 295.224L350.516 295.515Z" fill="#BACAE2"/>
<path d="M298.359 186.135C298.438 187.414 305.537 187.232 307.143 189.008C308.748 190.783 324.04 210.938 328.258 209.62C329.41 209.261 330.578 208.502 331.677 207.464C334.602 204.701 337.044 199.957 337.451 195.447L327.233 191.983L325.822 195.722L324.759 198.537L311.69 186.103C311.69 186.103 310.674 180.617 307.33 180.843C303.988 181.071 309.063 182.368 307.605 183.535C306.144 184.698 298.282 184.856 298.36 186.134L298.359 186.135Z" fill="#FDC8AA"/>
<path d="M325.82 195.722L330.052 200.331L331.675 207.464C334.601 204.701 337.043 199.956 337.449 195.447L327.231 191.982L325.82 195.721V195.722Z" fill="#EFA37D"/>
<path d="M327.234 296.359C327.234 296.359 333.793 297.672 334.711 296.753C335.034 296.43 336.385 291.241 338.006 284.633C340.976 272.529 344.848 255.673 344.939 255.268L344.942 255.26L349.665 297.803C349.665 297.803 358.715 298.46 358.715 297.803V220.071L333.531 219.152L333.361 221.248L327.235 296.36L327.234 296.359Z" fill="#1F3A6F"/>
<path d="M338.005 284.633C340.975 272.529 344.847 255.673 344.938 255.268L344.941 255.26L342.973 236.746L338.004 284.633H338.005Z" fill="#072542"/>
<path d="M352.09 224.153L351.696 229.001L354.386 233.597L358.714 231.882V220.073L333.53 219.154L333.359 221.25L352.091 224.155L352.09 224.153Z" fill="#072542"/>
<path d="M342.299 178.076C342.299 178.076 328.502 178.481 325.703 194.237L333.245 197.75L342.299 178.076Z" fill="#E59D29"/>
<path d="M332.698 220.553C333.986 221.044 346.547 222.225 354.475 221.918C355.469 221.878 356.39 221.818 357.205 221.729C359.165 221.513 360.526 221.143 360.857 220.553C361.377 219.629 361.455 216.554 361.254 212.669C361.096 209.649 360.768 206.138 360.343 202.768C359.664 197.34 358.736 192.277 357.873 190.206L349.425 178.491L341.859 177.697C341.859 177.697 333.312 179.586 332.263 191.141C331.214 202.696 330.862 219.851 332.699 220.553H332.698Z" fill="#F4B545"/>
<path d="M342.364 188.908C342.75 188.908 343.063 188.595 343.063 188.208C343.063 187.821 342.75 187.508 342.364 187.508C341.977 187.508 341.664 187.821 341.664 188.208C341.664 188.595 341.977 188.908 342.364 188.908Z" fill="white"/>
<path d="M341.661 195.43C342.047 195.43 342.36 195.116 342.36 194.73C342.36 194.343 342.047 194.029 341.661 194.029C341.274 194.029 340.961 194.343 340.961 194.73C340.961 195.116 341.274 195.43 341.661 195.43Z" fill="white"/>
<path d="M341.157 202.826C341.543 202.826 341.856 202.513 341.856 202.126C341.856 201.739 341.543 201.426 341.157 201.426C340.77 201.426 340.457 201.739 340.457 202.126C340.457 202.513 340.77 202.826 341.157 202.826Z" fill="white"/>
<path d="M341.661 212.498C342.047 212.498 342.36 212.185 342.36 211.798C342.36 211.411 342.047 211.098 341.661 211.098C341.274 211.098 340.961 211.411 340.961 211.798C340.961 212.185 341.274 212.498 341.661 212.498Z" fill="white"/>
<path d="M355.205 202.29C355.37 202.29 356.354 209.835 356.354 209.835L354.476 221.918L354.321 222.905H356.682L357.206 221.728L361.255 212.668C361.097 209.648 360.77 206.138 360.344 202.768L357.535 193.632L351.207 190.836L352.188 201.797C352.188 201.797 355.043 202.291 355.205 202.291V202.29Z" fill="#E59D29"/>
<path d="M351.695 229L354.385 233.596C354.385 233.596 368.813 213.769 368.945 211.8C369.039 210.369 366.991 203.194 365.862 199.371C365.437 197.929 365.141 196.963 365.141 196.963L356.287 198.867L357.973 204.91L359.107 208.978L351.695 229.002V229Z" fill="#FDC8AA"/>
<path d="M356.289 198.865L357.976 204.908L365.864 199.369C365.439 197.927 365.143 196.961 365.143 196.961L356.289 198.865Z" fill="#EFA37D"/>
<path d="M349.422 178.492C349.422 178.492 363.04 181.337 366.32 197.356C366.32 197.356 363.434 199.522 353.859 200.113L351.105 190.397" fill="#F4B545"/>
<path d="M315.357 307.739C315.729 305.464 317.846 304.906 321.824 304.037C324.497 303.453 325.855 301.63 326.458 300.496L333.905 301.624L334.186 307.347C334.261 308.042 333.741 308.658 333.044 308.701C328.736 308.965 315.043 309.656 315.357 307.739Z" fill="#15315E"/>
<path d="M325.538 303.789C325.501 303.789 325.465 303.78 325.432 303.759C323.496 302.609 322.506 301.433 322.785 300.613C322.962 300.092 323.627 299.796 324.139 299.848C325.003 299.934 325.919 301.063 325.916 302.983C325.916 303.098 325.822 303.191 325.708 303.191C325.593 303.191 325.5 303.097 325.5 302.982C325.502 301.367 324.789 300.331 324.097 300.261C323.753 300.227 323.287 300.427 323.179 300.747C323.017 301.224 323.719 302.257 325.644 303.4C325.742 303.46 325.775 303.587 325.717 303.686C325.678 303.752 325.609 303.789 325.538 303.789Z" fill="white"/>
<path d="M323.673 304.976C323.614 304.976 323.555 304.952 323.514 304.903L322.51 303.714C322.436 303.626 322.447 303.494 322.534 303.42C322.622 303.346 322.753 303.357 322.828 303.445L323.831 304.634C323.905 304.721 323.894 304.853 323.807 304.927C323.767 304.96 323.72 304.976 323.673 304.976Z" fill="white"/>
<path d="M321.685 305.471C321.626 305.471 321.567 305.446 321.525 305.397L320.522 304.208C320.448 304.12 320.459 303.988 320.546 303.914C320.634 303.84 320.765 303.851 320.839 303.939L321.843 305.128C321.917 305.215 321.906 305.347 321.819 305.421C321.779 305.454 321.732 305.471 321.685 305.471Z" fill="white"/>
<path d="M319.302 306.196C319.218 306.196 319.14 306.146 319.108 306.063L318.549 304.611C318.508 304.504 318.561 304.384 318.668 304.342C318.775 304.301 318.896 304.354 318.937 304.461L319.496 305.913C319.537 306.021 319.484 306.141 319.377 306.182C319.352 306.192 319.327 306.196 319.302 306.196Z" fill="white"/>
<path d="M339.876 307.739C340.248 305.464 342.366 304.906 346.343 304.037C349.017 303.453 349.911 301.63 350.514 300.496L358.078 301.545L358.705 307.347C358.78 308.042 358.26 308.658 357.564 308.701C353.256 308.965 339.563 309.656 339.876 307.739Z" fill="#15315E"/>
<path d="M350.057 303.789C350.021 303.789 349.985 303.78 349.951 303.759C348.016 302.609 347.026 301.433 347.304 300.613C347.481 300.092 348.146 299.796 348.658 299.848C349.522 299.934 350.438 301.063 350.436 302.983C350.436 303.098 350.343 303.191 350.229 303.191C350.113 303.191 350.021 303.097 350.021 302.982C350.023 301.367 349.309 300.331 348.618 300.261C348.273 300.227 347.808 300.427 347.7 300.747C347.537 301.224 348.24 302.257 350.165 303.4C350.263 303.46 350.295 303.587 350.237 303.686C350.198 303.752 350.129 303.789 350.058 303.789H350.057Z" fill="white"/>
<path d="M348.192 304.976C348.133 304.976 348.074 304.952 348.033 304.903L347.029 303.714C346.956 303.626 346.966 303.494 347.054 303.42C347.142 303.346 347.272 303.357 347.347 303.445L348.351 304.634C348.425 304.721 348.414 304.853 348.326 304.927C348.287 304.96 348.24 304.976 348.192 304.976Z" fill="white"/>
<path d="M346.204 305.471C346.145 305.471 346.086 305.446 346.045 305.397L345.041 304.208C344.967 304.12 344.978 303.988 345.066 303.914C345.153 303.84 345.284 303.851 345.359 303.939L346.363 305.128C346.436 305.215 346.426 305.347 346.338 305.421C346.299 305.454 346.251 305.471 346.204 305.471Z" fill="white"/>
<path d="M343.822 306.196C343.739 306.196 343.66 306.146 343.629 306.063L343.069 304.611C343.027 304.504 343.081 304.384 343.188 304.342C343.295 304.301 343.415 304.354 343.456 304.461L344.016 305.913C344.058 306.021 344.004 306.141 343.897 306.182C343.873 306.192 343.847 306.196 343.822 306.196Z" fill="white"/>
<path d="M339.75 179.803L343.728 183.83L350.496 180.176C350.496 180.176 349.39 178.779 349.106 175.728C349.008 174.722 349.004 173.54 349.158 172.166L342.213 175.55C342.213 175.55 342.27 175.985 342.102 176.638C341.886 177.479 341.302 178.687 339.75 179.804V179.803Z" fill="#FDC8AA"/>
<path d="M341.445 176.818L337.477 181.007L341.047 181.16L343.726 183.831L341.445 176.818Z" fill="white"/>
<path d="M350.532 177.811L352.208 182.883L348.529 181.796L343.73 183.831L350.532 177.811Z" fill="white"/>
<path d="M342.102 176.636C344.464 177.291 347.406 176.395 349.106 175.726C349.008 174.72 349.003 173.538 349.158 172.164L342.213 175.549C342.213 175.549 342.27 175.983 342.102 176.636Z" fill="#EFA37D"/>
<path d="M338.846 160.632C338.846 160.632 334.332 176.358 341.718 176.12C349.104 175.881 349.772 171.107 349.772 171.107C349.772 171.107 352.255 169.504 351.766 166.654C351.278 163.803 348.247 166.701 348.247 166.701C348.247 166.701 351.547 160.328 338.845 160.632H338.846Z" fill="#FDC8AA"/>
<path d="M348.837 167.15C348.837 167.15 349.882 166.199 350.466 166.802C351.052 167.405 350.195 169.668 349.719 169.881C349.242 170.094 350.039 168.12 349.94 167.901C349.841 167.682 349.651 166.911 348.836 167.15H348.837Z" fill="#EFA37D"/>
<g style="mix-blend-mode:multiply" opacity="0.2">
<path d="M290.281 55.2559L310.515 79.3342L308.972 111.274L344.316 68.3199L290.281 55.2559Z" fill="#003889"/>
</g>
<path d="M343.872 52.5224L288.531 47.2812L311.98 68.2361L314.988 100.07L343.872 52.5224Z" fill="#F4B545"/>
<path d="M311.98 68.2371L343.873 52.5234L314.989 100.071L311.98 68.2371Z" fill="#E59D29"/>
<path d="M246.686 62.7435C250.817 62.7435 254.166 59.3915 254.166 55.2565C254.166 51.1216 250.817 47.7695 246.686 47.7695C242.556 47.7695 239.207 51.1216 239.207 55.2565C239.207 59.3915 242.556 62.7435 246.686 62.7435Z" fill="white"/>
<path d="M26.5275 199.176C27.3178 195.118 24.6717 191.186 20.6172 190.395C16.5628 189.604 12.6353 192.253 11.845 196.311C11.0547 200.37 13.7008 204.301 17.7553 205.093C21.8097 205.884 25.7372 203.235 26.5275 199.176Z" fill="#C4D7F2"/>
<path d="M182.452 34.0299C188.258 34.0299 192.966 29.3178 192.966 23.5052C192.966 17.6925 188.258 12.9805 182.452 12.9805C176.645 12.9805 171.938 17.6925 171.938 23.5052C171.938 29.3178 176.645 34.0299 182.452 34.0299Z" fill="#C4D7F2"/>
<g style="mix-blend-mode:multiply" opacity="0.22">
<path d="M183.822 297.301L181.732 297.285L180.676 289.138L179.978 283.754L179.238 278.05L178.55 272.742L177.791 266.879L177.244 262.658L176.377 255.971L168.482 255.91L164.895 264.871L162.716 270.315L159.996 277.107L157.888 282.372L155.282 288.883L153.222 294.027L152.01 297.056L149.92 297.04C148.814 297.031 147.801 297.887 147.658 298.951L147.412 300.778C147.268 301.842 148.048 302.71 149.154 302.719L183.056 302.98C184.162 302.989 185.175 302.133 185.318 301.069L185.564 299.242C185.708 298.178 184.928 297.31 183.822 297.301Z" fill="#003889"/>
</g>
<path d="M181.684 298.939L150.973 298.693L162.735 253.949L170.638 254.012L181.684 298.939Z" fill="#C4D7F2"/>
<path d="M183.262 302.98L149.328 302.708C148.221 302.699 147.331 301.794 147.34 300.686L147.355 298.783C147.364 297.675 148.268 296.784 149.375 296.793L183.309 297.065C184.416 297.074 185.306 297.979 185.297 299.087L185.282 300.99C185.273 302.098 184.369 302.989 183.262 302.98Z" fill="#C4D7F2"/>
<path d="M177.754 282.953C171.052 287.019 162.667 289.167 153.706 288.295L152.297 293.653C162.118 294.824 171.444 292.779 179.133 288.561L177.754 282.953Z" fill="white"/>
<path d="M176.292 277.011L174.932 271.482C169.676 274.297 163.517 275.968 156.93 276.029L155.488 281.514C163.005 281.709 170.118 280.041 176.292 277.011Z" fill="white"/>
<path d="M172.084 259.902C168.477 261.598 164.496 262.77 160.28 263.283L158.789 268.953C163.989 268.585 168.933 267.336 173.429 265.375L172.083 259.902H172.084Z" fill="white"/>
<defs>
<linearGradient id="paint0_linear_229_3566" x1="196.526" y1="226.745" x2="434.495" y2="78.9608" gradientUnits="userSpaceOnUse">
<stop stop-color="#1805B0"/>
<stop offset="1" stop-color="#FC54FF"/>
</linearGradient>
<linearGradient id="paint1_linear_229_3566" x1="205.304" y1="244.537" x2="346.464" y2="156.873" gradientUnits="userSpaceOnUse">
<stop stop-color="#1805B0"/>
<stop offset="1" stop-color="#FC54FF"/>
</linearGradient>
<linearGradient id="paint2_linear_229_3566" x1="179.318" y1="248.809" x2="398.086" y2="112.949" gradientUnits="userSpaceOnUse">
<stop stop-color="#1805B0"/>
<stop offset="1" stop-color="#FC54FF"/>
</linearGradient>
<linearGradient id="paint3_linear_229_3566" x1="126.051" y1="268.807" x2="344.463" y2="133.169" gradientUnits="userSpaceOnUse">
<stop stop-color="#FC54FF"/>
<stop offset="0.4062" stop-color="#FD9BFF"/>
<stop offset="1" stop-color="white"/>
</linearGradient>
<linearGradient id="paint4_linear_229_3566" x1="183.532" y1="208.542" x2="385.407" y2="83.1728" gradientUnits="userSpaceOnUse">
<stop stop-color="#FC54FF"/>
<stop offset="0.4062" stop-color="#FD9BFF"/>
<stop offset="1" stop-color="white"/>
</linearGradient>
<linearGradient id="paint5_linear_229_3566" x1="139.813" y1="248.183" x2="384.293" y2="96.3546" gradientUnits="userSpaceOnUse">
<stop stop-color="#FC54FF"/>
<stop offset="0.4062" stop-color="#FD9BFF"/>
<stop offset="1" stop-color="white"/>
</linearGradient>
<linearGradient id="paint6_linear_229_3566" x1="250.654" y1="171.273" x2="276.498" y2="155.223" gradientUnits="userSpaceOnUse">
<stop stop-color="#1805B0"/>
<stop offset="1" stop-color="#FC54FF"/>
</linearGradient>
<radialGradient id="paint7_radial_229_3566" cx="0" cy="0" r="1" gradientUnits="userSpaceOnUse" gradientTransform="translate(257.893 166.774) rotate(13.1587) scale(8.10812 8.1081)">
<stop stop-color="#170794" stop-opacity="0"/>
<stop offset="1" stop-color="#170794"/>
</radialGradient>
<linearGradient id="paint8_linear_229_3566" x1="239.306" y1="239.25" x2="322.091" y2="187.839" gradientUnits="userSpaceOnUse">
<stop stop-color="#1805B0"/>
<stop offset="1" stop-color="#FC54FF"/>
</linearGradient>
<linearGradient id="paint9_linear_229_3566" x1="158.843" y1="285.464" x2="288.928" y2="204.677" gradientUnits="userSpaceOnUse">
<stop stop-color="#1805B0"/>
<stop offset="1" stop-color="#FC54FF"/>
</linearGradient>
<linearGradient id="paint10_linear_229_3566" x1="169.298" y1="254.929" x2="297.834" y2="175.105" gradientUnits="userSpaceOnUse">
<stop stop-color="#1805B0"/>
<stop offset="1" stop-color="#FC54FF"/>
</linearGradient>
<linearGradient id="paint11_linear_229_3566" x1="157.593" y1="278.171" x2="300.907" y2="189.17" gradientUnits="userSpaceOnUse">
<stop stop-color="#1805B0"/>
<stop offset="1" stop-color="#FC54FF"/>
</linearGradient>
<linearGradient id="paint12_linear_229_3566" x1="25.1301" y1="350.963" x2="273.043" y2="197.003" gradientUnits="userSpaceOnUse">
<stop stop-color="#FC54FF"/>
<stop offset="0.4062" stop-color="#FD9BFF"/>
<stop offset="1" stop-color="white"/>
</linearGradient>
<linearGradient id="paint13_linear_229_3566" x1="73.9123" y1="292.655" x2="277.59" y2="166.166" gradientUnits="userSpaceOnUse">
<stop stop-color="#FC54FF"/>
<stop offset="0.4062" stop-color="#FD9BFF"/>
<stop offset="1" stop-color="white"/>
</linearGradient>
<linearGradient id="paint14_linear_229_3566" x1="-47.067" y1="382.799" x2="291.793" y2="172.358" gradientUnits="userSpaceOnUse">
<stop stop-color="#FC54FF"/>
<stop offset="0.4062" stop-color="#FD9BFF"/>
<stop offset="1" stop-color="white"/>
</linearGradient>
<linearGradient id="paint15_linear_229_3566" x1="243.119" y1="210.454" x2="314.658" y2="166.026" gradientUnits="userSpaceOnUse">
<stop stop-color="#FC54FF"/>
<stop offset="0.4062" stop-color="#FD9BFF"/>
<stop offset="1" stop-color="white"/>
</linearGradient>
<linearGradient id="paint16_linear_229_3566" x1="215.538" y1="239.102" x2="408.18" y2="119.466" gradientUnits="userSpaceOnUse">
<stop stop-color="#FC54FF"/>
<stop offset="0.4062" stop-color="#FD9BFF"/>
<stop offset="1" stop-color="white"/>
</linearGradient>
<linearGradient id="paint17_linear_229_3566" x1="221.06" y1="242.595" x2="338.234" y2="169.827" gradientUnits="userSpaceOnUse">
<stop stop-color="#FC54FF"/>
<stop offset="0.4062" stop-color="#FD9BFF"/>
<stop offset="1" stop-color="white"/>
</linearGradient>
<linearGradient id="paint18_linear_229_3566" x1="221.946" y1="217.571" x2="301.795" y2="167.983" gradientUnits="userSpaceOnUse">
<stop stop-color="#FC54FF"/>
<stop offset="0.4062" stop-color="#FD9BFF"/>
<stop offset="1" stop-color="white"/>
</linearGradient>
<linearGradient id="paint19_linear_229_3566" x1="162.398" y1="266.327" x2="342.173" y2="154.682" gradientUnits="userSpaceOnUse">
<stop stop-color="#FC54FF"/>
<stop offset="0.4062" stop-color="#FD9BFF"/>
<stop offset="1" stop-color="white"/>
</linearGradient>
<clipPath id="clip0_229_3566">
<rect width="145" height="145" fill="white" transform="translate(194.406 118.398) rotate(13.1587)"/>
</clipPath>
</defs>
</svg>
