<svg width="706" height="415" viewBox="0 0 706 415" fill="none" xmlns="http://www.w3.org/2000/svg">
<path d="M70.7564 1.0332H20.5C9.4543 1.0332 0.5 9.98751 0.5 21.0332V85.0332C0.5 96.0789 9.45431 105.033 20.5 105.033H137.5" stroke="#2486F2" stroke-opacity="0.6" stroke-dasharray="5 5"/>
<path d="M635.244 105.033H685.5C696.546 105.033 705.5 113.988 705.5 125.033V190.033C705.5 201.079 696.546 210.033 685.5 210.033H568.5" stroke="#2486F2" stroke-opacity="0.6" stroke-dasharray="5 5"/>
<path d="M70.7564 205.033H20.5C9.4543 205.033 0.5 213.988 0.5 225.033V287.033C0.5 298.079 9.45431 307.033 20.5 307.033H137.5" stroke="#2486F2" stroke-opacity="0.6" stroke-dasharray="5 5"/>
<path d="M634.756 309.033H684.5C695.546 309.033 704.5 317.988 704.5 329.033V394.033C704.5 405.079 695.546 414.033 684.5 414.033H568.5" stroke="#2486F2" stroke-opacity="0.6" stroke-dasharray="5 5"/>
</svg>
