<svg width="1047" height="785" viewBox="0 0 1047 785" fill="none" xmlns="http://www.w3.org/2000/svg">
<path d="M1.27199 1.27199V784.59M44.7898 1.27199V784.59M88.3075 1.27199V784.59M131.825 1.27199V784.59M175.343 1.27199V784.59M218.861 1.27199V784.59M262.378 1.27199V784.59M305.896 1.27199V784.59M349.414 1.27199V784.59M392.931 1.27199V784.59M436.449 1.27199V784.59M479.967 1.27199V784.59M523.484 1.27199V784.59M567.002 1.27199V784.59M610.52 1.27199V784.59M654.037 1.27199V784.59M697.555 1.27199V784.59M741.073 1.27199V784.59M784.591 1.27199V784.59M828.108 1.27199V784.59M871.626 1.27199V784.59M915.144 1.27199V784.59M958.661 1.27199V784.59M1002.18 1.27199V784.59M1045.7 1.27199V784.59M1 1H1045.42M1.00011 44.5177H1045.42M1.00011 88.0353H1045.42M1.00011 131.553H1045.42M1.00011 175.071H1045.42M1.00011 218.588H1045.42M1.00011 262.106H1045.42M1.00011 305.624H1045.42M1.00011 349.141H1045.42M1.00011 392.659H1045.42M1.00011 436.177H1045.42M1.00011 479.694H1045.42M1.00011 523.212H1045.42M1.00011 566.73H1045.42M1.00011 610.247H1045.42M1.00011 653.765H1045.42M1.00011 697.283H1045.42M1.00011 740.8H1045.42M1.00011 784.318H1045.42" stroke="url(#paint0_radial_229_3349)"/>
<defs>
<radialGradient id="paint0_radial_229_3349" cx="0" cy="0" r="1" gradientUnits="userSpaceOnUse" gradientTransform="translate(523.348 392.795) rotate(90) scale(391.795 391.795)">
<stop stop-opacity="0.15"/>
<stop offset="0.189215" stop-opacity="0.1"/>
<stop offset="0.6033" stop-opacity="0"/>
</radialGradient>
</defs>
</svg>
