<svg width="133" height="133" viewBox="0 0 133 133" fill="none" xmlns="http://www.w3.org/2000/svg">
<g filter="url(#filter0_d_229_3528)">
<rect x="25.5" y="15.0332" width="82" height="82" rx="41" fill="url(#paint0_linear_229_3528)"/>
</g>
<g clip-path="url(#clip0_229_3528)">
<path d="M58.8354 63.1646C56.5484 60.8776 52.8362 60.8776 50.5489 63.1646C48.5601 65.1534 46.5637 72.9174 46.3149 74.3261L46 76L47.6739 75.685C49.0826 75.4366 56.8469 73.4395 58.8354 71.451C61.1224 69.164 61.1224 65.4516 58.8354 63.1646Z" fill="#FFD400"/>
<path d="M58.8354 71.4505C56.8469 73.439 49.0826 75.4358 47.6739 75.6845L46 75.9994L58.8354 63.1641C61.1224 65.451 61.1224 69.1635 58.8354 71.4505Z" fill="#FF9F00"/>
<path d="M61.3216 68.9642L58.0071 65.6497V63.9923H56.3497L53.0352 60.6778L59.6642 57.3633L64.6361 62.3352L61.3216 68.9642Z" fill="#FF6C6C"/>
<path d="M64.6368 62.3356L61.3223 68.9646L58.0078 65.6501V63.9927L62.1509 59.8496L64.6368 62.3356Z" fill="#FF193D"/>
<path d="M72.9209 60.6777L73.7498 61.5063C75.1224 62.8793 75.1224 65.1052 73.7498 66.4782L66.2919 73.9361L65.4633 73.1072C64.0903 71.7346 64.0903 69.5086 65.4633 68.1356L66.2919 67.3068V63.9922L69.6064 60.6777H72.9209Z" fill="#FF193D"/>
<path d="M61.3209 49.077L60.4923 48.2485C59.1193 46.8755 56.8934 46.8755 55.5204 48.2485L48.0625 55.7061L48.8914 56.5346C50.2643 57.9076 52.49 57.9076 53.863 56.5346L54.6918 55.7061H58.0063L61.3209 52.3916V49.077Z" fill="#FF6C6C"/>
<path d="M81.0256 52.575L66.2924 67.3083L54.6914 55.7073L69.4247 40.9741C71.0156 39.3832 72.8716 38.1567 74.8934 37.3281L84.6716 47.106C83.843 49.128 82.6165 50.9841 81.0256 52.575Z" fill="#DEECF1"/>
<path d="M81.0259 52.5748L66.2927 67.308L60.4922 61.5076L79.783 42.2168L84.6719 47.1057C83.8433 49.1278 82.6168 50.9839 81.0259 52.5748Z" fill="#A8D3D8"/>
<path d="M73.7496 48.2486C72.3742 46.8729 70.1534 46.8729 68.7777 48.2486C67.4022 49.624 67.4022 51.8448 68.7777 53.2205C70.1534 54.5959 72.3742 54.5959 73.7496 53.2205C75.1253 51.8448 75.1253 49.624 73.7496 48.2486Z" fill="#73BCFF"/>
<path d="M56.3477 63.9924L66.2912 54.0488L67.9483 55.7059L58.0048 65.6495L56.3477 63.9924Z" fill="#6E6E6E"/>
<path d="M68.7773 53.2216L73.7493 48.25C75.1247 49.6254 75.1247 51.8462 73.7493 53.2216C72.3735 54.597 70.1528 54.5973 68.7773 53.2216Z" fill="#0095FF"/>
<path d="M57.1797 64.8224L67.1232 54.8789L67.9518 55.7075L58.0082 65.651L57.1797 64.8224Z" fill="#444444"/>
<path d="M84.6728 47.1053C82.0211 47.7019 79.1207 46.9894 77.0659 44.9343C75.0109 42.8796 74.2983 39.9792 74.8949 37.3275C77.9607 36.0516 81.3747 35.6536 84.7555 36.3164L85.5181 36.4822L85.6838 37.2448C86.3466 40.6255 85.9487 44.0395 84.6728 47.1053Z" fill="#FF6C6C"/>
<path d="M77.0664 44.9346L85.5186 36.4824L85.6843 37.2451C86.3471 40.6258 85.9492 44.0398 84.6732 47.1059C82.0215 47.7025 79.1212 46.9896 77.0664 44.9346Z" fill="#FF193D"/>
</g>
<defs>
<filter id="filter0_d_229_3528" x="0.5" y="0.0332031" width="132" height="132" filterUnits="userSpaceOnUse" color-interpolation-filters="sRGB">
<feFlood flood-opacity="0" result="BackgroundImageFix"/>
<feColorMatrix in="SourceAlpha" type="matrix" values="0 0 0 0 0 0 0 0 0 0 0 0 0 0 0 0 0 0 127 0" result="hardAlpha"/>
<feOffset dy="10"/>
<feGaussianBlur stdDeviation="12.5"/>
<feComposite in2="hardAlpha" operator="out"/>
<feColorMatrix type="matrix" values="0 0 0 0 0 0 0 0 0 0.784314 0 0 0 0 0.156863 0 0 0 0.26 0"/>
<feBlend mode="normal" in2="BackgroundImageFix" result="effect1_dropShadow_229_3528"/>
<feBlend mode="normal" in="SourceGraphic" in2="effect1_dropShadow_229_3528" result="shape"/>
</filter>
<linearGradient id="paint0_linear_229_3528" x1="66.5" y1="15.0332" x2="66.5" y2="97.0332" gradientUnits="userSpaceOnUse">
<stop stop-color="#2FCC71"/>
<stop offset="1" stop-color="#109A4A"/>
</linearGradient>
<clipPath id="clip0_229_3528">
<rect width="40" height="40" fill="white" transform="translate(46 36)"/>
</clipPath>
</defs>
</svg>
