<svg width="133" height="133" viewBox="0 0 133 133" fill="none" xmlns="http://www.w3.org/2000/svg">
<g filter="url(#filter0_d_229_3362)">
<rect x="25.5039" y="15.0332" width="82" height="82" rx="41" fill="url(#paint0_linear_229_3362)"/>
</g>
<path d="M75.577 57.9807L67.7502 60.0159C67.2665 60.1417 66.759 60.1442 66.274 60.0233L58.0173 57.9644C56.708 57.6379 55.7891 56.4618 55.7891 55.1122V46.0915C55.789 40.5181 60.3072 36 65.8806 36H67.6852C73.2586 36 77.7768 40.5181 77.7768 46.0915V55.1359C77.7768 56.4744 76.8725 57.6439 75.577 57.9807Z" fill="#FD9727"/>
<path d="M67.6884 36H65.8838C65.4305 36 64.9844 36.0304 64.5469 36.0883C69.4883 36.7424 73.3015 40.9714 73.3015 46.0915V55.1359C73.3015 56.4744 72.3973 57.6439 71.1018 57.9808L64.7302 59.6375L66.2773 60.0233C66.7623 60.1443 67.2698 60.1417 67.7535 60.0159L75.5803 57.9807C76.8758 57.6439 77.7801 56.4744 77.7801 55.1358V46.0915C77.78 40.5181 73.2619 36 67.6884 36Z" fill="#FF6D3A"/>
<path d="M56.2563 52.3923H58.3977V47.1641H56.2563C55.6272 47.1641 55.1172 47.6741 55.1172 48.3032V51.253C55.1172 51.8823 55.6272 52.3923 56.2563 52.3923Z" fill="#3D6687"/>
<path d="M77.743 52.3923H75.6016V47.1641H77.743C78.3721 47.1641 78.8821 47.6741 78.8821 48.3032V51.253C78.8821 51.8823 78.3721 52.3923 77.743 52.3923Z" fill="#3D6687"/>
<path d="M71.8357 61.5136C71.0868 61.363 70.548 60.7051 70.548 59.9412V56.3262H67.0004H63.4529V59.9412C63.4529 60.7051 62.9141 61.363 62.1652 61.5136L61.3008 61.6873V67.4927H67.0004H72.7001V61.6873L71.8357 61.5136Z" fill="#FED9A8"/>
<path d="M79.2206 63.4624L72.1052 61.2438C71.8843 61.1749 71.6435 61.2309 71.4755 61.39L66.9992 65.6321L62.5229 61.3901C62.3549 61.2309 62.114 61.175 61.8932 61.2439L54.7777 63.4625C51.623 64.3913 49.457 67.2871 49.457 70.5757V75.316C49.457 75.6933 49.763 75.9993 50.1403 75.9993H83.8581C84.2355 75.9993 84.5414 75.6933 84.5414 75.316V70.5757C84.5413 67.287 82.3753 64.3913 79.2206 63.4624Z" fill="#FFEDED"/>
<path d="M79.2225 63.4624L72.107 61.2438C71.8862 61.1749 71.6453 61.2309 71.4773 61.39L70.6406 62.183L74.7441 63.4624C77.8987 64.3913 80.0647 67.287 80.0647 70.5756V75.9992H83.86C84.2373 75.9992 84.5433 75.6933 84.5433 75.3159V70.5756C84.5432 67.287 82.3772 64.3913 79.2225 63.4624Z" fill="#FFD6D6"/>
<path d="M66.999 59.3326C62.1152 59.3326 58.1562 55.3736 58.1562 50.4899V48.0048C58.1562 43.1212 62.1153 39.1621 66.999 39.1621C71.8826 39.1621 75.8417 43.1212 75.8417 48.0048V50.4899C75.8417 55.3736 71.8827 59.3326 66.999 59.3326Z" fill="#FED9A8"/>
<path d="M71.3652 40.3125V50.4896C71.3652 54.5996 68.5611 58.0544 64.7617 59.046C65.477 59.2326 66.2273 59.3323 67.0009 59.3323C71.8847 59.3323 75.8437 55.3733 75.8437 50.4896V48.0045C75.8437 44.708 74.0397 41.8332 71.3652 40.3125Z" fill="#F4C892"/>
<path d="M62.5244 61.39L67.0008 65.632L64.2401 66.5725C63.5637 66.8029 62.8151 66.6026 62.3442 66.0652L58.9297 62.1683L61.8948 61.2438C62.1157 61.1749 62.3566 61.2309 62.5244 61.39Z" fill="#D4145A"/>
<path d="M71.4763 61.39L67 65.632L69.502 66.4844C70.3349 66.7681 71.2567 66.5214 71.8366 65.8597L75.0711 62.1683L72.106 61.2438C71.8851 61.1749 71.6442 61.2309 71.4763 61.39Z" fill="#D4145A"/>
<path d="M61.716 72.4916H57.1646C56.9119 72.4916 56.707 72.2868 56.707 72.0341V70.0181C56.707 69.7654 56.9119 69.5605 57.1646 69.5605H61.716C61.9687 69.5605 62.1736 69.7654 62.1736 70.0181V72.0341C62.1737 72.2867 61.9687 72.4916 61.716 72.4916Z" fill="#EDA558"/>
<path d="M77.7768 47.9555C77.7768 47.9555 73.9617 47.6527 72.6562 44.1434C72.6562 44.1434 63.4337 51.5271 55.7891 47.9555V46.0915C55.7891 40.5181 60.3073 36 65.8807 36H67.6853C73.2587 36 77.7768 40.5181 77.7768 46.0915V47.9555Z" fill="#FD9727"/>
<path d="M67.6884 36H65.8838C65.4305 36 64.9844 36.0304 64.5469 36.0883C69.2454 36.7102 72.9236 40.5644 73.2739 45.3433C74.8827 47.7251 77.78 47.9555 77.78 47.9555V46.0915C77.78 40.5181 73.2619 36 67.6884 36Z" fill="#FF6D3A"/>
<path d="M79.9909 69.2676C79.6573 69.2676 79.3867 69.538 79.3867 69.8718V75.9991H80.5951V69.8717C80.5952 69.538 80.3246 69.2676 79.9909 69.2676Z" fill="#FFC8C8"/>
<path d="M54.0105 69.2676C53.6768 69.2676 53.4062 69.538 53.4062 69.8718V75.9991H54.6146V69.8717C54.6146 69.538 54.3441 69.2676 54.0105 69.2676Z" fill="#FFC8C8"/>
<path d="M76.0883 52.3926V53.4947C76.0883 54.4447 75.4087 55.2509 74.4723 55.4113L68.3924 56.454C68.0638 56.5102 67.8431 56.8223 67.8994 57.1509C67.9498 57.445 68.205 57.6526 68.4936 57.6526C68.5275 57.6526 68.5618 57.6498 68.5964 57.6439L74.6763 56.6013C76.1939 56.341 77.2955 55.0345 77.2955 53.4947V52.3926H76.0883Z" fill="#3D6687"/>
<path d="M68.5771 58.233C68.0186 58.233 67.5247 57.8312 67.4272 57.2622C67.3181 56.6264 67.7452 56.0225 68.381 55.9134L70.3507 55.5756C70.9866 55.4664 71.5904 55.8936 71.6994 56.5295C71.8085 57.1652 71.3814 57.7691 70.7456 57.8782L68.7759 58.216C68.7091 58.2274 68.6426 58.233 68.5771 58.233Z" fill="#D4145A"/>
<defs>
<filter id="filter0_d_229_3362" x="0.503906" y="0.0332031" width="132" height="132" filterUnits="userSpaceOnUse" color-interpolation-filters="sRGB">
<feFlood flood-opacity="0" result="BackgroundImageFix"/>
<feColorMatrix in="SourceAlpha" type="matrix" values="0 0 0 0 0 0 0 0 0 0 0 0 0 0 0 0 0 0 127 0" result="hardAlpha"/>
<feOffset dy="10"/>
<feGaussianBlur stdDeviation="12.5"/>
<feComposite in2="hardAlpha" operator="out"/>
<feColorMatrix type="matrix" values="0 0 0 0 0 0 0 0 0 0.533333 0 0 0 0 1 0 0 0 0.26 0"/>
<feBlend mode="normal" in2="BackgroundImageFix" result="effect1_dropShadow_229_3362"/>
<feBlend mode="normal" in="SourceGraphic" in2="effect1_dropShadow_229_3362" result="shape"/>
</filter>
<linearGradient id="paint0_linear_229_3362" x1="66.5039" y1="15.0332" x2="66.5039" y2="97.0332" gradientUnits="userSpaceOnUse">
<stop stop-color="#5ABEFF"/>
<stop offset="1" stop-color="#0088FF"/>
</linearGradient>
</defs>
</svg>
