<svg width="111" height="81" viewBox="0 0 111 81" fill="none" xmlns="http://www.w3.org/2000/svg">
<path fill-rule="evenodd" clip-rule="evenodd" d="M99.2189 37.0041C99.2458 36.5138 99.2946 36.0387 99.356 35.5942C99.5483 34.258 100.588 34.3609 100.668 34.3704C100.837 34.391 101.587 34.5197 101.669 35.5834C101.674 35.6468 101.659 36.1013 101.65 36.2762C101.63 36.6492 101.603 37.015 101.526 37.3774C101.506 38.0025 101.53 38.65 101.635 39.2669C101.786 40.1772 102.09 41.033 102.738 41.5348C103.896 42.4368 105.52 42.5581 106.857 42.8858C107.415 43.0225 107.792 43.6297 107.747 44.3154C107.698 45.0012 107.241 45.5604 106.667 45.6315C104.937 45.8475 102.814 47.5122 101.433 48.8838C101.009 49.3052 100.479 50.3544 99.9351 51.007C99.4972 51.5297 99.0343 51.864 98.616 51.9746C98.4526 52.0175 97.5586 52.1456 97.2685 51.0226C97.1895 50.7074 96.9592 49.0745 96.9418 48.8891C96.8324 47.8261 96.6241 46.8661 96.121 45.9812C95.6846 45.2141 95.1317 44.5278 94.4292 44.1099C94.1459 43.9414 93.848 43.8056 93.5503 43.6665C93.444 43.6406 93.1442 43.5656 93.0405 43.5115C92.8293 43.403 92.6806 43.25 92.578 43.1019C92.3831 42.8214 92.3007 42.5008 92.3148 42.146C92.3214 41.9116 92.3745 41.6379 92.5421 41.3446C92.6666 41.1368 92.9325 40.8314 93.3761 40.6589C93.8399 40.4785 94.811 40.3572 94.9857 40.3182C96.1999 40.0488 97.4099 39.579 98.4096 38.6609C98.9076 38.2017 99.0627 37.6704 99.2189 37.0041ZM99.6023 41.0049C99.9498 42.1781 100.538 43.1935 101.424 43.882C101.79 44.1678 102.195 44.3968 102.621 44.5853C101.644 45.2557 100.723 46.0358 99.982 46.7694C99.7419 47.0083 99.4674 47.4057 99.1736 47.8427C98.9972 46.585 98.6703 45.4394 98.0573 44.3615C97.694 43.7257 97.2718 43.1361 96.7872 42.6321C97.785 42.2686 98.7473 41.7469 99.6023 41.0049Z" fill="#EDB842"/>
<path fill-rule="evenodd" clip-rule="evenodd" d="M71.4369 73.9924C80.1769 75.0749 89.182 75.4085 97.2212 79.7953C97.7974 80.1108 98.4955 79.7945 98.7789 79.0987C99.0626 78.3982 98.822 77.5736 98.2458 77.2581C89.9813 72.7474 80.7388 72.3354 71.7566 71.2254C71.1192 71.1466 70.5345 71.702 70.447 72.463C70.3591 73.2286 70.8037 73.9093 71.4369 73.9924Z" fill="#EDB842"/>
<path fill-rule="evenodd" clip-rule="evenodd" d="M72.2385 58.5664C75.2364 55.8265 78.4099 53.8592 82.0961 53.085C82.7303 52.9515 83.1715 52.2295 83.0836 51.4739C82.9919 50.7179 82.4064 50.2132 81.7683 50.3463C77.6937 51.2018 74.1806 53.35 70.868 56.3777C70.3493 56.8513 70.2356 57.7258 70.6136 58.3299C70.9917 58.9339 71.7198 59.04 72.2385 58.5664Z" fill="#EDB842"/>
<path fill-rule="evenodd" clip-rule="evenodd" d="M67.8035 24.7434C69.53 19.7528 72.3529 15.9874 76.3723 13.4558C76.9466 13.0933 77.1856 12.2497 76.8999 11.5733C76.618 10.8968 75.9195 10.6419 75.3452 11.0049C70.8013 13.8654 67.61 18.1172 65.659 23.7571C65.4124 24.4746 65.6901 25.278 66.282 25.5502C66.874 25.8225 67.557 25.4609 67.8035 24.7434Z" fill="#EDB842"/>
<path fill-rule="evenodd" clip-rule="evenodd" d="M24.8013 13.5124C23.9798 14.4763 23.2281 15.5241 22.5623 16.65C22.1746 17.2991 21.4551 18.8283 21.443 19.9838C21.435 20.8498 21.7078 21.5804 22.3465 22.0567C23.3662 22.8188 24.2403 22.8198 24.9441 22.484C25.6194 22.1627 26.198 21.4668 26.6087 20.4916C27.3405 18.7505 27.5314 16.032 27.4008 14.3711C28.26 13.5018 29.1843 12.7248 30.1537 12.0453C37.6088 6.82771 47.5248 9.97746 54.4852 19.4903C56.9247 22.823 57.6115 29.4096 57.6347 36.4407C57.6758 47.474 55.9097 59.6255 55.4869 63.1944C55.3787 64.1338 55.4107 64.7 55.4386 64.815C55.5961 65.4504 55.9659 65.6485 56.2259 65.7337C56.5916 65.8522 56.8964 65.7924 57.1534 65.6629C57.4961 65.4901 57.7993 65.1589 57.975 64.6151C58.0634 64.3372 58.1199 63.9449 58.152 63.5232C58.1678 63.2734 58.1435 62.997 58.2027 62.8227C58.6215 61.5974 59.0992 60.4067 59.5661 59.207C61.1364 55.1712 63.0324 51.4297 65.0897 47.7075C71.6432 35.8747 78.0744 23.3211 87.7926 14.7524C88.3181 14.2897 88.4471 13.4175 88.0777 12.805C87.7082 12.1929 86.9815 12.0715 86.456 12.5342C76.5049 21.3066 69.871 34.1132 63.1665 46.2288C61.6068 49.0436 60.1429 51.8717 58.8345 54.8217C59.577 47.9525 60.3193 38.6189 59.7717 30.8058C59.3853 25.2346 58.3132 20.4227 56.2589 17.6188C48.4933 7.00607 37.3476 3.83612 29.0313 9.65715C28.2119 10.2296 27.4253 10.8648 26.6721 11.5591C23.3926 2.60303 15.1539 -1.60591 7.18771 1.8263C6.58006 2.08961 6.2443 2.88818 6.44423 3.60917C6.64416 4.33016 7.30052 4.70221 7.90816 4.43889C14.9307 1.414 22.1885 5.35357 24.8013 13.5124ZM25.0464 17.2503C24.8383 17.5611 24.6372 17.8797 24.4432 18.2059C24.3051 18.4343 24.0924 18.8347 23.9309 19.2688C23.8778 19.42 23.824 19.6606 23.7945 19.8079C23.9293 19.9027 24.0408 19.9562 24.1506 19.9045C24.3297 19.8184 24.4269 19.5707 24.537 19.3093C24.7825 18.7269 24.9494 17.9889 25.0464 17.2503Z" fill="#EDB842"/>
</svg>
