<svg width="1440" height="632" viewBox="0 0 1440 632" fill="none" xmlns="http://www.w3.org/2000/svg">
<g clip-path="url(#clip0_395_1568)">
<path opacity="0.5" fill-rule="evenodd" clip-rule="evenodd" d="M581.549 -288.159L581.406 -288.206C565.636 -293.395 554.053 -297.201 544.625 -299.127C535.273 -301.037 528.363 -301.023 521.905 -298.805C515.446 -296.588 509.985 -292.356 503.778 -285.104C497.521 -277.793 490.718 -267.675 481.46 -253.894L481.375 -253.769L481.375 -253.767L481.374 -253.766C474.949 -244.204 470.015 -236.858 465.462 -231.258C460.851 -225.587 456.499 -221.534 451.157 -218.642C445.814 -215.751 440.041 -214.325 432.771 -213.567C425.591 -212.818 416.742 -212.704 405.221 -212.557H405.221L405.071 -212.555C388.47 -212.342 376.279 -212.18 366.737 -210.941C357.27 -209.711 350.74 -207.454 345.351 -203.26C339.963 -199.065 336.171 -193.289 332.656 -184.414C329.111 -175.468 325.962 -163.689 321.681 -147.65L321.642 -147.505L321.642 -147.504C318.67 -136.372 316.388 -127.821 313.899 -121.045C311.38 -114.184 308.58 -108.937 304.466 -104.468C300.351 -99.9985 295.354 -96.7751 288.724 -93.6975C282.177 -90.6586 273.845 -87.6782 262.998 -83.7979L262.996 -83.7972L262.994 -83.7965L262.853 -83.7461C247.222 -78.1545 235.743 -74.0434 227.12 -69.7725C218.566 -65.5358 213.123 -61.2805 209.388 -55.5639C205.653 -49.8473 203.943 -43.1527 203.499 -33.6174C203.052 -24.0051 203.898 -11.842 205.056 4.71899L205.067 4.86874C205.871 16.3628 206.488 25.1914 206.335 32.4081C206.18 39.7158 205.235 45.5872 202.795 51.1505C200.355 56.7137 196.675 61.3851 191.403 66.4487C186.198 71.449 179.284 76.974 170.284 84.1669L170.166 84.2611C157.197 94.6253 147.675 102.241 140.906 109.08C134.191 115.865 130.424 121.657 128.748 128.277C127.072 134.896 127.628 141.783 130.304 150.946C133.002 160.183 137.752 171.412 144.225 186.7L144.283 186.837L144.283 186.838C148.776 197.448 152.227 205.598 154.425 212.473C156.651 219.435 157.664 225.295 157.163 231.349C156.661 237.404 154.697 243.017 151.355 249.518C148.056 255.937 143.311 263.407 137.134 273.131L137.134 273.133L137.133 273.134L137.052 273.261C128.151 287.274 121.618 297.569 117.437 306.236C113.289 314.833 111.606 321.534 112.17 328.34C112.734 335.145 115.496 341.478 121.003 349.276C126.554 357.136 134.692 366.215 145.778 378.572L145.881 378.686C153.574 387.261 159.483 393.848 163.795 399.637C168.161 405.499 171.022 410.713 172.513 416.602C174.004 422.491 173.969 428.438 172.92 435.671C171.883 442.814 169.821 451.421 167.136 462.625L167.136 462.625L167.101 462.772C163.232 478.917 160.396 490.774 159.255 500.329C158.123 509.808 158.708 516.692 161.451 522.946C164.194 529.199 168.863 534.292 176.603 539.879C184.406 545.511 195.051 551.456 209.549 559.544L209.678 559.616L209.68 559.617L209.684 559.619C219.744 565.232 227.472 569.543 233.429 573.618C239.461 577.744 243.86 581.746 247.183 586.832C250.506 591.918 252.404 597.554 253.759 604.736C255.098 611.829 255.942 620.639 257.041 632.108L257.041 632.109L257.056 632.258C258.639 648.784 259.806 660.92 261.83 670.328C263.837 679.66 266.626 685.982 271.25 691.006C275.875 696.03 281.945 699.331 291.08 702.102C300.288 704.895 312.287 707.061 328.625 710.004L328.779 710.031L328.782 710.032C340.118 712.073 348.825 713.642 355.781 715.561C362.827 717.505 368.287 719.862 373.081 723.594C377.875 727.325 381.5 732.039 385.114 738.392C388.684 744.666 392.343 752.725 397.107 763.217L397.168 763.353C404.032 778.469 409.077 789.569 414.045 797.81C418.974 805.985 423.664 811.058 429.669 814.308C435.675 817.558 442.488 818.71 452.027 818.365C461.644 818.017 473.695 816.169 490.104 813.647L490.25 813.625C501.639 811.874 510.388 810.529 517.593 810.086C524.889 809.637 530.818 810.094 536.564 812.066C542.309 814.039 547.269 817.32 552.75 822.156C558.162 826.929 564.237 833.361 572.146 841.733L572.151 841.739L572.152 841.74L572.256 841.85C583.656 853.919 592.031 862.779 599.406 868.96C606.722 875.092 612.806 878.368 619.541 879.491C626.277 880.615 633.094 879.492 642.005 876.068C650.987 872.617 661.786 866.956 676.487 859.243L676.622 859.172C686.824 853.819 694.66 849.708 701.33 846.949C708.084 844.156 713.841 842.662 719.916 842.662C725.99 842.662 731.747 844.156 738.501 846.949C745.171 849.708 753.007 853.819 763.209 859.172L763.344 859.243C778.045 866.956 788.844 872.617 797.826 876.068C806.737 879.492 813.555 880.615 820.29 879.491C827.025 878.368 833.109 875.092 840.425 868.96C847.8 862.779 856.176 853.919 867.575 841.85L867.679 841.74C875.59 833.364 881.667 826.931 887.081 822.156C892.562 817.32 897.522 814.039 903.267 812.066C909.013 810.094 914.943 809.637 922.238 810.086C929.443 810.529 938.192 811.874 949.582 813.625L949.727 813.647C966.136 816.169 978.187 818.017 987.804 818.365C997.343 818.71 1004.16 817.558 1010.16 814.308C1016.17 811.058 1020.86 805.985 1025.79 797.81C1030.75 789.569 1035.8 778.469 1042.66 763.353L1042.72 763.217C1047.49 752.725 1051.15 744.666 1054.72 738.392C1058.33 732.039 1061.96 727.325 1066.75 723.594C1071.54 719.862 1077 717.505 1084.05 715.561C1091.01 713.641 1099.72 712.073 1111.05 710.031L1111.21 710.004C1127.54 707.061 1139.54 704.895 1148.75 702.102C1157.89 699.331 1163.96 696.03 1168.58 691.006C1173.21 685.982 1175.99 679.66 1178 670.328C1180.02 660.92 1181.19 648.784 1182.78 632.258L1182.79 632.105L1182.79 632.1C1183.89 620.635 1184.73 611.828 1186.07 604.736C1187.43 597.554 1189.33 591.918 1192.65 586.832C1195.97 581.746 1200.37 577.744 1206.4 573.618C1212.36 569.542 1220.09 565.231 1230.15 559.617L1230.15 559.616L1230.15 559.615L1230.28 559.544C1244.78 551.456 1255.43 545.511 1263.23 539.879C1270.97 534.292 1275.64 529.199 1278.38 522.946C1281.12 516.692 1281.71 509.808 1280.58 500.329C1279.44 490.774 1276.6 478.917 1272.73 462.772L1272.7 462.629L1272.7 462.626L1272.69 462.613C1270.01 451.415 1267.95 442.812 1266.91 435.671C1265.86 428.438 1265.83 422.491 1267.32 416.602C1268.81 410.713 1271.67 405.499 1276.04 399.637C1280.35 393.85 1286.25 387.266 1293.94 378.694L1293.95 378.686L1293.95 378.683L1294.05 378.572C1305.14 366.215 1313.28 357.136 1318.83 349.276C1324.33 341.478 1327.1 335.145 1327.66 328.34C1328.22 321.534 1326.54 314.833 1322.39 306.236C1318.21 297.569 1311.68 287.274 1302.78 273.261L1302.7 273.133C1296.52 263.407 1291.78 255.937 1288.48 249.518C1285.13 243.017 1283.17 237.404 1282.67 231.349C1282.17 225.295 1283.18 219.435 1285.41 212.473C1287.6 205.602 1291.05 197.459 1295.54 186.859L1295.54 186.853L1295.55 186.843L1295.61 186.7C1302.08 171.412 1306.83 160.183 1309.53 150.946C1312.2 141.783 1312.76 134.896 1311.08 128.277C1309.41 121.657 1305.64 115.865 1298.93 109.08C1292.16 102.241 1282.63 94.6253 1269.67 84.2611L1269.55 84.166C1260.55 76.9735 1253.63 71.4489 1248.43 66.4487C1243.16 61.3851 1239.48 56.7137 1237.04 51.1505C1234.6 45.5872 1233.65 39.7158 1233.5 32.4081C1233.34 25.1922 1233.96 16.3649 1234.76 4.87286L1234.77 4.71896C1235.93 -11.8421 1236.78 -24.0051 1236.33 -33.6175C1235.89 -43.1527 1234.18 -49.8473 1230.44 -55.5639C1226.71 -61.2805 1221.26 -65.5358 1212.71 -69.7725C1204.09 -74.0434 1192.61 -78.1545 1176.98 -83.7461L1176.83 -83.7972C1165.99 -87.6777 1157.65 -90.6584 1151.11 -93.6975C1144.48 -96.7751 1139.48 -99.9985 1135.37 -104.468C1131.25 -108.937 1128.45 -114.184 1125.93 -121.045C1123.44 -127.823 1121.16 -136.376 1118.19 -147.512L1118.15 -147.65C1113.87 -163.689 1110.72 -175.468 1107.18 -184.414C1103.66 -193.289 1099.87 -199.065 1094.48 -203.26C1089.09 -207.454 1082.56 -209.711 1073.09 -210.941C1063.55 -212.18 1051.36 -212.342 1034.76 -212.555L1034.61 -212.557C1023.09 -212.704 1014.24 -212.818 1007.06 -213.567C999.79 -214.325 994.017 -215.751 988.674 -218.642C983.332 -221.534 978.98 -225.587 974.369 -231.258C969.815 -236.859 964.88 -244.206 958.454 -253.771L958.371 -253.894C949.113 -267.675 942.31 -277.793 936.053 -285.104C929.846 -292.356 924.385 -296.588 917.926 -298.805C911.468 -301.023 904.558 -301.037 895.206 -299.127C885.778 -297.201 874.195 -293.395 858.425 -288.206L858.281 -288.159C847.337 -284.558 838.93 -281.792 831.897 -280.169C824.775 -278.526 818.851 -278 812.859 -279C806.867 -279.999 801.435 -282.42 795.232 -286.287C789.108 -290.106 782.056 -295.451 772.875 -302.409L772.871 -302.412L772.871 -302.412L772.752 -302.502C759.521 -312.53 749.801 -319.891 741.509 -324.774C733.284 -329.618 726.744 -331.848 719.916 -331.848C713.087 -331.848 706.547 -329.618 698.322 -324.774C690.03 -319.891 680.31 -312.53 667.08 -302.502L666.96 -302.412L666.959 -302.411L666.958 -302.41C657.776 -295.451 650.724 -290.106 644.599 -286.287C638.396 -282.42 632.964 -279.999 626.972 -279C620.98 -278 615.056 -278.526 607.934 -280.169C600.901 -281.792 592.494 -284.558 581.549 -288.159ZM719.916 -334.848C704.789 -334.848 691.615 -324.863 665.267 -304.893C646.7 -290.82 637.416 -283.784 626.478 -281.959C615.541 -280.134 604.475 -283.774 582.344 -291.056C550.94 -301.388 535.237 -306.554 520.931 -301.643C506.624 -296.731 497.406 -283.01 478.97 -255.567C465.977 -236.228 459.481 -226.558 449.729 -221.281C439.977 -216.003 428.328 -215.853 405.032 -215.554C371.974 -215.13 355.446 -214.918 343.509 -205.627C331.572 -196.336 327.309 -180.365 318.782 -148.423C312.773 -125.913 309.769 -114.658 302.259 -106.5C294.748 -98.3416 283.78 -94.418 261.843 -86.5707L261.842 -86.5705C230.714 -75.4355 215.15 -69.8679 206.876 -57.2047C198.603 -44.5414 199.757 -28.0515 202.063 4.92831C203.689 28.1699 204.502 39.7906 200.048 49.9454C195.594 60.1001 186.493 67.3726 168.293 81.9175C142.466 102.557 129.553 112.877 125.84 127.54C122.126 142.204 128.572 157.426 141.462 187.869C150.546 209.324 155.089 220.051 154.173 231.102C153.257 242.153 147.011 251.986 134.52 271.652C116.794 299.559 107.931 313.513 109.18 328.588C110.43 343.662 121.468 355.966 143.545 380.575C159.104 397.918 166.883 406.589 169.605 417.338C172.327 428.088 169.612 439.416 164.183 462.073C156.48 494.223 152.628 510.298 158.704 524.151C164.78 538.003 179.216 546.057 208.087 562.164C228.433 573.514 238.607 579.19 244.671 588.473C250.736 597.756 251.847 609.352 254.069 632.544C257.222 665.454 258.798 681.909 269.043 693.038C279.288 704.167 295.557 707.096 328.094 712.956C351.023 717.086 362.488 719.15 371.238 725.961C379.989 732.772 384.805 743.379 394.437 764.593C408.104 794.696 414.938 809.747 428.242 816.947C441.545 824.146 457.883 821.635 490.56 816.612C513.588 813.073 525.102 811.303 535.59 814.904C546.078 818.504 554.077 826.973 570.075 843.91C592.776 867.944 604.127 879.961 619.047 882.451C633.967 884.94 648.605 877.26 677.88 861.899C698.511 851.075 708.827 845.662 719.916 845.662C731.004 845.662 741.32 851.075 761.951 861.899C791.226 877.26 805.864 884.94 820.784 882.451C835.704 879.961 847.055 867.944 869.756 843.91C885.754 826.973 893.754 818.504 904.241 814.904C914.729 811.303 926.243 813.073 949.271 816.612C981.948 821.635 998.286 824.146 1011.59 816.947C1024.89 809.747 1031.73 794.696 1045.39 764.593C1055.03 743.379 1059.84 732.772 1068.59 725.961C1077.34 719.15 1088.81 717.086 1111.74 712.956C1144.27 707.096 1160.54 704.167 1170.79 693.038C1181.03 681.909 1182.61 665.454 1185.76 632.543C1187.98 609.352 1189.09 597.756 1195.16 588.473C1201.22 579.19 1211.4 573.515 1231.74 562.164L1231.74 562.164C1260.62 546.057 1275.05 538.003 1281.13 524.151C1287.2 510.299 1283.35 494.223 1275.65 462.071C1270.22 439.416 1267.5 428.087 1270.23 417.338C1272.95 406.589 1280.73 397.918 1296.29 380.575C1318.36 355.967 1329.4 343.662 1330.65 328.588C1331.9 313.513 1323.04 299.559 1305.31 271.652C1292.82 251.986 1286.57 242.153 1285.66 231.102C1284.74 220.051 1289.28 209.324 1298.37 187.869C1311.26 157.426 1317.7 142.204 1313.99 127.54C1310.28 112.877 1297.36 102.557 1271.54 81.9175C1253.34 67.3726 1244.24 60.1001 1239.78 49.9454C1235.33 39.7906 1236.14 28.1699 1237.77 4.92831C1240.07 -28.0515 1241.23 -44.5415 1232.95 -57.2047C1224.68 -69.868 1209.12 -75.4356 1177.99 -86.5708C1156.05 -94.418 1145.08 -98.3416 1137.57 -106.5C1130.06 -114.658 1127.06 -125.912 1121.05 -148.421L1121.05 -148.423L1121.05 -148.423C1112.52 -180.365 1108.26 -196.336 1096.32 -205.627C1084.39 -214.918 1067.86 -215.13 1034.8 -215.554C1011.5 -215.853 999.854 -216.003 990.102 -221.281C980.35 -226.558 973.854 -236.228 960.861 -255.567C942.425 -283.01 933.207 -296.731 918.901 -301.643C904.594 -306.554 888.892 -301.388 857.487 -291.056C835.356 -283.774 824.29 -280.134 813.353 -281.959C802.415 -283.784 793.131 -290.82 774.564 -304.893C748.216 -324.863 735.042 -334.848 719.916 -334.848ZM600.673 -211.087L599.997 -211.31C588.488 -215.096 580.038 -217.874 573.109 -219.501C566.229 -221.118 561.08 -221.539 556.19 -220.744C551.497 -219.98 546.968 -218.425 542.795 -216.146C538.448 -213.77 534.643 -210.274 530.207 -204.773C525.739 -199.233 520.776 -191.851 514.02 -181.794L513.623 -181.203L513.623 -181.203C504.499 -167.621 499.465 -160.127 492.426 -155.078C489.14 -152.721 485.569 -150.788 481.799 -149.327C473.721 -146.195 464.695 -146.08 448.334 -145.87L447.622 -145.861C435.508 -145.706 426.614 -145.589 419.532 -144.879C412.5 -144.173 407.492 -142.9 403.126 -140.56C398.935 -138.314 395.156 -135.373 391.95 -131.862C388.609 -128.203 386.146 -123.661 383.736 -117.018C381.309 -110.327 379.012 -101.734 375.888 -90.028L375.704 -89.3405C371.485 -73.5314 369.157 -64.8095 364.139 -57.7482C361.796 -54.4517 359.046 -51.4644 355.954 -48.8575C349.331 -43.2733 340.831 -40.2332 325.425 -34.7227L324.755 -34.483C313.347 -30.4024 304.973 -27.404 298.506 -24.4326C292.084 -21.4821 287.761 -18.6523 284.39 -15.0208C281.156 -11.5359 278.537 -7.52701 276.645 -3.16516C274.673 1.37988 273.818 6.47534 273.696 13.5417C273.573 20.658 274.191 29.5315 275.036 41.6173L275.086 42.3273C276.228 58.6497 276.858 67.655 274.405 75.963C273.259 79.8416 271.628 83.5599 269.551 87.0294C265.1 94.4615 258.048 100.097 245.265 110.311L244.709 110.756C235.245 118.319 228.298 123.874 223.146 128.784C218.029 133.66 214.86 137.741 212.851 142.269C210.924 146.616 209.748 151.258 209.375 155.998C208.986 160.937 209.831 166.034 212.01 172.757C214.204 179.528 217.67 187.72 222.394 198.876L222.672 199.532C229.052 214.599 232.572 222.911 232.949 231.566C233.125 235.606 232.79 239.653 231.951 243.609C230.155 252.083 225.314 259.703 216.541 273.515L216.16 274.115C209.664 284.342 204.897 291.852 201.618 298.169C198.363 304.442 196.689 309.33 196.26 314.266C195.848 319.003 196.244 323.775 197.43 328.379C198.665 333.177 201.12 337.723 205.364 343.375C209.638 349.066 215.576 355.689 223.666 364.707L224.141 365.237C235.068 377.416 241.097 384.135 244.264 392.198C245.742 395.963 246.739 399.899 247.23 403.913C248.283 412.512 246.179 421.29 242.365 437.202L242.2 437.894C239.376 449.676 237.306 458.327 236.256 465.366C235.214 472.356 235.219 477.523 236.415 482.331C237.564 486.944 239.488 491.33 242.104 495.299C244.831 499.436 248.629 502.939 254.478 506.906C260.368 510.901 268.134 515.237 278.715 521.14L279.336 521.487L279.337 521.487C293.626 529.458 301.509 533.856 307.122 540.454C309.743 543.534 311.964 546.933 313.732 550.57C317.519 558.361 318.38 567.347 319.94 583.635L320.008 584.344C321.163 596.404 322.014 605.258 323.307 612.257C324.59 619.207 326.272 624.092 328.965 628.25C331.55 632.241 334.793 635.764 338.557 638.67C342.479 641.697 347.208 643.776 354.029 645.63C360.897 647.496 369.65 649.075 381.574 651.223L382.274 651.349C398.378 654.248 407.262 655.848 414.714 660.266C418.193 662.328 421.397 664.822 424.25 667.688C430.362 673.827 434.094 682.047 440.858 696.946L441.152 697.594C446.161 708.625 449.84 716.724 453.336 722.923C456.806 729.08 459.983 733.154 463.881 736.213C467.621 739.149 471.832 741.428 476.336 742.953C481.028 744.543 486.177 744.974 493.229 744.513C500.331 744.048 509.123 742.699 521.098 740.859L521.802 740.75L521.803 740.75L521.808 740.749C537.976 738.264 546.897 736.892 555.378 738.651C559.338 739.472 563.179 740.791 566.808 742.575C574.582 746.396 580.78 752.959 592.014 764.853L592.015 764.854L592.015 764.854L592.504 765.372C600.824 774.18 606.933 780.644 612.252 785.374C617.534 790.069 621.862 792.891 626.542 794.519C631.032 796.081 635.755 796.869 640.51 796.85C645.464 796.83 650.474 795.566 656.994 792.84C663.561 790.094 671.439 785.963 682.167 780.334L682.797 780.004L682.798 780.003C697.286 772.401 705.28 768.206 713.873 767.116C717.885 766.607 721.946 766.607 725.958 767.116C734.551 768.206 742.545 772.401 757.033 780.003L757.034 780.004L757.664 780.334C768.392 785.963 776.27 790.094 782.836 792.84C789.357 795.566 794.366 796.83 799.321 796.85C804.075 796.869 808.799 796.081 813.289 794.519C817.969 792.891 822.297 790.069 827.578 785.374C832.897 780.644 839.007 774.18 847.326 765.372L847.815 764.855L847.816 764.854C859.051 752.959 865.249 746.397 873.023 742.575C876.652 740.791 880.492 739.472 884.452 738.651C892.935 736.892 901.857 738.264 918.03 740.75L918.733 740.859C930.708 742.699 939.5 744.048 946.602 744.513C953.654 744.974 958.803 744.543 963.495 742.953C967.998 741.428 972.21 739.149 975.95 736.213C979.847 733.154 983.024 729.08 986.495 722.923C989.991 716.724 993.67 708.625 998.679 697.594L998.973 696.946C1005.74 682.047 1009.47 673.827 1015.58 667.688C1018.43 664.822 1021.64 662.328 1025.12 660.266C1032.57 655.848 1041.45 654.248 1057.56 651.349L1058.26 651.223C1070.18 649.075 1078.93 647.496 1085.8 645.63C1092.62 643.776 1097.35 641.697 1101.27 638.67C1105.04 635.764 1108.28 632.241 1110.87 628.25C1113.56 624.092 1115.24 619.207 1116.52 612.257C1117.82 605.258 1118.67 596.404 1119.82 584.344L1119.89 583.635C1121.45 567.347 1122.31 558.361 1126.1 550.57C1127.87 546.933 1130.09 543.534 1132.71 540.454C1138.32 533.856 1146.21 529.458 1160.49 521.487L1161.12 521.14C1171.7 515.237 1179.46 510.901 1185.35 506.906C1191.2 502.939 1195 499.436 1197.73 495.299C1200.34 491.33 1202.27 486.944 1203.42 482.331C1204.61 477.523 1204.62 472.356 1203.57 465.366C1202.52 458.327 1200.45 449.676 1197.63 437.894L1197.47 437.203L1197.47 437.201C1193.65 421.29 1191.55 412.511 1192.6 403.913C1193.09 399.899 1194.09 395.963 1195.57 392.198C1198.73 384.136 1204.76 377.417 1215.69 365.24L1215.69 365.238L1215.69 365.237L1216.16 364.707C1224.26 355.689 1230.19 349.066 1234.47 343.375C1238.71 337.723 1241.17 333.177 1242.4 328.379C1243.59 323.775 1243.98 319.003 1243.57 314.266C1243.14 309.33 1241.47 304.442 1238.21 298.169C1234.93 291.852 1230.17 284.342 1223.67 274.115L1223.29 273.516L1223.29 273.514C1214.52 259.703 1209.68 252.083 1207.88 243.609C1207.04 239.653 1206.71 235.606 1206.88 231.566C1207.26 222.912 1210.78 214.599 1217.16 199.533L1217.44 198.876C1222.16 187.72 1225.63 179.528 1227.82 172.757C1230 166.034 1230.85 160.937 1230.46 155.998C1230.08 151.258 1228.91 146.616 1226.98 142.269C1224.97 137.741 1221.8 133.66 1216.69 128.784C1211.53 123.874 1204.59 118.319 1195.12 110.756L1194.57 110.311C1181.78 100.097 1174.73 94.4615 1170.28 87.0294C1168.2 83.5598 1166.57 79.8416 1165.43 75.963C1162.97 67.6549 1163.6 58.6496 1164.75 42.327L1164.79 41.6173C1165.64 29.5315 1166.26 20.658 1166.14 13.5417C1166.01 6.47531 1165.16 1.37985 1163.19 -3.16522C1161.29 -7.52701 1158.67 -11.5359 1155.44 -15.0208C1152.07 -18.6522 1147.75 -21.4821 1141.33 -24.4326C1134.86 -27.404 1126.48 -30.4024 1115.08 -34.483L1114.41 -34.7229C1099 -40.2332 1090.5 -43.2734 1083.88 -48.8575C1080.78 -51.4645 1078.03 -54.4517 1075.69 -57.7481C1070.67 -64.8094 1068.35 -73.5313 1064.13 -89.3402L1063.94 -90.028C1060.82 -101.734 1058.52 -110.327 1056.09 -117.018C1053.68 -123.661 1051.22 -128.203 1047.88 -131.862C1044.67 -135.373 1040.9 -138.314 1036.71 -140.56C1032.34 -142.9 1027.33 -144.173 1020.3 -144.879C1013.22 -145.589 1004.32 -145.706 992.209 -145.861L991.497 -145.87C975.136 -146.08 966.109 -146.195 958.032 -149.327C954.262 -150.788 950.691 -152.721 947.404 -155.078C940.365 -160.127 935.332 -167.621 926.208 -181.203L925.811 -181.794C919.055 -191.851 914.092 -199.233 909.624 -204.773C905.187 -210.274 901.383 -213.77 897.035 -216.146C892.863 -218.425 888.334 -219.98 883.641 -220.744C878.751 -221.539 873.602 -221.118 866.721 -219.501C859.793 -217.874 851.342 -215.096 839.834 -211.31L839.158 -211.087C823.615 -205.973 815.04 -203.151 806.384 -203.49C802.343 -203.649 798.338 -204.317 794.465 -205.479C786.168 -207.969 778.973 -213.423 765.934 -223.307L765.367 -223.736C755.711 -231.054 748.621 -236.425 742.596 -240.214C736.613 -243.977 731.88 -246.048 726.996 -246.883C722.31 -247.685 717.521 -247.685 712.835 -246.883C707.951 -246.048 703.218 -243.977 697.235 -240.214C691.21 -236.425 684.12 -231.054 674.464 -223.736L673.897 -223.306C660.857 -213.422 653.663 -207.969 645.366 -205.479C641.492 -204.317 637.488 -203.649 633.447 -203.49C624.79 -203.151 616.215 -205.973 600.673 -211.087ZM712.329 -249.84C701.494 -247.987 691.88 -240.7 672.652 -226.127C659.071 -215.833 652.28 -210.686 644.504 -208.353C640.872 -207.263 637.118 -206.636 633.329 -206.488C625.217 -206.17 617.123 -208.833 600.935 -214.16C578.016 -221.7 566.557 -225.47 555.708 -223.705C550.68 -222.887 545.827 -221.221 541.357 -218.778C531.711 -213.507 524.984 -203.494 511.53 -183.467C502.026 -169.321 497.275 -162.248 490.678 -157.516C487.597 -155.306 484.249 -153.494 480.714 -152.124C473.144 -149.189 464.624 -149.08 447.584 -148.861C423.459 -148.551 411.397 -148.397 401.708 -143.204C397.218 -140.798 393.17 -137.646 389.735 -133.885C382.323 -125.767 379.212 -114.112 372.989 -90.8017C368.594 -74.3365 366.396 -66.1039 361.693 -59.4861C359.497 -56.3956 356.919 -53.5951 354.02 -51.151C347.814 -45.9176 339.79 -43.0476 323.744 -37.3077C301.027 -29.1815 289.669 -25.1185 282.192 -17.0616C278.726 -13.3277 275.92 -9.0325 273.893 -4.3591C269.518 5.72491 270.36 17.7588 272.043 41.8267V41.8269C273.233 58.8271 273.827 67.3271 271.528 75.1133C270.454 78.7495 268.925 82.2354 266.977 85.4881C262.806 92.4534 256.149 97.7729 242.836 108.412C223.989 123.474 214.565 131.005 210.109 141.053C208.044 145.71 206.784 150.684 206.384 155.762C205.521 166.72 210.224 177.829 219.631 200.046C226.276 215.739 229.599 223.585 229.952 231.697C230.117 235.484 229.803 239.278 229.016 242.987C227.333 250.929 222.764 258.122 213.627 272.507C200.691 292.873 194.224 303.056 193.272 314.006C192.83 319.081 193.254 324.194 194.525 329.128C197.266 339.772 205.322 348.752 221.433 366.711C232.813 379.396 238.503 385.738 241.471 393.295C242.857 396.824 243.792 400.514 244.252 404.277C245.239 412.336 243.253 420.622 239.282 437.195C233.66 460.657 230.849 472.389 233.504 483.055C234.735 487.999 236.796 492.697 239.599 496.951C245.649 506.128 256.183 512.005 277.253 523.76L277.254 523.76C292.136 532.063 299.577 536.214 304.838 542.398C307.294 545.285 309.376 548.472 311.034 551.882C314.584 559.183 315.396 567.666 317.021 584.63C319.322 608.646 320.473 620.655 326.447 629.881C329.216 634.157 332.691 637.932 336.724 641.044C345.425 647.761 357.298 649.899 381.042 654.175C397.814 657.195 406.2 658.706 413.184 662.846C416.445 664.78 419.449 667.118 422.124 669.805C427.852 675.558 431.375 683.317 438.42 698.834C448.395 720.802 453.382 731.787 462.029 738.573C466.036 741.718 470.548 744.16 475.373 745.795C485.784 749.322 497.707 747.489 521.554 743.824C538.398 741.235 546.82 739.94 554.769 741.589C558.482 742.359 562.082 743.595 565.484 745.267C572.77 748.849 578.621 755.043 590.323 767.432C606.891 784.972 615.174 793.741 625.556 797.353C630.367 799.026 635.428 799.871 640.522 799.85C651.514 799.805 662.196 794.201 683.562 782.99C698.652 775.073 706.197 771.114 714.251 770.092C718.012 769.615 721.819 769.615 725.58 770.092C733.634 771.114 741.179 775.073 756.27 782.991C777.634 794.201 788.317 799.805 799.309 799.85C804.403 799.871 809.463 799.026 814.275 797.353C824.657 793.741 832.94 784.972 849.507 767.432C861.209 755.043 867.06 748.849 874.346 745.267C877.749 743.595 881.349 742.359 885.062 741.589C893.011 739.94 901.433 741.235 918.277 743.824C942.124 747.489 954.047 749.322 964.458 745.795C969.283 744.16 973.795 741.718 977.802 738.573C986.449 731.787 991.436 720.802 1001.41 698.834C1008.46 683.317 1011.98 675.558 1017.71 669.805C1020.38 667.118 1023.39 664.78 1026.65 662.846C1033.63 658.706 1042.02 657.195 1058.79 654.175C1082.53 649.899 1094.41 647.761 1103.11 641.044C1107.14 637.932 1110.61 634.157 1113.38 629.881C1119.36 620.655 1120.51 608.646 1122.81 584.63C1124.43 567.666 1125.25 559.183 1128.8 551.882C1130.45 548.472 1132.54 545.285 1134.99 542.398C1140.25 536.214 1147.7 532.063 1162.58 523.76L1162.58 523.76C1183.65 512.005 1194.18 506.128 1200.23 496.95C1203.04 492.697 1205.1 487.999 1206.33 483.055C1208.98 472.389 1206.17 460.657 1200.55 437.194C1196.58 420.622 1194.59 412.336 1195.58 404.277C1196.04 400.514 1196.97 396.824 1198.36 393.295C1201.33 385.738 1207.02 379.396 1218.4 366.711C1234.51 348.752 1242.56 339.772 1245.31 329.128C1246.58 324.194 1247 319.081 1246.56 314.006C1245.61 303.056 1239.14 292.873 1226.2 272.507C1217.07 258.122 1212.5 250.929 1210.81 242.987C1210.03 239.278 1209.71 235.484 1209.88 231.697C1210.23 223.585 1213.55 215.739 1220.2 200.046C1229.61 177.829 1234.31 166.72 1233.45 155.762C1233.05 150.684 1231.79 145.71 1229.72 141.053C1225.27 131.005 1215.84 123.474 1196.99 108.411L1196.99 108.411C1183.68 97.7725 1177.03 92.4531 1172.85 85.4881C1170.91 82.2354 1169.38 78.7495 1168.3 75.1134C1166 67.3271 1166.6 58.8271 1167.79 41.8267C1169.47 17.7588 1170.31 5.72488 1165.94 -4.35916C1163.91 -9.0325 1161.1 -13.3277 1157.64 -17.0616C1150.16 -25.1184 1138.8 -29.1815 1116.09 -37.3077C1100.04 -43.0476 1092.02 -45.9176 1085.81 -51.1511C1082.91 -53.5951 1080.33 -56.3955 1078.14 -59.486C1073.43 -66.1038 1071.24 -74.3365 1066.84 -90.8022C1060.62 -114.112 1057.51 -125.767 1050.1 -133.885C1046.66 -137.646 1042.61 -140.798 1038.12 -143.204C1028.43 -148.397 1016.37 -148.551 992.247 -148.861C975.207 -149.08 966.686 -149.189 959.117 -152.124C955.582 -153.494 952.234 -155.306 949.153 -157.516C942.556 -162.248 937.804 -169.321 928.301 -183.467C914.847 -203.494 908.12 -213.507 898.474 -218.778C894.004 -221.221 889.151 -222.887 884.123 -223.705C873.273 -225.47 861.814 -221.7 838.896 -214.16C822.708 -208.833 814.614 -206.17 806.502 -206.488C802.713 -206.636 798.959 -207.263 795.327 -208.353C787.551 -210.686 780.76 -215.833 767.179 -226.127C747.951 -240.7 738.337 -247.987 727.502 -249.84C722.481 -250.699 717.35 -250.699 712.329 -249.84ZM620.819 -125.185L621.216 -125.054L621.216 -125.054C630.339 -122.052 635.367 -120.398 640.396 -119.853C649.144 -118.906 657.984 -120.381 665.95 -124.117C670.53 -126.265 674.747 -129.462 682.401 -135.263L682.402 -135.264L682.735 -135.517C694.153 -144.171 699.391 -148.104 704.855 -150.203C714.55 -153.927 725.281 -153.927 734.976 -150.203C740.44 -148.104 745.678 -144.171 757.095 -135.517L757.429 -135.264C765.083 -129.463 769.301 -126.266 773.881 -124.117C781.847 -120.381 790.687 -118.906 799.434 -119.853C804.464 -120.398 809.492 -122.052 818.616 -125.054L819.012 -125.185C832.621 -129.662 838.852 -131.682 844.702 -131.893C855.081 -132.267 865.23 -128.783 873.191 -122.113C877.678 -118.353 881.354 -112.932 889.343 -101.04L889.576 -100.694C894.932 -92.7211 897.883 -88.3271 901.518 -84.8076C907.839 -78.6871 915.721 -74.4217 924.302 -72.4775C929.236 -71.3597 934.529 -71.2918 944.133 -71.1688L944.551 -71.1634C958.876 -70.9795 965.425 -70.8667 971.026 -69.1668C980.965 -66.1508 989.433 -59.5597 994.796 -50.6661C997.819 -45.6534 999.536 -39.3327 1003.23 -25.4905L1003.34 -25.0858L1003.34 -25.0854C1005.82 -15.8069 1007.18 -10.693 1009.48 -6.18448C1013.47 1.65692 1019.54 8.25046 1027.02 12.8755C1031.33 15.535 1036.31 17.3177 1045.35 20.5525L1045.75 20.693C1059.24 25.5185 1065.39 27.7517 1070.14 31.1783C1078.56 37.2577 1084.43 46.2413 1086.61 56.3945C1087.85 62.1172 1087.42 68.6529 1086.42 82.9449L1086.39 83.3622V83.3628C1085.72 92.9429 1085.35 98.2229 1086.05 103.232C1087.28 111.945 1090.88 120.152 1096.46 126.957C1099.67 130.87 1103.8 134.174 1111.31 140.17L1111.63 140.431C1122.82 149.375 1127.92 153.486 1131.3 158.268C1137.29 166.752 1139.92 177.155 1138.69 187.467C1138 193.28 1135.47 199.322 1129.89 212.515L1129.72 212.901C1125.98 221.744 1123.92 226.618 1122.96 231.586C1121.29 240.225 1122.03 249.157 1125.1 257.404C1126.86 262.146 1129.7 266.614 1134.85 274.722L1135.07 275.074C1142.75 287.167 1146.24 292.712 1147.88 298.331C1150.79 308.3 1149.91 318.995 1145.39 328.349C1142.85 333.621 1138.5 338.516 1128.93 349.18L1128.65 349.49L1128.65 349.491C1122.24 356.64 1118.7 360.58 1116.18 364.967C1111.8 372.597 1109.6 381.285 1109.82 390.081C1109.95 395.138 1111.18 400.286 1113.42 409.625L1113.52 410.032C1116.86 423.965 1118.36 430.341 1118.08 436.188C1117.6 446.562 1113.29 456.39 1105.98 463.772C1101.87 467.933 1096.16 471.149 1083.65 478.129L1083.29 478.333C1074.9 483.012 1070.28 485.59 1066.47 488.922C1059.85 494.716 1054.94 502.219 1052.3 510.61C1050.78 515.435 1050.27 520.704 1049.36 530.263L1049.36 530.264L1049.32 530.681C1047.95 544.942 1047.3 551.459 1045.14 556.901C1041.31 566.556 1034.05 574.451 1024.74 579.062C1019.49 581.661 1013.05 582.85 998.954 585.389L998.544 585.463L998.542 585.463C989.09 587.165 983.881 588.103 979.198 590.018C971.054 593.348 963.982 598.853 958.754 605.93C955.749 610 953.56 614.819 949.59 623.564L949.417 623.945C943.494 636.99 940.76 642.942 936.954 647.389C930.2 655.279 920.762 660.386 910.463 661.725C904.658 662.48 898.18 661.513 884.02 659.337L883.607 659.273C874.114 657.814 868.882 657.01 863.831 657.3C855.047 657.805 846.571 660.715 839.328 665.712C835.164 668.585 831.53 672.433 824.935 679.415L824.648 679.719C814.81 690.134 810.292 694.876 805.247 697.846C796.297 703.115 785.713 704.881 775.537 702.803C769.802 701.632 763.988 698.615 751.302 691.958L750.932 691.764C742.427 687.302 737.74 684.842 732.869 683.477C724.396 681.102 715.434 681.102 706.962 683.477C702.091 684.842 697.404 687.302 688.899 691.764L688.529 691.958C675.842 698.615 670.029 701.632 664.294 702.803C654.118 704.881 643.533 703.115 634.584 697.846C629.539 694.876 625.021 690.134 615.183 679.719L614.896 679.415C608.301 672.433 604.667 668.585 600.502 665.712C593.26 660.715 584.784 657.805 576 657.3C570.949 657.01 565.717 657.814 556.224 659.273L555.811 659.337C541.651 661.513 535.173 662.48 529.368 661.725C519.069 660.386 509.631 655.279 502.877 647.389C499.07 642.942 496.336 636.99 490.413 623.945L490.241 623.565C486.27 614.819 484.082 610 481.076 605.93C475.849 598.853 468.777 593.348 460.633 590.018C455.95 588.103 450.74 587.165 441.288 585.463L441.287 585.463L440.877 585.389C426.777 582.85 420.336 581.661 415.091 579.062C405.784 574.451 398.517 566.556 394.69 556.901C392.534 551.459 391.88 544.942 390.514 530.681L390.474 530.265C389.559 520.704 389.054 515.435 387.532 510.61C384.886 502.219 379.985 494.716 373.363 488.922C369.555 485.59 364.933 483.012 356.545 478.333L356.181 478.129C343.669 471.149 337.963 467.933 333.846 463.772C326.541 456.39 322.231 446.562 321.747 436.188C321.474 430.341 322.972 423.965 326.31 410.032L326.408 409.626C328.646 400.286 329.88 395.139 330.007 390.081C330.229 381.285 328.029 372.597 323.648 364.967C321.128 360.58 317.593 356.64 311.179 349.491L310.901 349.18C301.333 338.516 296.981 333.621 294.438 328.349C289.926 318.994 289.04 308.3 291.951 298.331C293.591 292.712 297.078 287.167 304.76 275.074L304.984 274.721L304.985 274.72C310.134 266.614 312.972 262.146 314.735 257.404C317.801 249.157 318.541 240.225 316.874 231.586C315.916 226.618 313.852 221.744 310.107 212.9L309.944 212.515C304.358 199.322 301.83 193.28 301.137 187.467C299.907 177.155 302.541 166.752 308.531 158.268C311.907 153.486 317.006 149.375 328.198 140.431L328.525 140.17L328.525 140.169C336.028 134.174 340.163 130.87 343.37 126.957C348.947 120.152 352.547 111.945 353.776 103.232C354.483 98.2228 354.113 92.9424 353.443 83.3614L353.414 82.9449C352.414 68.6529 351.986 62.1172 353.217 56.3944C355.402 46.2413 361.271 37.2577 369.692 31.1783C374.438 27.7517 380.595 25.5185 394.085 20.693L394.479 20.5522L394.479 20.5518C403.522 17.3175 408.506 15.5349 412.809 12.8755C420.294 8.25046 426.364 1.65695 430.355 -6.18448C432.65 -10.6932 434.015 -15.8073 436.492 -25.0866L436.6 -25.4905C440.295 -39.3327 442.012 -45.6534 445.035 -50.6661C450.398 -59.5597 458.866 -66.1508 468.804 -69.1668C474.406 -70.8667 480.955 -70.9795 495.28 -71.1634L495.698 -71.1688C505.302 -71.2918 510.594 -71.3597 515.529 -72.4775C524.11 -74.4217 531.992 -78.6871 538.313 -84.8076C541.947 -88.3269 544.899 -92.7206 550.254 -100.693L550.487 -101.04C558.477 -112.932 562.153 -118.353 566.64 -122.113C574.6 -128.783 584.75 -132.267 595.129 -131.893C600.979 -131.682 607.209 -129.662 620.819 -125.185ZM680.923 -137.908C692.188 -146.446 697.821 -150.715 703.779 -153.004C714.167 -156.994 725.664 -156.994 736.052 -153.004C742.01 -150.715 747.643 -146.446 758.908 -137.908L758.909 -137.907C766.878 -131.867 770.863 -128.847 775.155 -126.833C782.623 -123.33 790.911 -121.947 799.111 -122.836C803.825 -123.346 808.575 -124.909 818.075 -128.034C831.502 -132.452 838.215 -134.661 844.594 -134.891C855.714 -135.292 866.589 -131.559 875.118 -124.412C880.01 -120.313 883.951 -114.446 891.834 -102.713C897.41 -94.4118 900.199 -90.2612 903.605 -86.9629C909.531 -81.2248 916.92 -77.226 924.965 -75.4034C929.589 -74.3557 934.589 -74.2915 944.589 -74.1632C958.723 -73.9818 965.79 -73.891 971.898 -72.0375C982.546 -68.8061 991.619 -61.7442 997.365 -52.2154C1000.66 -46.7498 1002.48 -39.9219 1006.13 -26.2669L1006.13 -26.2649C1008.71 -16.602 1010 -11.7709 1012.15 -7.54532C1015.89 -0.194 1021.58 5.98743 1028.6 10.3235C1032.63 12.8159 1037.34 14.5 1046.76 17.8683C1060.07 22.6292 1066.72 25.0096 1071.9 28.7459C1080.92 35.2596 1087.21 44.8849 1089.55 55.7633C1090.89 62.0029 1090.4 69.0525 1089.41 83.1509L1089.41 83.1527L1089.41 83.1542C1088.71 93.1303 1088.36 98.1184 1089.03 102.813C1090.18 110.981 1093.55 118.676 1098.78 125.055C1101.79 128.722 1105.69 131.844 1113.51 138.087C1124.55 146.911 1130.07 151.324 1133.75 156.538C1140.17 165.628 1142.99 176.774 1141.67 187.823C1140.92 194.161 1138.16 200.669 1132.65 213.685C1128.75 222.894 1126.8 227.499 1125.9 232.154C1124.34 240.254 1125.03 248.627 1127.91 256.359C1129.56 260.803 1132.24 265.024 1137.6 273.465C1145.18 285.397 1148.97 291.363 1150.76 297.49C1153.88 308.171 1152.93 319.63 1148.1 329.652C1145.32 335.401 1140.6 340.662 1131.16 351.183L1131.16 351.183C1124.49 358.627 1121.15 362.349 1118.78 366.461C1114.68 373.614 1112.61 381.759 1112.82 390.005C1112.94 394.745 1114.11 399.608 1116.44 409.333L1116.44 409.334C1119.73 423.079 1121.38 429.952 1121.08 436.328C1120.56 447.443 1115.94 457.972 1108.12 465.882C1103.63 470.419 1097.46 473.863 1085.11 480.749C1076.38 485.621 1072.01 488.057 1068.44 491.18C1062.24 496.612 1057.64 503.645 1055.16 511.512C1053.73 516.034 1053.26 521.012 1052.3 530.967C1050.96 545.037 1050.28 552.073 1047.93 558.007C1043.83 568.351 1036.04 576.81 1026.07 581.75C1020.35 584.584 1013.4 585.836 999.486 588.342C989.643 590.114 984.722 591 980.334 592.795C972.698 595.917 966.068 601.077 961.168 607.712C958.351 611.526 956.283 616.079 952.149 625.185C946.305 638.056 943.383 644.491 939.233 649.34C931.996 657.793 921.884 663.265 910.85 664.7C904.52 665.523 897.535 664.449 883.564 662.302C873.679 660.782 868.737 660.023 864.003 660.295C855.768 660.769 847.822 663.497 841.032 668.181C837.13 670.873 833.697 674.508 826.832 681.776L826.83 681.777L826.829 681.779L826.827 681.781C817.122 692.055 812.269 697.193 806.769 700.431C797.18 706.076 785.839 707.969 774.937 705.743C768.683 704.466 762.425 701.182 749.908 694.615L749.907 694.614L749.905 694.613C741.051 689.968 736.624 687.645 732.059 686.365C724.116 684.139 715.714 684.139 707.772 686.365C703.207 687.645 698.779 689.968 689.926 694.613L689.924 694.614L689.923 694.615C677.406 701.182 671.148 704.466 664.894 705.743C653.991 707.969 642.651 706.076 633.062 700.431C627.561 697.193 622.708 692.055 613.003 681.779C606.135 674.509 602.701 670.874 598.799 668.181C592.009 663.497 584.063 660.769 575.827 660.295C571.094 660.023 566.151 660.782 556.267 662.302C542.296 664.449 535.311 665.523 528.981 664.7C517.946 663.265 507.835 657.793 500.598 649.34C496.447 644.491 493.526 638.056 487.682 625.185C483.547 616.079 481.48 611.526 478.663 607.712C473.763 601.077 467.132 595.917 459.497 592.795C455.109 591 450.188 590.114 440.346 588.342C426.434 585.836 419.478 584.584 413.759 581.75C403.788 576.81 396.001 568.351 391.901 558.006C389.55 552.073 388.876 545.037 387.528 530.967C386.574 521.012 386.097 516.034 384.671 511.512C382.19 503.645 377.595 496.612 371.387 491.18C367.819 488.057 363.452 485.621 354.719 480.749C342.375 473.863 336.203 470.419 331.713 465.882C323.887 457.972 319.268 447.443 318.75 436.328C318.452 429.952 320.099 423.079 323.393 409.333L323.393 409.332C325.723 399.608 326.889 394.745 327.008 390.005C327.216 381.759 325.154 373.614 321.046 366.461C318.685 362.349 315.346 358.627 308.668 351.183L308.667 351.183C299.228 340.662 294.509 335.401 291.736 329.652C286.902 319.63 285.952 308.171 289.071 297.49C290.86 291.363 294.649 285.397 302.228 273.465C307.589 265.024 310.27 260.803 311.923 256.359C314.797 248.627 315.491 240.254 313.928 232.154C313.03 227.499 311.081 222.894 307.181 213.686L307.181 213.685C301.67 200.669 298.914 194.161 298.158 187.823C296.84 176.774 299.663 165.628 306.08 156.538C309.762 151.324 315.283 146.911 326.325 138.087C334.138 131.844 338.044 128.722 341.049 125.055C346.279 118.676 349.653 110.981 350.806 102.813C351.468 98.1184 351.119 93.1303 350.421 83.1542L350.421 83.1537C349.435 69.0534 348.941 62.0032 350.284 55.7633C352.625 44.8849 358.914 35.2596 367.936 28.746C373.111 25.0096 379.765 22.6292 393.074 17.8683C402.491 14.5 407.199 12.8159 411.232 10.3235C418.249 5.9874 423.94 -0.194 427.682 -7.54532C429.832 -11.7709 431.122 -16.602 433.701 -26.2642C437.347 -39.9211 439.17 -46.7495 442.466 -52.2154C448.212 -61.7442 457.285 -68.8061 467.933 -72.0375C474.041 -73.891 481.108 -73.9818 495.242 -74.1632C505.242 -74.2915 510.241 -74.3557 514.866 -75.4034C522.911 -77.226 530.3 -81.2248 536.226 -86.9629C539.632 -90.2612 542.42 -94.4118 547.997 -102.713C555.88 -114.446 559.821 -120.313 564.713 -124.412C573.242 -131.559 584.117 -135.292 595.237 -134.891C601.616 -134.661 608.329 -132.452 621.756 -128.034C631.256 -124.909 636.006 -123.346 640.719 -122.836C648.92 -121.947 657.207 -123.33 664.675 -126.833C668.968 -128.847 672.953 -131.867 680.922 -137.907L680.923 -137.908Z" fill="url(#paint0_linear_395_1568)"/>
<rect x="72" y="-86.4727" width="1295.83" height="364.452" fill="url(#paint1_linear_395_1568)"/>
<rect width="1295.83" height="364.452" transform="matrix(1 0 0 -1 72 795.453)" fill="url(#paint2_linear_395_1568)"/>
<g filter="url(#filter0_d_395_1568)">
<rect x="220" y="445" width="63.2073" height="63.2073" rx="31.6037" fill="white" shape-rendering="crispEdges"/>
<g clip-path="url(#clip1_395_1568)">
<path d="M245.876 492.656C248.805 492.656 251.183 490.259 251.183 487.305V481.953H245.876C242.946 481.953 240.568 484.351 240.568 487.305C240.568 490.259 242.946 492.656 245.876 492.656Z" fill="#0ACF83"/>
<path d="M240.568 476.602C240.568 473.648 242.946 471.25 245.876 471.25H251.183V481.953H245.876C242.946 481.953 240.568 479.556 240.568 476.602Z" fill="#A259FF"/>
<path d="M240.57 465.898C240.57 462.944 242.948 460.547 245.878 460.547H251.185V471.25H245.878C242.948 471.25 240.57 468.853 240.57 465.898Z" fill="#F24E1E"/>
<path d="M251.184 460.547H256.491C259.421 460.547 261.798 462.944 261.798 465.898C261.798 468.853 259.421 471.25 256.491 471.25H251.184V460.547Z" fill="#FF7262"/>
<path d="M261.798 476.602C261.798 479.556 259.421 481.953 256.491 481.953C253.561 481.953 251.184 479.556 251.184 476.602C251.184 473.648 253.561 471.25 256.491 471.25C259.421 471.25 261.798 473.648 261.798 476.602Z" fill="#1ABCFE"/>
</g>
</g>
<g filter="url(#filter1_d_395_1568)">
<rect x="122" y="75" width="54.1777" height="54.1777" rx="27.0889" fill="white" shape-rendering="crispEdges"/>
<g clip-path="url(#clip2_395_1568)">
<path d="M157.195 114.131H141.382C138.985 114.131 137.047 112.176 137.047 109.758V94.4231C137.047 92.0045 138.985 90.0493 141.382 90.0493H157.195C159.592 90.0493 161.53 92.0045 161.53 94.4231V109.758C161.53 112.176 159.592 114.131 157.195 114.131Z" fill="#FF26BE"/>
<path d="M156.806 113.1H141.769C139.729 113.1 138.066 111.422 138.066 109.364V94.8122C138.066 92.7543 139.729 91.0767 141.769 91.0767H156.796C158.847 91.0767 160.499 92.7543 160.499 94.8122V109.354C160.509 111.422 158.846 113.1 156.806 113.1Z" fill="#2E001F"/>
<path d="M146.727 101.317L149.584 106.854C149.635 106.936 149.605 107.019 149.523 107.019H147.747C147.634 107.019 147.583 106.988 147.533 106.885C146.879 105.527 146.216 104.168 145.533 102.707H145.512C144.9 104.086 144.226 105.538 143.574 106.896C143.523 106.978 143.472 107.01 143.39 107.01H141.708C141.607 107.01 141.596 106.928 141.648 106.865L144.443 101.493L141.74 96.0589C141.678 95.9769 141.74 95.9147 141.8 95.9147H143.555C143.657 95.9147 143.698 95.9354 143.739 96.0283C144.381 97.3868 145.034 98.7867 145.646 100.155H145.667C146.258 98.7966 146.912 97.3868 147.544 96.0382C147.595 95.9562 147.626 95.9048 147.728 95.9048H149.371C149.452 95.9048 149.483 95.967 149.432 96.049L146.727 101.317ZM150.085 102.995C150.085 100.597 151.666 98.7235 154.175 98.7235C154.39 98.7235 154.501 98.7235 154.706 98.7443V96.0174C154.706 95.9552 154.757 95.9147 154.808 95.9147H156.42C156.501 95.9147 156.522 95.9453 156.522 95.9967V105.445C156.522 105.722 156.522 106.072 156.573 106.454C156.573 106.516 156.552 106.536 156.492 106.567C155.635 106.979 154.737 107.164 153.88 107.164C151.665 107.173 150.084 105.795 150.085 102.995ZM154.705 100.361C154.562 100.298 154.359 100.258 154.114 100.258C152.828 100.258 151.931 101.256 151.931 102.914C151.931 104.808 152.849 105.569 154.002 105.569C154.247 105.569 154.512 105.539 154.706 105.456V100.361H154.705Z" fill="#FFD9F2"/>
</g>
</g>
<g filter="url(#filter2_d_395_1568)">
<rect x="206" y="225" width="40.6333" height="40.6333" rx="20.3166" fill="white" shape-rendering="crispEdges"/>
<path opacity="0.2" d="M218.791 241.554L226.317 245.944L233.842 241.554L226.317 237.164L218.791 241.554Z" fill="#F249C8"/>
<path d="M218.791 249.08L226.317 253.47L233.842 249.08" stroke="#F249C8" stroke-width="1.25428" stroke-linecap="round" stroke-linejoin="round"/>
<path d="M218.791 245.317L226.317 249.707L233.842 245.317" stroke="#F249C8" stroke-width="1.25428" stroke-linecap="round" stroke-linejoin="round"/>
<path d="M218.791 241.554L226.317 245.944L233.842 241.554L226.317 237.164L218.791 241.554Z" stroke="#F249C8" stroke-width="1.25428" stroke-linecap="round" stroke-linejoin="round"/>
</g>
<g filter="url(#filter3_d_395_1568)">
<rect x="105" y="335" width="40.6333" height="40.6333" rx="20.3166" fill="white" shape-rendering="crispEdges"/>
<path opacity="0.2" d="M118.82 360.649C118.839 360.731 118.875 360.809 118.926 360.877C118.976 360.945 119.04 361.002 119.113 361.045C119.186 361.088 119.267 361.116 119.351 361.127C119.435 361.138 119.52 361.131 119.602 361.108C123.34 360.076 127.288 360.076 131.027 361.107C131.109 361.13 131.194 361.137 131.278 361.126C131.362 361.115 131.443 361.087 131.516 361.044C131.589 361.001 131.653 360.944 131.703 360.876C131.753 360.808 131.789 360.73 131.809 360.648L133.807 352.157C133.834 352.043 133.828 351.924 133.791 351.813C133.754 351.703 133.687 351.605 133.597 351.53C133.507 351.456 133.398 351.408 133.282 351.392C133.166 351.376 133.048 351.393 132.942 351.44L128.976 353.202C128.833 353.266 128.671 353.274 128.523 353.224C128.374 353.174 128.25 353.071 128.173 352.934L125.865 348.778C125.81 348.68 125.731 348.599 125.634 348.542C125.538 348.485 125.428 348.455 125.316 348.455C125.205 348.455 125.095 348.485 124.998 348.542C124.902 348.599 124.823 348.68 124.768 348.778L122.459 352.934C122.383 353.071 122.259 353.174 122.11 353.224C121.961 353.274 121.8 353.266 121.656 353.202L117.69 351.44C117.584 351.392 117.466 351.376 117.35 351.391C117.235 351.407 117.126 351.455 117.036 351.53C116.946 351.604 116.878 351.702 116.841 351.813C116.804 351.924 116.799 352.043 116.825 352.156L118.82 360.649Z" fill="#E64545"/>
<path d="M118.82 360.649C118.839 360.731 118.875 360.809 118.926 360.877C118.976 360.945 119.04 361.002 119.113 361.045C119.186 361.088 119.267 361.116 119.351 361.127C119.435 361.138 119.52 361.131 119.602 361.108C123.34 360.076 127.288 360.076 131.027 361.107C131.109 361.13 131.194 361.137 131.278 361.126C131.362 361.115 131.443 361.087 131.516 361.044C131.589 361.001 131.653 360.944 131.703 360.876C131.753 360.808 131.789 360.73 131.809 360.648L133.807 352.157C133.834 352.043 133.828 351.924 133.791 351.813C133.754 351.703 133.687 351.605 133.597 351.53C133.507 351.456 133.398 351.408 133.282 351.392C133.166 351.376 133.048 351.393 132.942 351.44L128.976 353.202C128.833 353.266 128.671 353.274 128.523 353.224C128.374 353.174 128.25 353.071 128.173 352.934L125.865 348.778C125.81 348.68 125.731 348.599 125.634 348.542C125.538 348.485 125.428 348.455 125.316 348.455C125.205 348.455 125.095 348.485 124.998 348.542C124.902 348.599 124.823 348.68 124.768 348.778L122.459 352.934C122.383 353.071 122.259 353.174 122.11 353.224C121.961 353.274 121.8 353.266 121.656 353.202L117.69 351.44C117.584 351.392 117.466 351.376 117.35 351.391C117.235 351.407 117.126 351.455 117.036 351.53C116.946 351.604 116.878 351.702 116.841 351.813C116.804 351.924 116.799 352.043 116.825 352.156L118.82 360.649Z" stroke="#E64545" stroke-width="1.25428" stroke-linecap="round" stroke-linejoin="round"/>
<path d="M122.809 357.957C124.476 357.781 126.158 357.781 127.826 357.957" stroke="#E64545" stroke-width="1.25428" stroke-linecap="round" stroke-linejoin="round"/>
</g>
<g filter="url(#filter4_d_395_1568)">
<rect x="1179" y="375" width="49.3714" height="49.3714" rx="24.6857" fill="white" shape-rendering="crispEdges"/>
<path d="M1198.2 396.257L1194.09 399.686L1198.2 403.114" stroke="#0B63E5" stroke-width="1.37143" stroke-linecap="round" stroke-linejoin="round"/>
<path d="M1209.17 396.257L1213.29 399.686L1209.17 403.114" stroke="#0B63E5" stroke-width="1.37143" stroke-linecap="round" stroke-linejoin="round"/>
<path d="M1206.43 392.143L1200.94 407.229" stroke="#0B63E5" stroke-width="1.37143" stroke-linecap="round" stroke-linejoin="round"/>
</g>
<g filter="url(#filter5_d_395_1568)">
<rect x="1168" y="81" width="49.3714" height="49.3714" rx="24.6857" fill="white" shape-rendering="crispEdges"/>
<path opacity="0.2" d="M1184.55 101.11C1184.49 101.216 1184.46 101.336 1184.46 101.458V109.913C1184.46 110.035 1184.49 110.154 1184.55 110.26C1184.61 110.365 1184.7 110.451 1184.81 110.511L1192.35 114.754C1192.45 114.812 1192.57 114.842 1192.69 114.842L1192.69 114.842L1192.77 105.686L1184.55 101.11L1184.55 101.11Z" fill="#7534FF"/>
<path d="M1200.91 109.913V101.458C1200.91 101.337 1200.88 101.217 1200.82 101.112C1200.76 101.007 1200.67 100.92 1200.56 100.861L1193.02 96.6178C1192.92 96.5601 1192.8 96.5298 1192.69 96.5298C1192.57 96.5298 1192.45 96.5601 1192.35 96.6178L1184.81 100.861C1184.7 100.92 1184.61 101.007 1184.55 101.112C1184.49 101.217 1184.46 101.337 1184.46 101.458V109.913C1184.46 110.035 1184.49 110.155 1184.55 110.26C1184.61 110.365 1184.7 110.451 1184.81 110.511L1192.35 114.754C1192.45 114.812 1192.57 114.842 1192.69 114.842C1192.8 114.842 1192.92 114.812 1193.02 114.754L1200.56 110.511C1200.67 110.451 1200.76 110.365 1200.82 110.26C1200.88 110.155 1200.91 110.035 1200.91 109.913Z" stroke="#7534FF" stroke-width="1.37143" stroke-linecap="round" stroke-linejoin="round"/>
<path d="M1196.89 107.787V103.33L1188.57 98.7429" stroke="#7534FF" stroke-width="1.37143" stroke-linecap="round" stroke-linejoin="round"/>
<path d="M1200.82 101.111L1192.77 105.686L1184.55 101.11" stroke="#7534FF" stroke-width="1.37143" stroke-linecap="round" stroke-linejoin="round"/>
<path d="M1192.77 105.686L1192.69 114.842" stroke="#7534FF" stroke-width="1.37143" stroke-linecap="round" stroke-linejoin="round"/>
</g>
<g filter="url(#filter6_d_395_1568)">
<rect x="1255" y="502" width="49.3714" height="49.3714" rx="24.6857" fill="white" shape-rendering="crispEdges"/>
<path opacity="0.2" d="M1273.52 520.514V525.237C1273.52 528.64 1276.24 531.46 1279.64 531.486C1280.45 531.492 1281.26 531.337 1282.02 531.029C1282.77 530.722 1283.46 530.268 1284.03 529.695C1284.61 529.121 1285.07 528.439 1285.38 527.687C1285.7 526.935 1285.86 526.129 1285.86 525.314V520.514C1285.86 520.332 1285.79 520.158 1285.66 520.029C1285.53 519.901 1285.35 519.829 1285.17 519.829H1274.2C1274.02 519.829 1273.85 519.901 1273.72 520.029C1273.59 520.158 1273.52 520.332 1273.52 520.514Z" fill="#FF8800"/>
<path d="M1273.52 520.514V525.237C1273.52 528.64 1276.24 531.46 1279.64 531.486C1280.45 531.492 1281.26 531.337 1282.02 531.029C1282.77 530.722 1283.46 530.268 1284.03 529.695C1284.61 529.121 1285.07 528.439 1285.38 527.687C1285.7 526.935 1285.86 526.129 1285.86 525.314V520.514C1285.86 520.332 1285.79 520.158 1285.66 520.029C1285.53 519.901 1285.35 519.829 1285.17 519.829H1274.2C1274.02 519.829 1273.85 519.901 1273.72 520.029C1273.59 520.158 1273.52 520.332 1273.52 520.514Z" stroke="#FF8800" stroke-width="1.37143" stroke-linecap="round" stroke-linejoin="round"/>
<path d="M1276.94 534.914H1282.43" stroke="#FF8800" stroke-width="1.37143" stroke-linecap="round" stroke-linejoin="round"/>
<path d="M1279.69 531.486V534.914" stroke="#FF8800" stroke-width="1.37143" stroke-linecap="round" stroke-linejoin="round"/>
<path d="M1285.71 526.686H1286.54C1287.27 526.686 1287.97 526.397 1288.48 525.882C1289 525.368 1289.29 524.67 1289.29 523.943V522.571C1289.29 522.39 1289.21 522.215 1289.09 522.087C1288.96 521.958 1288.78 521.886 1288.6 521.886H1285.86" stroke="#FF8800" stroke-width="1.37143" stroke-linecap="round" stroke-linejoin="round"/>
<path d="M1273.68 526.686H1272.82C1272.09 526.686 1271.39 526.397 1270.88 525.882C1270.37 525.368 1270.08 524.67 1270.08 523.943V522.571C1270.08 522.39 1270.15 522.215 1270.28 522.087C1270.41 521.958 1270.58 521.886 1270.76 521.886H1273.5" stroke="#FF8800" stroke-width="1.37143" stroke-linecap="round" stroke-linejoin="round"/>
</g>
<g filter="url(#filter7_d_395_1568)">
<rect x="1259" y="189" width="60" height="60" rx="30" fill="white" shape-rendering="crispEdges"/>
<g clip-path="url(#clip3_395_1568)">
<path d="M1285.55 206.952C1281.61 207.243 1278.27 207.511 1278.11 207.543C1277.67 207.621 1277.27 207.92 1277.08 208.314L1276.91 208.66L1276.93 216.916L1276.95 225.173L1277.21 225.684C1277.35 225.967 1278.31 227.29 1279.35 228.651C1281.42 231.335 1281.57 231.485 1282.36 231.563C1282.59 231.587 1284.3 231.508 1286.16 231.398C1288.03 231.28 1291.02 231.099 1292.81 230.997C1300.48 230.532 1300.08 230.571 1300.52 230.193C1301.08 229.737 1301.04 230.484 1301.06 220.45C1301.08 211.942 1301.07 211.383 1300.94 211.124C1300.79 210.832 1300.52 210.628 1297.03 208.172C1294.69 206.535 1294.53 206.449 1293.48 206.433C1293.05 206.417 1289.47 206.653 1285.55 206.952ZM1294.39 208.03C1294.72 208.18 1297.14 209.864 1297.49 210.187C1297.59 210.281 1297.62 210.36 1297.57 210.407C1297.46 210.502 1282.51 211.391 1282.08 211.328C1281.88 211.297 1281.59 211.179 1281.42 211.068C1280.74 210.604 1279.04 209.211 1279.04 209.109C1279.04 208.841 1278.98 208.841 1285.65 208.361C1286.93 208.275 1289.02 208.117 1290.29 208.015C1293.06 207.794 1293.88 207.802 1294.39 208.03ZM1299.15 212.336C1299.26 212.446 1299.35 212.658 1299.38 212.863C1299.41 213.052 1299.42 216.578 1299.41 220.686C1299.38 227.737 1299.38 228.178 1299.24 228.383C1299.16 228.509 1299.01 228.643 1298.89 228.682C1298.56 228.816 1282.89 229.705 1282.56 229.611C1282.42 229.571 1282.21 229.446 1282.1 229.336L1281.91 229.131L1281.89 221.528C1281.87 216.192 1281.89 213.831 1281.95 213.619C1282 213.461 1282.12 213.272 1282.22 213.21C1282.36 213.115 1283.29 213.036 1286.48 212.848C1288.73 212.722 1292.2 212.509 1294.19 212.391C1298.93 212.1 1298.91 212.1 1299.15 212.336Z" fill="black"/>
<path d="M1294.94 214.941C1294.09 214.996 1293.33 215.075 1293.24 215.122C1292.98 215.256 1292.83 215.476 1292.8 215.728C1292.77 215.988 1292.85 216.019 1293.7 216.122L1294.07 216.169V219.53C1294.07 221.529 1294.04 222.851 1294 222.812C1293.96 222.764 1292.84 221.065 1291.51 219.034C1290.18 216.996 1289.08 215.319 1289.06 215.304C1289.05 215.288 1288.18 215.335 1287.14 215.406C1285.87 215.493 1285.17 215.571 1285.03 215.65C1284.8 215.768 1284.55 216.185 1284.55 216.461C1284.55 216.626 1284.85 216.713 1285.48 216.713H1285.81V226.377L1285.27 226.543C1284.85 226.668 1284.71 226.747 1284.64 226.904C1284.52 227.172 1284.52 227.416 1284.65 227.416C1284.7 227.416 1285.59 227.361 1286.61 227.298C1288.63 227.18 1288.86 227.125 1289.07 226.708C1289.14 226.582 1289.19 226.448 1289.19 226.409C1289.19 226.377 1288.91 226.283 1288.58 226.204C1288.25 226.125 1287.91 226.047 1287.84 226.031C1287.7 225.992 1287.69 225.748 1287.69 222.363V218.735L1290.09 222.489C1292.6 226.424 1292.91 226.873 1293.3 227.07C1293.78 227.321 1295 227.148 1295.61 226.747L1295.8 226.629L1295.82 221.262L1295.84 215.886L1296.26 215.808C1296.75 215.713 1296.98 215.485 1296.98 215.092C1296.98 214.84 1296.97 214.824 1296.73 214.832C1296.59 214.838 1295.78 214.886 1294.94 214.941Z" fill="black"/>
</g>
</g>
</g>
<defs>
<filter id="filter0_d_395_1568" x="189.897" y="414.897" width="123.412" height="123.413" filterUnits="userSpaceOnUse" color-interpolation-filters="sRGB">
<feFlood flood-opacity="0" result="BackgroundImageFix"/>
<feColorMatrix in="SourceAlpha" type="matrix" values="0 0 0 0 0 0 0 0 0 0 0 0 0 0 0 0 0 0 127 0" result="hardAlpha"/>
<feOffset/>
<feGaussianBlur stdDeviation="15.0513"/>
<feComposite in2="hardAlpha" operator="out"/>
<feColorMatrix type="matrix" values="0 0 0 0 0.0235294 0 0 0 0 0.109804 0 0 0 0 0.239216 0 0 0 0.1 0"/>
<feBlend mode="normal" in2="BackgroundImageFix" result="effect1_dropShadow_395_1568"/>
<feBlend mode="normal" in="SourceGraphic" in2="effect1_dropShadow_395_1568" result="shape"/>
</filter>
<filter id="filter1_d_395_1568" x="91.8973" y="44.8973" width="114.383" height="114.383" filterUnits="userSpaceOnUse" color-interpolation-filters="sRGB">
<feFlood flood-opacity="0" result="BackgroundImageFix"/>
<feColorMatrix in="SourceAlpha" type="matrix" values="0 0 0 0 0 0 0 0 0 0 0 0 0 0 0 0 0 0 127 0" result="hardAlpha"/>
<feOffset/>
<feGaussianBlur stdDeviation="15.0513"/>
<feComposite in2="hardAlpha" operator="out"/>
<feColorMatrix type="matrix" values="0 0 0 0 0.0235294 0 0 0 0 0.109804 0 0 0 0 0.239216 0 0 0 0.1 0"/>
<feBlend mode="normal" in2="BackgroundImageFix" result="effect1_dropShadow_395_1568"/>
<feBlend mode="normal" in="SourceGraphic" in2="effect1_dropShadow_395_1568" result="shape"/>
</filter>
<filter id="filter2_d_395_1568" x="175.897" y="194.897" width="100.838" height="100.839" filterUnits="userSpaceOnUse" color-interpolation-filters="sRGB">
<feFlood flood-opacity="0" result="BackgroundImageFix"/>
<feColorMatrix in="SourceAlpha" type="matrix" values="0 0 0 0 0 0 0 0 0 0 0 0 0 0 0 0 0 0 127 0" result="hardAlpha"/>
<feOffset/>
<feGaussianBlur stdDeviation="15.0513"/>
<feComposite in2="hardAlpha" operator="out"/>
<feColorMatrix type="matrix" values="0 0 0 0 0.0235294 0 0 0 0 0.109804 0 0 0 0 0.239216 0 0 0 0.1 0"/>
<feBlend mode="normal" in2="BackgroundImageFix" result="effect1_dropShadow_395_1568"/>
<feBlend mode="normal" in="SourceGraphic" in2="effect1_dropShadow_395_1568" result="shape"/>
</filter>
<filter id="filter3_d_395_1568" x="74.8973" y="304.897" width="100.838" height="100.839" filterUnits="userSpaceOnUse" color-interpolation-filters="sRGB">
<feFlood flood-opacity="0" result="BackgroundImageFix"/>
<feColorMatrix in="SourceAlpha" type="matrix" values="0 0 0 0 0 0 0 0 0 0 0 0 0 0 0 0 0 0 127 0" result="hardAlpha"/>
<feOffset/>
<feGaussianBlur stdDeviation="15.0513"/>
<feComposite in2="hardAlpha" operator="out"/>
<feColorMatrix type="matrix" values="0 0 0 0 0.0235294 0 0 0 0 0.109804 0 0 0 0 0.239216 0 0 0 0.1 0"/>
<feBlend mode="normal" in2="BackgroundImageFix" result="effect1_dropShadow_395_1568"/>
<feBlend mode="normal" in="SourceGraphic" in2="effect1_dropShadow_395_1568" result="shape"/>
</filter>
<filter id="filter4_d_395_1568" x="1146.09" y="342.086" width="115.2" height="115.2" filterUnits="userSpaceOnUse" color-interpolation-filters="sRGB">
<feFlood flood-opacity="0" result="BackgroundImageFix"/>
<feColorMatrix in="SourceAlpha" type="matrix" values="0 0 0 0 0 0 0 0 0 0 0 0 0 0 0 0 0 0 127 0" result="hardAlpha"/>
<feOffset/>
<feGaussianBlur stdDeviation="16.4571"/>
<feComposite in2="hardAlpha" operator="out"/>
<feColorMatrix type="matrix" values="0 0 0 0 0.0235294 0 0 0 0 0.109804 0 0 0 0 0.239216 0 0 0 0.12 0"/>
<feBlend mode="normal" in2="BackgroundImageFix" result="effect1_dropShadow_395_1568"/>
<feBlend mode="normal" in="SourceGraphic" in2="effect1_dropShadow_395_1568" result="shape"/>
</filter>
<filter id="filter5_d_395_1568" x="1135.09" y="48.0857" width="115.2" height="115.2" filterUnits="userSpaceOnUse" color-interpolation-filters="sRGB">
<feFlood flood-opacity="0" result="BackgroundImageFix"/>
<feColorMatrix in="SourceAlpha" type="matrix" values="0 0 0 0 0 0 0 0 0 0 0 0 0 0 0 0 0 0 127 0" result="hardAlpha"/>
<feOffset/>
<feGaussianBlur stdDeviation="16.4571"/>
<feComposite in2="hardAlpha" operator="out"/>
<feColorMatrix type="matrix" values="0 0 0 0 0.0235294 0 0 0 0 0.109804 0 0 0 0 0.239216 0 0 0 0.12 0"/>
<feBlend mode="normal" in2="BackgroundImageFix" result="effect1_dropShadow_395_1568"/>
<feBlend mode="normal" in="SourceGraphic" in2="effect1_dropShadow_395_1568" result="shape"/>
</filter>
<filter id="filter6_d_395_1568" x="1222.09" y="469.086" width="115.2" height="115.2" filterUnits="userSpaceOnUse" color-interpolation-filters="sRGB">
<feFlood flood-opacity="0" result="BackgroundImageFix"/>
<feColorMatrix in="SourceAlpha" type="matrix" values="0 0 0 0 0 0 0 0 0 0 0 0 0 0 0 0 0 0 127 0" result="hardAlpha"/>
<feOffset/>
<feGaussianBlur stdDeviation="16.4571"/>
<feComposite in2="hardAlpha" operator="out"/>
<feColorMatrix type="matrix" values="0 0 0 0 0.0235294 0 0 0 0 0.109804 0 0 0 0 0.239216 0 0 0 0.12 0"/>
<feBlend mode="normal" in2="BackgroundImageFix" result="effect1_dropShadow_395_1568"/>
<feBlend mode="normal" in="SourceGraphic" in2="effect1_dropShadow_395_1568" result="shape"/>
</filter>
<filter id="filter7_d_395_1568" x="1233.29" y="163.286" width="111.429" height="111.429" filterUnits="userSpaceOnUse" color-interpolation-filters="sRGB">
<feFlood flood-opacity="0" result="BackgroundImageFix"/>
<feColorMatrix in="SourceAlpha" type="matrix" values="0 0 0 0 0 0 0 0 0 0 0 0 0 0 0 0 0 0 127 0" result="hardAlpha"/>
<feOffset/>
<feGaussianBlur stdDeviation="12.8571"/>
<feComposite in2="hardAlpha" operator="out"/>
<feColorMatrix type="matrix" values="0 0 0 0 0.0235294 0 0 0 0 0.109804 0 0 0 0 0.239216 0 0 0 0.12 0"/>
<feBlend mode="normal" in2="BackgroundImageFix" result="effect1_dropShadow_395_1568"/>
<feBlend mode="normal" in="SourceGraphic" in2="effect1_dropShadow_395_1568" result="shape"/>
</filter>
<linearGradient id="paint0_linear_395_1568" x1="73.2002" y1="-85.781" x2="1366.62" y2="-82.1334" gradientUnits="userSpaceOnUse">
<stop stop-color="#CEE0FA"/>
<stop offset="0.255208" stop-color="white"/>
<stop offset="0.510417" stop-color="white"/>
<stop offset="0.776042" stop-color="white"/>
<stop offset="1" stop-color="#CEE0FA"/>
</linearGradient>
<linearGradient id="paint1_linear_395_1568" x1="720" y1="-4" x2="719.915" y2="277.979" gradientUnits="userSpaceOnUse">
<stop stop-color="white"/>
<stop offset="1" stop-color="white" stop-opacity="0"/>
</linearGradient>
<linearGradient id="paint2_linear_395_1568" x1="648" y1="82.4727" x2="647.915" y2="364.452" gradientUnits="userSpaceOnUse">
<stop stop-color="white"/>
<stop offset="1" stop-color="white" stop-opacity="0"/>
</linearGradient>
<clipPath id="clip0_395_1568">
<rect width="1440" height="632" fill="white"/>
</clipPath>
<clipPath id="clip1_395_1568">
<rect width="21.2337" height="32.1095" fill="white" transform="translate(240.566 460.547)"/>
</clipPath>
<clipPath id="clip2_395_1568">
<rect width="24.4835" height="24.0822" fill="white" transform="translate(137.047 90.0493)"/>
</clipPath>
<clipPath id="clip3_395_1568">
<rect width="25.7143" height="25.7143" fill="white" transform="translate(1276.14 206.143)"/>
</clipPath>
</defs>
</svg>
