<svg width="9" height="16" viewBox="0 0 9 16" fill="none" xmlns="http://www.w3.org/2000/svg">
<path d="M7.6205 1.88553L0.5 0.394531V15.0435H7.25C8.2145 15.0435 9.0005 14.259 9.0005 13.293V3.59553C9.0005 2.76903 8.4365 2.06553 7.6205 1.88553ZM5.2505 12.0435H3.7505C3.3365 12.0435 3.0005 11.7075 3.0005 11.2935C3.0005 10.8795 3.3365 10.5435 3.7505 10.5435H5.2505C5.6645 10.5435 6.0005 10.8795 6.0005 11.2935C6.0005 11.7075 5.6645 12.0435 5.2505 12.0435ZM5.2505 9.04353H3.7505C3.3365 9.04353 3.0005 8.70753 3.0005 8.29353C3.0005 7.87953 3.3365 7.54353 3.7505 7.54353H5.2505C5.6645 7.54353 6.0005 7.87953 6.0005 8.29353C6.0005 8.70753 5.6645 9.04353 5.2505 9.04353ZM5.2505 6.04353H3.7505C3.3365 6.04353 3.0005 5.70753 3.0005 5.29353C3.0005 4.87953 3.3365 4.54353 3.7505 4.54353H5.2505C5.6645 4.54353 6.0005 4.87953 6.0005 5.29353C6.0005 5.70753 5.6645 6.04353 5.2505 6.04353Z" fill="#7755FF"/>
</svg>
