<svg width="23" height="23" viewBox="0 0 23 23" fill="none" xmlns="http://www.w3.org/2000/svg">
<g clip-path="url(#clip0_625_3200)">
<path d="M5.85054 6.21094L3.85792 6.36488C3.30345 6.40774 2.80963 6.69834 2.50299 7.16215L0.204943 10.6378C-0.0276155 10.9896 -0.0645859 11.4297 0.105981 11.8153C0.276593 12.201 0.627205 12.4697 1.04385 12.5342L2.86834 12.8168C3.29514 10.5518 4.31683 8.29247 5.85054 6.21094Z" fill="#FFD050"/>
<path d="M10.1836 20.1306L10.4662 21.9551C10.5307 22.3718 10.7995 22.7224 11.185 22.893C11.3454 22.9639 11.5152 22.999 11.6842 22.999C11.9215 22.999 12.1572 22.9298 12.3626 22.794L15.8384 20.496C16.3022 20.1893 16.5928 19.6954 16.6355 19.1411L16.7895 17.1484C14.7079 18.6822 12.4486 19.7039 10.1836 20.1306Z" fill="#FFD050"/>
<path d="M9.49658 18.8685C9.55992 18.8685 9.62362 18.8633 9.68718 18.8527C10.6361 18.694 11.5507 18.4267 12.4232 18.0769L4.92442 10.5781C4.57457 11.4505 4.30729 12.3651 4.14863 13.3141C4.0861 13.6882 4.21156 14.0692 4.4797 14.3374L8.66387 18.5216C8.8865 18.7442 9.18698 18.8685 9.49658 18.8685Z" fill="#FFD050"/>
<path d="M21.1661 10.1973C23.0011 6.64969 23.069 2.90072 22.9731 1.14249C22.9403 0.540047 22.46 0.0597456 21.8575 0.026908C21.5712 0.0112753 21.2319 0 20.8495 0C18.8835 0 15.7726 0.297785 12.8027 1.83397C10.4424 3.0548 7.34745 5.74295 5.52148 9.27567C5.54305 9.29251 5.56411 9.31039 5.58397 9.33025L13.6698 17.4161C13.6897 17.436 13.7075 17.457 13.7244 17.4786C17.2571 15.6525 19.9453 12.5576 21.1661 10.1973ZM13.3731 4.86231C14.6866 3.54876 16.8241 3.54862 18.1377 4.86231C18.7741 5.49862 19.1245 6.34472 19.1245 7.24463C19.1245 8.14454 18.7741 8.99064 18.1377 9.62695C17.481 10.2837 16.618 10.6121 15.7554 10.6122C14.8925 10.6122 14.03 10.2838 13.3731 9.62695C12.7367 8.99064 12.3863 8.14454 12.3863 7.24463C12.3863 6.34472 12.7367 5.49862 13.3731 4.86231Z" fill="#232536"/>
<path d="M14.3264 8.67257C15.1146 9.46072 16.3971 9.46076 17.1853 8.67257C17.5671 8.29073 17.7773 7.78311 17.7773 7.24315C17.7773 6.70319 17.5671 6.19557 17.1853 5.81378C16.7912 5.41968 16.2735 5.22266 15.7559 5.22266C15.2382 5.22266 14.7205 5.41968 14.3265 5.81378C13.9447 6.19557 13.7344 6.70319 13.7344 7.24315C13.7344 7.78311 13.9447 8.29078 14.3264 8.67257Z" fill="#232536"/>
<path d="M0.687523 18.9539C0.859978 18.9539 1.03243 18.8881 1.16396 18.7565L3.36392 16.5565C3.62708 16.2934 3.62708 15.8668 3.36392 15.6036C3.10082 15.3405 2.67415 15.3405 2.411 15.6036L0.211036 17.8036C-0.0521162 18.0667 -0.0521162 18.4934 0.211036 18.7565C0.342612 18.8881 0.515068 18.9539 0.687523 18.9539Z" fill="#FFD050"/>
<path d="M5.37991 17.6192C5.1168 17.3561 4.69014 17.3561 4.42698 17.6192L0.197364 21.8489C-0.0657881 22.112 -0.0657881 22.5386 0.197364 22.8018C0.32894 22.9334 0.501396 22.9991 0.673851 22.9991C0.846306 22.9991 1.01876 22.9334 1.15029 22.8017L5.37987 18.5722C5.64306 18.309 5.64306 17.8824 5.37991 17.6192Z" fill="#FFD050"/>
<path d="M6.44415 19.6349L4.24424 21.8348C3.98109 22.098 3.98109 22.5246 4.24424 22.7877C4.37582 22.9193 4.54827 22.9851 4.72068 22.9851C4.89309 22.9851 5.06559 22.9194 5.19712 22.7877L7.39708 20.5878C7.66023 20.3246 7.66023 19.898 7.39708 19.6349C7.13397 19.3717 6.70731 19.3717 6.44415 19.6349Z" fill="#FFD050"/>
</g>
<defs>
<clipPath id="clip0_625_3200">
<rect width="23" height="23" fill="white"/>
</clipPath>
</defs>
</svg>
