<svg width="48" height="48" viewBox="0 0 48 48" fill="none" xmlns="http://www.w3.org/2000/svg">
<path d="M25.0305 13.9137L14.04 12.2442C13.53 12.1647 13.0095 12.3042 12.6195 12.6342C12.2295 12.9747 12 13.4637 12 13.9737V35.0442C12 35.5947 12.45 36.0447 13.0005 36.0447H16.251V30.7947C16.251 29.8242 17.031 29.0442 18.0015 29.0442H20.502C21.4725 29.0442 22.2525 29.8242 22.2525 30.7947V36.0447H26.502V15.6447C26.5005 14.7837 25.8795 14.0547 25.0305 13.9137ZM17.5005 26.7942H16.0005C15.5865 26.7942 15.2505 26.4582 15.2505 26.0442C15.2505 25.6302 15.5865 25.2942 16.0005 25.2942H17.5005C17.9145 25.2942 18.2505 25.6302 18.2505 26.0442C18.2505 26.4582 17.9145 26.7942 17.5005 26.7942ZM17.5005 23.7942H16.0005C15.5865 23.7942 15.2505 23.4582 15.2505 23.0442C15.2505 22.6302 15.5865 22.2942 16.0005 22.2942H17.5005C17.9145 22.2942 18.2505 22.6302 18.2505 23.0442C18.2505 23.4582 17.9145 23.7942 17.5005 23.7942ZM17.5005 20.7942H16.0005C15.5865 20.7942 15.2505 20.4582 15.2505 20.0442C15.2505 19.6302 15.5865 19.2942 16.0005 19.2942H17.5005C17.9145 19.2942 18.2505 19.6302 18.2505 20.0442C18.2505 20.4582 17.9145 20.7942 17.5005 20.7942ZM17.5005 17.7942H16.0005C15.5865 17.7942 15.2505 17.4582 15.2505 17.0442C15.2505 16.6302 15.5865 16.2942 16.0005 16.2942H17.5005C17.9145 16.2942 18.2505 16.6302 18.2505 17.0442C18.2505 17.4582 17.9145 17.7942 17.5005 17.7942ZM22.5 26.7942H21C20.586 26.7942 20.25 26.4582 20.25 26.0442C20.25 25.6302 20.586 25.2942 21 25.2942H22.5C22.914 25.2942 23.25 25.6302 23.25 26.0442C23.25 26.4582 22.914 26.7942 22.5 26.7942ZM22.5 23.7942H21C20.586 23.7942 20.25 23.4582 20.25 23.0442C20.25 22.6302 20.586 22.2942 21 22.2942H22.5C22.914 22.2942 23.25 22.6302 23.25 23.0442C23.25 23.4582 22.914 23.7942 22.5 23.7942ZM22.5 20.7942H21C20.586 20.7942 20.25 20.4582 20.25 20.0442C20.25 19.6302 20.586 19.2942 21 19.2942H22.5C22.914 19.2942 23.25 19.6302 23.25 20.0442C23.25 20.4582 22.914 20.7942 22.5 20.7942ZM22.5 17.7942H21C20.586 17.7942 20.25 17.4582 20.25 17.0442C20.25 16.6302 20.586 16.2942 21 16.2942H22.5C22.914 16.2942 23.25 16.6302 23.25 17.0442C23.25 17.4582 22.914 17.7942 22.5 17.7942Z" fill="#232536"/>
<path d="M34.6205 22.8855L27.5 21.3945V36.0435H34.25C35.2145 36.0435 36.0005 35.259 36.0005 34.293V24.5955C36.0005 23.769 35.4365 23.0655 34.6205 22.8855ZM32.2505 33.0435H30.7505C30.3365 33.0435 30.0005 32.7075 30.0005 32.2935C30.0005 31.8795 30.3365 31.5435 30.7505 31.5435H32.2505C32.6645 31.5435 33.0005 31.8795 33.0005 32.2935C33.0005 32.7075 32.6645 33.0435 32.2505 33.0435ZM32.2505 30.0435H30.7505C30.3365 30.0435 30.0005 29.7075 30.0005 29.2935C30.0005 28.8795 30.3365 28.5435 30.7505 28.5435H32.2505C32.6645 28.5435 33.0005 28.8795 33.0005 29.2935C33.0005 29.7075 32.6645 30.0435 32.2505 30.0435ZM32.2505 27.0435H30.7505C30.3365 27.0435 30.0005 26.7075 30.0005 26.2935C30.0005 25.8795 30.3365 25.5435 30.7505 25.5435H32.2505C32.6645 25.5435 33.0005 25.8795 33.0005 26.2935C33.0005 26.7075 32.6645 27.0435 32.2505 27.0435Z" fill="#7755FF"/>
</svg>
