<svg width="23" height="24" viewBox="0 0 23 24" fill="none" xmlns="http://www.w3.org/2000/svg">
<g clip-path="url(#clip0_625_3216)">
<path d="M5.11557 15.4258H2.53171C1.5999 15.4258 0.841797 16.2183 0.841797 17.1925V22.9155C0.841797 23.5138 1.30738 24.0005 1.87959 24.0005H5.76759C6.33985 24.0005 6.80544 23.5138 6.80544 22.9155V17.1926C6.80544 16.2183 6.04738 15.4258 5.11557 15.4258Z" fill="#232536"/>
<path d="M12.6996 11.9492H10.1157C9.18389 11.9492 8.42578 12.7418 8.42578 13.7159V22.9148C8.42578 23.5131 8.89137 23.9998 9.46363 23.9998H13.3516C13.9239 23.9998 14.3894 23.5131 14.3894 22.9148V13.7159C14.3894 12.7417 13.6314 11.9492 12.6996 11.9492Z" fill="#232536"/>
<path d="M20.4261 7.98828H17.8423C16.9104 7.98828 16.1523 8.78085 16.1523 9.75496V22.9143C16.1523 23.5126 16.6179 23.9993 17.1901 23.9993H21.0781C21.6504 23.9993 22.1159 23.5126 22.1159 22.9143V9.75496C22.116 8.78085 21.3579 7.98828 20.4261 7.98828Z" fill="#232536"/>
<path d="M18.3681 0.668647C18.052 0.201584 17.538 -0.0454012 16.9929 0.00691139L12.1128 0.478944C11.5678 0.531678 11.1059 0.873397 10.8771 1.3931C10.6483 1.91281 10.7004 2.50198 11.0165 2.96904L11.2889 3.37151L5.23176 7.74725L5.22557 7.7518C4.79576 8.06975 4.51015 8.54371 4.42133 9.08629C4.33251 9.62887 4.45106 10.1751 4.75519 10.6244C5.05932 11.0737 5.51266 11.3724 6.03165 11.4653C6.1441 11.4854 6.25669 11.4954 6.36851 11.4954C6.77133 11.4954 7.1637 11.3662 7.49957 11.1188L13.5664 6.73621L13.8476 7.15157C14.1357 7.57714 14.588 7.82029 15.0783 7.82029C15.1261 7.82029 15.1743 7.81794 15.2228 7.8133C15.7677 7.76057 16.2297 7.4188 16.4585 6.89905L18.5076 2.24459C18.7364 1.72479 18.6843 1.13566 18.3681 0.668647Z" fill="#7755FF"/>
</g>
<defs>
<clipPath id="clip0_625_3216">
<rect width="22.9565" height="24" fill="white"/>
</clipPath>
</defs>
</svg>
