<svg width="15" height="25" viewBox="0 0 15 25" fill="none" xmlns="http://www.w3.org/2000/svg">
<path d="M13.0305 1.91373L2.04 0.24423C1.53 0.16473 1.0095 0.304231 0.6195 0.634231C0.2295 0.974731 0 1.46373 0 1.97373V23.0442C0 23.5947 0.45 24.0447 1.0005 24.0447H4.251V18.7947C4.251 17.8242 5.031 17.0442 6.0015 17.0442H8.502C9.4725 17.0442 10.2525 17.8242 10.2525 18.7947V24.0447H14.502V3.64473C14.5005 2.78373 13.8795 2.05473 13.0305 1.91373ZM5.5005 14.7942H4.0005C3.5865 14.7942 3.2505 14.4582 3.2505 14.0442C3.2505 13.6302 3.5865 13.2942 4.0005 13.2942H5.5005C5.9145 13.2942 6.2505 13.6302 6.2505 14.0442C6.2505 14.4582 5.9145 14.7942 5.5005 14.7942ZM5.5005 11.7942H4.0005C3.5865 11.7942 3.2505 11.4582 3.2505 11.0442C3.2505 10.6302 3.5865 10.2942 4.0005 10.2942H5.5005C5.9145 10.2942 6.2505 10.6302 6.2505 11.0442C6.2505 11.4582 5.9145 11.7942 5.5005 11.7942ZM5.5005 8.79423H4.0005C3.5865 8.79423 3.2505 8.45823 3.2505 8.04423C3.2505 7.63023 3.5865 7.29423 4.0005 7.29423H5.5005C5.9145 7.29423 6.2505 7.63023 6.2505 8.04423C6.2505 8.45823 5.9145 8.79423 5.5005 8.79423ZM5.5005 5.79423H4.0005C3.5865 5.79423 3.2505 5.45823 3.2505 5.04423C3.2505 4.63023 3.5865 4.29423 4.0005 4.29423H5.5005C5.9145 4.29423 6.2505 4.63023 6.2505 5.04423C6.2505 5.45823 5.9145 5.79423 5.5005 5.79423ZM10.5 14.7942H9C8.586 14.7942 8.25 14.4582 8.25 14.0442C8.25 13.6302 8.586 13.2942 9 13.2942H10.5C10.914 13.2942 11.25 13.6302 11.25 14.0442C11.25 14.4582 10.914 14.7942 10.5 14.7942ZM10.5 11.7942H9C8.586 11.7942 8.25 11.4582 8.25 11.0442C8.25 10.6302 8.586 10.2942 9 10.2942H10.5C10.914 10.2942 11.25 10.6302 11.25 11.0442C11.25 11.4582 10.914 11.7942 10.5 11.7942ZM10.5 8.79423H9C8.586 8.79423 8.25 8.45823 8.25 8.04423C8.25 7.63023 8.586 7.29423 9 7.29423H10.5C10.914 7.29423 11.25 7.63023 11.25 8.04423C11.25 8.45823 10.914 8.79423 10.5 8.79423ZM10.5 5.79423H9C8.586 5.79423 8.25 5.45823 8.25 5.04423C8.25 4.63023 8.586 4.29423 9 4.29423H10.5C10.914 4.29423 11.25 4.63023 11.25 5.04423C11.25 5.45823 10.914 5.79423 10.5 5.79423Z" fill="#232536"/>
</svg>
