<svg width="18" height="18" viewBox="0 0 18 18" fill="none" xmlns="http://www.w3.org/2000/svg">
<rect x="0.4875" y="0.4875" width="16.0875" height="16.0875" rx="8.04375" stroke="#E5DDFF" stroke-width="0.975"/>
<path fill-rule="evenodd" clip-rule="evenodd" d="M3.5547 7.82032C3.5547 5.46783 5.46783 3.5547 7.82032 3.5547C10.1728 3.5547 12.0859 5.46783 12.0859 7.82032C12.0859 10.1728 10.1728 12.0859 7.82032 12.0859C5.46783 12.0859 3.5547 10.1728 3.5547 7.82032ZM14.7214 13.7161L12.3078 11.3018C13.0564 10.3392 13.5078 9.1327 13.5078 7.82031C13.5078 4.68437 10.9563 2.13281 7.82031 2.13281C4.68437 2.13281 2.13281 4.68437 2.13281 7.82031C2.13281 10.9563 4.68437 13.5078 7.82031 13.5078C9.1327 13.5078 10.3392 13.0564 11.3018 12.3077L13.7161 14.7214C13.8548 14.86 14.0368 14.9297 14.2188 14.9297C14.4008 14.9297 14.5828 14.86 14.7214 14.7214C14.9994 14.4434 14.9994 13.9941 14.7214 13.7161Z" fill="#FBFBFB"/>
</svg>
