<svg width="23" height="17" viewBox="0 0 23 17" fill="none" xmlns="http://www.w3.org/2000/svg">
<path fill-rule="evenodd" clip-rule="evenodd" d="M13.7682 11.5771C9.10173 11.0096 5.69145 12.7772 3.30152 15.7162C2.88018 16.256 2.15347 16.4541 1.51624 16.2017C0.87771 15.9504 0.482861 15.3073 0.545845 14.6247C0.799953 11.7177 1.76384 9.07474 3.95048 7.17612C5.97641 5.41806 9.08653 4.28294 13.7682 4.2659V2.73572C13.7682 1.73264 14.4068 0.8403 15.3563 0.516587C16.3058 0.192875 17.3566 0.509134 17.9699 1.30244L22.249 6.83856C22.9014 7.68299 22.9014 8.8607 22.249 9.70512L17.9699 15.2412C17.3566 16.0346 16.3058 16.3508 15.3563 16.0271C14.4068 15.7034 13.7682 14.8111 13.7682 13.808V11.5771ZM2.10873 14.7046C4.94129 11.2364 9.02398 9.20039 14.6769 10.1279C15.0548 10.1907 15.332 10.5165 15.332 10.8999V13.808C15.332 14.1423 15.5448 14.4394 15.8615 14.548C16.1777 14.6556 16.5282 14.5502 16.7324 14.2861L21.0114 8.74996C21.229 8.46778 21.229 8.07592 21.0114 7.79373L16.7324 2.25761C16.5282 1.99353 16.1777 1.88811 15.8615 1.99566C15.5448 2.10427 15.332 2.40136 15.332 2.73572V5.05495C15.332 5.26579 15.2473 5.46705 15.0965 5.61399C14.9462 5.76094 14.743 5.84081 14.5323 5.83655C9.92574 5.73219 6.89684 6.68949 4.9756 8.35703C3.11561 9.97134 2.33287 12.2352 2.10873 14.7046Z" fill="#2972F1"/>
</svg>
