<svg width="287" height="160" viewBox="0 0 287 160" fill="none" xmlns="http://www.w3.org/2000/svg">
<path d="M153.145 159.993C150.402 159.993 148.156 158.991 148.156 157.768V94.0372C148.156 92.8139 150.402 91.8125 153.145 91.8125C155.889 91.8125 158.134 92.8139 158.134 94.0372V157.774C158.134 158.997 155.889 159.999 153.145 159.999V159.993Z" fill="#294A75"/>
<path d="M115.227 27.6406H196.052C214.782 27.6406 229.976 45.688 229.976 67.9064V114.879H81.3027V67.9064C81.3027 45.6744 96.5077 27.6406 115.227 27.6406Z" fill="#7755FF"/>
<path d="M158.284 107.262C158.284 107.179 158.284 107.097 158.284 107.015V71.188C158.284 50.6294 142.671 33.8125 123.57 33.8125C104.482 33.8125 88.8555 50.6294 88.8555 71.188V107.015C88.8555 107.097 88.8555 107.179 88.8555 107.262H158.256H158.284Z" fill="white"/>
<path d="M226.794 106.855H74.5053C72.7485 106.855 71.3242 108.594 71.3242 110.739V110.994C71.3242 113.139 72.7485 114.877 74.5053 114.877H226.794C228.551 114.877 229.975 113.139 229.975 110.994V110.739C229.975 108.594 228.551 106.855 226.794 106.855Z" fill="#113653"/>
<path d="M126.475 48.6149L126.828 92.1169C126.855 95.5296 124.397 98.353 121.384 98.3941L52.064 99.1205C49.0366 99.1479 46.5521 96.3794 46.5114 92.9667L46.1584 49.4646C46.1313 46.0519 48.575 43.2285 51.6024 43.1874L120.922 42.461C123.936 42.4336 126.447 45.2022 126.475 48.6149Z" fill="#FFF5BD"/>
<path opacity="0.28" d="M126.582 62.458L126.826 92.1172C126.853 95.53 124.396 98.3533 121.382 98.3945L52.0626 99.1209C49.0351 99.1483 46.5507 96.3797 46.51 92.967L46.2656 60.4296L88.2972 84.8395L126.568 62.4717L126.582 62.458Z" fill="#F2AF5C"/>
<path opacity="0.22" d="M46.2793 60.4141L72.807 75.8741L46.5101 94.1028L46.2793 60.4141Z" fill="#7755FF"/>
<path opacity="0.22" d="M126.367 62.7188L101.359 77.6032L126.638 92.9536L126.367 62.7188Z" fill="#7755FF"/>
<path d="M103.286 43.064C103.273 37.9655 99.0641 34.5391 94.5568 34.5391C91.9366 34.5391 89.6151 35.937 88.1217 38.1163C86.6284 35.937 84.3069 34.5391 81.6867 34.5391C77.1794 34.5391 73.541 38.6782 73.541 43.7767C73.541 46.4356 74.5321 48.8204 76.1205 50.5062L76.1883 50.5611C76.5142 50.9037 76.8536 51.2052 77.2201 51.4793L88.3525 61.3886V61.5257L88.434 61.4571L88.5154 61.5257V61.3886C91.9909 58.2911 95.6972 55.5088 98.9826 52.1235C101.155 49.8895 103.3 46.4905 103.286 43.0503V43.064Z" fill="#5C3BFE"/>
<path d="M61.2411 57.3164H29.9075C28.4754 57.3164 27.3145 58.4884 27.3145 59.9342V60.0987C27.3145 61.5444 28.4754 62.7165 29.9075 62.7165H61.2411C62.6732 62.7165 63.8341 61.5444 63.8341 60.0987V59.9342C63.8341 58.4884 62.6732 57.3164 61.2411 57.3164Z" fill="#FFF5BD"/>
<path d="M89.8602 70.7891H58.5266C57.0945 70.7891 55.9336 71.9611 55.9336 73.4069V73.5713C55.9336 75.0171 57.0945 76.1891 58.5266 76.1891H89.8602C91.2923 76.1891 92.4533 75.0171 92.4533 73.5713V73.4069C92.4533 71.9611 91.2923 70.7891 89.8602 70.7891Z" fill="#FFF5BD"/>
<path d="M48.7099 70.7891H17.3762C15.9441 70.7891 14.7832 71.9611 14.7832 73.4069V73.5713C14.7832 75.0171 15.9441 76.1891 17.3762 76.1891H48.7099C50.1419 76.1891 51.3029 75.0171 51.3029 73.5713V73.4069C51.3029 71.9611 50.1419 70.7891 48.7099 70.7891Z" fill="#FFF5BD"/>
<path d="M16.4271 57.7148H1.83277C0.820561 57.7148 0 58.5432 0 59.5651V61.2646C0 62.2865 0.820561 63.1149 1.83277 63.1149H16.4271C17.4393 63.1149 18.2598 62.2865 18.2598 61.2646V59.5651C18.2598 58.5432 17.4393 57.7148 16.4271 57.7148Z" fill="#FFF5BD"/>
<path d="M186.848 89.9788V5.27734" stroke="url(#paint0_linear_625_3402)" stroke-width="1.83" stroke-linecap="round" stroke-linejoin="round"/>
<path d="M188.246 5.27734V31.6472L215.941 18.4623L188.246 5.27734Z" fill="#FF6B00" stroke="url(#paint1_linear_625_3402)" stroke-width="1.83" stroke-linecap="round" stroke-linejoin="round"/>
<path d="M194.897 89.1026C194.897 93.2829 191.761 96.6545 187.878 96.6545C183.995 96.6545 180.859 93.2692 180.859 89.1026C180.859 84.9361 183.995 81.5508 187.878 81.5508C191.761 81.5508 194.897 84.9361 194.897 89.1026Z" fill="#FF6B00" stroke="url(#paint2_linear_625_3402)" stroke-width="1.83" stroke-linecap="round" stroke-linejoin="round"/>
<path d="M221.494 137.316L224.237 142.36L229.233 145.129L224.237 147.897L221.494 152.941L218.765 147.897L213.756 145.129L218.765 142.36L221.494 137.316Z" fill="#9DEFFD"/>
<path d="M257.527 152.668L258.722 154.888L260.921 156.094L258.722 157.301L257.527 159.521L256.332 157.301L254.133 156.094L256.332 154.888L257.527 152.668Z" fill="#9DEFFD"/>
<path d="M274.444 0.152344L277.947 6.60775L284.327 10.1301L277.947 13.6525L274.444 20.1079L270.955 13.6525L264.574 10.1301L270.955 6.60775L274.444 0.152344Z" fill="#9DEFFD"/>
<path d="M284.325 58.3164L285.275 60.0707L286.999 61.0301L285.275 61.9758L284.325 63.7302L283.375 61.9758L281.65 61.0301L283.375 60.0707L284.325 58.3164Z" fill="#9DEFFD"/>
<path d="M254.133 21.8047L256.061 25.3682L259.591 27.3144L256.061 29.2743L254.133 32.8378L252.206 29.2743L248.676 27.3144L252.206 25.3682L254.133 21.8047Z" fill="#9DEFFD"/>
<path d="M22.6048 11.375L26.2568 18.1182L32.9362 21.8051L26.2568 25.4919L22.6048 32.2351L18.9529 25.4919L12.2734 21.8051L18.9529 18.1182L22.6048 11.375Z" fill="#9DEFFD"/>
<path d="M26.0541 104.918L28.2398 108.947L32.2312 111.154L28.2398 113.361L26.0541 117.39L23.8683 113.361L19.877 111.154L23.8683 108.947L26.0541 104.918Z" fill="#9DEFFD"/>
<path d="M90.8526 124.777L92.4546 127.738L95.4006 129.369L92.4546 131L90.8526 133.96L89.237 131L86.291 129.369L89.237 127.738L90.8526 124.777Z" fill="#9DEFFD"/>
<path d="M112.399 0L114.259 3.41273L117.639 5.27671L114.259 7.15439L112.399 10.5671L110.552 7.15439L107.172 5.27671L110.552 3.41273L112.399 0Z" fill="#9DEFFD"/>
<defs>
<linearGradient id="paint0_linear_625_3402" x1="186.848" y1="5.27734" x2="187.943" y2="5.27881" gradientUnits="userSpaceOnUse">
<stop stop-color="#F33A21"/>
<stop offset="1" stop-color="#FDA21A"/>
</linearGradient>
<linearGradient id="paint1_linear_625_3402" x1="188.246" y1="5.27734" x2="218.156" y2="8.8314" gradientUnits="userSpaceOnUse">
<stop stop-color="#F33A21"/>
<stop offset="1" stop-color="#FDA21A"/>
</linearGradient>
<linearGradient id="paint2_linear_625_3402" x1="180.859" y1="81.5508" x2="196.066" y2="83.1498" gradientUnits="userSpaceOnUse">
<stop stop-color="#F33A21"/>
<stop offset="1" stop-color="#FDA21A"/>
</linearGradient>
</defs>
</svg>
